<?xml version="1.0" encoding="us-ascii" standalone="no"?><svg xmlns="http://www.w3.org/2000/svg" xmlns:xlink="http://www.w3.org/1999/xlink" contentStyleType="text/css" height="721px" preserveAspectRatio="none" style="width:718px;height:721px;background:#FFFFFF;" version="1.1" viewBox="0 0 718 721" width="718px" zoomAndPan="magnify"><defs/><g><text fill="#000000" font-family="sans-serif" font-size="14" font-weight="bold" lengthAdjust="spacing" textLength="48" x="328.25" y="23.5352">DB&#35373;&#35336;</text><text fill="#000000" font-family="sans-serif" font-size="14" font-weight="bold" lengthAdjust="spacing" textLength="5" x="349.75" y="40.0234">&#160;</text><text fill="#000000" font-family="sans-serif" font-size="14" font-weight="bold" lengthAdjust="spacing" textLength="279" x="212.75" y="56.5117">&#65288;&#12459;&#12521;&#12512;&#21517;&#12398;&#21069;&#12398;&#12300;#&#65288;&#33777;&#24418;&#65289;&#12301;&#12399;FK&#12391;&#12377;&#65289;</text><text fill="#000000" font-family="sans-serif" font-size="14" font-weight="bold" lengthAdjust="spacing" textLength="315" x="194.75" y="73">&#65288;&#12459;&#12521;&#12512;&#21517;&#12398;&#21069;&#12398;&#12300;*&#65288;&#40658;&#20024;&#65289;&#12301;&#12399;&#24517;&#38920;&#38917;&#30446;&#12391;&#12377;&#65289;</text><text fill="#000000" font-family="sans-serif" font-size="14" font-weight="bold" lengthAdjust="spacing" textLength="390" x="157.25" y="89.4883">&#65288;&#20840;&#12486;&#12540;&#12502;&#12523;&#12395;created_at&#12392;updated_at&#12459;&#12521;&#12512;&#12364;&#20184;&#12365;&#12414;&#12377;&#65289;</text><text fill="#000000" font-family="sans-serif" font-size="14" font-weight="bold" lengthAdjust="spacing" textLength="5" x="349.75" y="105.9766">&#160;</text><!--class m_users--><g id="elem_m_users"><rect codeLine="15" fill="#F1F1F1" height="108.4414" id="m_users" rx="2.5" ry="2.5" style="stroke:#181818;stroke-width:0.5;" width="187" x="228" y="126.9297"/><text fill="#000000" font-family="sans-serif" font-size="14" lengthAdjust="spacing" textLength="181" x="231" y="145.4648">m_users : &#12518;&#12540;&#12470;&#12540;&#12486;&#12540;&#12502;&#12523;</text><line style="stroke:#181818;stroke-width:0.5;" x1="229" x2="414" y1="153.418" y2="153.418"/><ellipse cx="239" cy="167.1621" fill="#000000" rx="3" ry="3" style="stroke:#000000;stroke-width:1.0;"/><text fill="#000000" font-family="sans-serif" font-size="14" lengthAdjust="spacing" textLength="13" x="248" y="170.9531">id</text><line style="stroke:#181818;stroke-width:1.0;" x1="229" x2="414" y1="177.9063" y2="177.9063"/><ellipse cx="239" cy="191.6504" fill="#000000" rx="3" ry="3" style="stroke:#000000;stroke-width:1.0;"/><text fill="#000000" font-family="sans-serif" font-size="14" lengthAdjust="spacing" textLength="112" x="248" y="195.4414">family_name : &#27663;</text><ellipse cx="239" cy="208.1387" fill="#000000" rx="3" ry="3" style="stroke:#000000;stroke-width:1.0;"/><text fill="#000000" font-family="sans-serif" font-size="14" lengthAdjust="spacing" textLength="98" x="248" y="211.9297">first_name : &#21517;</text><ellipse cx="239" cy="224.627" fill="#000000" rx="3" ry="3" style="stroke:#000000;stroke-width:1.0;"/><text fill="#000000" font-family="sans-serif" font-size="14" lengthAdjust="spacing" textLength="147" x="248" y="228.418">email : &#12513;&#12540;&#12523;&#12450;&#12489;&#12524;&#12473;</text></g><!--class t_directories--><g id="elem_t_directories"><rect codeLine="23" fill="#F1F1F1" height="108.4414" id="t_directories" rx="2.5" ry="2.5" style="stroke:#181818;stroke-width:0.5;" width="243" x="51" y="444.9297"/><text fill="#000000" font-family="sans-serif" font-size="14" lengthAdjust="spacing" textLength="237" x="54" y="463.4648">t_directories : &#12487;&#12451;&#12524;&#12463;&#12488;&#12522;&#12486;&#12540;&#12502;&#12523;</text><line style="stroke:#181818;stroke-width:0.5;" x1="52" x2="293" y1="471.418" y2="471.418"/><ellipse cx="62" cy="485.1621" fill="#000000" rx="3" ry="3" style="stroke:#000000;stroke-width:1.0;"/><text fill="#000000" font-family="sans-serif" font-size="14" lengthAdjust="spacing" textLength="13" x="71" y="488.9531">id</text><line style="stroke:#181818;stroke-width:1.0;" x1="52" x2="293" y1="495.9063" y2="495.9063"/><polygon fill="none" points="62,504.6504,66,508.6504,62,512.6504,58,508.6504" style="stroke:#B38D22;stroke-width:1.0;"/><text fill="#000000" font-family="sans-serif" font-size="14" lengthAdjust="spacing" textLength="99" x="71" y="513.4414">create_user_id</text><polygon fill="none" points="62,521.1387,66,525.1387,62,529.1387,58,525.1387" style="stroke:#B38D22;stroke-width:1.0;"/><text fill="#000000" font-family="sans-serif" font-size="14" lengthAdjust="spacing" textLength="105" x="71" y="529.9297">update_user_id</text><ellipse cx="62" cy="542.627" fill="#000000" rx="3" ry="3" style="stroke:#000000;stroke-width:1.0;"/><text fill="#000000" font-family="sans-serif" font-size="14" lengthAdjust="spacing" textLength="38" x="71" y="546.418">name</text></g><!--class t_documents--><g id="elem_t_documents"><rect codeLine="31" fill="#F1F1F1" height="157.9063" id="t_documents" rx="2.5" ry="2.5" style="stroke:#181818;stroke-width:0.5;" width="246" x="347.5" y="419.9297"/><text fill="#000000" font-family="sans-serif" font-size="14" lengthAdjust="spacing" textLength="240" x="350.5" y="438.4648">t_documents : &#12489;&#12461;&#12517;&#12513;&#12531;&#12488;&#12486;&#12540;&#12502;&#12523;</text><line style="stroke:#181818;stroke-width:0.5;" x1="348.5" x2="592.5" y1="446.418" y2="446.418"/><ellipse cx="358.5" cy="460.1621" fill="#000000" rx="3" ry="3" style="stroke:#000000;stroke-width:1.0;"/><text fill="#000000" font-family="sans-serif" font-size="14" lengthAdjust="spacing" textLength="13" x="367.5" y="463.9531">id</text><line style="stroke:#181818;stroke-width:1.0;" x1="348.5" x2="592.5" y1="470.9063" y2="470.9063"/><polygon fill="none" points="358.5,479.6504,362.5,483.6504,358.5,487.6504,354.5,483.6504" style="stroke:#B38D22;stroke-width:1.0;"/><text fill="#000000" font-family="sans-serif" font-size="14" lengthAdjust="spacing" textLength="81" x="367.5" y="488.4414">directory_id</text><polygon fill="none" points="358.5,496.1387,362.5,500.1387,358.5,504.1387,354.5,500.1387" style="stroke:#B38D22;stroke-width:1.0;"/><text fill="#000000" font-family="sans-serif" font-size="14" lengthAdjust="spacing" textLength="99" x="367.5" y="504.9297">create_user_id</text><polygon fill="none" points="358.5,512.627,362.5,516.627,358.5,520.627,354.5,516.627" style="stroke:#B38D22;stroke-width:1.0;"/><text fill="#000000" font-family="sans-serif" font-size="14" lengthAdjust="spacing" textLength="105" x="367.5" y="521.418">update_user_id</text><ellipse cx="358.5" cy="534.1152" fill="#000000" rx="3" ry="3" style="stroke:#000000;stroke-width:1.0;"/><text fill="#000000" font-family="sans-serif" font-size="14" lengthAdjust="spacing" textLength="38" x="367.5" y="537.9063">name</text><ellipse cx="358.5" cy="550.6035" fill="#000000" rx="3" ry="3" style="stroke:#000000;stroke-width:1.0;"/><text fill="#000000" font-family="sans-serif" font-size="14" lengthAdjust="spacing" textLength="52" x="367.5" y="554.3945">content</text><ellipse cx="358.5" cy="567.0918" fill="#000000" rx="3" ry="3" style="stroke:#000000;stroke-width:1.0;"/><text fill="#000000" font-family="sans-serif" font-size="14" lengthAdjust="spacing" textLength="69" x="367.5" y="570.8828">is_deleted</text></g><!--class t_directory_closures--><g id="elem_t_directory_closures"><rect codeLine="42" fill="#F1F1F1" height="75.4648" id="t_directory_closures" rx="2.5" ry="2.5" style="stroke:#181818;stroke-width:0.5;" width="327" x="9" y="638.9297"/><text fill="#000000" font-family="sans-serif" font-size="14" lengthAdjust="spacing" textLength="321" x="12" y="657.4648">t_directory_closures : &#12487;&#12451;&#12524;&#12463;&#12488;&#12522; &#38281;&#21253;&#12486;&#12540;&#12502;&#12523;</text><line style="stroke:#181818;stroke-width:0.5;" x1="10" x2="335" y1="665.418" y2="665.418"/><polygon fill="none" points="20,674.1621,24,678.1621,20,682.1621,16,678.1621" style="stroke:#B38D22;stroke-width:1.0;"/><text fill="#000000" font-family="sans-serif" font-size="14" lengthAdjust="spacing" textLength="59" x="29" y="682.9531">ancestor</text><polygon fill="none" points="20,690.6504,24,694.6504,20,698.6504,16,694.6504" style="stroke:#B38D22;stroke-width:1.0;"/><text fill="#000000" font-family="sans-serif" font-size="14" lengthAdjust="spacing" textLength="79" x="29" y="699.4414">descendant</text><line style="stroke:#181818;stroke-width:1.0;" x1="10" x2="335" y1="706.3945" y2="706.3945"/></g><!--link m_users to t_directories--><g id="link_m_users_t_directories"><path codeLine="48" d="M233.67,241.5297 C216.66,257.2197 200.9,275.5397 190.5,295.9297 C168.6,338.8497 164.97,393.5997 166.34,435.2697 " fill="none" id="m_users-t_directories" style="stroke:#181818;stroke-width:1.0;"/><line style="stroke:#181818;stroke-width:1.0;" x1="233.7319" x2="239.0654" y1="236.1151" y2="242.0778"/><line style="stroke:#181818;stroke-width:1.0;" x1="231.4959" x2="236.8294" y1="238.1152" y2="244.0779"/><line style="stroke:#181818;stroke-width:1.0;" x1="233.4173" x2="239.38" y1="241.7632" y2="236.4297"/><line style="stroke:#181818;stroke-width:1.0;" x1="166.3511" x2="172.6749" y1="435.2565" y2="443.003"/><line style="stroke:#181818;stroke-width:1.0;" x1="166.3511" x2="160.6851" y1="435.2565" y2="443.4963"/><line style="stroke:#181818;stroke-width:1.0;" x1="166.3511" x2="166.68" y1="435.2565" y2="443.2497"/><ellipse cx="166.1045" cy="429.2615" fill="none" rx="4" ry="4" style="stroke:#181818;stroke-width:1.0;"/><text fill="#000000" font-family="sans-serif" font-size="13" lengthAdjust="spacing" textLength="239" x="194" y="309.498">m_users : t_directories.create_user_id</text><text fill="#000000" font-family="sans-serif" font-size="13" lengthAdjust="spacing" textLength="81" x="275" y="324.8086">= 1 : 0&#20197;&#19978;&#12289;</text><text fill="#000000" font-family="sans-serif" font-size="13" lengthAdjust="spacing" textLength="244" x="191.5" y="340.1191">m_users : t_directories.update_user_id</text><text fill="#000000" font-family="sans-serif" font-size="13" lengthAdjust="spacing" textLength="68" x="281.5" y="355.4297">= 1 : 0&#20197;&#19978;</text></g><!--link m_users to t_documents--><g id="link_m_users_t_documents"><path codeLine="49" d="M398.88,241.5297 C414.98,257.5097 430.18,275.9597 440.5,295.9297 C458.51,330.7697 466.56,373.2197 469.89,410.1997 " fill="none" id="m_users-t_documents" style="stroke:#181818;stroke-width:1.0;"/><line style="stroke:#181818;stroke-width:1.0;" x1="393.61" x2="399.166" y1="242.0057" y2="236.2497"/><line style="stroke:#181818;stroke-width:1.0;" x1="395.7685" x2="401.3245" y1="244.0892" y2="238.3332"/><line style="stroke:#181818;stroke-width:1.0;" x1="399.2659" x2="393.51" y1="241.9057" y2="236.3497"/><line style="stroke:#181818;stroke-width:1.0;" x1="469.8769" x2="476.5006" y1="409.9856" y2="417.4774"/><line style="stroke:#181818;stroke-width:1.0;" x1="469.8769" x2="464.5394" y1="409.9856" y2="418.442"/><line style="stroke:#181818;stroke-width:1.0;" x1="469.8769" x2="470.52" y1="409.9856" y2="417.9597"/><ellipse cx="469.3946" cy="404.005" fill="none" rx="4" ry="4" style="stroke:#181818;stroke-width:1.0;"/><text fill="#000000" font-family="sans-serif" font-size="13" lengthAdjust="spacing" textLength="242" x="466" y="309.498">m_users : t_documents.create_user_id</text><text fill="#000000" font-family="sans-serif" font-size="13" lengthAdjust="spacing" textLength="81" x="548.5" y="324.8086">= 1 : 0&#20197;&#19978;&#12289;</text><text fill="#000000" font-family="sans-serif" font-size="13" lengthAdjust="spacing" textLength="247" x="463.5" y="340.1191">m_users : t_documents.update_user_id</text><text fill="#000000" font-family="sans-serif" font-size="13" lengthAdjust="spacing" textLength="68" x="555" y="355.4297">= 1 : 0&#20197;&#19978;</text></g><!--link t_directories to t_documents--><g id="link_t_directories_t_documents"><path codeLine="50" d="M303.89,498.9297 C315.13,498.9297 326.37,498.9297 337.61,498.9297 " fill="none" id="t_directories-t_documents" style="stroke:#181818;stroke-width:1.0;"/><line style="stroke:#181818;stroke-width:1.0;" x1="299.95" x2="299.95" y1="502.9297" y2="494.9297"/><line style="stroke:#181818;stroke-width:1.0;" x1="302.95" x2="302.95" y1="502.9297" y2="494.9297"/><line style="stroke:#181818;stroke-width:1.0;" x1="303.95" x2="295.95" y1="498.9297" y2="498.9297"/><line style="stroke:#181818;stroke-width:1.0;" x1="337.54" x2="345.5507" y1="498.9154" y2="492.9297"/><line style="stroke:#181818;stroke-width:1.0;" x1="337.54" x2="345.5293" y1="498.9154" y2="504.9297"/><line style="stroke:#181818;stroke-width:1.0;" x1="337.54" x2="345.54" y1="498.9154" y2="498.9297"/><line style="stroke:#181818;stroke-width:1.0;" x1="335.5472" x2="335.5329" y1="494.9118" y2="502.9118"/></g><!--link t_directories to t_directory_closures--><g id="link_t_directories_t_directory_closures"><path codeLine="51" d="M172.5,562.3097 C172.5,584.3597 172.5,608.7397 172.5,629.1997 " fill="none" id="t_directories-t_directory_closures" style="stroke:#181818;stroke-width:1.0;"/><line style="stroke:#181818;stroke-width:1.0;" x1="168.5" x2="176.5" y1="558.5797" y2="558.5797"/><line style="stroke:#181818;stroke-width:1.0;" x1="168.5" x2="176.5" y1="561.5797" y2="561.5797"/><line style="stroke:#181818;stroke-width:1.0;" x1="172.5" x2="172.5" y1="562.5797" y2="554.5797"/><line style="stroke:#181818;stroke-width:1.0;" x1="172.5" x2="178.5" y1="629.0897" y2="637.0897"/><line style="stroke:#181818;stroke-width:1.0;" x1="172.5" x2="166.5" y1="629.0897" y2="637.0897"/><line style="stroke:#181818;stroke-width:1.0;" x1="172.5" x2="172.5" y1="629.0897" y2="637.0897"/><line style="stroke:#181818;stroke-width:1.0;" x1="176.5" x2="168.5" y1="627.0897" y2="627.0897"/></g><!--SRC=[bPBFYzD05CVlyrSCsuDGoA9NmOk85_-5XH2IaHt8ZoMP7ifMQ39K6wciU5WKBtLbtMhT7o98fLN_cDTeUzf_mPT9qtPITzLBClETzxxlyzxC3RhB7KR5BgFHNY28sjayj5r6YE02V_VkpWQdiq6NaCj95v8XoFSW-zdpPn2VPMd-XNQlXcUpWq_PjwFBIGfjLC_lFu3u1E9NA5oNMSUp-VZ5T3HQPcO_ElD-Tzxl_7fzfdbadG78no0d80z13Y4UsY6p17DCIq0yQEmvvQOi1d5lEdu9CTf-N_WGvZj5P_aILqswvPcDY8KHlKr1lilzao-goghM5hKYMeRj4qhhtC6lOUJBXvR7tQRfMnv3YvyN1qhaOIHA3PlEDUPPt5LLtYZd8IH785EG7o7vIXwjW8Jfy93P8WWvAx2UGF9MnPs3x8Byi06dfrGGQyMW5B-fv5enhJMbdhDM80AxuU6sG4WXEGLvhE0_AufDX6L25Q24QoxA_pCG_kt05sYg72FJOIx3Q_xpk9gcxGPH8xnYQdH-c6QzpZN3MpF8MwXPliqYr5KFBBBnzLWA1Tj2Wl99j5g6OGJxj7fngvUbdMphxU_uz0wzXK4tf-FZwUWfjECT_wfKVKxLL8se05gxHCsprFyRPfdu5nHz60WK6YsDQ3F2MKHit0Rv3G00]--></g></svg>