<?xml version="1.0" encoding="us-ascii" standalone="no"?><svg xmlns="http://www.w3.org/2000/svg" xmlns:xlink="http://www.w3.org/1999/xlink" contentStyleType="text/css" height="737px" preserveAspectRatio="none" style="width:718px;height:737px;background:#FFFFFF;" version="1.1" viewBox="0 0 718 737" width="718px" zoomAndPan="magnify"><defs/><g><text fill="#000000" font-family="sans-serif" font-size="14" font-weight="bold" lengthAdjust="spacing" textLength="48" x="328.25" y="23.5352">DB&#35373;&#35336;</text><text fill="#000000" font-family="sans-serif" font-size="14" font-weight="bold" lengthAdjust="spacing" textLength="5" x="349.75" y="40.0234">&#160;</text><text fill="#000000" font-family="sans-serif" font-size="14" font-weight="bold" lengthAdjust="spacing" textLength="279" x="212.75" y="56.5117">&#65288;&#12459;&#12521;&#12512;&#21517;&#12398;&#21069;&#12398;&#12300;#&#65288;&#33777;&#24418;&#65289;&#12301;&#12399;FK&#12391;&#12377;&#65289;</text><text fill="#000000" font-family="sans-serif" font-size="14" font-weight="bold" lengthAdjust="spacing" textLength="315" x="194.75" y="73">&#65288;&#12459;&#12521;&#12512;&#21517;&#12398;&#21069;&#12398;&#12300;*&#65288;&#40658;&#20024;&#65289;&#12301;&#12399;&#24517;&#38920;&#38917;&#30446;&#12391;&#12377;&#65289;</text><text fill="#000000" font-family="sans-serif" font-size="14" font-weight="bold" lengthAdjust="spacing" textLength="390" x="157.25" y="89.4883">&#65288;&#20840;&#12486;&#12540;&#12502;&#12523;&#12395;created_at&#12392;updated_at&#12459;&#12521;&#12512;&#12364;&#20184;&#12365;&#12414;&#12377;&#65289;</text><text fill="#000000" font-family="sans-serif" font-size="14" font-weight="bold" lengthAdjust="spacing" textLength="5" x="349.75" y="105.9766">&#160;</text><!--class m_users--><g id="elem_m_users"><rect codeLine="15" fill="#F1F1F1" height="108.4414" id="m_users" rx="2.5" ry="2.5" style="stroke:#181818;stroke-width:0.5;" width="187" x="228" y="126.9297"/><text fill="#000000" font-family="sans-serif" font-size="14" lengthAdjust="spacing" textLength="181" x="231" y="145.4648">m_users : &#12518;&#12540;&#12470;&#12540;&#12486;&#12540;&#12502;&#12523;</text><line style="stroke:#181818;stroke-width:0.5;" x1="229" x2="414" y1="153.418" y2="153.418"/><ellipse cx="239" cy="167.1621" fill="#000000" rx="3" ry="3" style="stroke:#000000;stroke-width:1.0;"/><text fill="#000000" font-family="sans-serif" font-size="14" lengthAdjust="spacing" textLength="13" x="248" y="170.9531">id</text><line style="stroke:#181818;stroke-width:1.0;" x1="229" x2="414" y1="177.9063" y2="177.9063"/><ellipse cx="239" cy="191.6504" fill="#000000" rx="3" ry="3" style="stroke:#000000;stroke-width:1.0;"/><text fill="#000000" font-family="sans-serif" font-size="14" lengthAdjust="spacing" textLength="112" x="248" y="195.4414">family_name : &#27663;</text><ellipse cx="239" cy="208.1387" fill="#000000" rx="3" ry="3" style="stroke:#000000;stroke-width:1.0;"/><text fill="#000000" font-family="sans-serif" font-size="14" lengthAdjust="spacing" textLength="98" x="248" y="211.9297">first_name : &#21517;</text><ellipse cx="239" cy="224.627" fill="#000000" rx="3" ry="3" style="stroke:#000000;stroke-width:1.0;"/><text fill="#000000" font-family="sans-serif" font-size="14" lengthAdjust="spacing" textLength="147" x="248" y="228.418">email : &#12513;&#12540;&#12523;&#12450;&#12489;&#12524;&#12473;</text></g><!--class t_directories--><g id="elem_t_directories"><rect codeLine="23" fill="#F1F1F1" height="108.4414" id="t_directories" rx="2.5" ry="2.5" style="stroke:#181818;stroke-width:0.5;" width="243" x="51" y="452.9297"/><text fill="#000000" font-family="sans-serif" font-size="14" lengthAdjust="spacing" textLength="237" x="54" y="471.4648">t_directories : &#12487;&#12451;&#12524;&#12463;&#12488;&#12522;&#12486;&#12540;&#12502;&#12523;</text><line style="stroke:#181818;stroke-width:0.5;" x1="52" x2="293" y1="479.418" y2="479.418"/><ellipse cx="62" cy="493.1621" fill="#000000" rx="3" ry="3" style="stroke:#000000;stroke-width:1.0;"/><text fill="#000000" font-family="sans-serif" font-size="14" lengthAdjust="spacing" textLength="13" x="71" y="496.9531">id</text><line style="stroke:#181818;stroke-width:1.0;" x1="52" x2="293" y1="503.9063" y2="503.9063"/><polygon fill="none" points="62,512.6504,66,516.6504,62,520.6504,58,516.6504" style="stroke:#B38D22;stroke-width:1.0;"/><text fill="#000000" font-family="sans-serif" font-size="14" lengthAdjust="spacing" textLength="99" x="71" y="521.4414">create_user_id</text><polygon fill="none" points="62,529.1387,66,533.1387,62,537.1387,58,533.1387" style="stroke:#B38D22;stroke-width:1.0;"/><text fill="#000000" font-family="sans-serif" font-size="14" lengthAdjust="spacing" textLength="105" x="71" y="537.9297">update_user_id</text><ellipse cx="62" cy="550.627" fill="#000000" rx="3" ry="3" style="stroke:#000000;stroke-width:1.0;"/><text fill="#000000" font-family="sans-serif" font-size="14" lengthAdjust="spacing" textLength="38" x="71" y="554.418">name</text></g><!--class t_documents--><g id="elem_t_documents"><rect codeLine="31" fill="#F1F1F1" height="174.3945" id="t_documents" rx="2.5" ry="2.5" style="stroke:#181818;stroke-width:0.5;" width="246" x="347.5" y="419.9297"/><text fill="#000000" font-family="sans-serif" font-size="14" lengthAdjust="spacing" textLength="240" x="350.5" y="438.4648">t_documents : &#12489;&#12461;&#12517;&#12513;&#12531;&#12488;&#12486;&#12540;&#12502;&#12523;</text><line style="stroke:#181818;stroke-width:0.5;" x1="348.5" x2="592.5" y1="446.418" y2="446.418"/><ellipse cx="358.5" cy="460.1621" fill="#000000" rx="3" ry="3" style="stroke:#000000;stroke-width:1.0;"/><text fill="#000000" font-family="sans-serif" font-size="14" lengthAdjust="spacing" textLength="13" x="367.5" y="463.9531">id</text><line style="stroke:#181818;stroke-width:1.0;" x1="348.5" x2="592.5" y1="470.9063" y2="470.9063"/><polygon fill="none" points="358.5,479.6504,362.5,483.6504,358.5,487.6504,354.5,483.6504" style="stroke:#B38D22;stroke-width:1.0;"/><text fill="#000000" font-family="sans-serif" font-size="14" lengthAdjust="spacing" textLength="81" x="367.5" y="488.4414">directory_id</text><ellipse cx="358.5" cy="501.1387" fill="#000000" rx="3" ry="3" style="stroke:#000000;stroke-width:1.0;"/><text fill="#000000" font-family="sans-serif" font-size="14" lengthAdjust="spacing" textLength="93" x="367.5" y="504.9297">display_order</text><polygon fill="none" points="358.5,512.627,362.5,516.627,358.5,520.627,354.5,516.627" style="stroke:#B38D22;stroke-width:1.0;"/><text fill="#000000" font-family="sans-serif" font-size="14" lengthAdjust="spacing" textLength="99" x="367.5" y="521.418">create_user_id</text><polygon fill="none" points="358.5,529.1152,362.5,533.1152,358.5,537.1152,354.5,533.1152" style="stroke:#B38D22;stroke-width:1.0;"/><text fill="#000000" font-family="sans-serif" font-size="14" lengthAdjust="spacing" textLength="105" x="367.5" y="537.9063">update_user_id</text><ellipse cx="358.5" cy="550.6035" fill="#000000" rx="3" ry="3" style="stroke:#000000;stroke-width:1.0;"/><text fill="#000000" font-family="sans-serif" font-size="14" lengthAdjust="spacing" textLength="38" x="367.5" y="554.3945">name</text><ellipse cx="358.5" cy="567.0918" fill="#000000" rx="3" ry="3" style="stroke:#000000;stroke-width:1.0;"/><text fill="#000000" font-family="sans-serif" font-size="14" lengthAdjust="spacing" textLength="52" x="367.5" y="570.8828">content</text><ellipse cx="358.5" cy="583.5801" fill="#000000" rx="3" ry="3" style="stroke:#000000;stroke-width:1.0;"/><text fill="#000000" font-family="sans-serif" font-size="14" lengthAdjust="spacing" textLength="69" x="367.5" y="587.3711">is_deleted</text></g><!--class t_directory_closures--><g id="elem_t_directory_closures"><rect codeLine="43" fill="#F1F1F1" height="75.4648" id="t_directory_closures" rx="2.5" ry="2.5" style="stroke:#181818;stroke-width:0.5;" width="327" x="9" y="654.9297"/><text fill="#000000" font-family="sans-serif" font-size="14" lengthAdjust="spacing" textLength="321" x="12" y="673.4648">t_directory_closures : &#12487;&#12451;&#12524;&#12463;&#12488;&#12522; &#38281;&#21253;&#12486;&#12540;&#12502;&#12523;</text><line style="stroke:#181818;stroke-width:0.5;" x1="10" x2="335" y1="681.418" y2="681.418"/><polygon fill="none" points="20,690.1621,24,694.1621,20,698.1621,16,694.1621" style="stroke:#B38D22;stroke-width:1.0;"/><text fill="#000000" font-family="sans-serif" font-size="14" lengthAdjust="spacing" textLength="59" x="29" y="698.9531">ancestor</text><polygon fill="none" points="20,706.6504,24,710.6504,20,714.6504,16,710.6504" style="stroke:#B38D22;stroke-width:1.0;"/><text fill="#000000" font-family="sans-serif" font-size="14" lengthAdjust="spacing" textLength="79" x="29" y="715.4414">descendant</text><line style="stroke:#181818;stroke-width:1.0;" x1="10" x2="335" y1="722.3945" y2="722.3945"/></g><!--link m_users to t_directories--><g id="link_m_users_t_directories"><path codeLine="49" d="M233.62,241.4997 C216.61,257.1897 200.87,275.5197 190.5,295.9297 C167.41,341.3697 164.12,399.5197 165.92,443.1097 " fill="none" id="m_users-t_directories" style="stroke:#181818;stroke-width:1.0;"/><line style="stroke:#181818;stroke-width:1.0;" x1="233.6819" x2="239.0154" y1="236.0951" y2="242.0578"/><line style="stroke:#181818;stroke-width:1.0;" x1="231.4459" x2="236.7794" y1="238.0952" y2="244.0579"/><line style="stroke:#181818;stroke-width:1.0;" x1="233.3673" x2="239.33" y1="241.7432" y2="236.4097"/><line style="stroke:#181818;stroke-width:1.0;" x1="165.9098" x2="172.3025" y1="442.9597" y2="450.6495"/><line style="stroke:#181818;stroke-width:1.0;" x1="165.9098" x2="160.3175" y1="442.9597" y2="451.2498"/><line style="stroke:#181818;stroke-width:1.0;" x1="165.9098" x2="166.31" y1="442.9597" y2="450.9497"/><ellipse cx="165.6096" cy="436.9672" fill="none" rx="4" ry="4" style="stroke:#181818;stroke-width:1.0;"/><text fill="#000000" font-family="sans-serif" font-size="13" lengthAdjust="spacing" textLength="239" x="194" y="309.498">m_users : t_directories.create_user_id</text><text fill="#000000" font-family="sans-serif" font-size="13" lengthAdjust="spacing" textLength="81" x="275" y="324.8086">= 1 : 0&#20197;&#19978;&#12289;</text><text fill="#000000" font-family="sans-serif" font-size="13" lengthAdjust="spacing" textLength="244" x="191.5" y="340.1191">m_users : t_directories.update_user_id</text><text fill="#000000" font-family="sans-serif" font-size="13" lengthAdjust="spacing" textLength="68" x="281.5" y="355.4297">= 1 : 0&#20197;&#19978;</text></g><!--link m_users to t_documents--><g id="link_m_users_t_documents"><path codeLine="50" d="M398.96,241.4897 C415.06,257.4697 430.23,275.9297 440.5,295.9297 C458.37,330.7397 466.58,372.8297 470.06,410.1497 " fill="none" id="m_users-t_documents" style="stroke:#181818;stroke-width:1.0;"/><line style="stroke:#181818;stroke-width:1.0;" x1="393.69" x2="399.246" y1="241.9657" y2="236.2097"/><line style="stroke:#181818;stroke-width:1.0;" x1="395.8485" x2="401.4045" y1="244.0492" y2="238.2932"/><line style="stroke:#181818;stroke-width:1.0;" x1="399.3459" x2="393.59" y1="241.8657" y2="236.3097"/><line style="stroke:#181818;stroke-width:1.0;" x1="470.0485" x2="476.6988" y1="410.0579" y2="417.5261"/><line style="stroke:#181818;stroke-width:1.0;" x1="470.0485" x2="464.7412" y1="410.0579" y2="418.5333"/><line style="stroke:#181818;stroke-width:1.0;" x1="470.0485" x2="470.72" y1="410.0579" y2="418.0297"/><ellipse cx="469.5449" cy="404.0791" fill="none" rx="4" ry="4" style="stroke:#181818;stroke-width:1.0;"/><text fill="#000000" font-family="sans-serif" font-size="13" lengthAdjust="spacing" textLength="242" x="466" y="309.498">m_users : t_documents.create_user_id</text><text fill="#000000" font-family="sans-serif" font-size="13" lengthAdjust="spacing" textLength="81" x="548.5" y="324.8086">= 1 : 0&#20197;&#19978;&#12289;</text><text fill="#000000" font-family="sans-serif" font-size="13" lengthAdjust="spacing" textLength="247" x="463.5" y="340.1191">m_users : t_documents.update_user_id</text><text fill="#000000" font-family="sans-serif" font-size="13" lengthAdjust="spacing" textLength="68" x="555" y="355.4297">= 1 : 0&#20197;&#19978;</text></g><!--link t_directories to t_documents--><g id="link_t_directories_t_documents"><path codeLine="51" d="M303.89,506.9297 C315.13,506.9297 326.37,506.9297 337.61,506.9297 " fill="none" id="t_directories-t_documents" style="stroke:#181818;stroke-width:1.0;"/><line style="stroke:#181818;stroke-width:1.0;" x1="299.95" x2="299.95" y1="510.9297" y2="502.9297"/><line style="stroke:#181818;stroke-width:1.0;" x1="302.95" x2="302.95" y1="510.9297" y2="502.9297"/><line style="stroke:#181818;stroke-width:1.0;" x1="303.95" x2="295.95" y1="506.9297" y2="506.9297"/><line style="stroke:#181818;stroke-width:1.0;" x1="337.54" x2="345.5507" y1="506.9154" y2="500.9297"/><line style="stroke:#181818;stroke-width:1.0;" x1="337.54" x2="345.5293" y1="506.9154" y2="512.9297"/><line style="stroke:#181818;stroke-width:1.0;" x1="337.54" x2="345.54" y1="506.9154" y2="506.9297"/><line style="stroke:#181818;stroke-width:1.0;" x1="335.5472" x2="335.5329" y1="502.9118" y2="510.9118"/></g><!--link t_directories to t_directory_closures--><g id="link_t_directories_t_directory_closures"><path codeLine="52" d="M172.5,570.3197 C172.5,594.8097 172.5,622.4197 172.5,645.0897 " fill="none" id="t_directories-t_directory_closures" style="stroke:#181818;stroke-width:1.0;"/><line style="stroke:#181818;stroke-width:1.0;" x1="168.5" x2="176.5" y1="566.5197" y2="566.5197"/><line style="stroke:#181818;stroke-width:1.0;" x1="168.5" x2="176.5" y1="569.5197" y2="569.5197"/><line style="stroke:#181818;stroke-width:1.0;" x1="172.5" x2="172.5" y1="570.5197" y2="562.5197"/><line style="stroke:#181818;stroke-width:1.0;" x1="172.5" x2="178.5" y1="644.9597" y2="652.9597"/><line style="stroke:#181818;stroke-width:1.0;" x1="172.5" x2="166.5" y1="644.9597" y2="652.9597"/><line style="stroke:#181818;stroke-width:1.0;" x1="172.5" x2="172.5" y1="644.9597" y2="652.9597"/><line style="stroke:#181818;stroke-width:1.0;" x1="176.5" x2="168.5" y1="642.9597" y2="642.9597"/></g><!--SRC=[bPBFQnD15CVl-rSCpK48hEXLy2BYnN-Xi2mx8rtO7s5cSWYDaDqXcfL8nKDHlCHARJIsLGI99EeVyxAQdFel-7OscsGtjjBB_FZE-_5vxyqDikTIHkGU8w8HIaFV79Sx7ZCCwKhSxj-R3q_dmvvXN4nx48z0VG0rI5yyX-WiJR8LElqQliqFlgG_ZYwc2NHGFN_m4A8JY5wZS9Ld7TyMavUpyNZbcVxgBWQznQ3xvyrPAKRQ7O9w0ceAwX3K2AAHmvaj6RLi2T6msQ35fKW6KNysUGKHXlsvZ6EmWEQLPKSyjSYERpK5uuBS8Q3UP_7ZRphBEjSEiGKfpFODGkeknTKqi-CZstUzbXNOFiCGlpyVQD7bGXOQ5frfpBTTJsTvgoEF83u2bO3w1F5tu_4QI5hKvSoH8NTPZlKKudVQxXnK3zJ7BRYoImMnbZTAyrjQhkNTsb3g6Mi58dIQFbvpX0JYKr376lwhfjX6M3bK0GgurZ8PTKN3irjMo2dZroB4tGa3YLbq2c5HvZ6S-x_xrx8SBnHDVaaRoU8mIVlTAxgv4I2hgMO73XEewwAOSF0xsHe5wqI2ue-qswPfXlkaEidrLokzt2oNlnkGk-Gs6jsQJOvdusVGYNQ3orpBVQgwbeXoe8sfbc8M-hLXLex_GIat0u6usIuHRLlGfSNMD8o_]--></g></svg>