<?xml version="1.0" encoding="us-ascii" standalone="no"?><svg xmlns="http://www.w3.org/2000/svg" xmlns:xlink="http://www.w3.org/1999/xlink" contentStyleType="text/css" height="848px" preserveAspectRatio="none" style="width:631px;height:848px;background:#FFFFFF;" version="1.1" viewBox="0 0 631 848" width="631px" zoomAndPan="magnify"><defs/><g><text fill="#000000" font-family="sans-serif" font-size="14" font-weight="bold" lengthAdjust="spacing" textLength="48" x="284.75" y="23.5352">DB&#35373;&#35336;</text><text fill="#000000" font-family="sans-serif" font-size="14" font-weight="bold" lengthAdjust="spacing" textLength="5" x="306.25" y="40.0234">&#160;</text><text fill="#000000" font-family="sans-serif" font-size="14" font-weight="bold" lengthAdjust="spacing" textLength="279" x="169.25" y="56.5117">&#65288;&#12459;&#12521;&#12512;&#21517;&#12398;&#21069;&#12398;&#12300;#&#65288;&#33777;&#24418;&#65289;&#12301;&#12399;FK&#12391;&#12377;&#65289;</text><text fill="#000000" font-family="sans-serif" font-size="14" font-weight="bold" lengthAdjust="spacing" textLength="315" x="151.25" y="73">&#65288;&#12459;&#12521;&#12512;&#21517;&#12398;&#21069;&#12398;&#12300;*&#65288;&#40658;&#20024;&#65289;&#12301;&#12399;&#24517;&#38920;&#38917;&#30446;&#12391;&#12377;&#65289;</text><text fill="#000000" font-family="sans-serif" font-size="14" font-weight="bold" lengthAdjust="spacing" textLength="390" x="113.75" y="89.4883">&#65288;&#20840;&#12486;&#12540;&#12502;&#12523;&#12395;created_at&#12392;updated_at&#12459;&#12521;&#12512;&#12364;&#20184;&#12365;&#12414;&#12377;&#65289;</text><text fill="#000000" font-family="sans-serif" font-size="14" font-weight="bold" lengthAdjust="spacing" textLength="5" x="306.25" y="105.9766">&#160;</text><!--class m_users--><g id="elem_m_users"><rect codeLine="15" fill="#F1F1F1" height="108.4414" id="m_users" rx="2.5" ry="2.5" style="stroke:#181818;stroke-width:0.5;" width="187" x="132" y="126.9297"/><text fill="#000000" font-family="sans-serif" font-size="14" lengthAdjust="spacing" textLength="181" x="135" y="145.4648">m_users : &#12518;&#12540;&#12470;&#12540;&#12486;&#12540;&#12502;&#12523;</text><line style="stroke:#181818;stroke-width:0.5;" x1="133" x2="318" y1="153.418" y2="153.418"/><ellipse cx="143" cy="167.1621" fill="#000000" rx="3" ry="3" style="stroke:#000000;stroke-width:1.0;"/><text fill="#000000" font-family="sans-serif" font-size="14" lengthAdjust="spacing" textLength="13" x="152" y="170.9531">id</text><line style="stroke:#181818;stroke-width:1.0;" x1="133" x2="318" y1="177.9063" y2="177.9063"/><ellipse cx="143" cy="191.6504" fill="#000000" rx="3" ry="3" style="stroke:#000000;stroke-width:1.0;"/><text fill="#000000" font-family="sans-serif" font-size="14" lengthAdjust="spacing" textLength="112" x="152" y="195.4414">family_name : &#27663;</text><ellipse cx="143" cy="208.1387" fill="#000000" rx="3" ry="3" style="stroke:#000000;stroke-width:1.0;"/><text fill="#000000" font-family="sans-serif" font-size="14" lengthAdjust="spacing" textLength="98" x="152" y="211.9297">first_name : &#21517;</text><ellipse cx="143" cy="224.627" fill="#000000" rx="3" ry="3" style="stroke:#000000;stroke-width:1.0;"/><text fill="#000000" font-family="sans-serif" font-size="14" lengthAdjust="spacing" textLength="147" x="152" y="228.418">email : &#12513;&#12540;&#12523;&#12450;&#12489;&#12524;&#12473;</text></g><!--class t_directories--><g id="elem_t_directories"><rect codeLine="23" fill="#F1F1F1" height="141.418" id="t_directories" rx="2.5" ry="2.5" style="stroke:#181818;stroke-width:0.5;" width="243" x="9" y="419.9297"/><text fill="#000000" font-family="sans-serif" font-size="14" lengthAdjust="spacing" textLength="237" x="12" y="438.4648">t_directories : &#12487;&#12451;&#12524;&#12463;&#12488;&#12522;&#12486;&#12540;&#12502;&#12523;</text><line style="stroke:#181818;stroke-width:0.5;" x1="10" x2="251" y1="446.418" y2="446.418"/><ellipse cx="20" cy="460.1621" fill="#000000" rx="3" ry="3" style="stroke:#000000;stroke-width:1.0;"/><text fill="#000000" font-family="sans-serif" font-size="14" lengthAdjust="spacing" textLength="13" x="29" y="463.9531">id</text><line style="stroke:#181818;stroke-width:1.0;" x1="10" x2="251" y1="470.9063" y2="470.9063"/><polygon fill="none" points="20,479.6504,24,483.6504,20,487.6504,16,483.6504" style="stroke:#B38D22;stroke-width:1.0;"/><text fill="#000000" font-family="sans-serif" font-size="14" lengthAdjust="spacing" textLength="133" x="29" y="488.4414">parent_directory_id</text><polygon fill="none" points="20,496.1387,24,500.1387,20,504.1387,16,500.1387" style="stroke:#B38D22;stroke-width:1.0;"/><text fill="#000000" font-family="sans-serif" font-size="14" lengthAdjust="spacing" textLength="99" x="29" y="504.9297">create_user_id</text><polygon fill="none" points="20,512.627,24,516.627,20,520.627,16,516.627" style="stroke:#B38D22;stroke-width:1.0;"/><text fill="#000000" font-family="sans-serif" font-size="14" lengthAdjust="spacing" textLength="105" x="29" y="521.418">update_user_id</text><ellipse cx="20" cy="534.1152" fill="#000000" rx="3" ry="3" style="stroke:#000000;stroke-width:1.0;"/><text fill="#000000" font-family="sans-serif" font-size="14" lengthAdjust="spacing" textLength="38" x="29" y="537.9063">name</text><ellipse cx="20" cy="550.6035" fill="#000000" rx="3" ry="3" style="stroke:#000000;stroke-width:1.0;"/><text fill="#000000" font-family="sans-serif" font-size="14" lengthAdjust="spacing" textLength="69" x="29" y="554.3945">is_deleted</text></g><!--class t_documents--><g id="elem_t_documents"><rect codeLine="33" fill="#F1F1F1" height="157.9063" id="t_documents" rx="2.5" ry="2.5" style="stroke:#181818;stroke-width:0.5;" width="246" x="129.5" y="683.9297"/><text fill="#000000" font-family="sans-serif" font-size="14" lengthAdjust="spacing" textLength="240" x="132.5" y="702.4648">t_documents : &#12489;&#12461;&#12517;&#12513;&#12531;&#12488;&#12486;&#12540;&#12502;&#12523;</text><line style="stroke:#181818;stroke-width:0.5;" x1="130.5" x2="374.5" y1="710.418" y2="710.418"/><ellipse cx="140.5" cy="724.1621" fill="#000000" rx="3" ry="3" style="stroke:#000000;stroke-width:1.0;"/><text fill="#000000" font-family="sans-serif" font-size="14" lengthAdjust="spacing" textLength="13" x="149.5" y="727.9531">id</text><line style="stroke:#181818;stroke-width:1.0;" x1="130.5" x2="374.5" y1="734.9063" y2="734.9063"/><polygon fill="none" points="140.5,743.6504,144.5,747.6504,140.5,751.6504,136.5,747.6504" style="stroke:#B38D22;stroke-width:1.0;"/><text fill="#000000" font-family="sans-serif" font-size="14" lengthAdjust="spacing" textLength="81" x="149.5" y="752.4414">directory_id</text><polygon fill="none" points="140.5,760.1387,144.5,764.1387,140.5,768.1387,136.5,764.1387" style="stroke:#B38D22;stroke-width:1.0;"/><text fill="#000000" font-family="sans-serif" font-size="14" lengthAdjust="spacing" textLength="99" x="149.5" y="768.9297">create_user_id</text><polygon fill="none" points="140.5,776.627,144.5,780.627,140.5,784.627,136.5,780.627" style="stroke:#B38D22;stroke-width:1.0;"/><text fill="#000000" font-family="sans-serif" font-size="14" lengthAdjust="spacing" textLength="105" x="149.5" y="785.418">update_user_id</text><ellipse cx="140.5" cy="798.1152" fill="#000000" rx="3" ry="3" style="stroke:#000000;stroke-width:1.0;"/><text fill="#000000" font-family="sans-serif" font-size="14" lengthAdjust="spacing" textLength="38" x="149.5" y="801.9063">name</text><ellipse cx="140.5" cy="814.6035" fill="#000000" rx="3" ry="3" style="stroke:#000000;stroke-width:1.0;"/><text fill="#000000" font-family="sans-serif" font-size="14" lengthAdjust="spacing" textLength="52" x="149.5" y="818.3945">content</text><ellipse cx="140.5" cy="831.0918" fill="#000000" rx="3" ry="3" style="stroke:#000000;stroke-width:1.0;"/><text fill="#000000" font-family="sans-serif" font-size="14" lengthAdjust="spacing" textLength="69" x="149.5" y="834.8828">is_deleted</text></g><!--link m_users to t_directories--><g id="link_m_users_t_directories"><path codeLine="45" d="M142.47,241.6997 C126.64,257.3997 112.29,275.6897 103.5,295.9297 C87.93,331.7797 91.85,374.5697 100.87,410.7697 " fill="none" id="m_users-t_directories" style="stroke:#181818;stroke-width:1.0;"/><line style="stroke:#181818;stroke-width:1.0;" x1="142.5746" x2="148.1015" y1="236.0512" y2="241.8351"/><line style="stroke:#181818;stroke-width:1.0;" x1="140.4056" x2="145.9325" y1="238.1237" y2="243.9077"/><line style="stroke:#181818;stroke-width:1.0;" x1="142.4461" x2="148.23" y1="241.7065" y2="236.1797"/><line style="stroke:#181818;stroke-width:1.0;" x1="100.8291" x2="108.6715" y1="410.6344" y2="416.839"/><line style="stroke:#181818;stroke-width:1.0;" x1="100.8291" x2="97.0685" y1="410.6344" y2="419.9003"/><line style="stroke:#181818;stroke-width:1.0;" x1="100.8291" x2="102.87" y1="410.6344" y2="418.3697"/><ellipse cx="99.2985" cy="404.8329" fill="none" rx="4" ry="4" style="stroke:#181818;stroke-width:1.0;"/><text fill="#000000" font-family="sans-serif" font-size="13" lengthAdjust="spacing" textLength="239" x="107" y="309.498">m_users : t_directories.create_user_id</text><text fill="#000000" font-family="sans-serif" font-size="13" lengthAdjust="spacing" textLength="81" x="188" y="324.8086">= 1 : 0&#20197;&#19978;&#12289;</text><text fill="#000000" font-family="sans-serif" font-size="13" lengthAdjust="spacing" textLength="244" x="104.5" y="340.1191">m_users : t_directories.update_user_id</text><text fill="#000000" font-family="sans-serif" font-size="13" lengthAdjust="spacing" textLength="68" x="194.5" y="355.4297">= 1 : 0&#20197;&#19978;</text></g><!--link m_users to t_documents--><g id="link_m_users_t_documents"><path codeLine="46" d="M326.58,238.7897 C353.62,261.6497 375.5,291.0797 375.5,326.4297 C375.5,326.4297 375.5,326.4297 375.5,622.9297 C375.5,642.1797 368.8,660.0097 358.54,676.0397 " fill="none" id="m_users-t_documents" style="stroke:#181818;stroke-width:1.0;"/><line style="stroke:#181818;stroke-width:1.0;" x1="320.9755" x2="326.0165" y1="239.3962" y2="233.1842"/><line style="stroke:#181818;stroke-width:1.0;" x1="323.305" x2="328.346" y1="241.2865" y2="235.0746"/><line style="stroke:#181818;stroke-width:1.0;" x1="326.602" x2="320.39" y1="238.8107" y2="233.7697"/><line style="stroke:#181818;stroke-width:1.0;" x1="358.6225" x2="359.0189" y1="675.9244" y2="685.9166"/><line style="stroke:#181818;stroke-width:1.0;" x1="358.6225" x2="349.1411" y1="675.9244" y2="679.1028"/><line style="stroke:#181818;stroke-width:1.0;" x1="358.6225" x2="354.08" y1="675.9244" y2="682.5097"/><ellipse cx="362.0294" cy="670.9855" fill="none" rx="4" ry="4" style="stroke:#181818;stroke-width:1.0;"/><text fill="#000000" font-family="sans-serif" font-size="13" lengthAdjust="spacing" textLength="242" x="379" y="472.498">m_users : t_documents.create_user_id</text><text fill="#000000" font-family="sans-serif" font-size="13" lengthAdjust="spacing" textLength="81" x="461.5" y="487.8086">= 1 : 0&#20197;&#19978;&#12289;</text><text fill="#000000" font-family="sans-serif" font-size="13" lengthAdjust="spacing" textLength="247" x="376.5" y="503.1191">m_users : t_documents.update_user_id</text><text fill="#000000" font-family="sans-serif" font-size="13" lengthAdjust="spacing" textLength="68" x="468" y="518.4297">= 1 : 0&#20197;&#19978;</text></g><!--link t_directories to t_documents--><g id="link_t_directories_t_documents"><path codeLine="47" d="M165.74,569.5597 C180.61,602.5297 197.98,641.0497 213.26,674.9297 " fill="none" id="t_directories-t_documents" style="stroke:#181818;stroke-width:1.0;"/><line style="stroke:#181818;stroke-width:1.0;" x1="160.5381" x2="167.8308" y1="567.7605" y2="564.4716"/><line style="stroke:#181818;stroke-width:1.0;" x1="161.7714" x2="169.0641" y1="570.4952" y2="567.2064"/><line style="stroke:#181818;stroke-width:1.0;" x1="165.8289" x2="162.54" y1="569.7624" y2="562.4697"/><line style="stroke:#181818;stroke-width:1.0;" x1="213.1865" x2="221.9413" y1="674.7546" y2="679.5871"/><line style="stroke:#181818;stroke-width:1.0;" x1="213.1865" x2="210.9987" y1="674.7546" y2="684.5123"/><line style="stroke:#181818;stroke-width:1.0;" x1="213.1865" x2="216.47" y1="674.7546" y2="682.0497"/><line style="stroke:#181818;stroke-width:1.0;" x1="216.0132" x2="208.7181" y1="671.2891" y2="674.5726"/></g><!--SRC=[fP7FQjj04CRl-nHBV2WO59fhePSGUkah68IGjcJ1aeoqFfYuO6bn8fUKb1vAIYvEIXebRlwKGd6napxCI8rzyYjqjRBih4nJIY-htMzclldDw0dUfXR1R9jWl-4o95yczSmwGOXH9ZvRcvFuSX972Ct64OG3uEV0- -cxjn1SfRtiXCv-HSGc1r_JsvFPk0STeLw_U0d16GGVXV1OPLN4fgFtoN2ug4n_TgVzQDhltXzTAHvfDmQ-2tmC_0Fm0GG3qoC68vPkC0ZYPiCg7aKp2FQJqI44mlPkxeE8O-MJPLTnQ-4rMs_wnFFnCmpyS-OVVfTTbhtMiE7Z8cq7OLobbZWrBRk-CcnQR-cEOHDXyUlcG8hKyrcXYQ4pZTW6hSiknz9v0E49y1xmBn3-GA-NG4otg4TCvdgKv5Xx47wIUTV08-0NAt1gIGcnqZ0yuRr8QUaoLidt9yUQA_aI7oZLR0JfvkiMgHEnuHAfQpPjySmvUn1U0Z-L4twJgAkSYu8ovV_WcQx3XEagAIf-MxkjQPgxWylBNVvz9RAkTgyv-3dU44bFaz5fCdm3dQ3c_AbKnIoNAaGvq8CTAfw5_iymYyA_eAZBa2jgAqJeDm00]--></g></svg>