<?xml version="1.0" encoding="us-ascii" standalone="no"?><svg xmlns="http://www.w3.org/2000/svg" xmlns:xlink="http://www.w3.org/1999/xlink" contentStyleType="text/css" height="1325px" preserveAspectRatio="none" style="width:1808px;height:1325px;background:#FFFFFF;" version="1.1" viewBox="0 0 1808 1325" width="1808px" zoomAndPan="magnify"><defs/><g><text fill="#000000" font-family="sans-serif" font-size="14" font-weight="bold" lengthAdjust="spacing" textLength="48" x="873.25" y="23.5352">DB&#35373;&#35336;</text><!--class customers--><g id="elem_customers"><rect codeLine="7" fill="#F1F1F1" height="157.9063" id="customers" rx="2.5" ry="2.5" style="stroke:#181818;stroke-width:0.5;" width="246" x="893" y="44.4883"/><text fill="#000000" font-family="sans-serif" font-size="14" lengthAdjust="spacing" textLength="167" x="932.5" y="63.0234">customers : &#39015;&#23458;&#12486;&#12540;&#12502;&#12523;</text><line style="stroke:#181818;stroke-width:0.5;" x1="894" x2="1138" y1="70.9766" y2="70.9766"/><ellipse cx="904" cy="84.7207" fill="#000000" rx="3" ry="3" style="stroke:#000000;stroke-width:1.0;"/><text fill="#000000" font-family="sans-serif" font-size="14" lengthAdjust="spacing" textLength="13" x="913" y="88.5117">id</text><line style="stroke:#181818;stroke-width:1.0;" x1="894" x2="1138" y1="95.4648" y2="95.4648"/><ellipse cx="904" cy="109.209" fill="#000000" rx="3" ry="3" style="stroke:#000000;stroke-width:1.0;"/><text fill="#000000" font-family="sans-serif" font-size="14" lengthAdjust="spacing" textLength="112" x="913" y="113">family_name : &#27663;</text><ellipse cx="904" cy="125.6973" fill="#000000" rx="3" ry="3" style="stroke:#000000;stroke-width:1.0;"/><text fill="#000000" font-family="sans-serif" font-size="14" lengthAdjust="spacing" textLength="98" x="913" y="129.4883">first_name : &#21517;</text><ellipse cx="904" cy="142.1855" fill="#000000" rx="3" ry="3" style="stroke:#000000;stroke-width:1.0;"/><text fill="#000000" font-family="sans-serif" font-size="14" lengthAdjust="spacing" textLength="85" x="913" y="145.9766">tel : &#38651;&#35441;&#30058;&#21495;</text><ellipse cx="904" cy="158.6738" fill="#000000" rx="3" ry="3" style="stroke:#000000;stroke-width:1.0;"/><text fill="#000000" font-family="sans-serif" font-size="14" lengthAdjust="spacing" textLength="220" x="913" y="162.4648">app_user_id : &#12450;&#12503;&#12522;&#12398;&#12518;&#12540;&#12470;&#12540;id</text><ellipse cx="904" cy="175.1621" fill="#000000" rx="3" ry="3" style="stroke:#000000;stroke-width:1.0;"/><text fill="#000000" font-family="sans-serif" font-size="14" lengthAdjust="spacing" textLength="71" x="913" y="178.9531">created_at</text><ellipse cx="904" cy="191.6504" fill="#000000" rx="3" ry="3" style="stroke:#000000;stroke-width:1.0;"/><text fill="#000000" font-family="sans-serif" font-size="14" lengthAdjust="spacing" textLength="77" x="913" y="195.4414">updated_at</text></g><!--class channels--><g id="elem_channels"><rect codeLine="18" fill="#F1F1F1" height="108.4414" id="channels" rx="2.5" ry="2.5" style="stroke:#181818;stroke-width:0.5;" width="207" x="1174.5" y="69.4883"/><text fill="#000000" font-family="sans-serif" font-size="14" lengthAdjust="spacing" textLength="185" x="1185.5" y="88.0234">channels : &#27880;&#25991;&#32076;&#36335;&#12486;&#12540;&#12502;&#12523;</text><line style="stroke:#181818;stroke-width:0.5;" x1="1175.5" x2="1380.5" y1="95.9766" y2="95.9766"/><ellipse cx="1185.5" cy="109.7207" fill="#000000" rx="3" ry="3" style="stroke:#000000;stroke-width:1.0;"/><text fill="#000000" font-family="sans-serif" font-size="14" lengthAdjust="spacing" textLength="13" x="1194.5" y="113.5117">id</text><line style="stroke:#181818;stroke-width:1.0;" x1="1175.5" x2="1380.5" y1="120.4648" y2="120.4648"/><ellipse cx="1185.5" cy="134.209" fill="#000000" rx="3" ry="3" style="stroke:#000000;stroke-width:1.0;"/><text fill="#000000" font-family="sans-serif" font-size="14" lengthAdjust="spacing" textLength="181" x="1194.5" y="138">channel_name : &#27880;&#25991;&#32076;&#36335;&#21517;</text><ellipse cx="1185.5" cy="150.6973" fill="#000000" rx="3" ry="3" style="stroke:#000000;stroke-width:1.0;"/><text fill="#000000" font-family="sans-serif" font-size="14" lengthAdjust="spacing" textLength="71" x="1194.5" y="154.4883">created_at</text><ellipse cx="1185.5" cy="167.1855" fill="#000000" rx="3" ry="3" style="stroke:#000000;stroke-width:1.0;"/><text fill="#000000" font-family="sans-serif" font-size="14" lengthAdjust="spacing" textLength="77" x="1194.5" y="170.9766">updated_at</text></g><!--class order_statuses--><g id="elem_order_statuses"><rect codeLine="26" fill="#F1F1F1" height="108.4414" id="order_statuses" rx="2.5" ry="2.5" style="stroke:#181818;stroke-width:0.5;" width="385" x="1416.5" y="69.4883"/><text fill="#000000" font-family="sans-serif" font-size="14" lengthAdjust="spacing" textLength="225" x="1496.5" y="88.0234">order_statuses : &#27880;&#25991;&#29366;&#24907;&#12486;&#12540;&#12502;&#12523;</text><line style="stroke:#181818;stroke-width:0.5;" x1="1417.5" x2="1800.5" y1="95.9766" y2="95.9766"/><ellipse cx="1427.5" cy="109.7207" fill="#000000" rx="3" ry="3" style="stroke:#000000;stroke-width:1.0;"/><text fill="#000000" font-family="sans-serif" font-size="14" lengthAdjust="spacing" textLength="13" x="1436.5" y="113.5117">id</text><line style="stroke:#181818;stroke-width:1.0;" x1="1417.5" x2="1800.5" y1="120.4648" y2="120.4648"/><ellipse cx="1427.5" cy="134.209" fill="#000000" rx="3" ry="3" style="stroke:#000000;stroke-width:1.0;"/><text fill="#000000" font-family="sans-serif" font-size="14" lengthAdjust="spacing" textLength="359" x="1436.5" y="138">status : &#27880;&#25991;&#29366;&#24907; : &#27880;&#25991;&#21463;&#20184;&#12289;&#25903;&#25173;&#12356;&#28168;&#12415;&#12289;&#21463;&#12369;&#28193;&#12375;&#28168;&#12415;</text><ellipse cx="1427.5" cy="150.6973" fill="#000000" rx="3" ry="3" style="stroke:#000000;stroke-width:1.0;"/><text fill="#000000" font-family="sans-serif" font-size="14" lengthAdjust="spacing" textLength="71" x="1436.5" y="154.4883">created_at</text><ellipse cx="1427.5" cy="167.1855" fill="#000000" rx="3" ry="3" style="stroke:#000000;stroke-width:1.0;"/><text fill="#000000" font-family="sans-serif" font-size="14" lengthAdjust="spacing" textLength="77" x="1436.5" y="170.9766">updated_at</text></g><!--class orders--><g id="elem_orders"><rect codeLine="34" fill="#F1F1F1" height="141.418" id="orders" rx="2.5" ry="2.5" style="stroke:#181818;stroke-width:0.5;" width="213" x="1171.5" y="262.4883"/><text fill="#000000" font-family="sans-serif" font-size="14" lengthAdjust="spacing" textLength="141" x="1207.5" y="281.0234">orders : &#27880;&#25991;&#12486;&#12540;&#12502;&#12523;</text><line style="stroke:#181818;stroke-width:0.5;" x1="1172.5" x2="1383.5" y1="288.9766" y2="288.9766"/><ellipse cx="1182.5" cy="302.7207" fill="#000000" rx="3" ry="3" style="stroke:#000000;stroke-width:1.0;"/><text fill="#000000" font-family="sans-serif" font-size="14" lengthAdjust="spacing" textLength="13" x="1191.5" y="306.5117">id</text><line style="stroke:#181818;stroke-width:1.0;" x1="1172.5" x2="1383.5" y1="313.4648" y2="313.4648"/><polygon fill="none" points="1182.5,322.209,1186.5,326.209,1182.5,330.209,1178.5,326.209" style="stroke:#B38D22;stroke-width:1.0;"/><text fill="#000000" font-family="sans-serif" font-size="14" lengthAdjust="spacing" textLength="137" x="1191.5" y="331">customer_id : &#39015;&#23458;id</text><polygon fill="none" points="1182.5,338.6973,1186.5,342.6973,1182.5,346.6973,1178.5,342.6973" style="stroke:#B38D22;stroke-width:1.0;"/><text fill="#000000" font-family="sans-serif" font-size="14" lengthAdjust="spacing" textLength="155" x="1191.5" y="347.4883">channel_id : &#27880;&#25991;&#32076;&#36335;id</text><polygon fill="none" points="1182.5,355.1855,1186.5,359.1855,1182.5,363.1855,1178.5,359.1855" style="stroke:#B38D22;stroke-width:1.0;"/><text fill="#000000" font-family="sans-serif" font-size="14" lengthAdjust="spacing" textLength="187" x="1191.5" y="363.9766">order_status_id : &#27880;&#25991;&#29366;&#24907;id</text><ellipse cx="1182.5" cy="376.6738" fill="#000000" rx="3" ry="3" style="stroke:#000000;stroke-width:1.0;"/><text fill="#000000" font-family="sans-serif" font-size="14" lengthAdjust="spacing" textLength="71" x="1191.5" y="380.4648">created_at</text><ellipse cx="1182.5" cy="393.1621" fill="#000000" rx="3" ry="3" style="stroke:#000000;stroke-width:1.0;"/><text fill="#000000" font-family="sans-serif" font-size="14" lengthAdjust="spacing" textLength="77" x="1191.5" y="396.9531">updated_at</text></g><!--class menu_categories--><g id="elem_menu_categories"><rect codeLine="44" fill="#F1F1F1" height="141.418" id="menu_categories" rx="2.5" ry="2.5" style="stroke:#181818;stroke-width:0.5;" width="580" x="9" y="524.4883"/><text fill="#000000" font-family="sans-serif" font-size="14" lengthAdjust="spacing" textLength="311" x="143.5" y="543.0234">menu_categories : &#12513;&#12491;&#12517;&#12540;&#12459;&#12486;&#12468;&#12522;&#12540;&#12486;&#12540;&#12502;&#12523;</text><line style="stroke:#181818;stroke-width:0.5;" x1="10" x2="588" y1="550.9766" y2="550.9766"/><ellipse cx="20" cy="564.7207" fill="#000000" rx="3" ry="3" style="stroke:#000000;stroke-width:1.0;"/><text fill="#000000" font-family="sans-serif" font-size="14" lengthAdjust="spacing" textLength="13" x="29" y="568.5117">id</text><line style="stroke:#181818;stroke-width:1.0;" x1="10" x2="588" y1="575.4648" y2="575.4648"/><polygon fill="none" points="20,584.209,24,588.209,20,592.209,16,588.209" style="stroke:#B38D22;stroke-width:1.0;"/><text fill="#000000" font-family="sans-serif" font-size="14" lengthAdjust="spacing" textLength="245" x="29" y="593">menu_group_id : &#12513;&#12491;&#12517;&#12540;&#12464;&#12523;&#12540;&#12503;id</text><ellipse cx="20" cy="605.6973" fill="#000000" rx="3" ry="3" style="stroke:#000000;stroke-width:1.0;"/><text fill="#000000" font-family="sans-serif" font-size="14" lengthAdjust="spacing" textLength="554" x="29" y="609.4883">menu_category_name : &#12513;&#12491;&#12517;&#12540;&#12459;&#12486;&#12468;&#12522;&#12540;&#21517;&#65288;&#30427;&#12426;&#36796;&#12415;&#12289;&#12395;&#12366;&#12426;&#12289;&#20028;&#12289;&#12362;&#22909;&#12415;&#12394;&#12393;&#65289;</text><ellipse cx="20" cy="622.1855" fill="#000000" rx="3" ry="3" style="stroke:#000000;stroke-width:1.0;"/><text fill="#000000" font-family="sans-serif" font-size="14" lengthAdjust="spacing" textLength="361" x="29" y="625.9766">is_lunch_discounted : &#12521;&#12531;&#12481;&#12479;&#12452;&#12512;&#12398;&#21106;&#24341;&#23550;&#35937;&#12363;&#12393;&#12358;&#12363;</text><ellipse cx="20" cy="638.6738" fill="#000000" rx="3" ry="3" style="stroke:#000000;stroke-width:1.0;"/><text fill="#000000" font-family="sans-serif" font-size="14" lengthAdjust="spacing" textLength="71" x="29" y="642.4648">created_at</text><ellipse cx="20" cy="655.1621" fill="#000000" rx="3" ry="3" style="stroke:#000000;stroke-width:1.0;"/><text fill="#000000" font-family="sans-serif" font-size="14" lengthAdjust="spacing" textLength="77" x="29" y="658.9531">updated_at</text></g><!--class prices--><g id="elem_prices"><rect codeLine="54" fill="#F1F1F1" height="108.4414" id="prices" rx="2.5" ry="2.5" style="stroke:#181818;stroke-width:0.5;" width="171" x="624.5" y="540.9883"/><text fill="#000000" font-family="sans-serif" font-size="14" lengthAdjust="spacing" textLength="165" x="627.5" y="559.5234">prices : &#31246;&#25244;&#20385;&#26684;&#12486;&#12540;&#12502;&#12523;</text><line style="stroke:#181818;stroke-width:0.5;" x1="625.5" x2="794.5" y1="567.4766" y2="567.4766"/><ellipse cx="635.5" cy="581.2207" fill="#000000" rx="3" ry="3" style="stroke:#000000;stroke-width:1.0;"/><text fill="#000000" font-family="sans-serif" font-size="14" lengthAdjust="spacing" textLength="13" x="644.5" y="585.0117">id</text><line style="stroke:#181818;stroke-width:1.0;" x1="625.5" x2="794.5" y1="591.9648" y2="591.9648"/><ellipse cx="635.5" cy="605.709" fill="#000000" rx="3" ry="3" style="stroke:#000000;stroke-width:1.0;"/><text fill="#000000" font-family="sans-serif" font-size="14" lengthAdjust="spacing" textLength="102" x="644.5" y="609.5">price : &#31246;&#25244;&#20385;&#26684;</text><ellipse cx="635.5" cy="622.1973" fill="#000000" rx="3" ry="3" style="stroke:#000000;stroke-width:1.0;"/><text fill="#000000" font-family="sans-serif" font-size="14" lengthAdjust="spacing" textLength="71" x="644.5" y="625.9883">created_at</text><ellipse cx="635.5" cy="638.6855" fill="#000000" rx="3" ry="3" style="stroke:#000000;stroke-width:1.0;"/><text fill="#000000" font-family="sans-serif" font-size="14" lengthAdjust="spacing" textLength="77" x="644.5" y="642.4766">updated_at</text></g><!--class products--><g id="elem_products"><rect codeLine="62" fill="#F1F1F1" height="174.3945" id="products" rx="2.5" ry="2.5" style="stroke:#181818;stroke-width:0.5;" width="302" x="353" y="725.4883"/><text fill="#000000" font-family="sans-serif" font-size="14" lengthAdjust="spacing" textLength="157" x="425.5" y="744.0234">products : &#21830;&#21697;&#12486;&#12540;&#12502;&#12523;</text><line style="stroke:#181818;stroke-width:0.5;" x1="354" x2="654" y1="751.9766" y2="751.9766"/><ellipse cx="364" cy="765.7207" fill="#000000" rx="3" ry="3" style="stroke:#000000;stroke-width:1.0;"/><text fill="#000000" font-family="sans-serif" font-size="14" lengthAdjust="spacing" textLength="13" x="373" y="769.5117">id</text><line style="stroke:#181818;stroke-width:1.0;" x1="354" x2="654" y1="776.4648" y2="776.4648"/><polygon fill="none" points="364,785.209,368,789.209,364,793.209,360,789.209" style="stroke:#B38D22;stroke-width:1.0;"/><text fill="#000000" font-family="sans-serif" font-size="14" lengthAdjust="spacing" textLength="276" x="373" y="794">menu_category_id : &#12513;&#12491;&#12517;&#12540;&#12459;&#12486;&#12468;&#12522;&#12540;id</text><polygon fill="none" points="364,801.6973,368,805.6973,364,809.6973,360,805.6973" style="stroke:#B38D22;stroke-width:1.0;"/><text fill="#000000" font-family="sans-serif" font-size="14" lengthAdjust="spacing" textLength="135" x="373" y="810.4883">price_id : &#31246;&#25244;&#20385;&#26684;id</text><ellipse cx="364" cy="823.1855" fill="#000000" rx="3" ry="3" style="stroke:#000000;stroke-width:1.0;"/><text fill="#000000" font-family="sans-serif" font-size="14" lengthAdjust="spacing" textLength="149" x="373" y="826.9766">product_name: &#21830;&#21697;&#21517;</text><text fill="#000000" font-family="sans-serif" font-size="14" lengthAdjust="spacing" textLength="202" x="373" y="843.4648">product_description: &#21830;&#21697;&#35500;&#26126;</text><ellipse cx="364" cy="856.1621" fill="#000000" rx="3" ry="3" style="stroke:#000000;stroke-width:1.0;"/><text fill="#000000" font-family="sans-serif" font-size="14" lengthAdjust="spacing" textLength="230" x="373" y="859.9531">is_available : &#21830;&#21697;&#12434;&#25552;&#20379;&#20013;&#12363;&#12393;&#12358;&#12363;</text><ellipse cx="364" cy="872.6504" fill="#000000" rx="3" ry="3" style="stroke:#000000;stroke-width:1.0;"/><text fill="#000000" font-family="sans-serif" font-size="14" lengthAdjust="spacing" textLength="71" x="373" y="876.4414">created_at</text><ellipse cx="364" cy="889.1387" fill="#000000" rx="3" ry="3" style="stroke:#000000;stroke-width:1.0;"/><text fill="#000000" font-family="sans-serif" font-size="14" lengthAdjust="spacing" textLength="77" x="373" y="892.9297">updated_at</text></g><!--class discounts--><g id="elem_discounts"><rect codeLine="74" fill="#F1F1F1" height="174.3945" id="discounts" rx="2.5" ry="2.5" style="stroke:#181818;stroke-width:0.5;" width="207" x="1017.5" y="725.4883"/><text fill="#000000" font-family="sans-serif" font-size="14" lengthAdjust="spacing" textLength="162" x="1040" y="744.0234">discounts : &#21106;&#24341;&#12486;&#12540;&#12502;&#12523;</text><line style="stroke:#181818;stroke-width:0.5;" x1="1018.5" x2="1223.5" y1="751.9766" y2="751.9766"/><ellipse cx="1028.5" cy="765.7207" fill="#000000" rx="3" ry="3" style="stroke:#000000;stroke-width:1.0;"/><text fill="#000000" font-family="sans-serif" font-size="14" lengthAdjust="spacing" textLength="13" x="1037.5" y="769.5117">id</text><line style="stroke:#181818;stroke-width:1.0;" x1="1018.5" x2="1223.5" y1="776.4648" y2="776.4648"/><text fill="#000000" font-family="sans-serif" font-size="14" lengthAdjust="spacing" textLength="170" x="1037.5" y="794">discount_value : &#21106;&#24341;&#20385;&#26684;</text><text fill="#000000" font-family="sans-serif" font-size="14" lengthAdjust="spacing" textLength="161" x="1037.5" y="810.4883">discount_rate : &#21106;&#24341;&#21106;&#21512;</text><ellipse cx="1028.5" cy="823.1855" fill="#000000" rx="3" ry="3" style="stroke:#000000;stroke-width:1.0;"/><text fill="#000000" font-family="sans-serif" font-size="14" lengthAdjust="spacing" textLength="181" x="1037.5" y="826.9766">discount_reason : &#21106;&#24341;&#29702;&#30001;</text><ellipse cx="1028.5" cy="839.6738" fill="#000000" rx="3" ry="3" style="stroke:#000000;stroke-width:1.0;"/><text fill="#000000" font-family="sans-serif" font-size="14" lengthAdjust="spacing" textLength="127" x="1037.5" y="843.4648">begin_at : &#38283;&#22987;&#26085;&#26178;</text><text fill="#000000" font-family="sans-serif" font-size="14" lengthAdjust="spacing" textLength="114" x="1037.5" y="859.9531">end_at : &#32066;&#20102;&#26085;&#26178;</text><ellipse cx="1028.5" cy="872.6504" fill="#000000" rx="3" ry="3" style="stroke:#000000;stroke-width:1.0;"/><text fill="#000000" font-family="sans-serif" font-size="14" lengthAdjust="spacing" textLength="71" x="1037.5" y="876.4414">created_at</text><ellipse cx="1028.5" cy="889.1387" fill="#000000" rx="3" ry="3" style="stroke:#000000;stroke-width:1.0;"/><text fill="#000000" font-family="sans-serif" font-size="14" lengthAdjust="spacing" textLength="77" x="1037.5" y="892.9297">updated_at</text></g><!--class products_discounts--><g id="elem_products_discounts"><rect codeLine="86" fill="#F1F1F1" height="141.418" id="products_discounts" rx="2.5" ry="2.5" style="stroke:#181818;stroke-width:0.5;" width="292" x="690" y="741.9883"/><text fill="#000000" font-family="sans-serif" font-size="14" lengthAdjust="spacing" textLength="286" x="693" y="760.5234">products_discounts : &#21830;&#21697;&#21106;&#24341;&#20013;&#38291;&#12486;&#12540;&#12502;&#12523;</text><line style="stroke:#181818;stroke-width:0.5;" x1="691" x2="981" y1="768.4766" y2="768.4766"/><ellipse cx="701" cy="782.2207" fill="#000000" rx="3" ry="3" style="stroke:#000000;stroke-width:1.0;"/><text fill="#000000" font-family="sans-serif" font-size="14" lengthAdjust="spacing" textLength="13" x="710" y="786.0117">id</text><line style="stroke:#181818;stroke-width:1.0;" x1="691" x2="981" y1="792.9648" y2="792.9648"/><polygon fill="none" points="701,801.709,705,805.709,701,809.709,697,805.709" style="stroke:#B38D22;stroke-width:1.0;"/><text fill="#000000" font-family="sans-serif" font-size="14" lengthAdjust="spacing" textLength="127" x="710" y="810.5">product_id : &#21830;&#21697;id</text><polygon fill="none" points="701,818.1973,705,822.1973,701,826.1973,697,822.1973" style="stroke:#B38D22;stroke-width:1.0;"/><text fill="#000000" font-family="sans-serif" font-size="14" lengthAdjust="spacing" textLength="132" x="710" y="826.9883">discount_id : &#21106;&#24341;id</text><ellipse cx="701" cy="839.6855" fill="#000000" rx="3" ry="3" style="stroke:#000000;stroke-width:1.0;"/><text fill="#000000" font-family="sans-serif" font-size="14" lengthAdjust="spacing" textLength="179" x="710" y="843.4766">is_deleted : &#35542;&#29702;&#21066;&#38500;&#12501;&#12521;&#12464;</text><ellipse cx="701" cy="856.1738" fill="#000000" rx="3" ry="3" style="stroke:#000000;stroke-width:1.0;"/><text fill="#000000" font-family="sans-serif" font-size="14" lengthAdjust="spacing" textLength="71" x="710" y="859.9648">created_at</text><ellipse cx="701" cy="872.6621" fill="#000000" rx="3" ry="3" style="stroke:#000000;stroke-width:1.0;"/><text fill="#000000" font-family="sans-serif" font-size="14" lengthAdjust="spacing" textLength="77" x="710" y="876.4531">updated_at</text></g><!--class foods--><g id="elem_foods"><rect codeLine="96" fill="#F1F1F1" height="141.418" id="foods" rx="2.5" ry="2.5" style="stroke:#181818;stroke-width:0.5;" width="202" x="116" y="741.9883"/><text fill="#000000" font-family="sans-serif" font-size="14" lengthAdjust="spacing" textLength="135" x="149.5" y="760.5234">foods : &#39135;&#26448;&#12486;&#12540;&#12502;&#12523;</text><line style="stroke:#181818;stroke-width:0.5;" x1="117" x2="317" y1="768.4766" y2="768.4766"/><ellipse cx="127" cy="782.2207" fill="#000000" rx="3" ry="3" style="stroke:#000000;stroke-width:1.0;"/><text fill="#000000" font-family="sans-serif" font-size="14" lengthAdjust="spacing" textLength="13" x="136" y="786.0117">id</text><line style="stroke:#181818;stroke-width:1.0;" x1="117" x2="317" y1="792.9648" y2="792.9648"/><ellipse cx="127" cy="806.709" fill="#000000" rx="3" ry="3" style="stroke:#000000;stroke-width:1.0;"/><text fill="#000000" font-family="sans-serif" font-size="14" lengthAdjust="spacing" textLength="131" x="136" y="810.5">food_name : &#39135;&#26448;&#21517;</text><ellipse cx="127" cy="823.1973" fill="#000000" rx="3" ry="3" style="stroke:#000000;stroke-width:1.0;"/><text fill="#000000" font-family="sans-serif" font-size="14" lengthAdjust="spacing" textLength="90" x="136" y="826.9883">stock : &#22312;&#24235;&#25968;</text><ellipse cx="127" cy="839.6855" fill="#000000" rx="3" ry="3" style="stroke:#000000;stroke-width:1.0;"/><text fill="#000000" font-family="sans-serif" font-size="14" lengthAdjust="spacing" textLength="176" x="136" y="843.4766">expiration_date : &#28040;&#36027;&#26399;&#38480;</text><ellipse cx="127" cy="856.1738" fill="#000000" rx="3" ry="3" style="stroke:#000000;stroke-width:1.0;"/><text fill="#000000" font-family="sans-serif" font-size="14" lengthAdjust="spacing" textLength="71" x="136" y="859.9648">created_at</text><ellipse cx="127" cy="872.6621" fill="#000000" rx="3" ry="3" style="stroke:#000000;stroke-width:1.0;"/><text fill="#000000" font-family="sans-serif" font-size="14" lengthAdjust="spacing" textLength="77" x="136" y="876.4531">updated_at</text></g><!--class product_foods--><g id="elem_product_foods"><rect codeLine="106" fill="#F1F1F1" height="124.9297" id="product_foods" rx="2.5" ry="2.5" style="stroke:#181818;stroke-width:0.5;" width="230" x="246" y="959.4883"/><text fill="#000000" font-family="sans-serif" font-size="14" lengthAdjust="spacing" textLength="224" x="249" y="978.0234">product_foods : &#21830;&#21697;&#39135;&#26448;&#12486;&#12540;&#12502;&#12523;</text><line style="stroke:#181818;stroke-width:0.5;" x1="247" x2="475" y1="985.9766" y2="985.9766"/><ellipse cx="257" cy="999.7207" fill="#000000" rx="3" ry="3" style="stroke:#000000;stroke-width:1.0;"/><text fill="#000000" font-family="sans-serif" font-size="14" lengthAdjust="spacing" textLength="13" x="266" y="1003.5117">id</text><line style="stroke:#181818;stroke-width:1.0;" x1="247" x2="475" y1="1010.4648" y2="1010.4648"/><polygon fill="none" points="257,1019.209,261,1023.209,257,1027.209,253,1023.209" style="stroke:#B38D22;stroke-width:1.0;"/><text fill="#000000" font-family="sans-serif" font-size="14" lengthAdjust="spacing" textLength="127" x="266" y="1028">product_id : &#21830;&#21697;id</text><polygon fill="none" points="257,1035.6973,261,1039.6973,257,1043.6973,253,1039.6973" style="stroke:#B38D22;stroke-width:1.0;"/><text fill="#000000" font-family="sans-serif" font-size="14" lengthAdjust="spacing" textLength="105" x="266" y="1044.4883">food_id : &#39135;&#26448;id</text><ellipse cx="257" cy="1057.1855" fill="#000000" rx="3" ry="3" style="stroke:#000000;stroke-width:1.0;"/><text fill="#000000" font-family="sans-serif" font-size="14" lengthAdjust="spacing" textLength="71" x="266" y="1060.9766">created_at</text><ellipse cx="257" cy="1073.6738" fill="#000000" rx="3" ry="3" style="stroke:#000000;stroke-width:1.0;"/><text fill="#000000" font-family="sans-serif" font-size="14" lengthAdjust="spacing" textLength="77" x="266" y="1077.4648">updated_at</text></g><!--class order_details--><g id="elem_order_details"><rect codeLine="115" fill="#F1F1F1" height="174.3945" id="order_details" rx="2.5" ry="2.5" style="stroke:#181818;stroke-width:0.5;" width="274" x="984" y="1144.4883"/><text fill="#000000" font-family="sans-serif" font-size="14" lengthAdjust="spacing" textLength="214" x="1014" y="1163.0234">order_details : &#27880;&#25991;&#35443;&#32048;&#12486;&#12540;&#12502;&#12523;</text><line style="stroke:#181818;stroke-width:0.5;" x1="985" x2="1257" y1="1170.9766" y2="1170.9766"/><ellipse cx="995" cy="1184.7207" fill="#000000" rx="3" ry="3" style="stroke:#000000;stroke-width:1.0;"/><text fill="#000000" font-family="sans-serif" font-size="14" lengthAdjust="spacing" textLength="13" x="1004" y="1188.5117">id</text><line style="stroke:#181818;stroke-width:1.0;" x1="985" x2="1257" y1="1195.4648" y2="1195.4648"/><polygon fill="none" points="995,1204.209,999,1208.209,995,1212.209,991,1208.209" style="stroke:#B38D22;stroke-width:1.0;"/><text fill="#000000" font-family="sans-serif" font-size="14" lengthAdjust="spacing" textLength="111" x="1004" y="1213">order_id : &#27880;&#25991;id</text><polygon fill="none" points="995,1220.6973,999,1224.6973,995,1228.6973,991,1224.6973" style="stroke:#B38D22;stroke-width:1.0;"/><text fill="#000000" font-family="sans-serif" font-size="14" lengthAdjust="spacing" textLength="127" x="1004" y="1229.4883">product_id : &#21830;&#21697;id</text><polygon fill="none" points="995,1237.1855,999,1241.1855,995,1245.1855,991,1241.1855" style="stroke:#B38D22;stroke-width:1.0;"/><text fill="#000000" font-family="sans-serif" font-size="14" lengthAdjust="spacing" textLength="132" x="1004" y="1245.9766">discount_id : &#21106;&#24341;id</text><ellipse cx="995" cy="1258.6738" fill="#000000" rx="3" ry="3" style="stroke:#000000;stroke-width:1.0;"/><text fill="#000000" font-family="sans-serif" font-size="14" lengthAdjust="spacing" textLength="248" x="1004" y="1262.4648">is_without_wasabi : &#12373;&#12403;&#25244;&#12365;&#12363;&#12393;&#12358;&#12363;</text><ellipse cx="995" cy="1275.1621" fill="#000000" rx="3" ry="3" style="stroke:#000000;stroke-width:1.0;"/><text fill="#000000" font-family="sans-serif" font-size="14" lengthAdjust="spacing" textLength="200" x="1004" y="1278.9531">is_less_rice : &#12471;&#12515;&#12522;&#23567;&#12363;&#12393;&#12358;&#12363;</text><ellipse cx="995" cy="1291.6504" fill="#000000" rx="3" ry="3" style="stroke:#000000;stroke-width:1.0;"/><text fill="#000000" font-family="sans-serif" font-size="14" lengthAdjust="spacing" textLength="71" x="1004" y="1295.4414">created_at</text><ellipse cx="995" cy="1308.1387" fill="#000000" rx="3" ry="3" style="stroke:#000000;stroke-width:1.0;"/><text fill="#000000" font-family="sans-serif" font-size="14" lengthAdjust="spacing" textLength="77" x="1004" y="1311.9297">updated_at</text></g><!--link customers to orders--><g id="link_customers_orders"><path codeLine="127" d="M1122.31,208.6883 C1142.24,224.4683 1162.97,240.8883 1182.55,256.3883 " fill="none" id="customers-orders" style="stroke:#181818;stroke-width:1.0;"/><line style="stroke:#181818;stroke-width:1.0;" x1="1116.8898" x2="1121.8594" y1="209.4977" y2="203.2285"/><line style="stroke:#181818;stroke-width:1.0;" x1="1119.2407" x2="1124.2104" y1="211.3613" y2="205.0921"/><line style="stroke:#181818;stroke-width:1.0;" x1="1122.5092" x2="1116.24" y1="208.8479" y2="203.8783"/><line style="stroke:#181818;stroke-width:1.0;" x1="1182.5308" x2="1192.5272" y1="256.3786" y2="256.6464"/><line style="stroke:#181818;stroke-width:1.0;" x1="1182.5308" x2="1185.0728" y1="256.3786" y2="266.0502"/><line style="stroke:#181818;stroke-width:1.0;" x1="1182.5308" x2="1188.8" y1="256.3786" y2="261.3483"/><line style="stroke:#181818;stroke-width:1.0;" x1="1183.4483" x2="1178.4787" y1="252.0016" y2="258.2708"/></g><!--link channels to orders--><g id="link_channels_orders"><path codeLine="128" d="M1278,187.1683 C1278,207.9083 1278,231.2583 1278,253.0483 " fill="none" id="channels-orders" style="stroke:#181818;stroke-width:1.0;"/><line style="stroke:#181818;stroke-width:1.0;" x1="1274" x2="1282" y1="183.4383" y2="183.4383"/><line style="stroke:#181818;stroke-width:1.0;" x1="1274" x2="1282" y1="186.4383" y2="186.4383"/><line style="stroke:#181818;stroke-width:1.0;" x1="1278" x2="1278" y1="187.4383" y2="179.4383"/><line style="stroke:#181818;stroke-width:1.0;" x1="1278" x2="1284" y1="252.7683" y2="260.7683"/><line style="stroke:#181818;stroke-width:1.0;" x1="1278" x2="1272" y1="252.7683" y2="260.7683"/><line style="stroke:#181818;stroke-width:1.0;" x1="1278" x2="1278" y1="252.7683" y2="260.7683"/><line style="stroke:#181818;stroke-width:1.0;" x1="1282" x2="1274" y1="250.7683" y2="250.7683"/></g><!--link order_statuses to orders--><g id="link_order_statuses_orders"><path codeLine="129" d="M1515.72,182.9683 C1477.55,206.8883 1433.01,234.8183 1392.87,259.9783 " fill="none" id="order_statuses-orders" style="stroke:#181818;stroke-width:1.0;"/><line style="stroke:#181818;stroke-width:1.0;" x1="1516.9647" x2="1521.2226" y1="177.4709" y2="184.2436"/><line style="stroke:#181818;stroke-width:1.0;" x1="1514.4249" x2="1518.6828" y1="179.0676" y2="185.8404"/><line style="stroke:#181818;stroke-width:1.0;" x1="1515.7073" x2="1522.48" y1="182.9862" y2="178.7283"/><line style="stroke:#181818;stroke-width:1.0;" x1="1392.9568" x2="1389.3686" y1="259.9168" y2="269.2509"/><line style="stroke:#181818;stroke-width:1.0;" x1="1392.9568" x2="1382.9914" y1="259.9168" y2="259.0857"/><line style="stroke:#181818;stroke-width:1.0;" x1="1392.9568" x2="1386.18" y1="259.9168" y2="264.1683"/><line style="stroke:#181818;stroke-width:1.0;" x1="1396.7767" x2="1392.5252" y1="262.2423" y2="255.4655"/></g><!--link orders to order_details--><g id="link_orders_order_details"><path codeLine="131" d="M1278,413.1983 C1278,464.7083 1278,533.3283 1278,593.9883 C1278,593.9883 1278,593.9883 1278,813.4883 C1278,929.9683 1223.68,1053.6983 1178.94,1135.8483 " fill="none" id="orders-order_details" style="stroke:#181818;stroke-width:1.0;"/><line style="stroke:#181818;stroke-width:1.0;" x1="1274" x2="1282" y1="409.2983" y2="409.2983"/><line style="stroke:#181818;stroke-width:1.0;" x1="1274" x2="1282" y1="412.2983" y2="412.2983"/><line style="stroke:#181818;stroke-width:1.0;" x1="1278" x2="1278" y1="413.2983" y2="405.2983"/><line style="stroke:#181818;stroke-width:1.0;" x1="1178.9548" x2="1180.3575" y1="1135.8183" y2="1145.7194"/><line style="stroke:#181818;stroke-width:1.0;" x1="1178.9548" x2="1169.8425" y1="1135.8183" y2="1139.9372"/><line style="stroke:#181818;stroke-width:1.0;" x1="1178.9548" x2="1175.1" y1="1135.8183" y2="1142.8283"/><line style="stroke:#181818;stroke-width:1.0;" x1="1183.4235" x2="1176.4135" y1="1135.9931" y2="1132.1383"/></g><!--link products to order_details--><g id="link_products_order_details"><path codeLine="132" d="M639.67,905.1783 C742.35,974.5783 882.76,1069.4683 985.42,1138.8583 " fill="none" id="products-order_details" style="stroke:#181818;stroke-width:1.0;"/><line style="stroke:#181818;stroke-width:1.0;" x1="634.1791" x2="638.653" y1="906.2912" y2="899.6591"/><line style="stroke:#181818;stroke-width:1.0;" x1="636.6662" x2="641.14" y1="907.9689" y2="901.3368"/><line style="stroke:#181818;stroke-width:1.0;" x1="639.7321" x2="633.1" y1="905.2121" y2="900.7383"/><line style="stroke:#181818;stroke-width:1.0;" x1="985.1679" x2="995.1554" y1="1138.6945" y2="1138.1942"/><line style="stroke:#181818;stroke-width:1.0;" x1="985.1679" x2="988.4446" y1="1138.6945" y2="1148.1424"/><line style="stroke:#181818;stroke-width:1.0;" x1="985.1679" x2="991.8" y1="1138.6945" y2="1143.1683"/><ellipse cx="980.1938" cy="1135.3391" fill="none" rx="4" ry="4" style="stroke:#181818;stroke-width:1.0;"/></g><!--link discounts to order_details--><g id="link_discounts_order_details"><path codeLine="133" d="M1121,909.2783 C1121,976.9183 1121,1067.1883 1121,1134.8083 " fill="none" id="discounts-order_details" style="stroke:#181818;stroke-width:1.0;"/><line style="stroke:#181818;stroke-width:1.0;" x1="1121" x2="1121" y1="912.4083" y2="901.4083"/><ellipse cx="1121" cy="912.4083" fill="none" rx="4" ry="4" style="stroke:#181818;stroke-width:1.0;"/><line style="stroke:#181818;stroke-width:1.0;" x1="1117" x2="1125" y1="905.4083" y2="905.4083"/><line style="stroke:#181818;stroke-width:1.0;" x1="1121" x2="1127" y1="1134.6783" y2="1142.6783"/><line style="stroke:#181818;stroke-width:1.0;" x1="1121" x2="1115" y1="1134.6783" y2="1142.6783"/><line style="stroke:#181818;stroke-width:1.0;" x1="1121" x2="1121" y1="1134.6783" y2="1142.6783"/><ellipse cx="1121" cy="1128.6783" fill="none" rx="4" ry="4" style="stroke:#181818;stroke-width:1.0;"/></g><!--link menu_categories to products--><g id="link_menu_categories_products"><path codeLine="135" d="M371.95,672.6783 C386.14,687.5883 401.15,703.3683 415.77,718.7383 " fill="none" id="menu_categories-products" style="stroke:#181818;stroke-width:1.0;"/><line style="stroke:#181818;stroke-width:1.0;" x1="366.4642" x2="372.2552" y1="672.7035" y2="667.1841"/><line style="stroke:#181818;stroke-width:1.0;" x1="368.5339" x2="374.325" y1="674.8752" y2="669.3558"/><line style="stroke:#181818;stroke-width:1.0;" x1="372.1194" x2="366.6" y1="672.8393" y2="667.0483"/><line style="stroke:#181818;stroke-width:1.0;" x1="415.4478" x2="425.3084" y1="718.4004" y2="720.0641"/><line style="stroke:#181818;stroke-width:1.0;" x1="415.4478" x2="416.6116" y1="718.4004" y2="728.3325"/><line style="stroke:#181818;stroke-width:1.0;" x1="415.4478" x2="420.96" y1="718.4004" y2="724.1983"/><line style="stroke:#181818;stroke-width:1.0;" x1="416.9686" x2="411.1708" y1="714.1948" y2="719.7071"/></g><!--link prices to products--><g id="link_prices_products"><path codeLine="136" d="M652.54,656.0983 C634.06,675.4383 613.12,697.3383 592.93,718.4583 " fill="none" id="prices-products" style="stroke:#181818;stroke-width:1.0;"/><line style="stroke:#181818;stroke-width:1.0;" x1="652.3746" x2="658.1585" y1="650.4768" y2="656.0037"/><line style="stroke:#181818;stroke-width:1.0;" x1="650.302" x2="656.086" y1="652.6458" y2="658.1726"/><line style="stroke:#181818;stroke-width:1.0;" x1="652.5031" x2="658.03" y1="656.1322" y2="650.3483"/><line style="stroke:#181818;stroke-width:1.0;" x1="592.9669" x2="591.7779" y1="718.4144" y2="728.3434"/><line style="stroke:#181818;stroke-width:1.0;" x1="592.9669" x2="583.1021" y1="718.4144" y2="720.0531"/><line style="stroke:#181818;stroke-width:1.0;" x1="592.9669" x2="587.44" y1="718.4144" y2="724.1983"/><line style="stroke:#181818;stroke-width:1.0;" x1="597.2405" x2="591.4566" y1="719.7318" y2="714.2049"/></g><!--link products to products_discounts--><g id="link_products_products_discounts"><path codeLine="138" d="M664.77,812.4883 C669.94,812.4883 675.12,812.4883 680.3,812.4883 " fill="none" id="products-products_discounts" style="stroke:#181818;stroke-width:1.0;"/><line style="stroke:#181818;stroke-width:1.0;" x1="667.92" x2="656.92" y1="812.4883" y2="812.4883"/><ellipse cx="667.92" cy="812.4883" fill="none" rx="4" ry="4" style="stroke:#181818;stroke-width:1.0;"/><line style="stroke:#181818;stroke-width:1.0;" x1="660.92" x2="660.92" y1="816.4883" y2="808.4883"/><line style="stroke:#181818;stroke-width:1.0;" x1="680.11" x2="688.11" y1="812.4883" y2="806.4883"/><line style="stroke:#181818;stroke-width:1.0;" x1="680.11" x2="688.11" y1="812.4883" y2="818.4883"/><line style="stroke:#181818;stroke-width:1.0;" x1="680.11" x2="688.11" y1="812.4883" y2="812.4883"/><ellipse cx="674.11" cy="812.4883" fill="none" rx="4" ry="4" style="stroke:#181818;stroke-width:1.0;"/></g><!--link products_discounts to discounts--><g id="link_products_discounts_discounts"><path codeLine="139" d="M991.87,812.4883 C997.12,812.4883 1002.36,812.4883 1007.61,812.4883 " fill="none" id="products_discounts-discounts" style="stroke:#181818;stroke-width:1.0;"/><line style="stroke:#181818;stroke-width:1.0;" x1="991.91" x2="983.91" y1="812.4883" y2="818.4883"/><line style="stroke:#181818;stroke-width:1.0;" x1="991.91" x2="983.91" y1="812.4883" y2="806.4883"/><line style="stroke:#181818;stroke-width:1.0;" x1="991.91" x2="983.91" y1="812.4883" y2="812.4883"/><ellipse cx="997.91" cy="812.4883" fill="none" rx="4" ry="4" style="stroke:#181818;stroke-width:1.0;"/><line style="stroke:#181818;stroke-width:1.0;" x1="1004.53" x2="1015.53" y1="812.4883" y2="812.4883"/><ellipse cx="1004.53" cy="812.4883" fill="none" rx="4" ry="4" style="stroke:#181818;stroke-width:1.0;"/><line style="stroke:#181818;stroke-width:1.0;" x1="1011.53" x2="1011.53" y1="808.4883" y2="816.4883"/></g><!--link products to product_foods--><g id="link_products_product_foods"><path codeLine="141" d="M439.22,907.4883 C429.01,922.3083 418.61,937.3983 408.87,951.5283 " fill="none" id="products-product_foods" style="stroke:#181818;stroke-width:1.0;"/><line style="stroke:#181818;stroke-width:1.0;" x1="437.9661" x2="444.5514" y1="902.2496" y2="906.7922"/><line style="stroke:#181818;stroke-width:1.0;" x1="436.2627" x2="442.8479" y1="904.7191" y2="909.2616"/><line style="stroke:#181818;stroke-width:1.0;" x1="438.9875" x2="443.53" y1="907.8135" y2="901.2283"/><line style="stroke:#181818;stroke-width:1.0;" x1="408.9259" x2="409.3324" y1="951.4384" y2="961.4302"/><line style="stroke:#181818;stroke-width:1.0;" x1="408.9259" x2="399.4476" y1="951.4384" y2="954.6264"/><line style="stroke:#181818;stroke-width:1.0;" x1="408.9259" x2="404.39" y1="951.4384" y2="958.0283"/><line style="stroke:#181818;stroke-width:1.0;" x1="413.3547" x2="406.7649" y1="952.0589" y2="947.5231"/></g><!--link foods to product_foods--><g id="link_foods_product_foods"><path codeLine="142" d="M270.81,891.0183 C284.62,910.9283 299.4,932.2183 312.9,951.6783 " fill="none" id="foods-product_foods" style="stroke:#181818;stroke-width:1.0;"/><line style="stroke:#181818;stroke-width:1.0;" x1="265.3968" x2="271.9754" y1="890.2537" y2="885.7015"/><line style="stroke:#181818;stroke-width:1.0;" x1="267.1039" x2="273.6825" y1="892.7206" y2="888.1684"/><line style="stroke:#181818;stroke-width:1.0;" x1="270.9622" x2="266.41" y1="891.2668" y2="884.6883"/><line style="stroke:#181818;stroke-width:1.0;" x1="312.7911" x2="322.2805" y1="951.5143" y2="954.6691"/><line style="stroke:#181818;stroke-width:1.0;" x1="312.7911" x2="312.4195" y1="951.5143" y2="961.5074"/><line style="stroke:#181818;stroke-width:1.0;" x1="312.7911" x2="317.35" y1="951.5143" y2="958.0883"/><line style="stroke:#181818;stroke-width:1.0;" x1="314.9384" x2="308.3644" y1="947.5914" y2="952.1503"/></g><!--SRC=[dLRDRjj64BxpAOZuK220Ng37ekz1qEJ68agJ0d-I1d61acnLMMuijOca67QHkAaRsQfZEKvi8LQTXrbnHP_o2ftTvP8K9HLoU238-OOpt_pi3B-IguQEPA-APBTcUn9xqmn7Cv4aUOPd8ldRRvB-QT9lI1AoGF9OlgVvhcTl8iULlvPl3z_4R__4KHr7OnnrSJIu9wkkdAiyaMJvlg73lLAXZm_KJSDyh5Zg9eBFoR35X8RZUa8MjvzIcOTCQd__EZa-dtPEujOLbQgrckAxo54C7L0SWkiUZavmy1P7VrCEuINScR_xceDK3-cAwj4tlwQBjnyAiLHLoq8c3OLSz4dtb-c7NvEhi_c0X5uvdXJ80YeOIGDPXORjw12JwwaU15SWqxmaF-_CaIbfbobne6GaUurRlSdr2_nZG9wVaUqE3duYemOEFe4481pyHaQ7EEXnuPtuvouNCvvZkYRQX5UJznA3rqHQ6L1CAeUB6PZHOR6kNlvDPFcA1i26xHWiyJWwn16a_8Wrqu164hwd7KRZAKLL_heS7iCt7DklfUqwOti8PfYz7kTRj9OTaF-X0-trUToOxk_Zi9dSZ7a9SJ30mIv8u7ao6ZD9Cpxwbw8179FZp-Djnj9LJD_Igefkk9hjMv0QvkqOHnSu2d3u2OT_uUWL7Anu-rqyxiHdDyavDCOEsC117HvMpN7DCJIMscb_bpGF9ZU7vDLyBbEjSYypSUdRrHtRkgzvr7NSgSVFWWLEKus5bSjgiQ1uCvNWFSceSjqYMrxSr1Chgw33vuD0TEHgZb7p3DiI2id9F-J5RbekzQ5gcEgwYV9mmjz9gpsvsP-CJh-aCABqB46io7C9obLA6HA0yb0rVPGPo0gKuGuupc1wRpUefHn7gcjRcSQqNPy-FwSQwsZ3i80n7GpTdVZD3kaTaRqG86JfN3xz44u-rZFvdPf2cOcUruE7C3gzxJvRsYhAqfIiYKgo5k0cUMTamNA4kU5j0NNLaOduwKi6NGW_tcxUxi7Hwz3360vNZUk1RUji8Rz-IVvepz7dyDmo1gcODFp3T6V1MDQ-ermF-l770Uam6kZxcW7bX0PLT5vLSjb8tbsJWvUtU-qx5a0HX7cYbj2ULLuvuImklbEOtTKN0byiElBWiENxB3c-cBuVBjd3GhdCZgE5vIJ6n9TqoIF3gzg-fpnINNNTeECeWDLz0LC61q_BXvyET-IwIZexSNY5ezSmgk9Xwovp8l-9szggLBQUf5jSolw5PiMblv9PK4h_0AYKNW8HsPEoKSmqx3ASdxejUn4kbNTnwbwObTBzKXON_DeLXzgTF-YppiqbIhCHv3vuxqgyWnT2_m40]--></g></svg>