<?xml version="1.0" encoding="us-ascii" standalone="no"?><svg xmlns="http://www.w3.org/2000/svg" xmlns:xlink="http://www.w3.org/1999/xlink" contentStyleType="text/css" height="997px" preserveAspectRatio="none" style="width:1372px;height:997px;background:#FFFFFF;" version="1.1" viewBox="0 0 1372 997" width="1372px" zoomAndPan="magnify"><defs/><g><text fill="#000000" font-family="sans-serif" font-size="14" font-weight="bold" lengthAdjust="spacing" textLength="48" x="655.25" y="23.5352">DB&#35373;&#35336;</text><!--class orders--><g id="elem_orders"><rect codeLine="7" fill="#F1F1F1" height="141.418" id="orders" rx="2.5" ry="2.5" style="stroke:#181818;stroke-width:0.5;" width="213" x="377" y="44.4883"/><text fill="#000000" font-family="sans-serif" font-size="14" lengthAdjust="spacing" textLength="141" x="413" y="63.0234">orders : &#27880;&#25991;&#12486;&#12540;&#12502;&#12523;</text><line style="stroke:#181818;stroke-width:0.5;" x1="378" x2="589" y1="70.9766" y2="70.9766"/><ellipse cx="388" cy="84.7207" fill="#000000" rx="3" ry="3" style="stroke:#000000;stroke-width:1.0;"/><text fill="#000000" font-family="sans-serif" font-size="14" lengthAdjust="spacing" textLength="13" x="397" y="88.5117">id</text><line style="stroke:#181818;stroke-width:1.0;" x1="378" x2="589" y1="95.4648" y2="95.4648"/><polygon fill="none" points="388,104.209,392,108.209,388,112.209,384,108.209" style="stroke:#B38D22;stroke-width:1.0;"/><text fill="#000000" font-family="sans-serif" font-size="14" lengthAdjust="spacing" textLength="137" x="397" y="113">customer_id : &#39015;&#23458;id</text><polygon fill="none" points="388,120.6973,392,124.6973,388,128.6973,384,124.6973" style="stroke:#B38D22;stroke-width:1.0;"/><text fill="#000000" font-family="sans-serif" font-size="14" lengthAdjust="spacing" textLength="155" x="397" y="129.4883">channel_id : &#27880;&#25991;&#32076;&#36335;id</text><polygon fill="none" points="388,137.1855,392,141.1855,388,145.1855,384,141.1855" style="stroke:#B38D22;stroke-width:1.0;"/><text fill="#000000" font-family="sans-serif" font-size="14" lengthAdjust="spacing" textLength="187" x="397" y="145.9766">order_status_id : &#27880;&#25991;&#29366;&#24907;id</text><ellipse cx="388" cy="158.6738" fill="#000000" rx="3" ry="3" style="stroke:#000000;stroke-width:1.0;"/><text fill="#000000" font-family="sans-serif" font-size="14" lengthAdjust="spacing" textLength="71" x="397" y="162.4648">created_at</text><ellipse cx="388" cy="175.1621" fill="#000000" rx="3" ry="3" style="stroke:#000000;stroke-width:1.0;"/><text fill="#000000" font-family="sans-serif" font-size="14" lengthAdjust="spacing" textLength="77" x="397" y="178.9531">updated_at</text></g><!--class customers--><g id="elem_customers"><rect codeLine="17" fill="#F1F1F1" height="141.418" id="customers" rx="2.5" ry="2.5" style="stroke:#181818;stroke-width:0.5;" width="173" x="7" y="245.4883"/><text fill="#000000" font-family="sans-serif" font-size="14" lengthAdjust="spacing" textLength="167" x="10" y="264.0234">customers : &#39015;&#23458;&#12486;&#12540;&#12502;&#12523;</text><line style="stroke:#181818;stroke-width:0.5;" x1="8" x2="179" y1="271.9766" y2="271.9766"/><ellipse cx="18" cy="285.7207" fill="#000000" rx="3" ry="3" style="stroke:#000000;stroke-width:1.0;"/><text fill="#000000" font-family="sans-serif" font-size="14" lengthAdjust="spacing" textLength="13" x="27" y="289.5117">id</text><line style="stroke:#181818;stroke-width:1.0;" x1="8" x2="179" y1="296.4648" y2="296.4648"/><ellipse cx="18" cy="310.209" fill="#000000" rx="3" ry="3" style="stroke:#000000;stroke-width:1.0;"/><text fill="#000000" font-family="sans-serif" font-size="14" lengthAdjust="spacing" textLength="112" x="27" y="314">family_name : &#27663;</text><ellipse cx="18" cy="326.6973" fill="#000000" rx="3" ry="3" style="stroke:#000000;stroke-width:1.0;"/><text fill="#000000" font-family="sans-serif" font-size="14" lengthAdjust="spacing" textLength="98" x="27" y="330.4883">first_name : &#21517;</text><ellipse cx="18" cy="343.1855" fill="#000000" rx="3" ry="3" style="stroke:#000000;stroke-width:1.0;"/><text fill="#000000" font-family="sans-serif" font-size="14" lengthAdjust="spacing" textLength="85" x="27" y="346.9766">tel : &#38651;&#35441;&#30058;&#21495;</text><ellipse cx="18" cy="359.6738" fill="#000000" rx="3" ry="3" style="stroke:#000000;stroke-width:1.0;"/><text fill="#000000" font-family="sans-serif" font-size="14" lengthAdjust="spacing" textLength="71" x="27" y="363.4648">created_at</text><ellipse cx="18" cy="376.1621" fill="#000000" rx="3" ry="3" style="stroke:#000000;stroke-width:1.0;"/><text fill="#000000" font-family="sans-serif" font-size="14" lengthAdjust="spacing" textLength="77" x="27" y="379.9531">updated_at</text></g><!--class channels--><g id="elem_channels"><rect codeLine="27" fill="#F1F1F1" height="108.4414" id="channels" rx="2.5" ry="2.5" style="stroke:#181818;stroke-width:0.5;" width="207" x="215" y="261.9883"/><text fill="#000000" font-family="sans-serif" font-size="14" lengthAdjust="spacing" textLength="185" x="226" y="280.5234">channels : &#27880;&#25991;&#32076;&#36335;&#12486;&#12540;&#12502;&#12523;</text><line style="stroke:#181818;stroke-width:0.5;" x1="216" x2="421" y1="288.4766" y2="288.4766"/><ellipse cx="226" cy="302.2207" fill="#000000" rx="3" ry="3" style="stroke:#000000;stroke-width:1.0;"/><text fill="#000000" font-family="sans-serif" font-size="14" lengthAdjust="spacing" textLength="13" x="235" y="306.0117">id</text><line style="stroke:#181818;stroke-width:1.0;" x1="216" x2="421" y1="312.9648" y2="312.9648"/><ellipse cx="226" cy="326.709" fill="#000000" rx="3" ry="3" style="stroke:#000000;stroke-width:1.0;"/><text fill="#000000" font-family="sans-serif" font-size="14" lengthAdjust="spacing" textLength="181" x="235" y="330.5">channel_name : &#27880;&#25991;&#32076;&#36335;&#21517;</text><ellipse cx="226" cy="343.1973" fill="#000000" rx="3" ry="3" style="stroke:#000000;stroke-width:1.0;"/><text fill="#000000" font-family="sans-serif" font-size="14" lengthAdjust="spacing" textLength="71" x="235" y="346.9883">created_at</text><ellipse cx="226" cy="359.6855" fill="#000000" rx="3" ry="3" style="stroke:#000000;stroke-width:1.0;"/><text fill="#000000" font-family="sans-serif" font-size="14" lengthAdjust="spacing" textLength="77" x="235" y="363.4766">updated_at</text></g><!--class order_statuses--><g id="elem_order_statuses"><rect codeLine="35" fill="#F1F1F1" height="108.4414" id="order_statuses" rx="2.5" ry="2.5" style="stroke:#181818;stroke-width:0.5;" width="385" x="457" y="261.9883"/><text fill="#000000" font-family="sans-serif" font-size="14" lengthAdjust="spacing" textLength="225" x="537" y="280.5234">order_statuses : &#27880;&#25991;&#29366;&#24907;&#12486;&#12540;&#12502;&#12523;</text><line style="stroke:#181818;stroke-width:0.5;" x1="458" x2="841" y1="288.4766" y2="288.4766"/><ellipse cx="468" cy="302.2207" fill="#000000" rx="3" ry="3" style="stroke:#000000;stroke-width:1.0;"/><text fill="#000000" font-family="sans-serif" font-size="14" lengthAdjust="spacing" textLength="13" x="477" y="306.0117">id</text><line style="stroke:#181818;stroke-width:1.0;" x1="458" x2="841" y1="312.9648" y2="312.9648"/><ellipse cx="468" cy="326.709" fill="#000000" rx="3" ry="3" style="stroke:#000000;stroke-width:1.0;"/><text fill="#000000" font-family="sans-serif" font-size="14" lengthAdjust="spacing" textLength="359" x="477" y="330.5">status : &#27880;&#25991;&#29366;&#24907; : &#27880;&#25991;&#21463;&#20184;&#12289;&#25903;&#25173;&#12356;&#28168;&#12415;&#12289;&#21463;&#12369;&#28193;&#12375;&#28168;&#12415;</text><ellipse cx="468" cy="343.1973" fill="#000000" rx="3" ry="3" style="stroke:#000000;stroke-width:1.0;"/><text fill="#000000" font-family="sans-serif" font-size="14" lengthAdjust="spacing" textLength="71" x="477" y="346.9883">created_at</text><ellipse cx="468" cy="359.6855" fill="#000000" rx="3" ry="3" style="stroke:#000000;stroke-width:1.0;"/><text fill="#000000" font-family="sans-serif" font-size="14" lengthAdjust="spacing" textLength="77" x="477" y="363.4766">updated_at</text></g><!--class order_details--><g id="elem_order_details"><rect codeLine="43" fill="#F1F1F1" height="141.418" id="order_details" rx="2.5" ry="2.5" style="stroke:#181818;stroke-width:0.5;" width="274" x="877.5" y="245.4883"/><text fill="#000000" font-family="sans-serif" font-size="14" lengthAdjust="spacing" textLength="214" x="907.5" y="264.0234">order_details : &#27880;&#25991;&#35443;&#32048;&#12486;&#12540;&#12502;&#12523;</text><line style="stroke:#181818;stroke-width:0.5;" x1="878.5" x2="1150.5" y1="271.9766" y2="271.9766"/><ellipse cx="888.5" cy="285.7207" fill="#000000" rx="3" ry="3" style="stroke:#000000;stroke-width:1.0;"/><text fill="#000000" font-family="sans-serif" font-size="14" lengthAdjust="spacing" textLength="13" x="897.5" y="289.5117">id</text><line style="stroke:#181818;stroke-width:1.0;" x1="878.5" x2="1150.5" y1="296.4648" y2="296.4648"/><polygon fill="none" points="888.5,305.209,892.5,309.209,888.5,313.209,884.5,309.209" style="stroke:#B38D22;stroke-width:1.0;"/><text fill="#000000" font-family="sans-serif" font-size="14" lengthAdjust="spacing" textLength="111" x="897.5" y="314">order_id : &#27880;&#25991;id</text><polygon fill="none" points="888.5,321.6973,892.5,325.6973,888.5,329.6973,884.5,325.6973" style="stroke:#B38D22;stroke-width:1.0;"/><text fill="#000000" font-family="sans-serif" font-size="14" lengthAdjust="spacing" textLength="127" x="897.5" y="330.4883">product_id : &#21830;&#21697;id</text><ellipse cx="888.5" cy="343.1855" fill="#000000" rx="3" ry="3" style="stroke:#000000;stroke-width:1.0;"/><text fill="#000000" font-family="sans-serif" font-size="14" lengthAdjust="spacing" textLength="248" x="897.5" y="346.9766">is_without_wasabi : &#12373;&#12403;&#25244;&#12365;&#12363;&#12393;&#12358;&#12363;</text><ellipse cx="888.5" cy="359.6738" fill="#000000" rx="3" ry="3" style="stroke:#000000;stroke-width:1.0;"/><text fill="#000000" font-family="sans-serif" font-size="14" lengthAdjust="spacing" textLength="71" x="897.5" y="363.4648">created_at</text><ellipse cx="888.5" cy="376.1621" fill="#000000" rx="3" ry="3" style="stroke:#000000;stroke-width:1.0;"/><text fill="#000000" font-family="sans-serif" font-size="14" lengthAdjust="spacing" textLength="77" x="897.5" y="379.9531">updated_at</text></g><!--class products--><g id="elem_products"><rect codeLine="53" fill="#F1F1F1" height="157.9063" id="products" rx="2.5" ry="2.5" style="stroke:#181818;stroke-width:0.5;" width="302" x="863.5" y="446.4883"/><text fill="#000000" font-family="sans-serif" font-size="14" lengthAdjust="spacing" textLength="157" x="936" y="465.0234">products : &#21830;&#21697;&#12486;&#12540;&#12502;&#12523;</text><line style="stroke:#181818;stroke-width:0.5;" x1="864.5" x2="1164.5" y1="472.9766" y2="472.9766"/><ellipse cx="874.5" cy="486.7207" fill="#000000" rx="3" ry="3" style="stroke:#000000;stroke-width:1.0;"/><text fill="#000000" font-family="sans-serif" font-size="14" lengthAdjust="spacing" textLength="13" x="883.5" y="490.5117">id</text><line style="stroke:#181818;stroke-width:1.0;" x1="864.5" x2="1164.5" y1="497.4648" y2="497.4648"/><ellipse cx="874.5" cy="511.209" fill="#000000" rx="3" ry="3" style="stroke:#000000;stroke-width:1.0;"/><text fill="#000000" font-family="sans-serif" font-size="14" lengthAdjust="spacing" textLength="149" x="883.5" y="515">product_name: &#21830;&#21697;&#21517;</text><text fill="#000000" font-family="sans-serif" font-size="14" lengthAdjust="spacing" textLength="202" x="883.5" y="531.4883">product_description: &#21830;&#21697;&#35500;&#26126;</text><polygon fill="none" points="874.5,539.1855,878.5,543.1855,874.5,547.1855,870.5,543.1855" style="stroke:#B38D22;stroke-width:1.0;"/><text fill="#000000" font-family="sans-serif" font-size="14" lengthAdjust="spacing" textLength="276" x="883.5" y="547.9766">menu_category_id : &#12513;&#12491;&#12517;&#12540;&#12459;&#12486;&#12468;&#12522;&#12540;id</text><polygon fill="none" points="874.5,555.6738,878.5,559.6738,874.5,563.6738,870.5,559.6738" style="stroke:#B38D22;stroke-width:1.0;"/><text fill="#000000" font-family="sans-serif" font-size="14" lengthAdjust="spacing" textLength="135" x="883.5" y="564.4648">price_id : &#31246;&#25244;&#20385;&#26684;id</text><ellipse cx="874.5" cy="577.1621" fill="#000000" rx="3" ry="3" style="stroke:#000000;stroke-width:1.0;"/><text fill="#000000" font-family="sans-serif" font-size="14" lengthAdjust="spacing" textLength="71" x="883.5" y="580.9531">created_at</text><ellipse cx="874.5" cy="593.6504" fill="#000000" rx="3" ry="3" style="stroke:#000000;stroke-width:1.0;"/><text fill="#000000" font-family="sans-serif" font-size="14" lengthAdjust="spacing" textLength="77" x="883.5" y="597.4414">updated_at</text></g><!--class menu_categories--><g id="elem_menu_categories"><rect codeLine="64" fill="#F1F1F1" height="108.4414" id="menu_categories" rx="2.5" ry="2.5" style="stroke:#181818;stroke-width:0.5;" width="580" x="313.5" y="672.9883"/><text fill="#000000" font-family="sans-serif" font-size="14" lengthAdjust="spacing" textLength="311" x="448" y="691.5234">menu_categories : &#12513;&#12491;&#12517;&#12540;&#12459;&#12486;&#12468;&#12522;&#12540;&#12486;&#12540;&#12502;&#12523;</text><line style="stroke:#181818;stroke-width:0.5;" x1="314.5" x2="892.5" y1="699.4766" y2="699.4766"/><ellipse cx="324.5" cy="713.2207" fill="#000000" rx="3" ry="3" style="stroke:#000000;stroke-width:1.0;"/><text fill="#000000" font-family="sans-serif" font-size="14" lengthAdjust="spacing" textLength="13" x="333.5" y="717.0117">id</text><line style="stroke:#181818;stroke-width:1.0;" x1="314.5" x2="892.5" y1="723.9648" y2="723.9648"/><ellipse cx="324.5" cy="737.709" fill="#000000" rx="3" ry="3" style="stroke:#000000;stroke-width:1.0;"/><text fill="#000000" font-family="sans-serif" font-size="14" lengthAdjust="spacing" textLength="554" x="333.5" y="741.5">menu_category_name : &#12513;&#12491;&#12517;&#12540;&#12459;&#12486;&#12468;&#12522;&#12540;&#21517;&#65288;&#30427;&#12426;&#36796;&#12415;&#12289;&#12395;&#12366;&#12426;&#12289;&#20028;&#12289;&#12362;&#22909;&#12415;&#12394;&#12393;&#65289;</text><ellipse cx="324.5" cy="754.1973" fill="#000000" rx="3" ry="3" style="stroke:#000000;stroke-width:1.0;"/><text fill="#000000" font-family="sans-serif" font-size="14" lengthAdjust="spacing" textLength="71" x="333.5" y="757.9883">created_at</text><ellipse cx="324.5" cy="770.6855" fill="#000000" rx="3" ry="3" style="stroke:#000000;stroke-width:1.0;"/><text fill="#000000" font-family="sans-serif" font-size="14" lengthAdjust="spacing" textLength="77" x="333.5" y="774.4766">updated_at</text></g><!--class prices--><g id="elem_prices"><rect codeLine="72" fill="#F1F1F1" height="108.4414" id="prices" rx="2.5" ry="2.5" style="stroke:#181818;stroke-width:0.5;" width="171" x="929" y="672.9883"/><text fill="#000000" font-family="sans-serif" font-size="14" lengthAdjust="spacing" textLength="165" x="932" y="691.5234">prices : &#31246;&#25244;&#20385;&#26684;&#12486;&#12540;&#12502;&#12523;</text><line style="stroke:#181818;stroke-width:0.5;" x1="930" x2="1099" y1="699.4766" y2="699.4766"/><ellipse cx="940" cy="713.2207" fill="#000000" rx="3" ry="3" style="stroke:#000000;stroke-width:1.0;"/><text fill="#000000" font-family="sans-serif" font-size="14" lengthAdjust="spacing" textLength="13" x="949" y="717.0117">id</text><line style="stroke:#181818;stroke-width:1.0;" x1="930" x2="1099" y1="723.9648" y2="723.9648"/><ellipse cx="940" cy="737.709" fill="#000000" rx="3" ry="3" style="stroke:#000000;stroke-width:1.0;"/><text fill="#000000" font-family="sans-serif" font-size="14" lengthAdjust="spacing" textLength="102" x="949" y="741.5">price : &#31246;&#25244;&#20385;&#26684;</text><ellipse cx="940" cy="754.1973" fill="#000000" rx="3" ry="3" style="stroke:#000000;stroke-width:1.0;"/><text fill="#000000" font-family="sans-serif" font-size="14" lengthAdjust="spacing" textLength="71" x="949" y="757.9883">created_at</text><ellipse cx="940" cy="770.6855" fill="#000000" rx="3" ry="3" style="stroke:#000000;stroke-width:1.0;"/><text fill="#000000" font-family="sans-serif" font-size="14" lengthAdjust="spacing" textLength="77" x="949" y="774.4766">updated_at</text></g><!--class product_foods--><g id="elem_product_foods"><rect codeLine="80" fill="#F1F1F1" height="124.9297" id="product_foods" rx="2.5" ry="2.5" style="stroke:#181818;stroke-width:0.5;" width="230" x="1135.5" y="664.4883"/><text fill="#000000" font-family="sans-serif" font-size="14" lengthAdjust="spacing" textLength="224" x="1138.5" y="683.0234">product_foods : &#21830;&#21697;&#39135;&#26448;&#12486;&#12540;&#12502;&#12523;</text><line style="stroke:#181818;stroke-width:0.5;" x1="1136.5" x2="1364.5" y1="690.9766" y2="690.9766"/><ellipse cx="1146.5" cy="704.7207" fill="#000000" rx="3" ry="3" style="stroke:#000000;stroke-width:1.0;"/><text fill="#000000" font-family="sans-serif" font-size="14" lengthAdjust="spacing" textLength="13" x="1155.5" y="708.5117">id</text><line style="stroke:#181818;stroke-width:1.0;" x1="1136.5" x2="1364.5" y1="715.4648" y2="715.4648"/><polygon fill="none" points="1146.5,724.209,1150.5,728.209,1146.5,732.209,1142.5,728.209" style="stroke:#B38D22;stroke-width:1.0;"/><text fill="#000000" font-family="sans-serif" font-size="14" lengthAdjust="spacing" textLength="127" x="1155.5" y="733">product_id : &#21830;&#21697;id</text><polygon fill="none" points="1146.5,740.6973,1150.5,744.6973,1146.5,748.6973,1142.5,744.6973" style="stroke:#B38D22;stroke-width:1.0;"/><text fill="#000000" font-family="sans-serif" font-size="14" lengthAdjust="spacing" textLength="105" x="1155.5" y="749.4883">food_id : &#39135;&#26448;id</text><ellipse cx="1146.5" cy="762.1855" fill="#000000" rx="3" ry="3" style="stroke:#000000;stroke-width:1.0;"/><text fill="#000000" font-family="sans-serif" font-size="14" lengthAdjust="spacing" textLength="71" x="1155.5" y="765.9766">created_at</text><ellipse cx="1146.5" cy="778.6738" fill="#000000" rx="3" ry="3" style="stroke:#000000;stroke-width:1.0;"/><text fill="#000000" font-family="sans-serif" font-size="14" lengthAdjust="spacing" textLength="77" x="1155.5" y="782.4648">updated_at</text></g><!--class foods--><g id="elem_foods"><rect codeLine="89" fill="#F1F1F1" height="141.418" id="foods" rx="2.5" ry="2.5" style="stroke:#181818;stroke-width:0.5;" width="202" x="1149.5" y="849.4883"/><text fill="#000000" font-family="sans-serif" font-size="14" lengthAdjust="spacing" textLength="135" x="1183" y="868.0234">foods : &#39135;&#26448;&#12486;&#12540;&#12502;&#12523;</text><line style="stroke:#181818;stroke-width:0.5;" x1="1150.5" x2="1350.5" y1="875.9766" y2="875.9766"/><ellipse cx="1160.5" cy="889.7207" fill="#000000" rx="3" ry="3" style="stroke:#000000;stroke-width:1.0;"/><text fill="#000000" font-family="sans-serif" font-size="14" lengthAdjust="spacing" textLength="13" x="1169.5" y="893.5117">id</text><line style="stroke:#181818;stroke-width:1.0;" x1="1150.5" x2="1350.5" y1="900.4648" y2="900.4648"/><ellipse cx="1160.5" cy="914.209" fill="#000000" rx="3" ry="3" style="stroke:#000000;stroke-width:1.0;"/><text fill="#000000" font-family="sans-serif" font-size="14" lengthAdjust="spacing" textLength="131" x="1169.5" y="918">food_name : &#39135;&#26448;&#21517;</text><ellipse cx="1160.5" cy="930.6973" fill="#000000" rx="3" ry="3" style="stroke:#000000;stroke-width:1.0;"/><text fill="#000000" font-family="sans-serif" font-size="14" lengthAdjust="spacing" textLength="90" x="1169.5" y="934.4883">stock : &#22312;&#24235;&#25968;</text><ellipse cx="1160.5" cy="947.1855" fill="#000000" rx="3" ry="3" style="stroke:#000000;stroke-width:1.0;"/><text fill="#000000" font-family="sans-serif" font-size="14" lengthAdjust="spacing" textLength="176" x="1169.5" y="950.9766">expiration_date : &#28040;&#36027;&#26399;&#38480;</text><ellipse cx="1160.5" cy="963.6738" fill="#000000" rx="3" ry="3" style="stroke:#000000;stroke-width:1.0;"/><text fill="#000000" font-family="sans-serif" font-size="14" lengthAdjust="spacing" textLength="71" x="1169.5" y="967.4648">created_at</text><ellipse cx="1160.5" cy="980.1621" fill="#000000" rx="3" ry="3" style="stroke:#000000;stroke-width:1.0;"/><text fill="#000000" font-family="sans-serif" font-size="14" lengthAdjust="spacing" textLength="77" x="1169.5" y="983.9531">updated_at</text></g><!--link orders to customers--><g id="link_orders_customers"><path codeLine="99" d="M368.13,163.0883 C315.15,186.0183 252.11,215.1483 197.5,245.4883 C194.47,247.1683 191.42,248.9083 188.36,250.6983 " fill="none" id="orders-customers" style="stroke:#181818;stroke-width:1.0;"/><line style="stroke:#181818;stroke-width:1.0;" x1="369.8919" x2="373.0639" y1="157.9822" y2="165.3264"/><line style="stroke:#181818;stroke-width:1.0;" x1="367.1378" x2="370.3098" y1="159.1717" y2="166.5159"/><line style="stroke:#181818;stroke-width:1.0;" x1="367.8057" x2="375.15" y1="163.2403" y2="160.0683"/><line style="stroke:#181818;stroke-width:1.0;" x1="188.4163" x2="184.6065" y1="250.6597" y2="259.9055"/><line style="stroke:#181818;stroke-width:1.0;" x1="188.4163" x2="178.4735" y1="250.6597" y2="249.5911"/><line style="stroke:#181818;stroke-width:1.0;" x1="188.4163" x2="181.54" y1="250.6597" y2="254.7483"/><line style="stroke:#181818;stroke-width:1.0;" x1="192.1797" x2="188.0911" y1="253.0757" y2="246.1994"/></g><!--link orders to channels--><g id="link_orders_channels"><path codeLine="100" d="M419.71,192.9283 C402.84,213.2683 384.88,234.9283 368.84,254.2783 " fill="none" id="orders-channels" style="stroke:#181818;stroke-width:1.0;"/><line style="stroke:#181818;stroke-width:1.0;" x1="418.9579" x2="425.1189" y1="187.5672" y2="192.6704"/><line style="stroke:#181818;stroke-width:1.0;" x1="417.0442" x2="423.2052" y1="189.8775" y2="194.9807"/><line style="stroke:#181818;stroke-width:1.0;" x1="419.4868" x2="424.59" y1="193.1993" y2="187.0383"/><line style="stroke:#181818;stroke-width:1.0;" x1="368.8716" x2="368.3755" y1="254.2543" y2="264.242"/><line style="stroke:#181818;stroke-width:1.0;" x1="368.8716" x2="359.1445" y1="254.2543" y2="256.5746"/><line style="stroke:#181818;stroke-width:1.0;" x1="368.8716" x2="363.76" y1="254.2543" y2="260.4083"/><line style="stroke:#181818;stroke-width:1.0;" x1="373.2265" x2="367.0726" y1="255.2717" y2="250.16"/></g><!--link orders to order_statuses--><g id="link_orders_order_statuses"><path codeLine="101" d="M547.19,192.3383 C564.58,213.1783 583.17,235.4683 599.66,255.2383 " fill="none" id="orders-order_statuses" style="stroke:#181818;stroke-width:1.0;"/><line style="stroke:#181818;stroke-width:1.0;" x1="542.2464" x2="548.3935" y1="192.6618" y2="187.5419"/><line style="stroke:#181818;stroke-width:1.0;" x1="544.1663" x2="550.3134" y1="194.9669" y2="189.8471"/><line style="stroke:#181818;stroke-width:1.0;" x1="547.8799" x2="542.76" y1="193.1754" y2="187.0283"/><line style="stroke:#181818;stroke-width:1.0;" x1="604.4851" x2="598.3366" y1="254.7749" y2="259.8932"/><line style="stroke:#181818;stroke-width:1.0;" x1="602.5657" x2="596.4173" y1="252.4693" y2="257.5875"/><line style="stroke:#181818;stroke-width:1.0;" x1="598.8517" x2="603.97" y1="254.2598" y2="260.4083"/></g><!--link orders to order_details--><g id="link_orders_order_details"><path codeLine="102" d="M599.19,152.8483 C674.05,177.4283 773.28,211.3883 859.5,245.4883 C862.47,246.6583 865.47,247.8583 868.48,249.0783 " fill="none" id="orders-order_details" style="stroke:#181818;stroke-width:1.0;"/><line style="stroke:#181818;stroke-width:1.0;" x1="594.1784" x2="596.6653" y1="155.4136" y2="147.8099"/><line style="stroke:#181818;stroke-width:1.0;" x1="597.0297" x2="599.5166" y1="156.3461" y2="148.7425"/><line style="stroke:#181818;stroke-width:1.0;" x1="599.2236" x2="591.62" y1="152.8552" y2="150.3683"/><line style="stroke:#181818;stroke-width:1.0;" x1="868.214" x2="877.8889" y1="248.9731" y2="246.4438"/><line style="stroke:#181818;stroke-width:1.0;" x1="868.214" x2="873.3511" y1="248.9731" y2="257.5528"/><line style="stroke:#181818;stroke-width:1.0;" x1="868.214" x2="875.62" y1="248.9731" y2="251.9983"/><line style="stroke:#181818;stroke-width:1.0;" x1="867.8751" x2="864.85" y1="244.5138" y2="251.9198"/></g><!--link order_details to products--><g id="link_order_details_products"><path codeLine="103" d="M1014.5,395.0783 C1014.5,409.0783 1014.5,423.7383 1014.5,437.9583 " fill="none" id="order_details-products" style="stroke:#181818;stroke-width:1.0;"/><line style="stroke:#181818;stroke-width:1.0;" x1="1010.5" x2="1018.5" y1="392.4583" y2="392.4583"/><line style="stroke:#181818;stroke-width:1.0;" x1="1010.5" x2="1018.5" y1="395.4583" y2="395.4583"/><line style="stroke:#181818;stroke-width:1.0;" x1="1014.5" x2="1014.5" y1="396.4583" y2="388.4583"/><line style="stroke:#181818;stroke-width:1.0;" x1="1018.5" x2="1010.5" y1="440.7483" y2="440.7483"/><line style="stroke:#181818;stroke-width:1.0;" x1="1018.5" x2="1010.5" y1="437.7483" y2="437.7483"/><line style="stroke:#181818;stroke-width:1.0;" x1="1014.5" x2="1014.5" y1="436.7483" y2="444.7483"/></g><!--link products to menu_categories--><g id="link_products_menu_categories"><path codeLine="104" d="M855.63,603.6083 C810.87,625.3283 763,648.5683 721.13,668.8883 " fill="none" id="products-menu_categories" style="stroke:#181818;stroke-width:1.0;"/><line style="stroke:#181818;stroke-width:1.0;" x1="856.505" x2="859.9976" y1="598.7359" y2="605.9333"/><line style="stroke:#181818;stroke-width:1.0;" x1="853.806" x2="857.2986" y1="600.0456" y2="607.243"/><line style="stroke:#181818;stroke-width:1.0;" x1="854.6527" x2="861.85" y1="604.0809" y2="600.5883"/><line style="stroke:#181818;stroke-width:1.0;" x1="720.355" x2="716.8624" y1="673.7107" y2="666.5133"/><line style="stroke:#181818;stroke-width:1.0;" x1="723.054" x2="719.5614" y1="672.4009" y2="665.2036"/><line style="stroke:#181818;stroke-width:1.0;" x1="722.2073" x2="715.01" y1="668.3657" y2="671.8583"/></g><!--link products to prices--><g id="link_products_prices"><path codeLine="105" d="M1014.5,613.0683 C1014.5,630.2883 1014.5,648.0483 1014.5,664.2283 " fill="none" id="products-prices" style="stroke:#181818;stroke-width:1.0;"/><line style="stroke:#181818;stroke-width:1.0;" x1="1010.5" x2="1018.5" y1="610.2783" y2="610.2783"/><line style="stroke:#181818;stroke-width:1.0;" x1="1010.5" x2="1018.5" y1="613.2783" y2="613.2783"/><line style="stroke:#181818;stroke-width:1.0;" x1="1014.5" x2="1014.5" y1="614.2783" y2="606.2783"/><line style="stroke:#181818;stroke-width:1.0;" x1="1018.5" x2="1010.5" y1="667.0283" y2="667.0283"/><line style="stroke:#181818;stroke-width:1.0;" x1="1018.5" x2="1010.5" y1="664.0283" y2="664.0283"/><line style="stroke:#181818;stroke-width:1.0;" x1="1014.5" x2="1014.5" y1="663.0283" y2="671.0283"/></g><!--link products to product_foods--><g id="link_products_product_foods"><path codeLine="106" d="M1114.26,610.8183 C1132.99,626.6483 1152.35,643.0183 1170.39,658.2683 " fill="none" id="products-product_foods" style="stroke:#181818;stroke-width:1.0;"/><line style="stroke:#181818;stroke-width:1.0;" x1="1108.721" x2="1113.8872" y1="611.3755" y2="605.2673"/><line style="stroke:#181818;stroke-width:1.0;" x1="1111.0115" x2="1116.1778" y1="613.3128" y2="607.2047"/><line style="stroke:#181818;stroke-width:1.0;" x1="1114.3582" x2="1108.25" y1="610.9045" y2="605.7383"/><line style="stroke:#181818;stroke-width:1.0;" x1="1170.2378" x2="1180.22" y1="658.125" y2="658.7216"/><line style="stroke:#181818;stroke-width:1.0;" x1="1170.2378" x2="1172.46" y1="658.125" y2="667.8749"/><line style="stroke:#181818;stroke-width:1.0;" x1="1170.2378" x2="1176.34" y1="658.125" y2="663.2983"/><line style="stroke:#181818;stroke-width:1.0;" x1="1171.2989" x2="1166.1256" y1="653.7806" y2="659.8828"/></g><!--link product_foods to foods--><g id="link_product_foods_foods"><path codeLine="107" d="M1250.5,797.8483 C1250.5,811.8283 1250.5,826.6083 1250.5,840.8583 " fill="none" id="product_foods-foods" style="stroke:#181818;stroke-width:1.0;"/><line style="stroke:#181818;stroke-width:1.0;" x1="1246.5" x2="1254.5" y1="795.2483" y2="795.2483"/><line style="stroke:#181818;stroke-width:1.0;" x1="1246.5" x2="1254.5" y1="798.2483" y2="798.2483"/><line style="stroke:#181818;stroke-width:1.0;" x1="1250.5" x2="1250.5" y1="799.2483" y2="791.2483"/><line style="stroke:#181818;stroke-width:1.0;" x1="1254.5" x2="1246.5" y1="843.6583" y2="843.6583"/><line style="stroke:#181818;stroke-width:1.0;" x1="1254.5" x2="1246.5" y1="840.6583" y2="840.6583"/><line style="stroke:#181818;stroke-width:1.0;" x1="1250.5" x2="1250.5" y1="839.6583" y2="847.6583"/></g><!--SRC=[bLNTJXD15BxVfzZ0XKcJle2NnlVOhBk3dTXscvrfa50JfwjOYlmOBM30O3N4qgfKGI1IyM66tIvNl88pEpDjTqgnt3ITyvqpvpldV7Fsdfc3BZ1n3fYev64ZEJdGT_B0C334UM0-V12tliMjcc608hCic3EUxm8VcVVDwAWLRRwYmH8DUZJOf45dnhIHAV55mpGpq6M_sIpxcNNA27i5u5lGPR5NpI_Xzqy9FElax68Hv0KWBkt_UXsV7WeukSz2sCPbbFAfdqGlLnAVZEC36mFNiZ4_bKkkEZqRybO4q23z6FMXYyO-CsSNO7x1Aje5m0bqrnCZz15Mjd1ZbTimoFFxTyxZWn_zHZjSFvsQdsW3qfemJbBvwHnL7nN9aKiakMbeZBOR8AtRDmzxwArJ4e1soU0OhczTdc_JvoHwTnWjDoXv4PtLAFdBB0oYv4rqrgHaInZlnjy5s8OZlOmFZlh7tGdqbRCkMO6EI4u8ikHxRjd10WWRI-5R8bG8aJKFSSuhOslUHlOZo71AM5r7KNsNabLALYWve6I9_Pcs79aC3LADrJ3mq9klU78zg6WX18Mu03a-B67e5PL3tFuQRQ_nCWkWMBOSHkcnvo-8OcdGf04JmJvdKErmAjLZ6hJPKRK6Ea3uzbjhhEhBYsRqiJVz8nrD2XFvtP9ph1LwjDwHT4dodToIW7NhkbVhx-pGQZs-w0bfKjAXP8rPsF_BirvYgOVxVpXAscp0rxtbwQVB-eMqRjqmuSHhVBxChCNUKLRMdEUvGsrTVTwBFcnCKfXqrb_9fESmoztbja_kdLu5YjK4FZVoo2Jfv4n5eDnwRASxJpYttLRuknCrkjm8dfQWRtFbMvm1V-8djVZdURIxT_L-utz4vJUkKibcAul3puPkbviwPQveErEBIMqa8xsVPBnwyCRWvKj0a_yOBdIacHVJupNImvQH0le7]--></g></svg>