<?xml version="1.0" encoding="us-ascii" standalone="no"?><svg xmlns="http://www.w3.org/2000/svg" xmlns:xlink="http://www.w3.org/1999/xlink" contentStyleType="text/css" height="1062px" preserveAspectRatio="none" style="width:1507px;height:1062px;background:#FFFFFF;" version="1.1" viewBox="0 0 1507 1062" width="1507px" zoomAndPan="magnify"><defs/><g><text fill="#000000" font-family="sans-serif" font-size="14" font-weight="bold" lengthAdjust="spacing" textLength="48" x="722.75" y="23.5352">DB&#35373;&#35336;</text><!--class orders--><g id="elem_orders"><rect codeLine="7" fill="#F1F1F1" height="141.418" id="orders" rx="2.5" ry="2.5" style="stroke:#181818;stroke-width:0.5;" width="213" x="450.5" y="44.4883"/><text fill="#000000" font-family="sans-serif" font-size="14" lengthAdjust="spacing" textLength="141" x="486.5" y="63.0234">orders : &#27880;&#25991;&#12486;&#12540;&#12502;&#12523;</text><line style="stroke:#181818;stroke-width:0.5;" x1="451.5" x2="662.5" y1="70.9766" y2="70.9766"/><ellipse cx="461.5" cy="84.7207" fill="#000000" rx="3" ry="3" style="stroke:#000000;stroke-width:1.0;"/><text fill="#000000" font-family="sans-serif" font-size="14" lengthAdjust="spacing" textLength="13" x="470.5" y="88.5117">id</text><line style="stroke:#181818;stroke-width:1.0;" x1="451.5" x2="662.5" y1="95.4648" y2="95.4648"/><polygon fill="none" points="461.5,104.209,465.5,108.209,461.5,112.209,457.5,108.209" style="stroke:#B38D22;stroke-width:1.0;"/><text fill="#000000" font-family="sans-serif" font-size="14" lengthAdjust="spacing" textLength="137" x="470.5" y="113">customer_id : &#39015;&#23458;id</text><polygon fill="none" points="461.5,120.6973,465.5,124.6973,461.5,128.6973,457.5,124.6973" style="stroke:#B38D22;stroke-width:1.0;"/><text fill="#000000" font-family="sans-serif" font-size="14" lengthAdjust="spacing" textLength="155" x="470.5" y="129.4883">channel_id : &#27880;&#25991;&#32076;&#36335;id</text><polygon fill="none" points="461.5,137.1855,465.5,141.1855,461.5,145.1855,457.5,141.1855" style="stroke:#B38D22;stroke-width:1.0;"/><text fill="#000000" font-family="sans-serif" font-size="14" lengthAdjust="spacing" textLength="187" x="470.5" y="145.9766">order_status_id : &#27880;&#25991;&#29366;&#24907;id</text><ellipse cx="461.5" cy="158.6738" fill="#000000" rx="3" ry="3" style="stroke:#000000;stroke-width:1.0;"/><text fill="#000000" font-family="sans-serif" font-size="14" lengthAdjust="spacing" textLength="71" x="470.5" y="162.4648">created_at</text><ellipse cx="461.5" cy="175.1621" fill="#000000" rx="3" ry="3" style="stroke:#000000;stroke-width:1.0;"/><text fill="#000000" font-family="sans-serif" font-size="14" lengthAdjust="spacing" textLength="77" x="470.5" y="178.9531">updated_at</text></g><!--class customers--><g id="elem_customers"><rect codeLine="17" fill="#F1F1F1" height="157.9063" id="customers" rx="2.5" ry="2.5" style="stroke:#181818;stroke-width:0.5;" width="246" x="7" y="253.4883"/><text fill="#000000" font-family="sans-serif" font-size="14" lengthAdjust="spacing" textLength="167" x="46.5" y="272.0234">customers : &#39015;&#23458;&#12486;&#12540;&#12502;&#12523;</text><line style="stroke:#181818;stroke-width:0.5;" x1="8" x2="252" y1="279.9766" y2="279.9766"/><ellipse cx="18" cy="293.7207" fill="#000000" rx="3" ry="3" style="stroke:#000000;stroke-width:1.0;"/><text fill="#000000" font-family="sans-serif" font-size="14" lengthAdjust="spacing" textLength="13" x="27" y="297.5117">id</text><line style="stroke:#181818;stroke-width:1.0;" x1="8" x2="252" y1="304.4648" y2="304.4648"/><ellipse cx="18" cy="318.209" fill="#000000" rx="3" ry="3" style="stroke:#000000;stroke-width:1.0;"/><text fill="#000000" font-family="sans-serif" font-size="14" lengthAdjust="spacing" textLength="112" x="27" y="322">family_name : &#27663;</text><ellipse cx="18" cy="334.6973" fill="#000000" rx="3" ry="3" style="stroke:#000000;stroke-width:1.0;"/><text fill="#000000" font-family="sans-serif" font-size="14" lengthAdjust="spacing" textLength="98" x="27" y="338.4883">first_name : &#21517;</text><ellipse cx="18" cy="351.1855" fill="#000000" rx="3" ry="3" style="stroke:#000000;stroke-width:1.0;"/><text fill="#000000" font-family="sans-serif" font-size="14" lengthAdjust="spacing" textLength="85" x="27" y="354.9766">tel : &#38651;&#35441;&#30058;&#21495;</text><ellipse cx="18" cy="367.6738" fill="#000000" rx="3" ry="3" style="stroke:#000000;stroke-width:1.0;"/><text fill="#000000" font-family="sans-serif" font-size="14" lengthAdjust="spacing" textLength="220" x="27" y="371.4648">app_user_id : &#12450;&#12503;&#12522;&#12398;&#12518;&#12540;&#12470;&#12540;id</text><ellipse cx="18" cy="384.1621" fill="#000000" rx="3" ry="3" style="stroke:#000000;stroke-width:1.0;"/><text fill="#000000" font-family="sans-serif" font-size="14" lengthAdjust="spacing" textLength="71" x="27" y="387.9531">created_at</text><ellipse cx="18" cy="400.6504" fill="#000000" rx="3" ry="3" style="stroke:#000000;stroke-width:1.0;"/><text fill="#000000" font-family="sans-serif" font-size="14" lengthAdjust="spacing" textLength="77" x="27" y="404.4414">updated_at</text></g><!--class channels--><g id="elem_channels"><rect codeLine="28" fill="#F1F1F1" height="108.4414" id="channels" rx="2.5" ry="2.5" style="stroke:#181818;stroke-width:0.5;" width="207" x="288.5" y="278.4883"/><text fill="#000000" font-family="sans-serif" font-size="14" lengthAdjust="spacing" textLength="185" x="299.5" y="297.0234">channels : &#27880;&#25991;&#32076;&#36335;&#12486;&#12540;&#12502;&#12523;</text><line style="stroke:#181818;stroke-width:0.5;" x1="289.5" x2="494.5" y1="304.9766" y2="304.9766"/><ellipse cx="299.5" cy="318.7207" fill="#000000" rx="3" ry="3" style="stroke:#000000;stroke-width:1.0;"/><text fill="#000000" font-family="sans-serif" font-size="14" lengthAdjust="spacing" textLength="13" x="308.5" y="322.5117">id</text><line style="stroke:#181818;stroke-width:1.0;" x1="289.5" x2="494.5" y1="329.4648" y2="329.4648"/><ellipse cx="299.5" cy="343.209" fill="#000000" rx="3" ry="3" style="stroke:#000000;stroke-width:1.0;"/><text fill="#000000" font-family="sans-serif" font-size="14" lengthAdjust="spacing" textLength="181" x="308.5" y="347">channel_name : &#27880;&#25991;&#32076;&#36335;&#21517;</text><ellipse cx="299.5" cy="359.6973" fill="#000000" rx="3" ry="3" style="stroke:#000000;stroke-width:1.0;"/><text fill="#000000" font-family="sans-serif" font-size="14" lengthAdjust="spacing" textLength="71" x="308.5" y="363.4883">created_at</text><ellipse cx="299.5" cy="376.1855" fill="#000000" rx="3" ry="3" style="stroke:#000000;stroke-width:1.0;"/><text fill="#000000" font-family="sans-serif" font-size="14" lengthAdjust="spacing" textLength="77" x="308.5" y="379.9766">updated_at</text></g><!--class order_statuses--><g id="elem_order_statuses"><rect codeLine="36" fill="#F1F1F1" height="108.4414" id="order_statuses" rx="2.5" ry="2.5" style="stroke:#181818;stroke-width:0.5;" width="385" x="530.5" y="278.4883"/><text fill="#000000" font-family="sans-serif" font-size="14" lengthAdjust="spacing" textLength="225" x="610.5" y="297.0234">order_statuses : &#27880;&#25991;&#29366;&#24907;&#12486;&#12540;&#12502;&#12523;</text><line style="stroke:#181818;stroke-width:0.5;" x1="531.5" x2="914.5" y1="304.9766" y2="304.9766"/><ellipse cx="541.5" cy="318.7207" fill="#000000" rx="3" ry="3" style="stroke:#000000;stroke-width:1.0;"/><text fill="#000000" font-family="sans-serif" font-size="14" lengthAdjust="spacing" textLength="13" x="550.5" y="322.5117">id</text><line style="stroke:#181818;stroke-width:1.0;" x1="531.5" x2="914.5" y1="329.4648" y2="329.4648"/><ellipse cx="541.5" cy="343.209" fill="#000000" rx="3" ry="3" style="stroke:#000000;stroke-width:1.0;"/><text fill="#000000" font-family="sans-serif" font-size="14" lengthAdjust="spacing" textLength="359" x="550.5" y="347">status : &#27880;&#25991;&#29366;&#24907; : &#27880;&#25991;&#21463;&#20184;&#12289;&#25903;&#25173;&#12356;&#28168;&#12415;&#12289;&#21463;&#12369;&#28193;&#12375;&#28168;&#12415;</text><ellipse cx="541.5" cy="359.6973" fill="#000000" rx="3" ry="3" style="stroke:#000000;stroke-width:1.0;"/><text fill="#000000" font-family="sans-serif" font-size="14" lengthAdjust="spacing" textLength="71" x="550.5" y="363.4883">created_at</text><ellipse cx="541.5" cy="376.1855" fill="#000000" rx="3" ry="3" style="stroke:#000000;stroke-width:1.0;"/><text fill="#000000" font-family="sans-serif" font-size="14" lengthAdjust="spacing" textLength="77" x="550.5" y="379.9766">updated_at</text></g><!--class order_details--><g id="elem_order_details"><rect codeLine="44" fill="#F1F1F1" height="174.3945" id="order_details" rx="2.5" ry="2.5" style="stroke:#181818;stroke-width:0.5;" width="274" x="951" y="245.4883"/><text fill="#000000" font-family="sans-serif" font-size="14" lengthAdjust="spacing" textLength="214" x="981" y="264.0234">order_details : &#27880;&#25991;&#35443;&#32048;&#12486;&#12540;&#12502;&#12523;</text><line style="stroke:#181818;stroke-width:0.5;" x1="952" x2="1224" y1="271.9766" y2="271.9766"/><ellipse cx="962" cy="285.7207" fill="#000000" rx="3" ry="3" style="stroke:#000000;stroke-width:1.0;"/><text fill="#000000" font-family="sans-serif" font-size="14" lengthAdjust="spacing" textLength="13" x="971" y="289.5117">id</text><line style="stroke:#181818;stroke-width:1.0;" x1="952" x2="1224" y1="296.4648" y2="296.4648"/><polygon fill="none" points="962,305.209,966,309.209,962,313.209,958,309.209" style="stroke:#B38D22;stroke-width:1.0;"/><text fill="#000000" font-family="sans-serif" font-size="14" lengthAdjust="spacing" textLength="111" x="971" y="314">order_id : &#27880;&#25991;id</text><polygon fill="none" points="962,321.6973,966,325.6973,962,329.6973,958,325.6973" style="stroke:#B38D22;stroke-width:1.0;"/><text fill="#000000" font-family="sans-serif" font-size="14" lengthAdjust="spacing" textLength="127" x="971" y="330.4883">product_id : &#21830;&#21697;id</text><polygon fill="none" points="962,338.1855,966,342.1855,962,346.1855,958,342.1855" style="stroke:#B38D22;stroke-width:1.0;"/><text fill="#000000" font-family="sans-serif" font-size="14" lengthAdjust="spacing" textLength="132" x="971" y="346.9766">discount_id : &#21106;&#24341;id</text><ellipse cx="962" cy="359.6738" fill="#000000" rx="3" ry="3" style="stroke:#000000;stroke-width:1.0;"/><text fill="#000000" font-family="sans-serif" font-size="14" lengthAdjust="spacing" textLength="248" x="971" y="363.4648">is_without_wasabi : &#12373;&#12403;&#25244;&#12365;&#12363;&#12393;&#12358;&#12363;</text><ellipse cx="962" cy="376.1621" fill="#000000" rx="3" ry="3" style="stroke:#000000;stroke-width:1.0;"/><text fill="#000000" font-family="sans-serif" font-size="14" lengthAdjust="spacing" textLength="200" x="971" y="379.9531">is_less_rice : &#12471;&#12515;&#12522;&#23567;&#12363;&#12393;&#12358;&#12363;</text><ellipse cx="962" cy="392.6504" fill="#000000" rx="3" ry="3" style="stroke:#000000;stroke-width:1.0;"/><text fill="#000000" font-family="sans-serif" font-size="14" lengthAdjust="spacing" textLength="71" x="971" y="396.4414">created_at</text><ellipse cx="962" cy="409.1387" fill="#000000" rx="3" ry="3" style="stroke:#000000;stroke-width:1.0;"/><text fill="#000000" font-family="sans-serif" font-size="14" lengthAdjust="spacing" textLength="77" x="971" y="412.9297">updated_at</text></g><!--class products--><g id="elem_products"><rect codeLine="56" fill="#F1F1F1" height="174.3945" id="products" rx="2.5" ry="2.5" style="stroke:#181818;stroke-width:0.5;" width="302" x="629" y="479.4883"/><text fill="#000000" font-family="sans-serif" font-size="14" lengthAdjust="spacing" textLength="157" x="701.5" y="498.0234">products : &#21830;&#21697;&#12486;&#12540;&#12502;&#12523;</text><line style="stroke:#181818;stroke-width:0.5;" x1="630" x2="930" y1="505.9766" y2="505.9766"/><ellipse cx="640" cy="519.7207" fill="#000000" rx="3" ry="3" style="stroke:#000000;stroke-width:1.0;"/><text fill="#000000" font-family="sans-serif" font-size="14" lengthAdjust="spacing" textLength="13" x="649" y="523.5117">id</text><line style="stroke:#181818;stroke-width:1.0;" x1="630" x2="930" y1="530.4648" y2="530.4648"/><ellipse cx="640" cy="544.209" fill="#000000" rx="3" ry="3" style="stroke:#000000;stroke-width:1.0;"/><text fill="#000000" font-family="sans-serif" font-size="14" lengthAdjust="spacing" textLength="149" x="649" y="548">product_name: &#21830;&#21697;&#21517;</text><text fill="#000000" font-family="sans-serif" font-size="14" lengthAdjust="spacing" textLength="202" x="649" y="564.4883">product_description: &#21830;&#21697;&#35500;&#26126;</text><polygon fill="none" points="640,572.1855,644,576.1855,640,580.1855,636,576.1855" style="stroke:#B38D22;stroke-width:1.0;"/><text fill="#000000" font-family="sans-serif" font-size="14" lengthAdjust="spacing" textLength="276" x="649" y="580.9766">menu_category_id : &#12513;&#12491;&#12517;&#12540;&#12459;&#12486;&#12468;&#12522;&#12540;id</text><polygon fill="none" points="640,588.6738,644,592.6738,640,596.6738,636,592.6738" style="stroke:#B38D22;stroke-width:1.0;"/><text fill="#000000" font-family="sans-serif" font-size="14" lengthAdjust="spacing" textLength="135" x="649" y="597.4648">price_id : &#31246;&#25244;&#20385;&#26684;id</text><ellipse cx="640" cy="610.1621" fill="#000000" rx="3" ry="3" style="stroke:#000000;stroke-width:1.0;"/><text fill="#000000" font-family="sans-serif" font-size="14" lengthAdjust="spacing" textLength="230" x="649" y="613.9531">is_available : &#21830;&#21697;&#12434;&#25552;&#20379;&#20013;&#12363;&#12393;&#12358;&#12363;</text><ellipse cx="640" cy="626.6504" fill="#000000" rx="3" ry="3" style="stroke:#000000;stroke-width:1.0;"/><text fill="#000000" font-family="sans-serif" font-size="14" lengthAdjust="spacing" textLength="71" x="649" y="630.4414">created_at</text><ellipse cx="640" cy="643.1387" fill="#000000" rx="3" ry="3" style="stroke:#000000;stroke-width:1.0;"/><text fill="#000000" font-family="sans-serif" font-size="14" lengthAdjust="spacing" textLength="77" x="649" y="646.9297">updated_at</text></g><!--class menu_categories--><g id="elem_menu_categories"><rect codeLine="68" fill="#F1F1F1" height="141.418" id="menu_categories" rx="2.5" ry="2.5" style="stroke:#181818;stroke-width:0.5;" width="580" x="79" y="713.4883"/><text fill="#000000" font-family="sans-serif" font-size="14" lengthAdjust="spacing" textLength="311" x="213.5" y="732.0234">menu_categories : &#12513;&#12491;&#12517;&#12540;&#12459;&#12486;&#12468;&#12522;&#12540;&#12486;&#12540;&#12502;&#12523;</text><line style="stroke:#181818;stroke-width:0.5;" x1="80" x2="658" y1="739.9766" y2="739.9766"/><ellipse cx="90" cy="753.7207" fill="#000000" rx="3" ry="3" style="stroke:#000000;stroke-width:1.0;"/><text fill="#000000" font-family="sans-serif" font-size="14" lengthAdjust="spacing" textLength="13" x="99" y="757.5117">id</text><line style="stroke:#181818;stroke-width:1.0;" x1="80" x2="658" y1="764.4648" y2="764.4648"/><ellipse cx="90" cy="778.209" fill="#000000" rx="3" ry="3" style="stroke:#000000;stroke-width:1.0;"/><text fill="#000000" font-family="sans-serif" font-size="14" lengthAdjust="spacing" textLength="554" x="99" y="782">menu_category_name : &#12513;&#12491;&#12517;&#12540;&#12459;&#12486;&#12468;&#12522;&#12540;&#21517;&#65288;&#30427;&#12426;&#36796;&#12415;&#12289;&#12395;&#12366;&#12426;&#12289;&#20028;&#12289;&#12362;&#22909;&#12415;&#12394;&#12393;&#65289;</text><ellipse cx="90" cy="794.6973" fill="#000000" rx="3" ry="3" style="stroke:#000000;stroke-width:1.0;"/><text fill="#000000" font-family="sans-serif" font-size="14" lengthAdjust="spacing" textLength="361" x="99" y="798.4883">is_lunch_discounted : &#12521;&#12531;&#12481;&#12479;&#12452;&#12512;&#12398;&#21106;&#24341;&#23550;&#35937;&#12363;&#12393;&#12358;&#12363;</text><polygon fill="none" points="90,806.1855,94,810.1855,90,814.1855,86,810.1855" style="stroke:#B38D22;stroke-width:1.0;"/><text fill="#000000" font-family="sans-serif" font-size="14" lengthAdjust="spacing" textLength="245" x="99" y="814.9766">menu_group_id : &#12513;&#12491;&#12517;&#12540;&#12464;&#12523;&#12540;&#12503;id</text><ellipse cx="90" cy="827.6738" fill="#000000" rx="3" ry="3" style="stroke:#000000;stroke-width:1.0;"/><text fill="#000000" font-family="sans-serif" font-size="14" lengthAdjust="spacing" textLength="71" x="99" y="831.4648">created_at</text><ellipse cx="90" cy="844.1621" fill="#000000" rx="3" ry="3" style="stroke:#000000;stroke-width:1.0;"/><text fill="#000000" font-family="sans-serif" font-size="14" lengthAdjust="spacing" textLength="77" x="99" y="847.9531">updated_at</text></g><!--class menu_groups--><g id="elem_menu_groups"><rect codeLine="78" fill="#F1F1F1" height="108.4414" id="menu_groups" rx="2.5" ry="2.5" style="stroke:#181818;stroke-width:0.5;" width="535" x="101.5" y="930.9883"/><text fill="#000000" font-family="sans-serif" font-size="14" lengthAdjust="spacing" textLength="275" x="231.5" y="949.5234">menu_groups : &#12513;&#12491;&#12517;&#12540;&#12464;&#12523;&#12540;&#12503;&#12486;&#12540;&#12502;&#12523;</text><line style="stroke:#181818;stroke-width:0.5;" x1="102.5" x2="635.5" y1="957.4766" y2="957.4766"/><ellipse cx="112.5" cy="971.2207" fill="#000000" rx="3" ry="3" style="stroke:#000000;stroke-width:1.0;"/><text fill="#000000" font-family="sans-serif" font-size="14" lengthAdjust="spacing" textLength="13" x="121.5" y="975.0117">id</text><line style="stroke:#181818;stroke-width:1.0;" x1="102.5" x2="635.5" y1="981.9648" y2="981.9648"/><ellipse cx="112.5" cy="995.709" fill="#000000" rx="3" ry="3" style="stroke:#000000;stroke-width:1.0;"/><text fill="#000000" font-family="sans-serif" font-size="14" lengthAdjust="spacing" textLength="509" x="121.5" y="999.5">menu_group_name : &#12513;&#12491;&#12517;&#12540;&#12464;&#12523;&#12540;&#12503;&#21517;&#65288;&#12475;&#12483;&#12488;&#12513;&#12491;&#12517;&#12540;&#12289;&#12362;&#22909;&#12415;&#12377;&#12375;&#12394;&#12393;&#65289;</text><ellipse cx="112.5" cy="1012.1973" fill="#000000" rx="3" ry="3" style="stroke:#000000;stroke-width:1.0;"/><text fill="#000000" font-family="sans-serif" font-size="14" lengthAdjust="spacing" textLength="71" x="121.5" y="1015.9883">created_at</text><ellipse cx="112.5" cy="1028.6855" fill="#000000" rx="3" ry="3" style="stroke:#000000;stroke-width:1.0;"/><text fill="#000000" font-family="sans-serif" font-size="14" lengthAdjust="spacing" textLength="77" x="121.5" y="1032.4766">updated_at</text></g><!--class prices--><g id="elem_prices"><rect codeLine="86" fill="#F1F1F1" height="108.4414" id="prices" rx="2.5" ry="2.5" style="stroke:#181818;stroke-width:0.5;" width="171" x="694.5" y="729.9883"/><text fill="#000000" font-family="sans-serif" font-size="14" lengthAdjust="spacing" textLength="165" x="697.5" y="748.5234">prices : &#31246;&#25244;&#20385;&#26684;&#12486;&#12540;&#12502;&#12523;</text><line style="stroke:#181818;stroke-width:0.5;" x1="695.5" x2="864.5" y1="756.4766" y2="756.4766"/><ellipse cx="705.5" cy="770.2207" fill="#000000" rx="3" ry="3" style="stroke:#000000;stroke-width:1.0;"/><text fill="#000000" font-family="sans-serif" font-size="14" lengthAdjust="spacing" textLength="13" x="714.5" y="774.0117">id</text><line style="stroke:#181818;stroke-width:1.0;" x1="695.5" x2="864.5" y1="780.9648" y2="780.9648"/><ellipse cx="705.5" cy="794.709" fill="#000000" rx="3" ry="3" style="stroke:#000000;stroke-width:1.0;"/><text fill="#000000" font-family="sans-serif" font-size="14" lengthAdjust="spacing" textLength="102" x="714.5" y="798.5">price : &#31246;&#25244;&#20385;&#26684;</text><ellipse cx="705.5" cy="811.1973" fill="#000000" rx="3" ry="3" style="stroke:#000000;stroke-width:1.0;"/><text fill="#000000" font-family="sans-serif" font-size="14" lengthAdjust="spacing" textLength="71" x="714.5" y="814.9883">created_at</text><ellipse cx="705.5" cy="827.6855" fill="#000000" rx="3" ry="3" style="stroke:#000000;stroke-width:1.0;"/><text fill="#000000" font-family="sans-serif" font-size="14" lengthAdjust="spacing" textLength="77" x="714.5" y="831.4766">updated_at</text></g><!--class discounts--><g id="elem_discounts"><rect codeLine="94" fill="#F1F1F1" height="174.3945" id="discounts" rx="2.5" ry="2.5" style="stroke:#181818;stroke-width:0.5;" width="207" x="1293.5" y="479.4883"/><text fill="#000000" font-family="sans-serif" font-size="14" lengthAdjust="spacing" textLength="162" x="1316" y="498.0234">discounts : &#21106;&#24341;&#12486;&#12540;&#12502;&#12523;</text><line style="stroke:#181818;stroke-width:0.5;" x1="1294.5" x2="1499.5" y1="505.9766" y2="505.9766"/><ellipse cx="1304.5" cy="519.7207" fill="#000000" rx="3" ry="3" style="stroke:#000000;stroke-width:1.0;"/><text fill="#000000" font-family="sans-serif" font-size="14" lengthAdjust="spacing" textLength="13" x="1313.5" y="523.5117">id</text><line style="stroke:#181818;stroke-width:1.0;" x1="1294.5" x2="1499.5" y1="530.4648" y2="530.4648"/><text fill="#000000" font-family="sans-serif" font-size="14" lengthAdjust="spacing" textLength="170" x="1313.5" y="548">discount_value : &#21106;&#24341;&#20385;&#26684;</text><text fill="#000000" font-family="sans-serif" font-size="14" lengthAdjust="spacing" textLength="161" x="1313.5" y="564.4883">discount_rate : &#21106;&#24341;&#21106;&#21512;</text><ellipse cx="1304.5" cy="577.1855" fill="#000000" rx="3" ry="3" style="stroke:#000000;stroke-width:1.0;"/><text fill="#000000" font-family="sans-serif" font-size="14" lengthAdjust="spacing" textLength="181" x="1313.5" y="580.9766">discount_reason : &#21106;&#24341;&#29702;&#30001;</text><ellipse cx="1304.5" cy="593.6738" fill="#000000" rx="3" ry="3" style="stroke:#000000;stroke-width:1.0;"/><text fill="#000000" font-family="sans-serif" font-size="14" lengthAdjust="spacing" textLength="127" x="1313.5" y="597.4648">begin_at : &#38283;&#22987;&#26085;&#26178;</text><text fill="#000000" font-family="sans-serif" font-size="14" lengthAdjust="spacing" textLength="114" x="1313.5" y="613.9531">end_at : &#32066;&#20102;&#26085;&#26178;</text><ellipse cx="1304.5" cy="626.6504" fill="#000000" rx="3" ry="3" style="stroke:#000000;stroke-width:1.0;"/><text fill="#000000" font-family="sans-serif" font-size="14" lengthAdjust="spacing" textLength="71" x="1313.5" y="630.4414">created_at</text><ellipse cx="1304.5" cy="643.1387" fill="#000000" rx="3" ry="3" style="stroke:#000000;stroke-width:1.0;"/><text fill="#000000" font-family="sans-serif" font-size="14" lengthAdjust="spacing" textLength="77" x="1313.5" y="646.9297">updated_at</text></g><!--class products_discounts--><g id="elem_products_discounts"><rect codeLine="106" fill="#F1F1F1" height="141.418" id="products_discounts" rx="2.5" ry="2.5" style="stroke:#181818;stroke-width:0.5;" width="292" x="966" y="495.9883"/><text fill="#000000" font-family="sans-serif" font-size="14" lengthAdjust="spacing" textLength="286" x="969" y="514.5234">products_discounts : &#21830;&#21697;&#21106;&#24341;&#20013;&#38291;&#12486;&#12540;&#12502;&#12523;</text><line style="stroke:#181818;stroke-width:0.5;" x1="967" x2="1257" y1="522.4766" y2="522.4766"/><ellipse cx="977" cy="536.2207" fill="#000000" rx="3" ry="3" style="stroke:#000000;stroke-width:1.0;"/><text fill="#000000" font-family="sans-serif" font-size="14" lengthAdjust="spacing" textLength="13" x="986" y="540.0117">id</text><line style="stroke:#181818;stroke-width:1.0;" x1="967" x2="1257" y1="546.9648" y2="546.9648"/><polygon fill="none" points="977,555.709,981,559.709,977,563.709,973,559.709" style="stroke:#B38D22;stroke-width:1.0;"/><text fill="#000000" font-family="sans-serif" font-size="14" lengthAdjust="spacing" textLength="127" x="986" y="564.5">product_id : &#21830;&#21697;id</text><polygon fill="none" points="977,572.1973,981,576.1973,977,580.1973,973,576.1973" style="stroke:#B38D22;stroke-width:1.0;"/><text fill="#000000" font-family="sans-serif" font-size="14" lengthAdjust="spacing" textLength="132" x="986" y="580.9883">discount_id : &#21106;&#24341;id</text><ellipse cx="977" cy="593.6855" fill="#000000" rx="3" ry="3" style="stroke:#000000;stroke-width:1.0;"/><text fill="#000000" font-family="sans-serif" font-size="14" lengthAdjust="spacing" textLength="179" x="986" y="597.4766">is_deleted : &#35542;&#29702;&#21066;&#38500;&#12501;&#12521;&#12464;</text><ellipse cx="977" cy="610.1738" fill="#000000" rx="3" ry="3" style="stroke:#000000;stroke-width:1.0;"/><text fill="#000000" font-family="sans-serif" font-size="14" lengthAdjust="spacing" textLength="71" x="986" y="613.9648">created_at</text><ellipse cx="977" cy="626.6621" fill="#000000" rx="3" ry="3" style="stroke:#000000;stroke-width:1.0;"/><text fill="#000000" font-family="sans-serif" font-size="14" lengthAdjust="spacing" textLength="77" x="986" y="630.4531">updated_at</text></g><!--class product_foods--><g id="elem_product_foods"><rect codeLine="116" fill="#F1F1F1" height="124.9297" id="product_foods" rx="2.5" ry="2.5" style="stroke:#181818;stroke-width:0.5;" width="230" x="901" y="721.4883"/><text fill="#000000" font-family="sans-serif" font-size="14" lengthAdjust="spacing" textLength="224" x="904" y="740.0234">product_foods : &#21830;&#21697;&#39135;&#26448;&#12486;&#12540;&#12502;&#12523;</text><line style="stroke:#181818;stroke-width:0.5;" x1="902" x2="1130" y1="747.9766" y2="747.9766"/><ellipse cx="912" cy="761.7207" fill="#000000" rx="3" ry="3" style="stroke:#000000;stroke-width:1.0;"/><text fill="#000000" font-family="sans-serif" font-size="14" lengthAdjust="spacing" textLength="13" x="921" y="765.5117">id</text><line style="stroke:#181818;stroke-width:1.0;" x1="902" x2="1130" y1="772.4648" y2="772.4648"/><polygon fill="none" points="912,781.209,916,785.209,912,789.209,908,785.209" style="stroke:#B38D22;stroke-width:1.0;"/><text fill="#000000" font-family="sans-serif" font-size="14" lengthAdjust="spacing" textLength="127" x="921" y="790">product_id : &#21830;&#21697;id</text><polygon fill="none" points="912,797.6973,916,801.6973,912,805.6973,908,801.6973" style="stroke:#B38D22;stroke-width:1.0;"/><text fill="#000000" font-family="sans-serif" font-size="14" lengthAdjust="spacing" textLength="105" x="921" y="806.4883">food_id : &#39135;&#26448;id</text><ellipse cx="912" cy="819.1855" fill="#000000" rx="3" ry="3" style="stroke:#000000;stroke-width:1.0;"/><text fill="#000000" font-family="sans-serif" font-size="14" lengthAdjust="spacing" textLength="71" x="921" y="822.9766">created_at</text><ellipse cx="912" cy="835.6738" fill="#000000" rx="3" ry="3" style="stroke:#000000;stroke-width:1.0;"/><text fill="#000000" font-family="sans-serif" font-size="14" lengthAdjust="spacing" textLength="77" x="921" y="839.4648">updated_at</text></g><!--class foods--><g id="elem_foods"><rect codeLine="125" fill="#F1F1F1" height="141.418" id="foods" rx="2.5" ry="2.5" style="stroke:#181818;stroke-width:0.5;" width="202" x="915" y="914.4883"/><text fill="#000000" font-family="sans-serif" font-size="14" lengthAdjust="spacing" textLength="135" x="948.5" y="933.0234">foods : &#39135;&#26448;&#12486;&#12540;&#12502;&#12523;</text><line style="stroke:#181818;stroke-width:0.5;" x1="916" x2="1116" y1="940.9766" y2="940.9766"/><ellipse cx="926" cy="954.7207" fill="#000000" rx="3" ry="3" style="stroke:#000000;stroke-width:1.0;"/><text fill="#000000" font-family="sans-serif" font-size="14" lengthAdjust="spacing" textLength="13" x="935" y="958.5117">id</text><line style="stroke:#181818;stroke-width:1.0;" x1="916" x2="1116" y1="965.4648" y2="965.4648"/><ellipse cx="926" cy="979.209" fill="#000000" rx="3" ry="3" style="stroke:#000000;stroke-width:1.0;"/><text fill="#000000" font-family="sans-serif" font-size="14" lengthAdjust="spacing" textLength="131" x="935" y="983">food_name : &#39135;&#26448;&#21517;</text><ellipse cx="926" cy="995.6973" fill="#000000" rx="3" ry="3" style="stroke:#000000;stroke-width:1.0;"/><text fill="#000000" font-family="sans-serif" font-size="14" lengthAdjust="spacing" textLength="90" x="935" y="999.4883">stock : &#22312;&#24235;&#25968;</text><ellipse cx="926" cy="1012.1855" fill="#000000" rx="3" ry="3" style="stroke:#000000;stroke-width:1.0;"/><text fill="#000000" font-family="sans-serif" font-size="14" lengthAdjust="spacing" textLength="176" x="935" y="1015.9766">expiration_date : &#28040;&#36027;&#26399;&#38480;</text><ellipse cx="926" cy="1028.6738" fill="#000000" rx="3" ry="3" style="stroke:#000000;stroke-width:1.0;"/><text fill="#000000" font-family="sans-serif" font-size="14" lengthAdjust="spacing" textLength="71" x="935" y="1032.4648">created_at</text><ellipse cx="926" cy="1045.1621" fill="#000000" rx="3" ry="3" style="stroke:#000000;stroke-width:1.0;"/><text fill="#000000" font-family="sans-serif" font-size="14" lengthAdjust="spacing" textLength="77" x="935" y="1048.9531">updated_at</text></g><!--link orders to customers--><g id="link_orders_customers"><path codeLine="135" d="M441.54,164.4183 C388.81,187.5083 326,216.4083 271,245.4883 C267.81,247.1783 264.6,248.8983 261.36,250.6683 " fill="none" id="orders-customers" style="stroke:#181818;stroke-width:1.0;"/><line style="stroke:#181818;stroke-width:1.0;" x1="443.5902" x2="446.8035" y1="159.1618" y2="166.4881"/><line style="stroke:#181818;stroke-width:1.0;" x1="440.8428" x2="444.0561" y1="160.3668" y2="167.6931"/><line style="stroke:#181818;stroke-width:1.0;" x1="441.5337" x2="448.86" y1="164.4316" y2="161.2183"/><line style="stroke:#181818;stroke-width:1.0;" x1="261.634" x2="257.5293" y1="250.5125" y2="259.6313"/><line style="stroke:#181818;stroke-width:1.0;" x1="261.634" x2="251.7307" y1="250.5125" y2="249.1253"/><line style="stroke:#181818;stroke-width:1.0;" x1="261.634" x2="254.63" y1="250.5125" y2="254.3783"/><line style="stroke:#181818;stroke-width:1.0;" x1="265.3179" x2="261.4521" y1="253.0481" y2="246.0441"/></g><!--link orders to channels--><g id="link_orders_channels"><path codeLine="136" d="M497.71,193.4183 C478.19,218.9183 456.79,246.8783 438.37,270.9283 " fill="none" id="orders-channels" style="stroke:#181818;stroke-width:1.0;"/><line style="stroke:#181818;stroke-width:1.0;" x1="496.9031" x2="503.26" y1="187.9083" y2="192.7652"/><line style="stroke:#181818;stroke-width:1.0;" x1="495.0817" x2="501.4386" y1="190.2921" y2="195.149"/><line style="stroke:#181818;stroke-width:1.0;" x1="497.6531" x2="502.51" y1="193.5152" y2="187.1583"/><line style="stroke:#181818;stroke-width:1.0;" x1="438.5529" x2="438.4385" y1="270.7136" y2="280.7129"/><line style="stroke:#181818;stroke-width:1.0;" x1="438.5529" x2="428.9215" y1="270.7136" y2="273.4036"/><line style="stroke:#181818;stroke-width:1.0;" x1="438.5529" x2="433.68" y1="270.7136" y2="277.0583"/><line style="stroke:#181818;stroke-width:1.0;" x1="442.9434" x2="436.5987" y1="271.5638" y2="266.691"/></g><!--link orders to order_statuses--><g id="link_orders_order_statuses"><path codeLine="137" d="M615.82,192.3383 C635.91,218.4283 658.07,247.1983 677,271.7783 " fill="none" id="orders-order_statuses" style="stroke:#181818;stroke-width:1.0;"/><line style="stroke:#181818;stroke-width:1.0;" x1="611.0932" x2="617.43" y1="192.7683" y2="187.885"/><line style="stroke:#181818;stroke-width:1.0;" x1="612.9244" x2="619.2612" y1="195.1445" y2="190.2613"/><line style="stroke:#181818;stroke-width:1.0;" x1="616.7032" x2="611.82" y1="193.495" y2="187.1583"/><line style="stroke:#181818;stroke-width:1.0;" x1="681.7968" x2="675.46" y1="271.4483" y2="276.3315"/><line style="stroke:#181818;stroke-width:1.0;" x1="679.9656" x2="673.6288" y1="269.072" y2="273.9552"/><line style="stroke:#181818;stroke-width:1.0;" x1="676.1868" x2="681.07" y1="270.7215" y2="277.0583"/></g><!--link orders to order_details--><g id="link_orders_order_details"><path codeLine="138" d="M672.92,150.1283 C748.29,173.7383 848.01,207.6183 933,245.4883 C936.14,246.8883 939.29,248.3283 942.46,249.7983 " fill="none" id="orders-order_details" style="stroke:#181818;stroke-width:1.0;"/><line style="stroke:#181818;stroke-width:1.0;" x1="667.925" x2="670.2957" y1="152.764" y2="145.1233"/><line style="stroke:#181818;stroke-width:1.0;" x1="670.7902" x2="673.1609" y1="153.653" y2="146.0124"/><line style="stroke:#181818;stroke-width:1.0;" x1="672.9307" x2="665.29" y1="150.129" y2="147.7583"/><line style="stroke:#181818;stroke-width:1.0;" x1="942.2818" x2="952.0813" y1="249.6999" y2="247.7072"/><line style="stroke:#181818;stroke-width:1.0;" x1="942.2818" x2="946.9387" y1="249.6999" y2="258.5494"/><line style="stroke:#181818;stroke-width:1.0;" x1="942.2818" x2="949.51" y1="249.6999" y2="253.1283"/><line style="stroke:#181818;stroke-width:1.0;" x1="942.189" x2="938.7606" y1="245.2287" y2="252.4569"/></g><!--link order_details to products--><g id="link_order_details_products"><path codeLine="140" d="M966.67,424.8783 C945.21,441.0483 922.87,457.8683 901.41,474.0383 " fill="none" id="order_details-products" style="stroke:#181818;stroke-width:1.0;"/><line style="stroke:#181818;stroke-width:1.0;" x1="966.4987" x2="971.3091" y1="419.9974" y2="426.3896"/><line style="stroke:#181818;stroke-width:1.0;" x1="964.1016" x2="968.9121" y1="421.8013" y2="428.1935"/><line style="stroke:#181818;stroke-width:1.0;" x1="965.7078" x2="972.1" y1="425.5987" y2="420.7883"/><line style="stroke:#181818;stroke-width:1.0;" x1="901.5923" x2="896.774" y1="478.9023" y2="472.516"/><line style="stroke:#181818;stroke-width:1.0;" x1="903.9871" x2="899.1688" y1="477.0954" y2="470.7092"/><line style="stroke:#181818;stroke-width:1.0;" x1="902.3763" x2="895.99" y1="473.3" y2="478.1183"/></g><!--link order_details to discounts--><g id="link_order_details_discounts"><path codeLine="141" d="M1210.36,425.3583 C1235.17,443.9883 1261.13,463.4783 1285.54,481.7983 " fill="none" id="order_details-discounts" style="stroke:#181818;stroke-width:1.0;"/><line style="stroke:#181818;stroke-width:1.0;" x1="1205.07" x2="1209.87" y1="426.3883" y2="419.9883"/><line style="stroke:#181818;stroke-width:1.0;" x1="1207.47" x2="1212.27" y1="428.1883" y2="421.7883"/><line style="stroke:#181818;stroke-width:1.0;" x1="1210.67" x2="1204.27" y1="425.5883" y2="420.7883"/><line style="stroke:#181818;stroke-width:1.0;" x1="1285.45" x2="1295.45" y1="481.7383" y2="481.7383"/><line style="stroke:#181818;stroke-width:1.0;" x1="1285.45" x2="1288.25" y1="481.7383" y2="491.3383"/><line style="stroke:#181818;stroke-width:1.0;" x1="1285.45" x2="1291.85" y1="481.7383" y2="486.5383"/><ellipse cx="1280.65" cy="478.1383" fill="none" rx="4" ry="4" style="stroke:#181818;stroke-width:1.0;"/></g><!--link products to menu_categories--><g id="link_products_menu_categories"><path codeLine="143" d="M621.4,650.6483 C584.53,669.9783 545.53,690.4283 509.51,709.3183 " fill="none" id="products-menu_categories" style="stroke:#181818;stroke-width:1.0;"/><line style="stroke:#181818;stroke-width:1.0;" x1="621.9686" x2="625.6892" y1="645.8375" y2="652.9197"/><line style="stroke:#181818;stroke-width:1.0;" x1="619.3128" x2="623.0334" y1="647.2327" y2="654.3149"/><line style="stroke:#181818;stroke-width:1.0;" x1="620.2878" x2="627.37" y1="651.2389" y2="647.5183"/><line style="stroke:#181818;stroke-width:1.0;" x1="509.0783" x2="505.3706" y1="714.0588" y2="706.9699"/><line style="stroke:#181818;stroke-width:1.0;" x1="511.7367" x2="508.0289" y1="712.6684" y2="705.5795"/><line style="stroke:#181818;stroke-width:1.0;" x1="510.7689" x2="503.68" y1="708.6605" y2="712.3683"/></g><!--link products to prices--><g id="link_products_prices"><path codeLine="144" d="M780,662.3683 C780,682.3983 780,703.0383 780,721.4483 " fill="none" id="products-prices" style="stroke:#181818;stroke-width:1.0;"/><line style="stroke:#181818;stroke-width:1.0;" x1="776" x2="784" y1="659.4083" y2="659.4083"/><line style="stroke:#181818;stroke-width:1.0;" x1="776" x2="784" y1="662.4083" y2="662.4083"/><line style="stroke:#181818;stroke-width:1.0;" x1="780" x2="780" y1="663.4083" y2="655.4083"/><line style="stroke:#181818;stroke-width:1.0;" x1="784" x2="776" y1="724.2283" y2="724.2283"/><line style="stroke:#181818;stroke-width:1.0;" x1="784" x2="776" y1="721.2283" y2="721.2283"/><line style="stroke:#181818;stroke-width:1.0;" x1="780" x2="780" y1="720.2283" y2="728.2283"/></g><!--link products to product_foods--><g id="link_products_product_foods"><path codeLine="145" d="M881.59,660.2483 C901.64,678.5683 922.34,697.4683 941.31,714.7883 " fill="none" id="products-product_foods" style="stroke:#181818;stroke-width:1.0;"/><line style="stroke:#181818;stroke-width:1.0;" x1="876.0075" x2="881.401" y1="660.5693" y2="654.6608"/><line style="stroke:#181818;stroke-width:1.0;" x1="878.2232" x2="883.6167" y1="662.5918" y2="656.6833"/><line style="stroke:#181818;stroke-width:1.0;" x1="881.6585" x2="875.75" y1="660.3118" y2="654.9183"/><line style="stroke:#181818;stroke-width:1.0;" x1="941.1986" x2="951.1509" y1="714.667" y2="715.6422"/><line style="stroke:#181818;stroke-width:1.0;" x1="941.1986" x2="943.0491" y1="714.667" y2="724.4943"/><line style="stroke:#181818;stroke-width:1.0;" x1="941.1986" x2="947.1" y1="714.667" y2="720.0683"/><line style="stroke:#181818;stroke-width:1.0;" x1="942.4239" x2="937.0226" y1="710.366" y2="716.2674"/></g><!--link products to products_discounts--><g id="link_products_products_discounts"><path codeLine="147" d="M940.77,566.4883 C945.94,566.4883 951.12,566.4883 956.3,566.4883 " fill="none" id="products-products_discounts" style="stroke:#181818;stroke-width:1.0;"/><line style="stroke:#181818;stroke-width:1.0;" x1="936.92" x2="936.92" y1="570.4883" y2="562.4883"/><line style="stroke:#181818;stroke-width:1.0;" x1="939.92" x2="939.92" y1="570.4883" y2="562.4883"/><line style="stroke:#181818;stroke-width:1.0;" x1="940.92" x2="932.92" y1="566.4883" y2="566.4883"/><line style="stroke:#181818;stroke-width:1.0;" x1="956.11" x2="964.11" y1="566.4883" y2="560.4883"/><line style="stroke:#181818;stroke-width:1.0;" x1="956.11" x2="964.11" y1="566.4883" y2="572.4883"/><line style="stroke:#181818;stroke-width:1.0;" x1="956.11" x2="964.11" y1="566.4883" y2="566.4883"/><ellipse cx="950.11" cy="566.4883" fill="none" rx="4" ry="4" style="stroke:#181818;stroke-width:1.0;"/></g><!--link products_discounts to discounts--><g id="link_products_discounts_discounts"><path codeLine="148" d="M1267.87,566.4883 C1273.12,566.4883 1278.36,566.4883 1283.61,566.4883 " fill="none" id="products_discounts-discounts" style="stroke:#181818;stroke-width:1.0;"/><line style="stroke:#181818;stroke-width:1.0;" x1="1267.91" x2="1259.91" y1="566.4883" y2="572.4883"/><line style="stroke:#181818;stroke-width:1.0;" x1="1267.91" x2="1259.91" y1="566.4883" y2="560.4883"/><line style="stroke:#181818;stroke-width:1.0;" x1="1267.91" x2="1259.91" y1="566.4883" y2="566.4883"/><ellipse cx="1273.91" cy="566.4883" fill="none" rx="4" ry="4" style="stroke:#181818;stroke-width:1.0;"/><line style="stroke:#181818;stroke-width:1.0;" x1="1287.53" x2="1287.53" y1="562.4883" y2="570.4883"/><line style="stroke:#181818;stroke-width:1.0;" x1="1284.53" x2="1284.53" y1="562.4883" y2="570.4883"/><line style="stroke:#181818;stroke-width:1.0;" x1="1283.53" x2="1291.53" y1="566.4883" y2="566.4883"/></g><!--link menu_categories to menu_groups--><g id="link_menu_categories_menu_groups"><path codeLine="150" d="M369,863.1183 C369,882.7083 369,903.4683 369,922.1483 " fill="none" id="menu_categories-menu_groups" style="stroke:#181818;stroke-width:1.0;"/><line style="stroke:#181818;stroke-width:1.0;" x1="365" x2="373" y1="860.3783" y2="860.3783"/><line style="stroke:#181818;stroke-width:1.0;" x1="365" x2="373" y1="863.3783" y2="863.3783"/><line style="stroke:#181818;stroke-width:1.0;" x1="369" x2="369" y1="864.3783" y2="856.3783"/><line style="stroke:#181818;stroke-width:1.0;" x1="373" x2="365" y1="925.0583" y2="925.0583"/><line style="stroke:#181818;stroke-width:1.0;" x1="373" x2="365" y1="922.0583" y2="922.0583"/><line style="stroke:#181818;stroke-width:1.0;" x1="369" x2="369" y1="921.0583" y2="929.0583"/></g><!--link product_foods to foods--><g id="link_product_foods_foods"><path codeLine="152" d="M1016,855.2383 C1016,871.6683 1016,889.2783 1016,906.0183 " fill="none" id="product_foods-foods" style="stroke:#181818;stroke-width:1.0;"/><line style="stroke:#181818;stroke-width:1.0;" x1="1012" x2="1020" y1="852.3783" y2="852.3783"/><line style="stroke:#181818;stroke-width:1.0;" x1="1012" x2="1020" y1="855.3783" y2="855.3783"/><line style="stroke:#181818;stroke-width:1.0;" x1="1016" x2="1016" y1="856.3783" y2="848.3783"/><line style="stroke:#181818;stroke-width:1.0;" x1="1020" x2="1012" y1="908.6583" y2="908.6583"/><line style="stroke:#181818;stroke-width:1.0;" x1="1020" x2="1012" y1="905.6583" y2="905.6583"/><line style="stroke:#181818;stroke-width:1.0;" x1="1016" x2="1016" y1="904.6583" y2="912.6583"/></g><!--SRC=[dLRHRjis57tNLmZjmu00-O4-3liFGP7Oc9WY6QBKBaW6JDBcEKuRUsjjDqY6rksosl7I94sR68sRVWmjMNxgBumKAScYxSpfYo3TUtbvxk6vL_nEBa4To4u9oAXiELBofK5RCu0aET0nWFp3zt7t9EvM9GcOnB8ftxDi7TX8VY175zsezJiEAZWOug25W_uzMKKozsz9ihm2TV9SNIMF-vgB76i3s0hKoTf9vstuxdNYlg-LLDC41dEmfEEFJ-AhK-PEyYd8KHqN5M9gbz5lkqdCYcO3rG6weZhqoothwTVFEUuK0Cgsdu6UXmZeLnwg6z3OL4nr0r00P_N426tafBQmyPJQ763G_0VNSUzyt3mEwrVKgfRBYelIuh5FjcxZu1Xxxt3m3yNWNvBd7MfXb261iDc2qZYndfJpjA2f9BoGPM1C7mr0midC5qOUBK9Y3Y59zXdMswFh5_WNBtf-6kqqiVThDAXYxmkn41Vs_eW67UorcV5k-7NWg72AoxXtCVvmjW1-6YpActcdvCd4MxOjtTKSvWYRbV2PnnmwH9hbcgbdvtquRBBpXqXv39sIvJhAOnMfQv0gnYCLNqIrG-mznTukzdhOgv0N7cy0X1GRQY0HrnKEtX1nXMTrCNGPJZXYbE6T8IAB44ymBPQAAbtDr9HwT80q6vOTQ9bfG7pyR_HYZrAo0KnNqGYaTSlUv9qIT710b7IKz4YVGl4_qCRXpKBu9LMps75tZn0qkkb4huOPa-eZSbhgcW7oSlm_etfZT7Cm6fny2p_JA64Y-bj0pd0dhXOfB7B0k_EM3GYzNuVLyS41zclnpP0r1FRwsDiZ5l8-6WmJIoqy-aoz7XawlQ_3dLGvhgcLb5ICW77Umy453WXJNx3_DmvUaJ7511gUtiJd7O4rTcxhjkMMvnqQQQH-ma5x-V6MPqItv9jFBbysbrW6SYwhULf6AVQlSH3We5e8Ap2vJ-PDWS_bsei85WbodTDYITHiWx4UdrwxxCRf6QDitCpiceS86sV3wf5gk21Ba078_3RPE7FJPwDAC-L-e2BBp2B6ZShu-JcDM0Fhq2I8wR-pjHk-tOtQHz6-Jrp0r9bz_D4VVQfazZiDCwLGFHjCh8J1oQJrRE68KnPIyesJNGS6O6qMzrka_72dDjadFTQaNUUVtR4kvQ5bwNb9apSlexyQYuhXmKlNGSFvPIt9ktpxfgWMu9cBOoNPZhScMyWl8kHAflr8iHrsmq_zg9cG17ugGo8syXzHTAQvwB8Qlx-E3bzEzXl_1vHVKRUtLrUtj_9RdsZdbwU2ULkunWXh2fS4lb5sP-09Kd7DyLfRUHDAKlQZvGk5dyUCdqqDmRnLFFzYLflkE2jsAPSz2J8M14dYpup4wXbEDeUpxRZwE586vJy0]--></g></svg>