<?xml version="1.0" encoding="us-ascii" standalone="no"?><svg xmlns="http://www.w3.org/2000/svg" xmlns:xlink="http://www.w3.org/1999/xlink" contentStyleType="text/css" height="1013px" preserveAspectRatio="none" style="width:1372px;height:1013px;background:#FFFFFF;" version="1.1" viewBox="0 0 1372 1013" width="1372px" zoomAndPan="magnify"><defs/><g><text fill="#000000" font-family="sans-serif" font-size="14" font-weight="bold" lengthAdjust="spacing" textLength="48" x="655.25" y="23.5352">DB&#35373;&#35336;</text><!--class orders--><g id="elem_orders"><rect codeLine="7" fill="#F1F1F1" height="141.418" id="orders" rx="2.5" ry="2.5" style="stroke:#181818;stroke-width:0.5;" width="213" x="377" y="44.4883"/><text fill="#000000" font-family="sans-serif" font-size="14" lengthAdjust="spacing" textLength="141" x="413" y="63.0234">orders : &#27880;&#25991;&#12486;&#12540;&#12502;&#12523;</text><line style="stroke:#181818;stroke-width:0.5;" x1="378" x2="589" y1="70.9766" y2="70.9766"/><ellipse cx="388" cy="84.7207" fill="#000000" rx="3" ry="3" style="stroke:#000000;stroke-width:1.0;"/><text fill="#000000" font-family="sans-serif" font-size="14" lengthAdjust="spacing" textLength="13" x="397" y="88.5117">id</text><line style="stroke:#181818;stroke-width:1.0;" x1="378" x2="589" y1="95.4648" y2="95.4648"/><polygon fill="none" points="388,104.209,392,108.209,388,112.209,384,108.209" style="stroke:#B38D22;stroke-width:1.0;"/><text fill="#000000" font-family="sans-serif" font-size="14" lengthAdjust="spacing" textLength="137" x="397" y="113">customer_id : &#39015;&#23458;id</text><polygon fill="none" points="388,120.6973,392,124.6973,388,128.6973,384,124.6973" style="stroke:#B38D22;stroke-width:1.0;"/><text fill="#000000" font-family="sans-serif" font-size="14" lengthAdjust="spacing" textLength="155" x="397" y="129.4883">channel_id : &#27880;&#25991;&#32076;&#36335;id</text><polygon fill="none" points="388,137.1855,392,141.1855,388,145.1855,384,141.1855" style="stroke:#B38D22;stroke-width:1.0;"/><text fill="#000000" font-family="sans-serif" font-size="14" lengthAdjust="spacing" textLength="187" x="397" y="145.9766">order_status_id : &#27880;&#25991;&#29366;&#24907;id</text><ellipse cx="388" cy="158.6738" fill="#000000" rx="3" ry="3" style="stroke:#000000;stroke-width:1.0;"/><text fill="#000000" font-family="sans-serif" font-size="14" lengthAdjust="spacing" textLength="71" x="397" y="162.4648">created_at</text><ellipse cx="388" cy="175.1621" fill="#000000" rx="3" ry="3" style="stroke:#000000;stroke-width:1.0;"/><text fill="#000000" font-family="sans-serif" font-size="14" lengthAdjust="spacing" textLength="77" x="397" y="178.9531">updated_at</text></g><!--class customers--><g id="elem_customers"><rect codeLine="17" fill="#F1F1F1" height="141.418" id="customers" rx="2.5" ry="2.5" style="stroke:#181818;stroke-width:0.5;" width="173" x="7" y="245.4883"/><text fill="#000000" font-family="sans-serif" font-size="14" lengthAdjust="spacing" textLength="167" x="10" y="264.0234">customers : &#39015;&#23458;&#12486;&#12540;&#12502;&#12523;</text><line style="stroke:#181818;stroke-width:0.5;" x1="8" x2="179" y1="271.9766" y2="271.9766"/><ellipse cx="18" cy="285.7207" fill="#000000" rx="3" ry="3" style="stroke:#000000;stroke-width:1.0;"/><text fill="#000000" font-family="sans-serif" font-size="14" lengthAdjust="spacing" textLength="13" x="27" y="289.5117">id</text><line style="stroke:#181818;stroke-width:1.0;" x1="8" x2="179" y1="296.4648" y2="296.4648"/><ellipse cx="18" cy="310.209" fill="#000000" rx="3" ry="3" style="stroke:#000000;stroke-width:1.0;"/><text fill="#000000" font-family="sans-serif" font-size="14" lengthAdjust="spacing" textLength="112" x="27" y="314">family_name : &#27663;</text><ellipse cx="18" cy="326.6973" fill="#000000" rx="3" ry="3" style="stroke:#000000;stroke-width:1.0;"/><text fill="#000000" font-family="sans-serif" font-size="14" lengthAdjust="spacing" textLength="98" x="27" y="330.4883">first_name : &#21517;</text><ellipse cx="18" cy="343.1855" fill="#000000" rx="3" ry="3" style="stroke:#000000;stroke-width:1.0;"/><text fill="#000000" font-family="sans-serif" font-size="14" lengthAdjust="spacing" textLength="85" x="27" y="346.9766">tel : &#38651;&#35441;&#30058;&#21495;</text><ellipse cx="18" cy="359.6738" fill="#000000" rx="3" ry="3" style="stroke:#000000;stroke-width:1.0;"/><text fill="#000000" font-family="sans-serif" font-size="14" lengthAdjust="spacing" textLength="71" x="27" y="363.4648">created_at</text><ellipse cx="18" cy="376.1621" fill="#000000" rx="3" ry="3" style="stroke:#000000;stroke-width:1.0;"/><text fill="#000000" font-family="sans-serif" font-size="14" lengthAdjust="spacing" textLength="77" x="27" y="379.9531">updated_at</text></g><!--class channels--><g id="elem_channels"><rect codeLine="27" fill="#F1F1F1" height="108.4414" id="channels" rx="2.5" ry="2.5" style="stroke:#181818;stroke-width:0.5;" width="207" x="215" y="261.9883"/><text fill="#000000" font-family="sans-serif" font-size="14" lengthAdjust="spacing" textLength="185" x="226" y="280.5234">channels : &#27880;&#25991;&#32076;&#36335;&#12486;&#12540;&#12502;&#12523;</text><line style="stroke:#181818;stroke-width:0.5;" x1="216" x2="421" y1="288.4766" y2="288.4766"/><ellipse cx="226" cy="302.2207" fill="#000000" rx="3" ry="3" style="stroke:#000000;stroke-width:1.0;"/><text fill="#000000" font-family="sans-serif" font-size="14" lengthAdjust="spacing" textLength="13" x="235" y="306.0117">id</text><line style="stroke:#181818;stroke-width:1.0;" x1="216" x2="421" y1="312.9648" y2="312.9648"/><ellipse cx="226" cy="326.709" fill="#000000" rx="3" ry="3" style="stroke:#000000;stroke-width:1.0;"/><text fill="#000000" font-family="sans-serif" font-size="14" lengthAdjust="spacing" textLength="181" x="235" y="330.5">channel_name : &#27880;&#25991;&#32076;&#36335;&#21517;</text><ellipse cx="226" cy="343.1973" fill="#000000" rx="3" ry="3" style="stroke:#000000;stroke-width:1.0;"/><text fill="#000000" font-family="sans-serif" font-size="14" lengthAdjust="spacing" textLength="71" x="235" y="346.9883">created_at</text><ellipse cx="226" cy="359.6855" fill="#000000" rx="3" ry="3" style="stroke:#000000;stroke-width:1.0;"/><text fill="#000000" font-family="sans-serif" font-size="14" lengthAdjust="spacing" textLength="77" x="235" y="363.4766">updated_at</text></g><!--class order_statuses--><g id="elem_order_statuses"><rect codeLine="35" fill="#F1F1F1" height="108.4414" id="order_statuses" rx="2.5" ry="2.5" style="stroke:#181818;stroke-width:0.5;" width="385" x="457" y="261.9883"/><text fill="#000000" font-family="sans-serif" font-size="14" lengthAdjust="spacing" textLength="225" x="537" y="280.5234">order_statuses : &#27880;&#25991;&#29366;&#24907;&#12486;&#12540;&#12502;&#12523;</text><line style="stroke:#181818;stroke-width:0.5;" x1="458" x2="841" y1="288.4766" y2="288.4766"/><ellipse cx="468" cy="302.2207" fill="#000000" rx="3" ry="3" style="stroke:#000000;stroke-width:1.0;"/><text fill="#000000" font-family="sans-serif" font-size="14" lengthAdjust="spacing" textLength="13" x="477" y="306.0117">id</text><line style="stroke:#181818;stroke-width:1.0;" x1="458" x2="841" y1="312.9648" y2="312.9648"/><ellipse cx="468" cy="326.709" fill="#000000" rx="3" ry="3" style="stroke:#000000;stroke-width:1.0;"/><text fill="#000000" font-family="sans-serif" font-size="14" lengthAdjust="spacing" textLength="359" x="477" y="330.5">status : &#27880;&#25991;&#29366;&#24907; : &#27880;&#25991;&#21463;&#20184;&#12289;&#25903;&#25173;&#12356;&#28168;&#12415;&#12289;&#21463;&#12369;&#28193;&#12375;&#28168;&#12415;</text><ellipse cx="468" cy="343.1973" fill="#000000" rx="3" ry="3" style="stroke:#000000;stroke-width:1.0;"/><text fill="#000000" font-family="sans-serif" font-size="14" lengthAdjust="spacing" textLength="71" x="477" y="346.9883">created_at</text><ellipse cx="468" cy="359.6855" fill="#000000" rx="3" ry="3" style="stroke:#000000;stroke-width:1.0;"/><text fill="#000000" font-family="sans-serif" font-size="14" lengthAdjust="spacing" textLength="77" x="477" y="363.4766">updated_at</text></g><!--class order_details--><g id="elem_order_details"><rect codeLine="43" fill="#F1F1F1" height="141.418" id="order_details" rx="2.5" ry="2.5" style="stroke:#181818;stroke-width:0.5;" width="274" x="877.5" y="245.4883"/><text fill="#000000" font-family="sans-serif" font-size="14" lengthAdjust="spacing" textLength="214" x="907.5" y="264.0234">order_details : &#27880;&#25991;&#35443;&#32048;&#12486;&#12540;&#12502;&#12523;</text><line style="stroke:#181818;stroke-width:0.5;" x1="878.5" x2="1150.5" y1="271.9766" y2="271.9766"/><ellipse cx="888.5" cy="285.7207" fill="#000000" rx="3" ry="3" style="stroke:#000000;stroke-width:1.0;"/><text fill="#000000" font-family="sans-serif" font-size="14" lengthAdjust="spacing" textLength="13" x="897.5" y="289.5117">id</text><line style="stroke:#181818;stroke-width:1.0;" x1="878.5" x2="1150.5" y1="296.4648" y2="296.4648"/><polygon fill="none" points="888.5,305.209,892.5,309.209,888.5,313.209,884.5,309.209" style="stroke:#B38D22;stroke-width:1.0;"/><text fill="#000000" font-family="sans-serif" font-size="14" lengthAdjust="spacing" textLength="111" x="897.5" y="314">order_id : &#27880;&#25991;id</text><polygon fill="none" points="888.5,321.6973,892.5,325.6973,888.5,329.6973,884.5,325.6973" style="stroke:#B38D22;stroke-width:1.0;"/><text fill="#000000" font-family="sans-serif" font-size="14" lengthAdjust="spacing" textLength="127" x="897.5" y="330.4883">product_id : &#21830;&#21697;id</text><ellipse cx="888.5" cy="343.1855" fill="#000000" rx="3" ry="3" style="stroke:#000000;stroke-width:1.0;"/><text fill="#000000" font-family="sans-serif" font-size="14" lengthAdjust="spacing" textLength="248" x="897.5" y="346.9766">is_without_wasabi : &#12373;&#12403;&#25244;&#12365;&#12363;&#12393;&#12358;&#12363;</text><ellipse cx="888.5" cy="359.6738" fill="#000000" rx="3" ry="3" style="stroke:#000000;stroke-width:1.0;"/><text fill="#000000" font-family="sans-serif" font-size="14" lengthAdjust="spacing" textLength="71" x="897.5" y="363.4648">created_at</text><ellipse cx="888.5" cy="376.1621" fill="#000000" rx="3" ry="3" style="stroke:#000000;stroke-width:1.0;"/><text fill="#000000" font-family="sans-serif" font-size="14" lengthAdjust="spacing" textLength="77" x="897.5" y="379.9531">updated_at</text></g><!--class products--><g id="elem_products"><rect codeLine="53" fill="#F1F1F1" height="174.3945" id="products" rx="2.5" ry="2.5" style="stroke:#181818;stroke-width:0.5;" width="302" x="863.5" y="446.4883"/><text fill="#000000" font-family="sans-serif" font-size="14" lengthAdjust="spacing" textLength="157" x="936" y="465.0234">products : &#21830;&#21697;&#12486;&#12540;&#12502;&#12523;</text><line style="stroke:#181818;stroke-width:0.5;" x1="864.5" x2="1164.5" y1="472.9766" y2="472.9766"/><ellipse cx="874.5" cy="486.7207" fill="#000000" rx="3" ry="3" style="stroke:#000000;stroke-width:1.0;"/><text fill="#000000" font-family="sans-serif" font-size="14" lengthAdjust="spacing" textLength="13" x="883.5" y="490.5117">id</text><line style="stroke:#181818;stroke-width:1.0;" x1="864.5" x2="1164.5" y1="497.4648" y2="497.4648"/><ellipse cx="874.5" cy="511.209" fill="#000000" rx="3" ry="3" style="stroke:#000000;stroke-width:1.0;"/><text fill="#000000" font-family="sans-serif" font-size="14" lengthAdjust="spacing" textLength="149" x="883.5" y="515">product_name: &#21830;&#21697;&#21517;</text><text fill="#000000" font-family="sans-serif" font-size="14" lengthAdjust="spacing" textLength="202" x="883.5" y="531.4883">product_description: &#21830;&#21697;&#35500;&#26126;</text><polygon fill="none" points="874.5,539.1855,878.5,543.1855,874.5,547.1855,870.5,543.1855" style="stroke:#B38D22;stroke-width:1.0;"/><text fill="#000000" font-family="sans-serif" font-size="14" lengthAdjust="spacing" textLength="276" x="883.5" y="547.9766">menu_category_id : &#12513;&#12491;&#12517;&#12540;&#12459;&#12486;&#12468;&#12522;&#12540;id</text><polygon fill="none" points="874.5,555.6738,878.5,559.6738,874.5,563.6738,870.5,559.6738" style="stroke:#B38D22;stroke-width:1.0;"/><text fill="#000000" font-family="sans-serif" font-size="14" lengthAdjust="spacing" textLength="135" x="883.5" y="564.4648">price_id : &#31246;&#25244;&#20385;&#26684;id</text><ellipse cx="874.5" cy="577.1621" fill="#000000" rx="3" ry="3" style="stroke:#000000;stroke-width:1.0;"/><text fill="#000000" font-family="sans-serif" font-size="14" lengthAdjust="spacing" textLength="230" x="883.5" y="580.9531">is_available : &#21830;&#21697;&#12434;&#25552;&#20379;&#20013;&#12363;&#12393;&#12358;&#12363;</text><ellipse cx="874.5" cy="593.6504" fill="#000000" rx="3" ry="3" style="stroke:#000000;stroke-width:1.0;"/><text fill="#000000" font-family="sans-serif" font-size="14" lengthAdjust="spacing" textLength="71" x="883.5" y="597.4414">created_at</text><ellipse cx="874.5" cy="610.1387" fill="#000000" rx="3" ry="3" style="stroke:#000000;stroke-width:1.0;"/><text fill="#000000" font-family="sans-serif" font-size="14" lengthAdjust="spacing" textLength="77" x="883.5" y="613.9297">updated_at</text></g><!--class menu_categories--><g id="elem_menu_categories"><rect codeLine="65" fill="#F1F1F1" height="108.4414" id="menu_categories" rx="2.5" ry="2.5" style="stroke:#181818;stroke-width:0.5;" width="580" x="313.5" y="688.9883"/><text fill="#000000" font-family="sans-serif" font-size="14" lengthAdjust="spacing" textLength="311" x="448" y="707.5234">menu_categories : &#12513;&#12491;&#12517;&#12540;&#12459;&#12486;&#12468;&#12522;&#12540;&#12486;&#12540;&#12502;&#12523;</text><line style="stroke:#181818;stroke-width:0.5;" x1="314.5" x2="892.5" y1="715.4766" y2="715.4766"/><ellipse cx="324.5" cy="729.2207" fill="#000000" rx="3" ry="3" style="stroke:#000000;stroke-width:1.0;"/><text fill="#000000" font-family="sans-serif" font-size="14" lengthAdjust="spacing" textLength="13" x="333.5" y="733.0117">id</text><line style="stroke:#181818;stroke-width:1.0;" x1="314.5" x2="892.5" y1="739.9648" y2="739.9648"/><ellipse cx="324.5" cy="753.709" fill="#000000" rx="3" ry="3" style="stroke:#000000;stroke-width:1.0;"/><text fill="#000000" font-family="sans-serif" font-size="14" lengthAdjust="spacing" textLength="554" x="333.5" y="757.5">menu_category_name : &#12513;&#12491;&#12517;&#12540;&#12459;&#12486;&#12468;&#12522;&#12540;&#21517;&#65288;&#30427;&#12426;&#36796;&#12415;&#12289;&#12395;&#12366;&#12426;&#12289;&#20028;&#12289;&#12362;&#22909;&#12415;&#12394;&#12393;&#65289;</text><ellipse cx="324.5" cy="770.1973" fill="#000000" rx="3" ry="3" style="stroke:#000000;stroke-width:1.0;"/><text fill="#000000" font-family="sans-serif" font-size="14" lengthAdjust="spacing" textLength="71" x="333.5" y="773.9883">created_at</text><ellipse cx="324.5" cy="786.6855" fill="#000000" rx="3" ry="3" style="stroke:#000000;stroke-width:1.0;"/><text fill="#000000" font-family="sans-serif" font-size="14" lengthAdjust="spacing" textLength="77" x="333.5" y="790.4766">updated_at</text></g><!--class prices--><g id="elem_prices"><rect codeLine="73" fill="#F1F1F1" height="108.4414" id="prices" rx="2.5" ry="2.5" style="stroke:#181818;stroke-width:0.5;" width="171" x="929" y="688.9883"/><text fill="#000000" font-family="sans-serif" font-size="14" lengthAdjust="spacing" textLength="165" x="932" y="707.5234">prices : &#31246;&#25244;&#20385;&#26684;&#12486;&#12540;&#12502;&#12523;</text><line style="stroke:#181818;stroke-width:0.5;" x1="930" x2="1099" y1="715.4766" y2="715.4766"/><ellipse cx="940" cy="729.2207" fill="#000000" rx="3" ry="3" style="stroke:#000000;stroke-width:1.0;"/><text fill="#000000" font-family="sans-serif" font-size="14" lengthAdjust="spacing" textLength="13" x="949" y="733.0117">id</text><line style="stroke:#181818;stroke-width:1.0;" x1="930" x2="1099" y1="739.9648" y2="739.9648"/><ellipse cx="940" cy="753.709" fill="#000000" rx="3" ry="3" style="stroke:#000000;stroke-width:1.0;"/><text fill="#000000" font-family="sans-serif" font-size="14" lengthAdjust="spacing" textLength="102" x="949" y="757.5">price : &#31246;&#25244;&#20385;&#26684;</text><ellipse cx="940" cy="770.1973" fill="#000000" rx="3" ry="3" style="stroke:#000000;stroke-width:1.0;"/><text fill="#000000" font-family="sans-serif" font-size="14" lengthAdjust="spacing" textLength="71" x="949" y="773.9883">created_at</text><ellipse cx="940" cy="786.6855" fill="#000000" rx="3" ry="3" style="stroke:#000000;stroke-width:1.0;"/><text fill="#000000" font-family="sans-serif" font-size="14" lengthAdjust="spacing" textLength="77" x="949" y="790.4766">updated_at</text></g><!--class product_foods--><g id="elem_product_foods"><rect codeLine="81" fill="#F1F1F1" height="124.9297" id="product_foods" rx="2.5" ry="2.5" style="stroke:#181818;stroke-width:0.5;" width="230" x="1135.5" y="680.4883"/><text fill="#000000" font-family="sans-serif" font-size="14" lengthAdjust="spacing" textLength="224" x="1138.5" y="699.0234">product_foods : &#21830;&#21697;&#39135;&#26448;&#12486;&#12540;&#12502;&#12523;</text><line style="stroke:#181818;stroke-width:0.5;" x1="1136.5" x2="1364.5" y1="706.9766" y2="706.9766"/><ellipse cx="1146.5" cy="720.7207" fill="#000000" rx="3" ry="3" style="stroke:#000000;stroke-width:1.0;"/><text fill="#000000" font-family="sans-serif" font-size="14" lengthAdjust="spacing" textLength="13" x="1155.5" y="724.5117">id</text><line style="stroke:#181818;stroke-width:1.0;" x1="1136.5" x2="1364.5" y1="731.4648" y2="731.4648"/><polygon fill="none" points="1146.5,740.209,1150.5,744.209,1146.5,748.209,1142.5,744.209" style="stroke:#B38D22;stroke-width:1.0;"/><text fill="#000000" font-family="sans-serif" font-size="14" lengthAdjust="spacing" textLength="127" x="1155.5" y="749">product_id : &#21830;&#21697;id</text><polygon fill="none" points="1146.5,756.6973,1150.5,760.6973,1146.5,764.6973,1142.5,760.6973" style="stroke:#B38D22;stroke-width:1.0;"/><text fill="#000000" font-family="sans-serif" font-size="14" lengthAdjust="spacing" textLength="105" x="1155.5" y="765.4883">food_id : &#39135;&#26448;id</text><ellipse cx="1146.5" cy="778.1855" fill="#000000" rx="3" ry="3" style="stroke:#000000;stroke-width:1.0;"/><text fill="#000000" font-family="sans-serif" font-size="14" lengthAdjust="spacing" textLength="71" x="1155.5" y="781.9766">created_at</text><ellipse cx="1146.5" cy="794.6738" fill="#000000" rx="3" ry="3" style="stroke:#000000;stroke-width:1.0;"/><text fill="#000000" font-family="sans-serif" font-size="14" lengthAdjust="spacing" textLength="77" x="1155.5" y="798.4648">updated_at</text></g><!--class foods--><g id="elem_foods"><rect codeLine="90" fill="#F1F1F1" height="141.418" id="foods" rx="2.5" ry="2.5" style="stroke:#181818;stroke-width:0.5;" width="202" x="1149.5" y="865.4883"/><text fill="#000000" font-family="sans-serif" font-size="14" lengthAdjust="spacing" textLength="135" x="1183" y="884.0234">foods : &#39135;&#26448;&#12486;&#12540;&#12502;&#12523;</text><line style="stroke:#181818;stroke-width:0.5;" x1="1150.5" x2="1350.5" y1="891.9766" y2="891.9766"/><ellipse cx="1160.5" cy="905.7207" fill="#000000" rx="3" ry="3" style="stroke:#000000;stroke-width:1.0;"/><text fill="#000000" font-family="sans-serif" font-size="14" lengthAdjust="spacing" textLength="13" x="1169.5" y="909.5117">id</text><line style="stroke:#181818;stroke-width:1.0;" x1="1150.5" x2="1350.5" y1="916.4648" y2="916.4648"/><ellipse cx="1160.5" cy="930.209" fill="#000000" rx="3" ry="3" style="stroke:#000000;stroke-width:1.0;"/><text fill="#000000" font-family="sans-serif" font-size="14" lengthAdjust="spacing" textLength="131" x="1169.5" y="934">food_name : &#39135;&#26448;&#21517;</text><ellipse cx="1160.5" cy="946.6973" fill="#000000" rx="3" ry="3" style="stroke:#000000;stroke-width:1.0;"/><text fill="#000000" font-family="sans-serif" font-size="14" lengthAdjust="spacing" textLength="90" x="1169.5" y="950.4883">stock : &#22312;&#24235;&#25968;</text><ellipse cx="1160.5" cy="963.1855" fill="#000000" rx="3" ry="3" style="stroke:#000000;stroke-width:1.0;"/><text fill="#000000" font-family="sans-serif" font-size="14" lengthAdjust="spacing" textLength="176" x="1169.5" y="966.9766">expiration_date : &#28040;&#36027;&#26399;&#38480;</text><ellipse cx="1160.5" cy="979.6738" fill="#000000" rx="3" ry="3" style="stroke:#000000;stroke-width:1.0;"/><text fill="#000000" font-family="sans-serif" font-size="14" lengthAdjust="spacing" textLength="71" x="1169.5" y="983.4648">created_at</text><ellipse cx="1160.5" cy="996.1621" fill="#000000" rx="3" ry="3" style="stroke:#000000;stroke-width:1.0;"/><text fill="#000000" font-family="sans-serif" font-size="14" lengthAdjust="spacing" textLength="77" x="1169.5" y="999.9531">updated_at</text></g><!--link orders to customers--><g id="link_orders_customers"><path codeLine="100" d="M368.13,163.0883 C315.15,186.0183 252.11,215.1483 197.5,245.4883 C194.47,247.1683 191.42,248.9083 188.36,250.6983 " fill="none" id="orders-customers" style="stroke:#181818;stroke-width:1.0;"/><line style="stroke:#181818;stroke-width:1.0;" x1="369.8919" x2="373.0639" y1="157.9822" y2="165.3264"/><line style="stroke:#181818;stroke-width:1.0;" x1="367.1378" x2="370.3098" y1="159.1717" y2="166.5159"/><line style="stroke:#181818;stroke-width:1.0;" x1="367.8057" x2="375.15" y1="163.2403" y2="160.0683"/><line style="stroke:#181818;stroke-width:1.0;" x1="188.4163" x2="184.6065" y1="250.6597" y2="259.9055"/><line style="stroke:#181818;stroke-width:1.0;" x1="188.4163" x2="178.4735" y1="250.6597" y2="249.5911"/><line style="stroke:#181818;stroke-width:1.0;" x1="188.4163" x2="181.54" y1="250.6597" y2="254.7483"/><line style="stroke:#181818;stroke-width:1.0;" x1="192.1797" x2="188.0911" y1="253.0757" y2="246.1994"/></g><!--link orders to channels--><g id="link_orders_channels"><path codeLine="101" d="M419.71,192.9283 C402.84,213.2683 384.88,234.9283 368.84,254.2783 " fill="none" id="orders-channels" style="stroke:#181818;stroke-width:1.0;"/><line style="stroke:#181818;stroke-width:1.0;" x1="418.9579" x2="425.1189" y1="187.5672" y2="192.6704"/><line style="stroke:#181818;stroke-width:1.0;" x1="417.0442" x2="423.2052" y1="189.8775" y2="194.9807"/><line style="stroke:#181818;stroke-width:1.0;" x1="419.4868" x2="424.59" y1="193.1993" y2="187.0383"/><line style="stroke:#181818;stroke-width:1.0;" x1="368.8716" x2="368.3755" y1="254.2543" y2="264.242"/><line style="stroke:#181818;stroke-width:1.0;" x1="368.8716" x2="359.1445" y1="254.2543" y2="256.5746"/><line style="stroke:#181818;stroke-width:1.0;" x1="368.8716" x2="363.76" y1="254.2543" y2="260.4083"/><line style="stroke:#181818;stroke-width:1.0;" x1="373.2265" x2="367.0726" y1="255.2717" y2="250.16"/></g><!--link orders to order_statuses--><g id="link_orders_order_statuses"><path codeLine="102" d="M547.19,192.3383 C564.58,213.1783 583.17,235.4683 599.66,255.2383 " fill="none" id="orders-order_statuses" style="stroke:#181818;stroke-width:1.0;"/><line style="stroke:#181818;stroke-width:1.0;" x1="542.2464" x2="548.3935" y1="192.6618" y2="187.5419"/><line style="stroke:#181818;stroke-width:1.0;" x1="544.1663" x2="550.3134" y1="194.9669" y2="189.8471"/><line style="stroke:#181818;stroke-width:1.0;" x1="547.8799" x2="542.76" y1="193.1754" y2="187.0283"/><line style="stroke:#181818;stroke-width:1.0;" x1="604.4851" x2="598.3366" y1="254.7749" y2="259.8932"/><line style="stroke:#181818;stroke-width:1.0;" x1="602.5657" x2="596.4173" y1="252.4693" y2="257.5875"/><line style="stroke:#181818;stroke-width:1.0;" x1="598.8517" x2="603.97" y1="254.2598" y2="260.4083"/></g><!--link orders to order_details--><g id="link_orders_order_details"><path codeLine="103" d="M599.19,152.8483 C674.05,177.4283 773.28,211.3883 859.5,245.4883 C862.47,246.6583 865.47,247.8583 868.48,249.0783 " fill="none" id="orders-order_details" style="stroke:#181818;stroke-width:1.0;"/><line style="stroke:#181818;stroke-width:1.0;" x1="594.1784" x2="596.6653" y1="155.4136" y2="147.8099"/><line style="stroke:#181818;stroke-width:1.0;" x1="597.0297" x2="599.5166" y1="156.3461" y2="148.7425"/><line style="stroke:#181818;stroke-width:1.0;" x1="599.2236" x2="591.62" y1="152.8552" y2="150.3683"/><line style="stroke:#181818;stroke-width:1.0;" x1="868.214" x2="877.8889" y1="248.9731" y2="246.4438"/><line style="stroke:#181818;stroke-width:1.0;" x1="868.214" x2="873.3511" y1="248.9731" y2="257.5528"/><line style="stroke:#181818;stroke-width:1.0;" x1="868.214" x2="875.62" y1="248.9731" y2="251.9983"/><line style="stroke:#181818;stroke-width:1.0;" x1="867.8751" x2="864.85" y1="244.5138" y2="251.9198"/></g><!--link order_details to products--><g id="link_order_details_products"><path codeLine="104" d="M1014.5,395.0383 C1014.5,408.9583 1014.5,423.5883 1014.5,437.9083 " fill="none" id="order_details-products" style="stroke:#181818;stroke-width:1.0;"/><line style="stroke:#181818;stroke-width:1.0;" x1="1010.5" x2="1018.5" y1="392.4683" y2="392.4683"/><line style="stroke:#181818;stroke-width:1.0;" x1="1010.5" x2="1018.5" y1="395.4683" y2="395.4683"/><line style="stroke:#181818;stroke-width:1.0;" x1="1014.5" x2="1014.5" y1="396.4683" y2="388.4683"/><line style="stroke:#181818;stroke-width:1.0;" x1="1018.5" x2="1010.5" y1="440.7783" y2="440.7783"/><line style="stroke:#181818;stroke-width:1.0;" x1="1018.5" x2="1010.5" y1="437.7783" y2="437.7783"/><line style="stroke:#181818;stroke-width:1.0;" x1="1014.5" x2="1014.5" y1="436.7783" y2="444.7783"/></g><!--link products to menu_categories--><g id="link_products_menu_categories"><path codeLine="105" d="M855.68,614.6683 C809.29,638.0883 759.55,663.2083 716.61,684.8883 " fill="none" id="products-menu_categories" style="stroke:#181818;stroke-width:1.0;"/><line style="stroke:#181818;stroke-width:1.0;" x1="856.4902" x2="860.0809" y1="609.7692" y2="616.9181"/><line style="stroke:#181818;stroke-width:1.0;" x1="853.8094" x2="857.4001" y1="611.1158" y2="618.2646"/><line style="stroke:#181818;stroke-width:1.0;" x1="854.7111" x2="861.86" y1="615.139" y2="611.5483"/><line style="stroke:#181818;stroke-width:1.0;" x1="715.9447" x2="712.3343" y1="689.6926" y2="682.5536"/><line style="stroke:#181818;stroke-width:1.0;" x1="718.6218" x2="715.0115" y1="688.3387" y2="681.1997"/><line style="stroke:#181818;stroke-width:1.0;" x1="717.709" x2="710.57" y1="684.3179" y2="687.9283"/></g><!--link products to prices--><g id="link_products_prices"><path codeLine="106" d="M1014.5,629.3483 C1014.5,646.6483 1014.5,664.2883 1014.5,680.3083 " fill="none" id="products-prices" style="stroke:#181818;stroke-width:1.0;"/><line style="stroke:#181818;stroke-width:1.0;" x1="1010.5" x2="1018.5" y1="626.4983" y2="626.4983"/><line style="stroke:#181818;stroke-width:1.0;" x1="1010.5" x2="1018.5" y1="629.4983" y2="629.4983"/><line style="stroke:#181818;stroke-width:1.0;" x1="1014.5" x2="1014.5" y1="630.4983" y2="622.4983"/><line style="stroke:#181818;stroke-width:1.0;" x1="1018.5" x2="1010.5" y1="683.0183" y2="683.0183"/><line style="stroke:#181818;stroke-width:1.0;" x1="1018.5" x2="1010.5" y1="680.0183" y2="680.0183"/><line style="stroke:#181818;stroke-width:1.0;" x1="1014.5" x2="1014.5" y1="679.0183" y2="687.0183"/></g><!--link products to product_foods--><g id="link_products_product_foods"><path codeLine="107" d="M1119.8,627.0683 C1137.89,642.9783 1156.38,659.2383 1173.55,674.3283 " fill="none" id="products-product_foods" style="stroke:#181818;stroke-width:1.0;"/><line style="stroke:#181818;stroke-width:1.0;" x1="1114.3673" x2="1119.6556" y1="627.6338" y2="621.631"/><line style="stroke:#181818;stroke-width:1.0;" x1="1116.6184" x2="1121.9066" y1="629.6169" y2="623.6141"/><line style="stroke:#181818;stroke-width:1.0;" x1="1120.0129" x2="1114.01" y1="627.2765" y2="621.9883"/><line style="stroke:#181818;stroke-width:1.0;" x1="1173.1609" x2="1183.1309" y1="673.9971" y2="674.7715"/><line style="stroke:#181818;stroke-width:1.0;" x1="1173.1609" x2="1175.2091" y1="673.9971" y2="683.7851"/><line style="stroke:#181818;stroke-width:1.0;" x1="1173.1609" x2="1179.17" y1="673.9971" y2="679.2783"/><line style="stroke:#181818;stroke-width:1.0;" x1="1174.2992" x2="1169.018" y1="669.6723" y2="675.6814"/></g><!--link product_foods to foods--><g id="link_product_foods_foods"><path codeLine="108" d="M1250.5,813.8483 C1250.5,827.8283 1250.5,842.6083 1250.5,856.8583 " fill="none" id="product_foods-foods" style="stroke:#181818;stroke-width:1.0;"/><line style="stroke:#181818;stroke-width:1.0;" x1="1246.5" x2="1254.5" y1="811.2483" y2="811.2483"/><line style="stroke:#181818;stroke-width:1.0;" x1="1246.5" x2="1254.5" y1="814.2483" y2="814.2483"/><line style="stroke:#181818;stroke-width:1.0;" x1="1250.5" x2="1250.5" y1="815.2483" y2="807.2483"/><line style="stroke:#181818;stroke-width:1.0;" x1="1254.5" x2="1246.5" y1="859.6583" y2="859.6583"/><line style="stroke:#181818;stroke-width:1.0;" x1="1254.5" x2="1246.5" y1="856.6583" y2="856.6583"/><line style="stroke:#181818;stroke-width:1.0;" x1="1250.5" x2="1250.5" y1="855.6583" y2="863.6583"/></g><!--SRC=[dLNRRjCm6BxFKqJi0gbINu1Bn7j4MU9HYxQfOfSnhKYuWT5rR2s7RaCT6WLDT2rZWusjOcKyZ9iqkzehOCTn3-uwEcwY-3_v-pz__drNJq4Rw3W5T9Hpi1QjBEXQQQ1f6E8qq1_S3vi7OREaQI3BB4lw7SUrWOlqUtfmt0msNr9lXNfTwcrIhtr7Dv4U-vSrNKz0ctsJIVQPi_88EndW6j1ckPUDB_wtJv5xpagPsIn82uSesl_vAZmx5Ewede6mYVDeBAPy6hnOYs8IbWjC36p3n7oLpzbozNI8Mm90W-qde0z35FI91JC3qqj6rim03k2e4XcXYx2q-TLrRiCWpUlNpyFzx_rQow-SpOnFq80K4YP1oZWLe-HHWXmf4eER1SOetG0fR5z_sCDe5P9mA4K6Ix-orJlVfiz8yEumMArHyZpeb2ZvmopCHSdheDEWP4iORuVV1jY48ro6-yVzawCfy6MmAbdX7P6S46JETUoyXON3hwtuRubG8KJ68iGf9u-DHHEPyv3vAM5z7GVb7KhMALcZP9-I5VOpQplnPcYmrKGFWmYLV8cJwq5c2o58ZmsGvS8SXavM1eIjhy7s1cyp0x9vmsAG7ZhkacYMUWtgCH7iSGJ5DeTIFA5UYoqbDT028hRVt61TzouQmSVkW1xpCIFQd4-3OJl5Dq6bshkezpe7_yFFA4eOwVK6a1FSgTagXUCSn1VhXWqOlLVTKhzUfyLoUD4LMgQaJSa6ix3_NgSRMSh-tc_k9ItMyLLtTNOvC8AHGkyraeYY9WN1p4hkBNLeB3YEFHJZvUVTu4DrcYJZOFLQJRi_SpmyVXwYkhFFTebg2fvhSIIYxU8p5Odnc6IFWFM8Ozjf-h_QGUs86y6J77HDVbKCZe3FXDDI-ECysDczV5_z5z3uKImKaid2yl2TKUtnQ1yp5vGXg-ICZJ1jVA35-N92Q8DH4JiK-K_uXOuKy_BuyMhZXnrd2jTV]--></g></svg>