<?xml version="1.0" encoding="us-ascii" standalone="no"?><svg xmlns="http://www.w3.org/2000/svg" xmlns:xlink="http://www.w3.org/1999/xlink" contentStyleType="text/css" height="1481px" preserveAspectRatio="none" style="width:1946px;height:1481px;background:#FFFFFF;" version="1.1" viewBox="0 0 1946 1481" width="1946px" zoomAndPan="magnify"><defs/><g><text fill="#000000" font-family="sans-serif" font-size="14" font-weight="bold" lengthAdjust="spacing" textLength="48" x="942.25" y="23.5352">DB&#35373;&#35336;</text><!--class customers--><g id="elem_customers"><rect codeLine="7" fill="#F1F1F1" height="157.9063" id="customers" rx="2.5" ry="2.5" style="stroke:#181818;stroke-width:0.5;" width="246" x="1031" y="44.4883"/><text fill="#000000" font-family="sans-serif" font-size="14" lengthAdjust="spacing" textLength="167" x="1070.5" y="63.0234">customers : &#39015;&#23458;&#12486;&#12540;&#12502;&#12523;</text><line style="stroke:#181818;stroke-width:0.5;" x1="1032" x2="1276" y1="70.9766" y2="70.9766"/><ellipse cx="1042" cy="84.7207" fill="#000000" rx="3" ry="3" style="stroke:#000000;stroke-width:1.0;"/><text fill="#000000" font-family="sans-serif" font-size="14" lengthAdjust="spacing" textLength="13" x="1051" y="88.5117">id</text><line style="stroke:#181818;stroke-width:1.0;" x1="1032" x2="1276" y1="95.4648" y2="95.4648"/><ellipse cx="1042" cy="109.209" fill="#000000" rx="3" ry="3" style="stroke:#000000;stroke-width:1.0;"/><text fill="#000000" font-family="sans-serif" font-size="14" lengthAdjust="spacing" textLength="112" x="1051" y="113">family_name : &#27663;</text><ellipse cx="1042" cy="125.6973" fill="#000000" rx="3" ry="3" style="stroke:#000000;stroke-width:1.0;"/><text fill="#000000" font-family="sans-serif" font-size="14" lengthAdjust="spacing" textLength="98" x="1051" y="129.4883">first_name : &#21517;</text><ellipse cx="1042" cy="142.1855" fill="#000000" rx="3" ry="3" style="stroke:#000000;stroke-width:1.0;"/><text fill="#000000" font-family="sans-serif" font-size="14" lengthAdjust="spacing" textLength="85" x="1051" y="145.9766">tel : &#38651;&#35441;&#30058;&#21495;</text><ellipse cx="1042" cy="158.6738" fill="#000000" rx="3" ry="3" style="stroke:#000000;stroke-width:1.0;"/><text fill="#000000" font-family="sans-serif" font-size="14" lengthAdjust="spacing" textLength="220" x="1051" y="162.4648">app_user_id : &#12450;&#12503;&#12522;&#12398;&#12518;&#12540;&#12470;&#12540;id</text><ellipse cx="1042" cy="175.1621" fill="#000000" rx="3" ry="3" style="stroke:#000000;stroke-width:1.0;"/><text fill="#000000" font-family="sans-serif" font-size="14" lengthAdjust="spacing" textLength="71" x="1051" y="178.9531">created_at</text><ellipse cx="1042" cy="191.6504" fill="#000000" rx="3" ry="3" style="stroke:#000000;stroke-width:1.0;"/><text fill="#000000" font-family="sans-serif" font-size="14" lengthAdjust="spacing" textLength="77" x="1051" y="195.4414">updated_at</text></g><!--class channels--><g id="elem_channels"><rect codeLine="18" fill="#F1F1F1" height="108.4414" id="channels" rx="2.5" ry="2.5" style="stroke:#181818;stroke-width:0.5;" width="207" x="1312.5" y="69.4883"/><text fill="#000000" font-family="sans-serif" font-size="14" lengthAdjust="spacing" textLength="185" x="1323.5" y="88.0234">channels : &#27880;&#25991;&#32076;&#36335;&#12486;&#12540;&#12502;&#12523;</text><line style="stroke:#181818;stroke-width:0.5;" x1="1313.5" x2="1518.5" y1="95.9766" y2="95.9766"/><ellipse cx="1323.5" cy="109.7207" fill="#000000" rx="3" ry="3" style="stroke:#000000;stroke-width:1.0;"/><text fill="#000000" font-family="sans-serif" font-size="14" lengthAdjust="spacing" textLength="13" x="1332.5" y="113.5117">id</text><line style="stroke:#181818;stroke-width:1.0;" x1="1313.5" x2="1518.5" y1="120.4648" y2="120.4648"/><ellipse cx="1323.5" cy="134.209" fill="#000000" rx="3" ry="3" style="stroke:#000000;stroke-width:1.0;"/><text fill="#000000" font-family="sans-serif" font-size="14" lengthAdjust="spacing" textLength="181" x="1332.5" y="138">channel_name : &#27880;&#25991;&#32076;&#36335;&#21517;</text><ellipse cx="1323.5" cy="150.6973" fill="#000000" rx="3" ry="3" style="stroke:#000000;stroke-width:1.0;"/><text fill="#000000" font-family="sans-serif" font-size="14" lengthAdjust="spacing" textLength="71" x="1332.5" y="154.4883">created_at</text><ellipse cx="1323.5" cy="167.1855" fill="#000000" rx="3" ry="3" style="stroke:#000000;stroke-width:1.0;"/><text fill="#000000" font-family="sans-serif" font-size="14" lengthAdjust="spacing" textLength="77" x="1332.5" y="170.9766">updated_at</text></g><!--class order_statuses--><g id="elem_order_statuses"><rect codeLine="26" fill="#F1F1F1" height="108.4414" id="order_statuses" rx="2.5" ry="2.5" style="stroke:#181818;stroke-width:0.5;" width="385" x="1554.5" y="69.4883"/><text fill="#000000" font-family="sans-serif" font-size="14" lengthAdjust="spacing" textLength="225" x="1634.5" y="88.0234">order_statuses : &#27880;&#25991;&#29366;&#24907;&#12486;&#12540;&#12502;&#12523;</text><line style="stroke:#181818;stroke-width:0.5;" x1="1555.5" x2="1938.5" y1="95.9766" y2="95.9766"/><ellipse cx="1565.5" cy="109.7207" fill="#000000" rx="3" ry="3" style="stroke:#000000;stroke-width:1.0;"/><text fill="#000000" font-family="sans-serif" font-size="14" lengthAdjust="spacing" textLength="13" x="1574.5" y="113.5117">id</text><line style="stroke:#181818;stroke-width:1.0;" x1="1555.5" x2="1938.5" y1="120.4648" y2="120.4648"/><ellipse cx="1565.5" cy="134.209" fill="#000000" rx="3" ry="3" style="stroke:#000000;stroke-width:1.0;"/><text fill="#000000" font-family="sans-serif" font-size="14" lengthAdjust="spacing" textLength="359" x="1574.5" y="138">status : &#27880;&#25991;&#29366;&#24907; : &#27880;&#25991;&#21463;&#20184;&#12289;&#25903;&#25173;&#12356;&#28168;&#12415;&#12289;&#21463;&#12369;&#28193;&#12375;&#28168;&#12415;</text><ellipse cx="1565.5" cy="150.6973" fill="#000000" rx="3" ry="3" style="stroke:#000000;stroke-width:1.0;"/><text fill="#000000" font-family="sans-serif" font-size="14" lengthAdjust="spacing" textLength="71" x="1574.5" y="154.4883">created_at</text><ellipse cx="1565.5" cy="167.1855" fill="#000000" rx="3" ry="3" style="stroke:#000000;stroke-width:1.0;"/><text fill="#000000" font-family="sans-serif" font-size="14" lengthAdjust="spacing" textLength="77" x="1574.5" y="170.9766">updated_at</text></g><!--class orders--><g id="elem_orders"><rect codeLine="34" fill="#F1F1F1" height="141.418" id="orders" rx="2.5" ry="2.5" style="stroke:#181818;stroke-width:0.5;" width="213" x="1309.5" y="262.4883"/><text fill="#000000" font-family="sans-serif" font-size="14" lengthAdjust="spacing" textLength="141" x="1345.5" y="281.0234">orders : &#27880;&#25991;&#12486;&#12540;&#12502;&#12523;</text><line style="stroke:#181818;stroke-width:0.5;" x1="1310.5" x2="1521.5" y1="288.9766" y2="288.9766"/><ellipse cx="1320.5" cy="302.7207" fill="#000000" rx="3" ry="3" style="stroke:#000000;stroke-width:1.0;"/><text fill="#000000" font-family="sans-serif" font-size="14" lengthAdjust="spacing" textLength="13" x="1329.5" y="306.5117">id</text><line style="stroke:#181818;stroke-width:1.0;" x1="1310.5" x2="1521.5" y1="313.4648" y2="313.4648"/><polygon fill="none" points="1320.5,322.209,1324.5,326.209,1320.5,330.209,1316.5,326.209" style="stroke:#B38D22;stroke-width:1.0;"/><text fill="#000000" font-family="sans-serif" font-size="14" lengthAdjust="spacing" textLength="137" x="1329.5" y="331">customer_id : &#39015;&#23458;id</text><polygon fill="none" points="1320.5,338.6973,1324.5,342.6973,1320.5,346.6973,1316.5,342.6973" style="stroke:#B38D22;stroke-width:1.0;"/><text fill="#000000" font-family="sans-serif" font-size="14" lengthAdjust="spacing" textLength="155" x="1329.5" y="347.4883">channel_id : &#27880;&#25991;&#32076;&#36335;id</text><polygon fill="none" points="1320.5,355.1855,1324.5,359.1855,1320.5,363.1855,1316.5,359.1855" style="stroke:#B38D22;stroke-width:1.0;"/><text fill="#000000" font-family="sans-serif" font-size="14" lengthAdjust="spacing" textLength="187" x="1329.5" y="363.9766">order_status_id : &#27880;&#25991;&#29366;&#24907;id</text><ellipse cx="1320.5" cy="376.6738" fill="#000000" rx="3" ry="3" style="stroke:#000000;stroke-width:1.0;"/><text fill="#000000" font-family="sans-serif" font-size="14" lengthAdjust="spacing" textLength="71" x="1329.5" y="380.4648">created_at</text><ellipse cx="1320.5" cy="393.1621" fill="#000000" rx="3" ry="3" style="stroke:#000000;stroke-width:1.0;"/><text fill="#000000" font-family="sans-serif" font-size="14" lengthAdjust="spacing" textLength="77" x="1329.5" y="396.9531">updated_at</text></g><!--class menu_groups--><g id="elem_menu_groups"><rect codeLine="44" fill="#F1F1F1" height="108.4414" id="menu_groups" rx="2.5" ry="2.5" style="stroke:#181818;stroke-width:0.5;" width="535" x="31.5" y="463.4883"/><text fill="#000000" font-family="sans-serif" font-size="14" lengthAdjust="spacing" textLength="275" x="161.5" y="482.0234">menu_groups : &#12513;&#12491;&#12517;&#12540;&#12464;&#12523;&#12540;&#12503;&#12486;&#12540;&#12502;&#12523;</text><line style="stroke:#181818;stroke-width:0.5;" x1="32.5" x2="565.5" y1="489.9766" y2="489.9766"/><ellipse cx="42.5" cy="503.7207" fill="#000000" rx="3" ry="3" style="stroke:#000000;stroke-width:1.0;"/><text fill="#000000" font-family="sans-serif" font-size="14" lengthAdjust="spacing" textLength="13" x="51.5" y="507.5117">id</text><line style="stroke:#181818;stroke-width:1.0;" x1="32.5" x2="565.5" y1="514.4648" y2="514.4648"/><ellipse cx="42.5" cy="528.209" fill="#000000" rx="3" ry="3" style="stroke:#000000;stroke-width:1.0;"/><text fill="#000000" font-family="sans-serif" font-size="14" lengthAdjust="spacing" textLength="509" x="51.5" y="532">menu_group_name : &#12513;&#12491;&#12517;&#12540;&#12464;&#12523;&#12540;&#12503;&#21517;&#65288;&#12475;&#12483;&#12488;&#12513;&#12491;&#12517;&#12540;&#12289;&#12362;&#22909;&#12415;&#12377;&#12375;&#12394;&#12393;&#65289;</text><ellipse cx="42.5" cy="544.6973" fill="#000000" rx="3" ry="3" style="stroke:#000000;stroke-width:1.0;"/><text fill="#000000" font-family="sans-serif" font-size="14" lengthAdjust="spacing" textLength="71" x="51.5" y="548.4883">created_at</text><ellipse cx="42.5" cy="561.1855" fill="#000000" rx="3" ry="3" style="stroke:#000000;stroke-width:1.0;"/><text fill="#000000" font-family="sans-serif" font-size="14" lengthAdjust="spacing" textLength="77" x="51.5" y="564.9766">updated_at</text></g><!--class menu_categories--><g id="elem_menu_categories"><rect codeLine="52" fill="#F1F1F1" height="141.418" id="menu_categories" rx="2.5" ry="2.5" style="stroke:#181818;stroke-width:0.5;" width="580" x="9" y="631.4883"/><text fill="#000000" font-family="sans-serif" font-size="14" lengthAdjust="spacing" textLength="311" x="143.5" y="650.0234">menu_categories : &#12513;&#12491;&#12517;&#12540;&#12459;&#12486;&#12468;&#12522;&#12540;&#12486;&#12540;&#12502;&#12523;</text><line style="stroke:#181818;stroke-width:0.5;" x1="10" x2="588" y1="657.9766" y2="657.9766"/><ellipse cx="20" cy="671.7207" fill="#000000" rx="3" ry="3" style="stroke:#000000;stroke-width:1.0;"/><text fill="#000000" font-family="sans-serif" font-size="14" lengthAdjust="spacing" textLength="13" x="29" y="675.5117">id</text><line style="stroke:#181818;stroke-width:1.0;" x1="10" x2="588" y1="682.4648" y2="682.4648"/><polygon fill="none" points="20,691.209,24,695.209,20,699.209,16,695.209" style="stroke:#B38D22;stroke-width:1.0;"/><text fill="#000000" font-family="sans-serif" font-size="14" lengthAdjust="spacing" textLength="245" x="29" y="700">menu_group_id : &#12513;&#12491;&#12517;&#12540;&#12464;&#12523;&#12540;&#12503;id</text><ellipse cx="20" cy="712.6973" fill="#000000" rx="3" ry="3" style="stroke:#000000;stroke-width:1.0;"/><text fill="#000000" font-family="sans-serif" font-size="14" lengthAdjust="spacing" textLength="554" x="29" y="716.4883">menu_category_name : &#12513;&#12491;&#12517;&#12540;&#12459;&#12486;&#12468;&#12522;&#12540;&#21517;&#65288;&#30427;&#12426;&#36796;&#12415;&#12289;&#12395;&#12366;&#12426;&#12289;&#20028;&#12289;&#12362;&#22909;&#12415;&#12394;&#12393;&#65289;</text><ellipse cx="20" cy="729.1855" fill="#000000" rx="3" ry="3" style="stroke:#000000;stroke-width:1.0;"/><text fill="#000000" font-family="sans-serif" font-size="14" lengthAdjust="spacing" textLength="361" x="29" y="732.9766">is_lunch_discounted : &#12521;&#12531;&#12481;&#12479;&#12452;&#12512;&#12398;&#21106;&#24341;&#23550;&#35937;&#12363;&#12393;&#12358;&#12363;</text><ellipse cx="20" cy="745.6738" fill="#000000" rx="3" ry="3" style="stroke:#000000;stroke-width:1.0;"/><text fill="#000000" font-family="sans-serif" font-size="14" lengthAdjust="spacing" textLength="71" x="29" y="749.4648">created_at</text><ellipse cx="20" cy="762.1621" fill="#000000" rx="3" ry="3" style="stroke:#000000;stroke-width:1.0;"/><text fill="#000000" font-family="sans-serif" font-size="14" lengthAdjust="spacing" textLength="77" x="29" y="765.9531">updated_at</text></g><!--class prices--><g id="elem_prices"><rect codeLine="62" fill="#F1F1F1" height="108.4414" id="prices" rx="2.5" ry="2.5" style="stroke:#181818;stroke-width:0.5;" width="171" x="657.5" y="463.4883"/><text fill="#000000" font-family="sans-serif" font-size="14" lengthAdjust="spacing" textLength="165" x="660.5" y="482.0234">prices : &#31246;&#25244;&#20385;&#26684;&#12486;&#12540;&#12502;&#12523;</text><line style="stroke:#181818;stroke-width:0.5;" x1="658.5" x2="827.5" y1="489.9766" y2="489.9766"/><ellipse cx="668.5" cy="503.7207" fill="#000000" rx="3" ry="3" style="stroke:#000000;stroke-width:1.0;"/><text fill="#000000" font-family="sans-serif" font-size="14" lengthAdjust="spacing" textLength="13" x="677.5" y="507.5117">id</text><line style="stroke:#181818;stroke-width:1.0;" x1="658.5" x2="827.5" y1="514.4648" y2="514.4648"/><ellipse cx="668.5" cy="528.209" fill="#000000" rx="3" ry="3" style="stroke:#000000;stroke-width:1.0;"/><text fill="#000000" font-family="sans-serif" font-size="14" lengthAdjust="spacing" textLength="102" x="677.5" y="532">price : &#31246;&#25244;&#20385;&#26684;</text><ellipse cx="668.5" cy="544.6973" fill="#000000" rx="3" ry="3" style="stroke:#000000;stroke-width:1.0;"/><text fill="#000000" font-family="sans-serif" font-size="14" lengthAdjust="spacing" textLength="71" x="677.5" y="548.4883">created_at</text><ellipse cx="668.5" cy="561.1855" fill="#000000" rx="3" ry="3" style="stroke:#000000;stroke-width:1.0;"/><text fill="#000000" font-family="sans-serif" font-size="14" lengthAdjust="spacing" textLength="77" x="677.5" y="564.9766">updated_at</text></g><!--class boxes--><g id="elem_boxes"><rect codeLine="70" fill="#F1F1F1" height="141.418" id="boxes" rx="2.5" ry="2.5" style="stroke:#181818;stroke-width:0.5;" width="205" x="695.5" y="631.4883"/><text fill="#000000" font-family="sans-serif" font-size="14" lengthAdjust="spacing" textLength="152" x="722" y="650.0234">boxes : &#21270;&#31911;&#31665;&#12486;&#12540;&#12502;&#12523;</text><line style="stroke:#181818;stroke-width:0.5;" x1="696.5" x2="899.5" y1="657.9766" y2="657.9766"/><ellipse cx="706.5" cy="671.7207" fill="#000000" rx="3" ry="3" style="stroke:#000000;stroke-width:1.0;"/><text fill="#000000" font-family="sans-serif" font-size="14" lengthAdjust="spacing" textLength="13" x="715.5" y="675.5117">id</text><line style="stroke:#181818;stroke-width:1.0;" x1="696.5" x2="899.5" y1="682.4648" y2="682.4648"/><polygon fill="none" points="706.5,691.209,710.5,695.209,706.5,699.209,702.5,695.209" style="stroke:#B38D22;stroke-width:1.0;"/><text fill="#000000" font-family="sans-serif" font-size="14" lengthAdjust="spacing" textLength="122" x="715.5" y="700">price_id : &#31246;&#25244;&#20385;&#26684;</text><ellipse cx="706.5" cy="712.6973" fill="#000000" rx="3" ry="3" style="stroke:#000000;stroke-width:1.0;"/><text fill="#000000" font-family="sans-serif" font-size="14" lengthAdjust="spacing" textLength="140" x="715.5" y="716.4883">box_name : &#31665;&#12398;&#21517;&#21069;</text><text fill="#000000" font-family="sans-serif" font-size="14" lengthAdjust="spacing" textLength="179" x="715.5" y="732.9766">box_description : &#31665;&#12398;&#35500;&#26126;</text><ellipse cx="706.5" cy="745.6738" fill="#000000" rx="3" ry="3" style="stroke:#000000;stroke-width:1.0;"/><text fill="#000000" font-family="sans-serif" font-size="14" lengthAdjust="spacing" textLength="71" x="715.5" y="749.4648">created_at</text><ellipse cx="706.5" cy="762.1621" fill="#000000" rx="3" ry="3" style="stroke:#000000;stroke-width:1.0;"/><text fill="#000000" font-family="sans-serif" font-size="14" lengthAdjust="spacing" textLength="77" x="715.5" y="765.9531">updated_at</text></g><!--class products--><g id="elem_products"><rect codeLine="80" fill="#F1F1F1" height="207.3711" id="products" rx="2.5" ry="2.5" style="stroke:#181818;stroke-width:0.5;" width="302" x="491" y="832.4883"/><text fill="#000000" font-family="sans-serif" font-size="14" lengthAdjust="spacing" textLength="157" x="563.5" y="851.0234">products : &#21830;&#21697;&#12486;&#12540;&#12502;&#12523;</text><line style="stroke:#181818;stroke-width:0.5;" x1="492" x2="792" y1="858.9766" y2="858.9766"/><ellipse cx="502" cy="872.7207" fill="#000000" rx="3" ry="3" style="stroke:#000000;stroke-width:1.0;"/><text fill="#000000" font-family="sans-serif" font-size="14" lengthAdjust="spacing" textLength="13" x="511" y="876.5117">id</text><line style="stroke:#181818;stroke-width:1.0;" x1="492" x2="792" y1="883.4648" y2="883.4648"/><polygon fill="none" points="502,892.209,506,896.209,502,900.209,498,896.209" style="stroke:#B38D22;stroke-width:1.0;"/><text fill="#000000" font-family="sans-serif" font-size="14" lengthAdjust="spacing" textLength="276" x="511" y="901">menu_category_id : &#12513;&#12491;&#12517;&#12540;&#12459;&#12486;&#12468;&#12522;&#12540;id</text><polygon fill="none" points="502,908.6973,506,912.6973,502,916.6973,498,912.6973" style="stroke:#B38D22;stroke-width:1.0;"/><text fill="#000000" font-family="sans-serif" font-size="14" lengthAdjust="spacing" textLength="135" x="511" y="917.4883">price_id : &#31246;&#25244;&#20385;&#26684;id</text><polygon fill="none" points="502,925.1855,506,929.1855,502,933.1855,498,929.1855" style="stroke:#B38D22;stroke-width:1.0;"/><text fill="#000000" font-family="sans-serif" font-size="14" lengthAdjust="spacing" textLength="203" x="511" y="933.9766">discount_id : &#21270;&#31911;&#31665;&#12434;&#20184;&#12369;&#12427;&#12363;</text><polygon fill="none" points="502,941.6738,506,945.6738,502,949.6738,498,945.6738" style="stroke:#B38D22;stroke-width:1.0;"/><text fill="#000000" font-family="sans-serif" font-size="14" lengthAdjust="spacing" textLength="171" x="511" y="950.4648">box_id : &#21270;&#31911;&#31665;&#12434;&#20184;&#12369;&#12427;&#12363;</text><ellipse cx="502" cy="963.1621" fill="#000000" rx="3" ry="3" style="stroke:#000000;stroke-width:1.0;"/><text fill="#000000" font-family="sans-serif" font-size="14" lengthAdjust="spacing" textLength="149" x="511" y="966.9531">product_name: &#21830;&#21697;&#21517;</text><text fill="#000000" font-family="sans-serif" font-size="14" lengthAdjust="spacing" textLength="202" x="511" y="983.4414">product_description: &#21830;&#21697;&#35500;&#26126;</text><ellipse cx="502" cy="996.1387" fill="#000000" rx="3" ry="3" style="stroke:#000000;stroke-width:1.0;"/><text fill="#000000" font-family="sans-serif" font-size="14" lengthAdjust="spacing" textLength="230" x="511" y="999.9297">is_available : &#21830;&#21697;&#12434;&#25552;&#20379;&#20013;&#12363;&#12393;&#12358;&#12363;</text><ellipse cx="502" cy="1012.627" fill="#000000" rx="3" ry="3" style="stroke:#000000;stroke-width:1.0;"/><text fill="#000000" font-family="sans-serif" font-size="14" lengthAdjust="spacing" textLength="71" x="511" y="1016.418">created_at</text><ellipse cx="502" cy="1029.1152" fill="#000000" rx="3" ry="3" style="stroke:#000000;stroke-width:1.0;"/><text fill="#000000" font-family="sans-serif" font-size="14" lengthAdjust="spacing" textLength="77" x="511" y="1032.9063">updated_at</text></g><!--class discounts--><g id="elem_discounts"><rect codeLine="94" fill="#F1F1F1" height="174.3945" id="discounts" rx="2.5" ry="2.5" style="stroke:#181818;stroke-width:0.5;" width="207" x="1155.5" y="848.9883"/><text fill="#000000" font-family="sans-serif" font-size="14" lengthAdjust="spacing" textLength="162" x="1178" y="867.5234">discounts : &#21106;&#24341;&#12486;&#12540;&#12502;&#12523;</text><line style="stroke:#181818;stroke-width:0.5;" x1="1156.5" x2="1361.5" y1="875.4766" y2="875.4766"/><ellipse cx="1166.5" cy="889.2207" fill="#000000" rx="3" ry="3" style="stroke:#000000;stroke-width:1.0;"/><text fill="#000000" font-family="sans-serif" font-size="14" lengthAdjust="spacing" textLength="13" x="1175.5" y="893.0117">id</text><line style="stroke:#181818;stroke-width:1.0;" x1="1156.5" x2="1361.5" y1="899.9648" y2="899.9648"/><text fill="#000000" font-family="sans-serif" font-size="14" lengthAdjust="spacing" textLength="170" x="1175.5" y="917.5">discount_value : &#21106;&#24341;&#20385;&#26684;</text><text fill="#000000" font-family="sans-serif" font-size="14" lengthAdjust="spacing" textLength="161" x="1175.5" y="933.9883">discount_rate : &#21106;&#24341;&#21106;&#21512;</text><ellipse cx="1166.5" cy="946.6855" fill="#000000" rx="3" ry="3" style="stroke:#000000;stroke-width:1.0;"/><text fill="#000000" font-family="sans-serif" font-size="14" lengthAdjust="spacing" textLength="181" x="1175.5" y="950.4766">discount_reason : &#21106;&#24341;&#29702;&#30001;</text><ellipse cx="1166.5" cy="963.1738" fill="#000000" rx="3" ry="3" style="stroke:#000000;stroke-width:1.0;"/><text fill="#000000" font-family="sans-serif" font-size="14" lengthAdjust="spacing" textLength="127" x="1175.5" y="966.9648">begin_at : &#38283;&#22987;&#26085;&#26178;</text><text fill="#000000" font-family="sans-serif" font-size="14" lengthAdjust="spacing" textLength="114" x="1175.5" y="983.4531">end_at : &#32066;&#20102;&#26085;&#26178;</text><ellipse cx="1166.5" cy="996.1504" fill="#000000" rx="3" ry="3" style="stroke:#000000;stroke-width:1.0;"/><text fill="#000000" font-family="sans-serif" font-size="14" lengthAdjust="spacing" textLength="71" x="1175.5" y="999.9414">created_at</text><ellipse cx="1166.5" cy="1012.6387" fill="#000000" rx="3" ry="3" style="stroke:#000000;stroke-width:1.0;"/><text fill="#000000" font-family="sans-serif" font-size="14" lengthAdjust="spacing" textLength="77" x="1175.5" y="1016.4297">updated_at</text></g><!--class products_discounts--><g id="elem_products_discounts"><rect codeLine="106" fill="#F1F1F1" height="141.418" id="products_discounts" rx="2.5" ry="2.5" style="stroke:#181818;stroke-width:0.5;" width="292" x="828" y="865.4883"/><text fill="#000000" font-family="sans-serif" font-size="14" lengthAdjust="spacing" textLength="286" x="831" y="884.0234">products_discounts : &#21830;&#21697;&#21106;&#24341;&#20013;&#38291;&#12486;&#12540;&#12502;&#12523;</text><line style="stroke:#181818;stroke-width:0.5;" x1="829" x2="1119" y1="891.9766" y2="891.9766"/><ellipse cx="839" cy="905.7207" fill="#000000" rx="3" ry="3" style="stroke:#000000;stroke-width:1.0;"/><text fill="#000000" font-family="sans-serif" font-size="14" lengthAdjust="spacing" textLength="13" x="848" y="909.5117">id</text><line style="stroke:#181818;stroke-width:1.0;" x1="829" x2="1119" y1="916.4648" y2="916.4648"/><polygon fill="none" points="839,925.209,843,929.209,839,933.209,835,929.209" style="stroke:#B38D22;stroke-width:1.0;"/><text fill="#000000" font-family="sans-serif" font-size="14" lengthAdjust="spacing" textLength="127" x="848" y="934">product_id : &#21830;&#21697;id</text><polygon fill="none" points="839,941.6973,843,945.6973,839,949.6973,835,945.6973" style="stroke:#B38D22;stroke-width:1.0;"/><text fill="#000000" font-family="sans-serif" font-size="14" lengthAdjust="spacing" textLength="132" x="848" y="950.4883">discount_id : &#21106;&#24341;id</text><ellipse cx="839" cy="963.1855" fill="#000000" rx="3" ry="3" style="stroke:#000000;stroke-width:1.0;"/><text fill="#000000" font-family="sans-serif" font-size="14" lengthAdjust="spacing" textLength="179" x="848" y="966.9766">is_deleted : &#35542;&#29702;&#21066;&#38500;&#12501;&#12521;&#12464;</text><ellipse cx="839" cy="979.6738" fill="#000000" rx="3" ry="3" style="stroke:#000000;stroke-width:1.0;"/><text fill="#000000" font-family="sans-serif" font-size="14" lengthAdjust="spacing" textLength="71" x="848" y="983.4648">created_at</text><ellipse cx="839" cy="996.1621" fill="#000000" rx="3" ry="3" style="stroke:#000000;stroke-width:1.0;"/><text fill="#000000" font-family="sans-serif" font-size="14" lengthAdjust="spacing" textLength="77" x="848" y="999.9531">updated_at</text></g><!--class foods--><g id="elem_foods"><rect codeLine="116" fill="#F1F1F1" height="141.418" id="foods" rx="2.5" ry="2.5" style="stroke:#181818;stroke-width:0.5;" width="202" x="254" y="865.4883"/><text fill="#000000" font-family="sans-serif" font-size="14" lengthAdjust="spacing" textLength="135" x="287.5" y="884.0234">foods : &#39135;&#26448;&#12486;&#12540;&#12502;&#12523;</text><line style="stroke:#181818;stroke-width:0.5;" x1="255" x2="455" y1="891.9766" y2="891.9766"/><ellipse cx="265" cy="905.7207" fill="#000000" rx="3" ry="3" style="stroke:#000000;stroke-width:1.0;"/><text fill="#000000" font-family="sans-serif" font-size="14" lengthAdjust="spacing" textLength="13" x="274" y="909.5117">id</text><line style="stroke:#181818;stroke-width:1.0;" x1="255" x2="455" y1="916.4648" y2="916.4648"/><ellipse cx="265" cy="930.209" fill="#000000" rx="3" ry="3" style="stroke:#000000;stroke-width:1.0;"/><text fill="#000000" font-family="sans-serif" font-size="14" lengthAdjust="spacing" textLength="131" x="274" y="934">food_name : &#39135;&#26448;&#21517;</text><ellipse cx="265" cy="946.6973" fill="#000000" rx="3" ry="3" style="stroke:#000000;stroke-width:1.0;"/><text fill="#000000" font-family="sans-serif" font-size="14" lengthAdjust="spacing" textLength="90" x="274" y="950.4883">stock : &#22312;&#24235;&#25968;</text><ellipse cx="265" cy="963.1855" fill="#000000" rx="3" ry="3" style="stroke:#000000;stroke-width:1.0;"/><text fill="#000000" font-family="sans-serif" font-size="14" lengthAdjust="spacing" textLength="176" x="274" y="966.9766">expiration_date : &#28040;&#36027;&#26399;&#38480;</text><ellipse cx="265" cy="979.6738" fill="#000000" rx="3" ry="3" style="stroke:#000000;stroke-width:1.0;"/><text fill="#000000" font-family="sans-serif" font-size="14" lengthAdjust="spacing" textLength="71" x="274" y="983.4648">created_at</text><ellipse cx="265" cy="996.1621" fill="#000000" rx="3" ry="3" style="stroke:#000000;stroke-width:1.0;"/><text fill="#000000" font-family="sans-serif" font-size="14" lengthAdjust="spacing" textLength="77" x="274" y="999.9531">updated_at</text></g><!--class product_foods--><g id="elem_product_foods"><rect codeLine="126" fill="#F1F1F1" height="141.418" id="product_foods" rx="2.5" ry="2.5" style="stroke:#181818;stroke-width:0.5;" width="230" x="384" y="1099.4883"/><text fill="#000000" font-family="sans-serif" font-size="14" lengthAdjust="spacing" textLength="224" x="387" y="1118.0234">product_foods : &#21830;&#21697;&#39135;&#26448;&#12486;&#12540;&#12502;&#12523;</text><line style="stroke:#181818;stroke-width:0.5;" x1="385" x2="613" y1="1125.9766" y2="1125.9766"/><ellipse cx="395" cy="1139.7207" fill="#000000" rx="3" ry="3" style="stroke:#000000;stroke-width:1.0;"/><text fill="#000000" font-family="sans-serif" font-size="14" lengthAdjust="spacing" textLength="13" x="404" y="1143.5117">id</text><line style="stroke:#181818;stroke-width:1.0;" x1="385" x2="613" y1="1150.4648" y2="1150.4648"/><polygon fill="none" points="395,1159.209,399,1163.209,395,1167.209,391,1163.209" style="stroke:#B38D22;stroke-width:1.0;"/><text fill="#000000" font-family="sans-serif" font-size="14" lengthAdjust="spacing" textLength="127" x="404" y="1168">product_id : &#21830;&#21697;id</text><polygon fill="none" points="395,1175.6973,399,1179.6973,395,1183.6973,391,1179.6973" style="stroke:#B38D22;stroke-width:1.0;"/><text fill="#000000" font-family="sans-serif" font-size="14" lengthAdjust="spacing" textLength="105" x="404" y="1184.4883">food_id : &#39135;&#26448;id</text><ellipse cx="395" cy="1197.1855" fill="#000000" rx="3" ry="3" style="stroke:#000000;stroke-width:1.0;"/><text fill="#000000" font-family="sans-serif" font-size="14" lengthAdjust="spacing" textLength="149" x="404" y="1200.9766">food_quantity : &#39135;&#26448;&#37327;</text><ellipse cx="395" cy="1213.6738" fill="#000000" rx="3" ry="3" style="stroke:#000000;stroke-width:1.0;"/><text fill="#000000" font-family="sans-serif" font-size="14" lengthAdjust="spacing" textLength="71" x="404" y="1217.4648">created_at</text><ellipse cx="395" cy="1230.1621" fill="#000000" rx="3" ry="3" style="stroke:#000000;stroke-width:1.0;"/><text fill="#000000" font-family="sans-serif" font-size="14" lengthAdjust="spacing" textLength="77" x="404" y="1233.9531">updated_at</text></g><!--class order_details--><g id="elem_order_details"><rect codeLine="136" fill="#F1F1F1" height="174.3945" id="order_details" rx="2.5" ry="2.5" style="stroke:#181818;stroke-width:0.5;" width="274" x="1122" y="1300.4883"/><text fill="#000000" font-family="sans-serif" font-size="14" lengthAdjust="spacing" textLength="214" x="1152" y="1319.0234">order_details : &#27880;&#25991;&#35443;&#32048;&#12486;&#12540;&#12502;&#12523;</text><line style="stroke:#181818;stroke-width:0.5;" x1="1123" x2="1395" y1="1326.9766" y2="1326.9766"/><ellipse cx="1133" cy="1340.7207" fill="#000000" rx="3" ry="3" style="stroke:#000000;stroke-width:1.0;"/><text fill="#000000" font-family="sans-serif" font-size="14" lengthAdjust="spacing" textLength="13" x="1142" y="1344.5117">id</text><line style="stroke:#181818;stroke-width:1.0;" x1="1123" x2="1395" y1="1351.4648" y2="1351.4648"/><polygon fill="none" points="1133,1360.209,1137,1364.209,1133,1368.209,1129,1364.209" style="stroke:#B38D22;stroke-width:1.0;"/><text fill="#000000" font-family="sans-serif" font-size="14" lengthAdjust="spacing" textLength="111" x="1142" y="1369">order_id : &#27880;&#25991;id</text><polygon fill="none" points="1133,1376.6973,1137,1380.6973,1133,1384.6973,1129,1380.6973" style="stroke:#B38D22;stroke-width:1.0;"/><text fill="#000000" font-family="sans-serif" font-size="14" lengthAdjust="spacing" textLength="127" x="1142" y="1385.4883">product_id : &#21830;&#21697;id</text><polygon fill="none" points="1133,1393.1855,1137,1397.1855,1133,1401.1855,1129,1397.1855" style="stroke:#B38D22;stroke-width:1.0;"/><text fill="#000000" font-family="sans-serif" font-size="14" lengthAdjust="spacing" textLength="132" x="1142" y="1401.9766">discount_id : &#21106;&#24341;id</text><ellipse cx="1133" cy="1414.6738" fill="#000000" rx="3" ry="3" style="stroke:#000000;stroke-width:1.0;"/><text fill="#000000" font-family="sans-serif" font-size="14" lengthAdjust="spacing" textLength="248" x="1142" y="1418.4648">is_without_wasabi : &#12373;&#12403;&#25244;&#12365;&#12363;&#12393;&#12358;&#12363;</text><ellipse cx="1133" cy="1431.1621" fill="#000000" rx="3" ry="3" style="stroke:#000000;stroke-width:1.0;"/><text fill="#000000" font-family="sans-serif" font-size="14" lengthAdjust="spacing" textLength="200" x="1142" y="1434.9531">is_less_rice : &#12471;&#12515;&#12522;&#23567;&#12363;&#12393;&#12358;&#12363;</text><ellipse cx="1133" cy="1447.6504" fill="#000000" rx="3" ry="3" style="stroke:#000000;stroke-width:1.0;"/><text fill="#000000" font-family="sans-serif" font-size="14" lengthAdjust="spacing" textLength="71" x="1142" y="1451.4414">created_at</text><ellipse cx="1133" cy="1464.1387" fill="#000000" rx="3" ry="3" style="stroke:#000000;stroke-width:1.0;"/><text fill="#000000" font-family="sans-serif" font-size="14" lengthAdjust="spacing" textLength="77" x="1142" y="1467.9297">updated_at</text></g><!--link customers to orders--><g id="link_customers_orders"><path codeLine="148" d="M1260.31,208.6883 C1280.24,224.4683 1300.97,240.8883 1320.55,256.3883 " fill="none" id="customers-orders" style="stroke:#181818;stroke-width:1.0;"/><line style="stroke:#181818;stroke-width:1.0;" x1="1254.8898" x2="1259.8594" y1="209.4977" y2="203.2285"/><line style="stroke:#181818;stroke-width:1.0;" x1="1257.2407" x2="1262.2104" y1="211.3613" y2="205.0921"/><line style="stroke:#181818;stroke-width:1.0;" x1="1260.5092" x2="1254.24" y1="208.8479" y2="203.8783"/><line style="stroke:#181818;stroke-width:1.0;" x1="1320.5308" x2="1330.5272" y1="256.3786" y2="256.6464"/><line style="stroke:#181818;stroke-width:1.0;" x1="1320.5308" x2="1323.0728" y1="256.3786" y2="266.0502"/><line style="stroke:#181818;stroke-width:1.0;" x1="1320.5308" x2="1326.8" y1="256.3786" y2="261.3483"/><line style="stroke:#181818;stroke-width:1.0;" x1="1321.4483" x2="1316.4787" y1="252.0016" y2="258.2708"/></g><!--link channels to orders--><g id="link_channels_orders"><path codeLine="149" d="M1416,187.1683 C1416,207.9083 1416,231.2583 1416,253.0483 " fill="none" id="channels-orders" style="stroke:#181818;stroke-width:1.0;"/><line style="stroke:#181818;stroke-width:1.0;" x1="1412" x2="1420" y1="183.4383" y2="183.4383"/><line style="stroke:#181818;stroke-width:1.0;" x1="1412" x2="1420" y1="186.4383" y2="186.4383"/><line style="stroke:#181818;stroke-width:1.0;" x1="1416" x2="1416" y1="187.4383" y2="179.4383"/><line style="stroke:#181818;stroke-width:1.0;" x1="1416" x2="1422" y1="252.7683" y2="260.7683"/><line style="stroke:#181818;stroke-width:1.0;" x1="1416" x2="1410" y1="252.7683" y2="260.7683"/><line style="stroke:#181818;stroke-width:1.0;" x1="1416" x2="1416" y1="252.7683" y2="260.7683"/><line style="stroke:#181818;stroke-width:1.0;" x1="1420" x2="1412" y1="250.7683" y2="250.7683"/></g><!--link order_statuses to orders--><g id="link_order_statuses_orders"><path codeLine="150" d="M1653.72,182.9683 C1615.55,206.8883 1571.01,234.8183 1530.87,259.9783 " fill="none" id="order_statuses-orders" style="stroke:#181818;stroke-width:1.0;"/><line style="stroke:#181818;stroke-width:1.0;" x1="1654.9647" x2="1659.2226" y1="177.4709" y2="184.2436"/><line style="stroke:#181818;stroke-width:1.0;" x1="1652.4249" x2="1656.6828" y1="179.0676" y2="185.8404"/><line style="stroke:#181818;stroke-width:1.0;" x1="1653.7073" x2="1660.48" y1="182.9862" y2="178.7283"/><line style="stroke:#181818;stroke-width:1.0;" x1="1530.9568" x2="1527.3686" y1="259.9168" y2="269.2509"/><line style="stroke:#181818;stroke-width:1.0;" x1="1530.9568" x2="1520.9914" y1="259.9168" y2="259.0857"/><line style="stroke:#181818;stroke-width:1.0;" x1="1530.9568" x2="1524.18" y1="259.9168" y2="264.1683"/><line style="stroke:#181818;stroke-width:1.0;" x1="1534.7767" x2="1530.5252" y1="262.2423" y2="255.4655"/></g><!--link orders to order_details--><g id="link_orders_order_details"><path codeLine="152" d="M1416,412.9783 C1416,487.2983 1416,601.6983 1416,700.9883 C1416,700.9883 1416,700.9883 1416,936.9883 C1416,1065.1183 1358.44,1202.8683 1313.03,1291.6283 " fill="none" id="orders-order_details" style="stroke:#181818;stroke-width:1.0;"/><line style="stroke:#181818;stroke-width:1.0;" x1="1412" x2="1420" y1="409.1783" y2="409.1783"/><line style="stroke:#181818;stroke-width:1.0;" x1="1412" x2="1420" y1="412.1783" y2="412.1783"/><line style="stroke:#181818;stroke-width:1.0;" x1="1416" x2="1416" y1="413.1783" y2="405.1783"/><line style="stroke:#181818;stroke-width:1.0;" x1="1313.0388" x2="1314.7019" y1="1291.6091" y2="1301.4699"/><line style="stroke:#181818;stroke-width:1.0;" x1="1313.0388" x2="1304.0381" y1="1291.6091" y2="1295.9667"/><line style="stroke:#181818;stroke-width:1.0;" x1="1313.0388" x2="1309.37" y1="1291.6091" y2="1298.7183"/><line style="stroke:#181818;stroke-width:1.0;" x1="1317.5106" x2="1310.4014" y1="1291.6662" y2="1287.9975"/></g><!--link products to order_details--><g id="link_products_order_details"><path codeLine="153" d="M790.83,1045.4083 C895.37,1121.5783 1033.7,1222.3483 1132.84,1294.5783 " fill="none" id="products-order_details" style="stroke:#181818;stroke-width:1.0;"/><line style="stroke:#181818;stroke-width:1.0;" x1="785.2759" x2="789.9771" y1="1046.3053" y2="1039.8324"/><line style="stroke:#181818;stroke-width:1.0;" x1="787.7033" x2="792.4044" y1="1048.0683" y2="1041.5953"/><line style="stroke:#181818;stroke-width:1.0;" x1="790.863" x2="784.39" y1="1045.4194" y2="1040.7183"/><line style="stroke:#181818;stroke-width:1.0;" x1="1132.812" x2="1142.8109" y1="1294.5604" y2="1294.4173"/><line style="stroke:#181818;stroke-width:1.0;" x1="1132.812" x2="1135.7491" y1="1294.5604" y2="1304.1193"/><line style="stroke:#181818;stroke-width:1.0;" x1="1132.812" x2="1139.28" y1="1294.5604" y2="1299.2683"/><ellipse cx="1127.9609" cy="1291.0294" fill="none" rx="4" ry="4" style="stroke:#181818;stroke-width:1.0;"/></g><!--link discounts to order_details--><g id="link_discounts_order_details"><path codeLine="154" d="M1259,1032.8983 C1259,1109.1183 1259,1215.1983 1259,1291.2483 " fill="none" id="discounts-order_details" style="stroke:#181818;stroke-width:1.0;"/><line style="stroke:#181818;stroke-width:1.0;" x1="1259" x2="1259" y1="1035.9083" y2="1024.9083"/><ellipse cx="1259" cy="1035.9083" fill="none" rx="4" ry="4" style="stroke:#181818;stroke-width:1.0;"/><line style="stroke:#181818;stroke-width:1.0;" x1="1255" x2="1263" y1="1028.9083" y2="1028.9083"/><line style="stroke:#181818;stroke-width:1.0;" x1="1259" x2="1265" y1="1290.8483" y2="1298.8483"/><line style="stroke:#181818;stroke-width:1.0;" x1="1259" x2="1253" y1="1290.8483" y2="1298.8483"/><line style="stroke:#181818;stroke-width:1.0;" x1="1259" x2="1259" y1="1290.8483" y2="1298.8483"/><ellipse cx="1259" cy="1284.8483" fill="none" rx="4" ry="4" style="stroke:#181818;stroke-width:1.0;"/></g><!--link menu_groups to menu_categories--><g id="link_menu_groups_menu_categories"><path codeLine="156" d="M299,581.0683 C299,594.1383 299,608.0783 299,621.6683 " fill="none" id="menu_groups-menu_categories" style="stroke:#181818;stroke-width:1.0;"/><line style="stroke:#181818;stroke-width:1.0;" x1="295" x2="303" y1="577.2783" y2="577.2783"/><line style="stroke:#181818;stroke-width:1.0;" x1="295" x2="303" y1="580.2783" y2="580.2783"/><line style="stroke:#181818;stroke-width:1.0;" x1="299" x2="299" y1="581.2783" y2="573.2783"/><line style="stroke:#181818;stroke-width:1.0;" x1="299" x2="305" y1="621.4883" y2="629.4883"/><line style="stroke:#181818;stroke-width:1.0;" x1="299" x2="293" y1="621.4883" y2="629.4883"/><line style="stroke:#181818;stroke-width:1.0;" x1="299" x2="299" y1="621.4883" y2="629.4883"/><line style="stroke:#181818;stroke-width:1.0;" x1="303" x2="295" y1="619.4883" y2="619.4883"/></g><!--link menu_categories to products--><g id="link_menu_categories_products"><path codeLine="158" d="M409.94,778.0283 C433.28,793.8083 458.33,810.7583 483.04,827.4683 " fill="none" id="menu_categories-products" style="stroke:#181818;stroke-width:1.0;"/><line style="stroke:#181818;stroke-width:1.0;" x1="404.7009" x2="409.1846" y1="779.3128" y2="772.6874"/><line style="stroke:#181818;stroke-width:1.0;" x1="407.1855" x2="411.6691" y1="780.9942" y2="774.3687"/><line style="stroke:#181818;stroke-width:1.0;" x1="410.2555" x2="403.63" y1="778.2419" y2="773.7583"/><line style="stroke:#181818;stroke-width:1.0;" x1="482.8079" x2="492.7954" y1="827.3245" y2="826.8242"/><line style="stroke:#181818;stroke-width:1.0;" x1="482.8079" x2="486.0846" y1="827.3245" y2="836.7724"/><line style="stroke:#181818;stroke-width:1.0;" x1="482.8079" x2="489.44" y1="827.3245" y2="831.7983"/><line style="stroke:#181818;stroke-width:1.0;" x1="483.3868" x2="478.9129" y1="822.89" y2="829.5221"/></g><!--link prices to products--><g id="link_prices_products"><path codeLine="159" d="M701.85,579.6783 C692.62,595.9183 683.84,613.8583 678,631.4883 C657.64,692.9183 648.51,764.7183 644.53,823.0483 " fill="none" id="prices-products" style="stroke:#181818;stroke-width:1.0;"/><line style="stroke:#181818;stroke-width:1.0;" x1="700.1724" x2="707.0909" y1="574.6092" y2="578.6259"/><line style="stroke:#181818;stroke-width:1.0;" x1="698.6661" x2="705.5846" y1="577.2036" y2="581.2203"/><line style="stroke:#181818;stroke-width:1.0;" x1="701.6233" x2="705.64" y1="580.0768" y2="573.1583"/><line style="stroke:#181818;stroke-width:1.0;" x1="644.5441" x2="650.0176" y1="822.7948" y2="831.1639"/><line style="stroke:#181818;stroke-width:1.0;" x1="644.5441" x2="638.0424" y1="822.7948" y2="830.3927"/><line style="stroke:#181818;stroke-width:1.0;" x1="644.5441" x2="644.03" y1="822.7948" y2="830.7783"/><line style="stroke:#181818;stroke-width:1.0;" x1="648.6644" x2="640.6809" y1="821.056" y2="820.5419"/></g><!--link prices to boxes--><g id="link_prices_boxes"><path codeLine="160" d="M761.72,580.6183 C765.73,593.9183 770.02,608.1383 774.19,621.9783 " fill="none" id="prices-boxes" style="stroke:#181818;stroke-width:1.0;"/><line style="stroke:#181818;stroke-width:1.0;" x1="756.8098" x2="764.4716" y1="578.1999" y2="575.8985"/><line style="stroke:#181818;stroke-width:1.0;" x1="757.6728" x2="765.3346" y1="581.0731" y2="578.7717"/><line style="stroke:#181818;stroke-width:1.0;" x1="761.7914" x2="759.49" y1="580.8801" y2="573.2183"/><line style="stroke:#181818;stroke-width:1.0;" x1="774.1555" x2="782.2134" y1="621.8904" y2="627.8124"/><line style="stroke:#181818;stroke-width:1.0;" x1="774.1555" x2="770.7266" y1="621.8904" y2="631.2842"/><line style="stroke:#181818;stroke-width:1.0;" x1="774.1555" x2="776.47" y1="621.8904" y2="629.5483"/><line style="stroke:#181818;stroke-width:1.0;" x1="777.4058" x2="769.7479" y1="618.8187" y2="621.1332"/></g><!--link boxes to products--><g id="link_boxes_products"><path codeLine="161" d="M745.92,780.4483 C736.41,794.5783 726.33,809.5783 716.32,824.4583 " fill="none" id="boxes-products" style="stroke:#181818;stroke-width:1.0;"/><line style="stroke:#181818;stroke-width:1.0;" x1="744.5881" x2="751.2247" y1="775.253" y2="779.7202"/><line style="stroke:#181818;stroke-width:1.0;" x1="742.9129" x2="749.5495" y1="777.7417" y2="782.2089"/><line style="stroke:#181818;stroke-width:1.0;" x1="745.6728" x2="750.14" y1="780.8049" y2="774.1683"/><line style="stroke:#181818;stroke-width:1.0;" x1="716.4172" x2="716.9274" y1="824.3217" y2="834.3087"/><line style="stroke:#181818;stroke-width:1.0;" x1="716.4172" x2="706.9726" y1="824.3217" y2="827.6079"/><line style="stroke:#181818;stroke-width:1.0;" x1="716.4172" x2="711.95" y1="824.3217" y2="830.9583"/><ellipse cx="719.7676" cy="819.3443" fill="none" rx="4" ry="4" style="stroke:#181818;stroke-width:1.0;"/></g><!--link products to products_discounts--><g id="link_products_products_discounts"><path codeLine="163" d="M802.77,935.9883 C807.94,935.9883 813.12,935.9883 818.3,935.9883 " fill="none" id="products-products_discounts" style="stroke:#181818;stroke-width:1.0;"/><line style="stroke:#181818;stroke-width:1.0;" x1="805.92" x2="794.92" y1="935.9883" y2="935.9883"/><ellipse cx="805.92" cy="935.9883" fill="none" rx="4" ry="4" style="stroke:#181818;stroke-width:1.0;"/><line style="stroke:#181818;stroke-width:1.0;" x1="798.92" x2="798.92" y1="939.9883" y2="931.9883"/><line style="stroke:#181818;stroke-width:1.0;" x1="818.11" x2="826.11" y1="935.9883" y2="929.9883"/><line style="stroke:#181818;stroke-width:1.0;" x1="818.11" x2="826.11" y1="935.9883" y2="941.9883"/><line style="stroke:#181818;stroke-width:1.0;" x1="818.11" x2="826.11" y1="935.9883" y2="935.9883"/><ellipse cx="812.11" cy="935.9883" fill="none" rx="4" ry="4" style="stroke:#181818;stroke-width:1.0;"/></g><!--link products_discounts to discounts--><g id="link_products_discounts_discounts"><path codeLine="164" d="M1129.87,935.9883 C1135.12,935.9883 1140.36,935.9883 1145.61,935.9883 " fill="none" id="products_discounts-discounts" style="stroke:#181818;stroke-width:1.0;"/><line style="stroke:#181818;stroke-width:1.0;" x1="1129.91" x2="1121.91" y1="935.9883" y2="941.9883"/><line style="stroke:#181818;stroke-width:1.0;" x1="1129.91" x2="1121.91" y1="935.9883" y2="929.9883"/><line style="stroke:#181818;stroke-width:1.0;" x1="1129.91" x2="1121.91" y1="935.9883" y2="935.9883"/><ellipse cx="1135.91" cy="935.9883" fill="none" rx="4" ry="4" style="stroke:#181818;stroke-width:1.0;"/><line style="stroke:#181818;stroke-width:1.0;" x1="1142.53" x2="1153.53" y1="935.9883" y2="935.9883"/><ellipse cx="1142.53" cy="935.9883" fill="none" rx="4" ry="4" style="stroke:#181818;stroke-width:1.0;"/><line style="stroke:#181818;stroke-width:1.0;" x1="1149.53" x2="1149.53" y1="931.9883" y2="939.9883"/></g><!--link products to product_foods--><g id="link_products_product_foods"><path codeLine="166" d="M573.7,1047.7983 C564.58,1062.5883 555.39,1077.4983 546.73,1091.5583 " fill="none" id="products-product_foods" style="stroke:#181818;stroke-width:1.0;"/><line style="stroke:#181818;stroke-width:1.0;" x1="572.3561" x2="579.1664" y1="1042.3547" y2="1046.5522"/><line style="stroke:#181818;stroke-width:1.0;" x1="570.782" x2="577.5923" y1="1044.9085" y2="1049.1061"/><line style="stroke:#181818;stroke-width:1.0;" x1="573.6624" x2="577.86" y1="1047.8586" y2="1041.0483"/><line style="stroke:#181818;stroke-width:1.0;" x1="546.9676" x2="547.8777" y1="1091.168" y2="1101.1264"/><line style="stroke:#181818;stroke-width:1.0;" x1="546.9676" x2="537.6623" y1="1091.168" y2="1094.8301"/><line style="stroke:#181818;stroke-width:1.0;" x1="546.9676" x2="542.77" y1="1091.168" y2="1097.9783"/><line style="stroke:#181818;stroke-width:1.0;" x1="551.4221" x2="544.6118" y1="1091.5642" y2="1087.3666"/></g><!--link foods to product_foods--><g id="link_foods_product_foods"><path codeLine="167" d="M403.35,1014.8883 C418.64,1039.5183 435.52,1066.7083 450.79,1091.3183 " fill="none" id="foods-product_foods" style="stroke:#181818;stroke-width:1.0;"/><line style="stroke:#181818;stroke-width:1.0;" x1="397.9071" x2="404.7071" y1="1013.7054" y2="1009.4911"/><line style="stroke:#181818;stroke-width:1.0;" x1="399.4875" x2="406.2875" y1="1016.2554" y2="1012.0411"/><line style="stroke:#181818;stroke-width:1.0;" x1="403.4143" x2="399.2" y1="1014.9983" y2="1008.1983"/><line style="stroke:#181818;stroke-width:1.0;" x1="450.6757" x2="459.99" y1="1091.1183" y2="1094.7576"/><line style="stroke:#181818;stroke-width:1.0;" x1="450.6757" x2="449.79" y1="1091.1183" y2="1101.079"/><line style="stroke:#181818;stroke-width:1.0;" x1="450.6757" x2="454.89" y1="1091.1183" y2="1097.9183"/><line style="stroke:#181818;stroke-width:1.0;" x1="453.0221" x2="446.2222" y1="1087.3112" y2="1091.5254"/></g><!--SRC=[dLRRRjj647tdLn3nGm43_e4-5lqFWYOt5b5QL7b9OiG5Gh9LT8ajvI8fXXqaRkfQjcfRjXDRY5NdOrQafAVyGcTtkIH5IQWKFH3YpEpkd3DdX_E3cDDK9Dev95e5mnRecwAPYeu4mTPi7Oa__pHgdutQ9K50UR1iYGyKnxADJMHQue_Y-F0uEFyJ-qNizx7Vn7xdWIXROXBoL135LKs5vzeQ-VjGtjJqBIalRo9O7dPhrAYPbirjGNs7s6oaa_ttxqOdbyF6QL2x9LQvK90S2vcIfe8NUt1q2_kds3t7_jya1-y6dlIyLSL4ierKIRR9crDG-TjlAImvEPz7Ee4INhV3vlFXvnUZsujfG3mkYoTon81IcqH05ad3C5N0PDco3U1IoLHkmZ-gKybaehCfCKTca_WrgBK6Ts_nCpTySn6M6zZzFUoLiFiLBE32xikmTuZT5ZCkbNzovEoCfp9TuJ9XrMHQekuLJYjrf4bbxZG34p4Kw-BbtqHvHzem3QT0aiV-8VQ1xYCgf2uaJr6qfk2absNPJtnS4_Es1NrywvUmTuTz7_kbYR1dBdOhmT6_f33k7jG3ko3oas_zybBG571i6AQ6fk5r22hl4xay99jP25EhivLBeMGtSGv6LehqRbkpQPb8Xp4ptD_7NcLqtsVgn6u7kxjWWV-3NeQY53cQ9UbENib9gcOfXfC7QkXf9zY_nhwBlQ_O-mlx7w1d1EMheDy8Bkv7bw3vAko1tIByMPJZWgafbDfXUpUi70pk3yCFqrn6KLcXK7DcxQ87hnjFwBd1Y-RmwdXuVZbrA8l8besUoIgMFHOMyCgG_O2S-avG9XsCU5HaAQPMi3KZ7mUCJly9t-ukpfMXEefDisuKWzVk39wYY9bYY-KpGsyJuc4TOWvIvkJAOFw4HEyLQOtkI-nLcGfM2FR_2rgD4gVqSNIi-NDFYZuUaB07WfKVoPekh-ieOSTx5TRgW_lzGU_iUwJ98LA-gSod-4v2CeJ7z3oITGV56yHQYVqc71oxoRDU8ZibVYHRL30iObWl3jzSKh6X3IqF6PEktwm6nzMmTHJkUU12UPNPXv-zmPTYR5zAOz84UbOF1g5tDcw-dgiyQIubAxoIJ0nqovbQeiUmhWTrLP6EMFyPTPe0FoXNndlGV1ga7NdTHN4zD0oLJbiVtuVlwbFfC_VKf0LMVgFPmcWWWM-kyWl9zQ0TVEc43Pe6UbBGe9mWK4bbLGrlIgEhk_3W_NYllcG199um8sfEsfF12nDESR61WUxBoARMNnsP9S9zu-UrvKOm5Tbm4vD9PdHoFVpKdJE1yU1iwioR6ajuI_eU2JtMx9pXsD9ZsPBNDTBwN1ZQhg6ZONSdsnd8jmzPbXHzMh1tY_sFq1Q3RcsP9fACxzlRQslRJwFvJOYdu4bpPXwTT0hHx4UivCSzd3qXRliqmiYwaokvRSpo2-bXB3ewCxr4CQbn9ehZHmlH9vfcCCSEPlfD5TYNbPYCL6GAXh5cfbr9Kvd4eiy9cYGaoORT4u7Tbfck_m00]--></g></svg>