<?xml version="1.0" encoding="us-ascii" standalone="no"?><svg xmlns="http://www.w3.org/2000/svg" xmlns:xlink="http://www.w3.org/1999/xlink" contentStyleType="text/css" height="1432px" preserveAspectRatio="none" style="width:1808px;height:1432px;background:#FFFFFF;" version="1.1" viewBox="0 0 1808 1432" width="1808px" zoomAndPan="magnify"><defs/><g><text fill="#000000" font-family="sans-serif" font-size="14" font-weight="bold" lengthAdjust="spacing" textLength="48" x="873.25" y="23.5352">DB&#35373;&#35336;</text><!--class customers--><g id="elem_customers"><rect codeLine="7" fill="#F1F1F1" height="157.9063" id="customers" rx="2.5" ry="2.5" style="stroke:#181818;stroke-width:0.5;" width="246" x="893" y="44.4883"/><text fill="#000000" font-family="sans-serif" font-size="14" lengthAdjust="spacing" textLength="167" x="932.5" y="63.0234">customers : &#39015;&#23458;&#12486;&#12540;&#12502;&#12523;</text><line style="stroke:#181818;stroke-width:0.5;" x1="894" x2="1138" y1="70.9766" y2="70.9766"/><ellipse cx="904" cy="84.7207" fill="#000000" rx="3" ry="3" style="stroke:#000000;stroke-width:1.0;"/><text fill="#000000" font-family="sans-serif" font-size="14" lengthAdjust="spacing" textLength="13" x="913" y="88.5117">id</text><line style="stroke:#181818;stroke-width:1.0;" x1="894" x2="1138" y1="95.4648" y2="95.4648"/><ellipse cx="904" cy="109.209" fill="#000000" rx="3" ry="3" style="stroke:#000000;stroke-width:1.0;"/><text fill="#000000" font-family="sans-serif" font-size="14" lengthAdjust="spacing" textLength="112" x="913" y="113">family_name : &#27663;</text><ellipse cx="904" cy="125.6973" fill="#000000" rx="3" ry="3" style="stroke:#000000;stroke-width:1.0;"/><text fill="#000000" font-family="sans-serif" font-size="14" lengthAdjust="spacing" textLength="98" x="913" y="129.4883">first_name : &#21517;</text><ellipse cx="904" cy="142.1855" fill="#000000" rx="3" ry="3" style="stroke:#000000;stroke-width:1.0;"/><text fill="#000000" font-family="sans-serif" font-size="14" lengthAdjust="spacing" textLength="85" x="913" y="145.9766">tel : &#38651;&#35441;&#30058;&#21495;</text><ellipse cx="904" cy="158.6738" fill="#000000" rx="3" ry="3" style="stroke:#000000;stroke-width:1.0;"/><text fill="#000000" font-family="sans-serif" font-size="14" lengthAdjust="spacing" textLength="220" x="913" y="162.4648">app_user_id : &#12450;&#12503;&#12522;&#12398;&#12518;&#12540;&#12470;&#12540;id</text><ellipse cx="904" cy="175.1621" fill="#000000" rx="3" ry="3" style="stroke:#000000;stroke-width:1.0;"/><text fill="#000000" font-family="sans-serif" font-size="14" lengthAdjust="spacing" textLength="71" x="913" y="178.9531">created_at</text><ellipse cx="904" cy="191.6504" fill="#000000" rx="3" ry="3" style="stroke:#000000;stroke-width:1.0;"/><text fill="#000000" font-family="sans-serif" font-size="14" lengthAdjust="spacing" textLength="77" x="913" y="195.4414">updated_at</text></g><!--class channels--><g id="elem_channels"><rect codeLine="18" fill="#F1F1F1" height="108.4414" id="channels" rx="2.5" ry="2.5" style="stroke:#181818;stroke-width:0.5;" width="207" x="1174.5" y="69.4883"/><text fill="#000000" font-family="sans-serif" font-size="14" lengthAdjust="spacing" textLength="185" x="1185.5" y="88.0234">channels : &#27880;&#25991;&#32076;&#36335;&#12486;&#12540;&#12502;&#12523;</text><line style="stroke:#181818;stroke-width:0.5;" x1="1175.5" x2="1380.5" y1="95.9766" y2="95.9766"/><ellipse cx="1185.5" cy="109.7207" fill="#000000" rx="3" ry="3" style="stroke:#000000;stroke-width:1.0;"/><text fill="#000000" font-family="sans-serif" font-size="14" lengthAdjust="spacing" textLength="13" x="1194.5" y="113.5117">id</text><line style="stroke:#181818;stroke-width:1.0;" x1="1175.5" x2="1380.5" y1="120.4648" y2="120.4648"/><ellipse cx="1185.5" cy="134.209" fill="#000000" rx="3" ry="3" style="stroke:#000000;stroke-width:1.0;"/><text fill="#000000" font-family="sans-serif" font-size="14" lengthAdjust="spacing" textLength="181" x="1194.5" y="138">channel_name : &#27880;&#25991;&#32076;&#36335;&#21517;</text><ellipse cx="1185.5" cy="150.6973" fill="#000000" rx="3" ry="3" style="stroke:#000000;stroke-width:1.0;"/><text fill="#000000" font-family="sans-serif" font-size="14" lengthAdjust="spacing" textLength="71" x="1194.5" y="154.4883">created_at</text><ellipse cx="1185.5" cy="167.1855" fill="#000000" rx="3" ry="3" style="stroke:#000000;stroke-width:1.0;"/><text fill="#000000" font-family="sans-serif" font-size="14" lengthAdjust="spacing" textLength="77" x="1194.5" y="170.9766">updated_at</text></g><!--class order_statuses--><g id="elem_order_statuses"><rect codeLine="26" fill="#F1F1F1" height="108.4414" id="order_statuses" rx="2.5" ry="2.5" style="stroke:#181818;stroke-width:0.5;" width="385" x="1416.5" y="69.4883"/><text fill="#000000" font-family="sans-serif" font-size="14" lengthAdjust="spacing" textLength="225" x="1496.5" y="88.0234">order_statuses : &#27880;&#25991;&#29366;&#24907;&#12486;&#12540;&#12502;&#12523;</text><line style="stroke:#181818;stroke-width:0.5;" x1="1417.5" x2="1800.5" y1="95.9766" y2="95.9766"/><ellipse cx="1427.5" cy="109.7207" fill="#000000" rx="3" ry="3" style="stroke:#000000;stroke-width:1.0;"/><text fill="#000000" font-family="sans-serif" font-size="14" lengthAdjust="spacing" textLength="13" x="1436.5" y="113.5117">id</text><line style="stroke:#181818;stroke-width:1.0;" x1="1417.5" x2="1800.5" y1="120.4648" y2="120.4648"/><ellipse cx="1427.5" cy="134.209" fill="#000000" rx="3" ry="3" style="stroke:#000000;stroke-width:1.0;"/><text fill="#000000" font-family="sans-serif" font-size="14" lengthAdjust="spacing" textLength="359" x="1436.5" y="138">status : &#27880;&#25991;&#29366;&#24907; : &#27880;&#25991;&#21463;&#20184;&#12289;&#25903;&#25173;&#12356;&#28168;&#12415;&#12289;&#21463;&#12369;&#28193;&#12375;&#28168;&#12415;</text><ellipse cx="1427.5" cy="150.6973" fill="#000000" rx="3" ry="3" style="stroke:#000000;stroke-width:1.0;"/><text fill="#000000" font-family="sans-serif" font-size="14" lengthAdjust="spacing" textLength="71" x="1436.5" y="154.4883">created_at</text><ellipse cx="1427.5" cy="167.1855" fill="#000000" rx="3" ry="3" style="stroke:#000000;stroke-width:1.0;"/><text fill="#000000" font-family="sans-serif" font-size="14" lengthAdjust="spacing" textLength="77" x="1436.5" y="170.9766">updated_at</text></g><!--class orders--><g id="elem_orders"><rect codeLine="34" fill="#F1F1F1" height="141.418" id="orders" rx="2.5" ry="2.5" style="stroke:#181818;stroke-width:0.5;" width="213" x="1171.5" y="262.4883"/><text fill="#000000" font-family="sans-serif" font-size="14" lengthAdjust="spacing" textLength="141" x="1207.5" y="281.0234">orders : &#27880;&#25991;&#12486;&#12540;&#12502;&#12523;</text><line style="stroke:#181818;stroke-width:0.5;" x1="1172.5" x2="1383.5" y1="288.9766" y2="288.9766"/><ellipse cx="1182.5" cy="302.7207" fill="#000000" rx="3" ry="3" style="stroke:#000000;stroke-width:1.0;"/><text fill="#000000" font-family="sans-serif" font-size="14" lengthAdjust="spacing" textLength="13" x="1191.5" y="306.5117">id</text><line style="stroke:#181818;stroke-width:1.0;" x1="1172.5" x2="1383.5" y1="313.4648" y2="313.4648"/><polygon fill="none" points="1182.5,322.209,1186.5,326.209,1182.5,330.209,1178.5,326.209" style="stroke:#B38D22;stroke-width:1.0;"/><text fill="#000000" font-family="sans-serif" font-size="14" lengthAdjust="spacing" textLength="137" x="1191.5" y="331">customer_id : &#39015;&#23458;id</text><polygon fill="none" points="1182.5,338.6973,1186.5,342.6973,1182.5,346.6973,1178.5,342.6973" style="stroke:#B38D22;stroke-width:1.0;"/><text fill="#000000" font-family="sans-serif" font-size="14" lengthAdjust="spacing" textLength="155" x="1191.5" y="347.4883">channel_id : &#27880;&#25991;&#32076;&#36335;id</text><polygon fill="none" points="1182.5,355.1855,1186.5,359.1855,1182.5,363.1855,1178.5,359.1855" style="stroke:#B38D22;stroke-width:1.0;"/><text fill="#000000" font-family="sans-serif" font-size="14" lengthAdjust="spacing" textLength="187" x="1191.5" y="363.9766">order_status_id : &#27880;&#25991;&#29366;&#24907;id</text><ellipse cx="1182.5" cy="376.6738" fill="#000000" rx="3" ry="3" style="stroke:#000000;stroke-width:1.0;"/><text fill="#000000" font-family="sans-serif" font-size="14" lengthAdjust="spacing" textLength="71" x="1191.5" y="380.4648">created_at</text><ellipse cx="1182.5" cy="393.1621" fill="#000000" rx="3" ry="3" style="stroke:#000000;stroke-width:1.0;"/><text fill="#000000" font-family="sans-serif" font-size="14" lengthAdjust="spacing" textLength="77" x="1191.5" y="396.9531">updated_at</text></g><!--class menu_groups--><g id="elem_menu_groups"><rect codeLine="44" fill="#F1F1F1" height="108.4414" id="menu_groups" rx="2.5" ry="2.5" style="stroke:#181818;stroke-width:0.5;" width="535" x="31.5" y="463.4883"/><text fill="#000000" font-family="sans-serif" font-size="14" lengthAdjust="spacing" textLength="275" x="161.5" y="482.0234">menu_groups : &#12513;&#12491;&#12517;&#12540;&#12464;&#12523;&#12540;&#12503;&#12486;&#12540;&#12502;&#12523;</text><line style="stroke:#181818;stroke-width:0.5;" x1="32.5" x2="565.5" y1="489.9766" y2="489.9766"/><ellipse cx="42.5" cy="503.7207" fill="#000000" rx="3" ry="3" style="stroke:#000000;stroke-width:1.0;"/><text fill="#000000" font-family="sans-serif" font-size="14" lengthAdjust="spacing" textLength="13" x="51.5" y="507.5117">id</text><line style="stroke:#181818;stroke-width:1.0;" x1="32.5" x2="565.5" y1="514.4648" y2="514.4648"/><ellipse cx="42.5" cy="528.209" fill="#000000" rx="3" ry="3" style="stroke:#000000;stroke-width:1.0;"/><text fill="#000000" font-family="sans-serif" font-size="14" lengthAdjust="spacing" textLength="509" x="51.5" y="532">menu_group_name : &#12513;&#12491;&#12517;&#12540;&#12464;&#12523;&#12540;&#12503;&#21517;&#65288;&#12475;&#12483;&#12488;&#12513;&#12491;&#12517;&#12540;&#12289;&#12362;&#22909;&#12415;&#12377;&#12375;&#12394;&#12393;&#65289;</text><ellipse cx="42.5" cy="544.6973" fill="#000000" rx="3" ry="3" style="stroke:#000000;stroke-width:1.0;"/><text fill="#000000" font-family="sans-serif" font-size="14" lengthAdjust="spacing" textLength="71" x="51.5" y="548.4883">created_at</text><ellipse cx="42.5" cy="561.1855" fill="#000000" rx="3" ry="3" style="stroke:#000000;stroke-width:1.0;"/><text fill="#000000" font-family="sans-serif" font-size="14" lengthAdjust="spacing" textLength="77" x="51.5" y="564.9766">updated_at</text></g><!--class menu_categories--><g id="elem_menu_categories"><rect codeLine="52" fill="#F1F1F1" height="141.418" id="menu_categories" rx="2.5" ry="2.5" style="stroke:#181818;stroke-width:0.5;" width="580" x="9" y="631.4883"/><text fill="#000000" font-family="sans-serif" font-size="14" lengthAdjust="spacing" textLength="311" x="143.5" y="650.0234">menu_categories : &#12513;&#12491;&#12517;&#12540;&#12459;&#12486;&#12468;&#12522;&#12540;&#12486;&#12540;&#12502;&#12523;</text><line style="stroke:#181818;stroke-width:0.5;" x1="10" x2="588" y1="657.9766" y2="657.9766"/><ellipse cx="20" cy="671.7207" fill="#000000" rx="3" ry="3" style="stroke:#000000;stroke-width:1.0;"/><text fill="#000000" font-family="sans-serif" font-size="14" lengthAdjust="spacing" textLength="13" x="29" y="675.5117">id</text><line style="stroke:#181818;stroke-width:1.0;" x1="10" x2="588" y1="682.4648" y2="682.4648"/><polygon fill="none" points="20,691.209,24,695.209,20,699.209,16,695.209" style="stroke:#B38D22;stroke-width:1.0;"/><text fill="#000000" font-family="sans-serif" font-size="14" lengthAdjust="spacing" textLength="245" x="29" y="700">menu_group_id : &#12513;&#12491;&#12517;&#12540;&#12464;&#12523;&#12540;&#12503;id</text><ellipse cx="20" cy="712.6973" fill="#000000" rx="3" ry="3" style="stroke:#000000;stroke-width:1.0;"/><text fill="#000000" font-family="sans-serif" font-size="14" lengthAdjust="spacing" textLength="554" x="29" y="716.4883">menu_category_name : &#12513;&#12491;&#12517;&#12540;&#12459;&#12486;&#12468;&#12522;&#12540;&#21517;&#65288;&#30427;&#12426;&#36796;&#12415;&#12289;&#12395;&#12366;&#12426;&#12289;&#20028;&#12289;&#12362;&#22909;&#12415;&#12394;&#12393;&#65289;</text><ellipse cx="20" cy="729.1855" fill="#000000" rx="3" ry="3" style="stroke:#000000;stroke-width:1.0;"/><text fill="#000000" font-family="sans-serif" font-size="14" lengthAdjust="spacing" textLength="361" x="29" y="732.9766">is_lunch_discounted : &#12521;&#12531;&#12481;&#12479;&#12452;&#12512;&#12398;&#21106;&#24341;&#23550;&#35937;&#12363;&#12393;&#12358;&#12363;</text><ellipse cx="20" cy="745.6738" fill="#000000" rx="3" ry="3" style="stroke:#000000;stroke-width:1.0;"/><text fill="#000000" font-family="sans-serif" font-size="14" lengthAdjust="spacing" textLength="71" x="29" y="749.4648">created_at</text><ellipse cx="20" cy="762.1621" fill="#000000" rx="3" ry="3" style="stroke:#000000;stroke-width:1.0;"/><text fill="#000000" font-family="sans-serif" font-size="14" lengthAdjust="spacing" textLength="77" x="29" y="765.9531">updated_at</text></g><!--class prices--><g id="elem_prices"><rect codeLine="62" fill="#F1F1F1" height="108.4414" id="prices" rx="2.5" ry="2.5" style="stroke:#181818;stroke-width:0.5;" width="171" x="624.5" y="647.9883"/><text fill="#000000" font-family="sans-serif" font-size="14" lengthAdjust="spacing" textLength="165" x="627.5" y="666.5234">prices : &#31246;&#25244;&#20385;&#26684;&#12486;&#12540;&#12502;&#12523;</text><line style="stroke:#181818;stroke-width:0.5;" x1="625.5" x2="794.5" y1="674.4766" y2="674.4766"/><ellipse cx="635.5" cy="688.2207" fill="#000000" rx="3" ry="3" style="stroke:#000000;stroke-width:1.0;"/><text fill="#000000" font-family="sans-serif" font-size="14" lengthAdjust="spacing" textLength="13" x="644.5" y="692.0117">id</text><line style="stroke:#181818;stroke-width:1.0;" x1="625.5" x2="794.5" y1="698.9648" y2="698.9648"/><ellipse cx="635.5" cy="712.709" fill="#000000" rx="3" ry="3" style="stroke:#000000;stroke-width:1.0;"/><text fill="#000000" font-family="sans-serif" font-size="14" lengthAdjust="spacing" textLength="102" x="644.5" y="716.5">price : &#31246;&#25244;&#20385;&#26684;</text><ellipse cx="635.5" cy="729.1973" fill="#000000" rx="3" ry="3" style="stroke:#000000;stroke-width:1.0;"/><text fill="#000000" font-family="sans-serif" font-size="14" lengthAdjust="spacing" textLength="71" x="644.5" y="732.9883">created_at</text><ellipse cx="635.5" cy="745.6855" fill="#000000" rx="3" ry="3" style="stroke:#000000;stroke-width:1.0;"/><text fill="#000000" font-family="sans-serif" font-size="14" lengthAdjust="spacing" textLength="77" x="644.5" y="749.4766">updated_at</text></g><!--class products--><g id="elem_products"><rect codeLine="70" fill="#F1F1F1" height="174.3945" id="products" rx="2.5" ry="2.5" style="stroke:#181818;stroke-width:0.5;" width="302" x="353" y="832.4883"/><text fill="#000000" font-family="sans-serif" font-size="14" lengthAdjust="spacing" textLength="157" x="425.5" y="851.0234">products : &#21830;&#21697;&#12486;&#12540;&#12502;&#12523;</text><line style="stroke:#181818;stroke-width:0.5;" x1="354" x2="654" y1="858.9766" y2="858.9766"/><ellipse cx="364" cy="872.7207" fill="#000000" rx="3" ry="3" style="stroke:#000000;stroke-width:1.0;"/><text fill="#000000" font-family="sans-serif" font-size="14" lengthAdjust="spacing" textLength="13" x="373" y="876.5117">id</text><line style="stroke:#181818;stroke-width:1.0;" x1="354" x2="654" y1="883.4648" y2="883.4648"/><polygon fill="none" points="364,892.209,368,896.209,364,900.209,360,896.209" style="stroke:#B38D22;stroke-width:1.0;"/><text fill="#000000" font-family="sans-serif" font-size="14" lengthAdjust="spacing" textLength="276" x="373" y="901">menu_category_id : &#12513;&#12491;&#12517;&#12540;&#12459;&#12486;&#12468;&#12522;&#12540;id</text><polygon fill="none" points="364,908.6973,368,912.6973,364,916.6973,360,912.6973" style="stroke:#B38D22;stroke-width:1.0;"/><text fill="#000000" font-family="sans-serif" font-size="14" lengthAdjust="spacing" textLength="135" x="373" y="917.4883">price_id : &#31246;&#25244;&#20385;&#26684;id</text><ellipse cx="364" cy="930.1855" fill="#000000" rx="3" ry="3" style="stroke:#000000;stroke-width:1.0;"/><text fill="#000000" font-family="sans-serif" font-size="14" lengthAdjust="spacing" textLength="149" x="373" y="933.9766">product_name: &#21830;&#21697;&#21517;</text><text fill="#000000" font-family="sans-serif" font-size="14" lengthAdjust="spacing" textLength="202" x="373" y="950.4648">product_description: &#21830;&#21697;&#35500;&#26126;</text><ellipse cx="364" cy="963.1621" fill="#000000" rx="3" ry="3" style="stroke:#000000;stroke-width:1.0;"/><text fill="#000000" font-family="sans-serif" font-size="14" lengthAdjust="spacing" textLength="230" x="373" y="966.9531">is_available : &#21830;&#21697;&#12434;&#25552;&#20379;&#20013;&#12363;&#12393;&#12358;&#12363;</text><ellipse cx="364" cy="979.6504" fill="#000000" rx="3" ry="3" style="stroke:#000000;stroke-width:1.0;"/><text fill="#000000" font-family="sans-serif" font-size="14" lengthAdjust="spacing" textLength="71" x="373" y="983.4414">created_at</text><ellipse cx="364" cy="996.1387" fill="#000000" rx="3" ry="3" style="stroke:#000000;stroke-width:1.0;"/><text fill="#000000" font-family="sans-serif" font-size="14" lengthAdjust="spacing" textLength="77" x="373" y="999.9297">updated_at</text></g><!--class discounts--><g id="elem_discounts"><rect codeLine="82" fill="#F1F1F1" height="174.3945" id="discounts" rx="2.5" ry="2.5" style="stroke:#181818;stroke-width:0.5;" width="207" x="1017.5" y="832.4883"/><text fill="#000000" font-family="sans-serif" font-size="14" lengthAdjust="spacing" textLength="162" x="1040" y="851.0234">discounts : &#21106;&#24341;&#12486;&#12540;&#12502;&#12523;</text><line style="stroke:#181818;stroke-width:0.5;" x1="1018.5" x2="1223.5" y1="858.9766" y2="858.9766"/><ellipse cx="1028.5" cy="872.7207" fill="#000000" rx="3" ry="3" style="stroke:#000000;stroke-width:1.0;"/><text fill="#000000" font-family="sans-serif" font-size="14" lengthAdjust="spacing" textLength="13" x="1037.5" y="876.5117">id</text><line style="stroke:#181818;stroke-width:1.0;" x1="1018.5" x2="1223.5" y1="883.4648" y2="883.4648"/><text fill="#000000" font-family="sans-serif" font-size="14" lengthAdjust="spacing" textLength="170" x="1037.5" y="901">discount_value : &#21106;&#24341;&#20385;&#26684;</text><text fill="#000000" font-family="sans-serif" font-size="14" lengthAdjust="spacing" textLength="161" x="1037.5" y="917.4883">discount_rate : &#21106;&#24341;&#21106;&#21512;</text><ellipse cx="1028.5" cy="930.1855" fill="#000000" rx="3" ry="3" style="stroke:#000000;stroke-width:1.0;"/><text fill="#000000" font-family="sans-serif" font-size="14" lengthAdjust="spacing" textLength="181" x="1037.5" y="933.9766">discount_reason : &#21106;&#24341;&#29702;&#30001;</text><ellipse cx="1028.5" cy="946.6738" fill="#000000" rx="3" ry="3" style="stroke:#000000;stroke-width:1.0;"/><text fill="#000000" font-family="sans-serif" font-size="14" lengthAdjust="spacing" textLength="127" x="1037.5" y="950.4648">begin_at : &#38283;&#22987;&#26085;&#26178;</text><text fill="#000000" font-family="sans-serif" font-size="14" lengthAdjust="spacing" textLength="114" x="1037.5" y="966.9531">end_at : &#32066;&#20102;&#26085;&#26178;</text><ellipse cx="1028.5" cy="979.6504" fill="#000000" rx="3" ry="3" style="stroke:#000000;stroke-width:1.0;"/><text fill="#000000" font-family="sans-serif" font-size="14" lengthAdjust="spacing" textLength="71" x="1037.5" y="983.4414">created_at</text><ellipse cx="1028.5" cy="996.1387" fill="#000000" rx="3" ry="3" style="stroke:#000000;stroke-width:1.0;"/><text fill="#000000" font-family="sans-serif" font-size="14" lengthAdjust="spacing" textLength="77" x="1037.5" y="999.9297">updated_at</text></g><!--class products_discounts--><g id="elem_products_discounts"><rect codeLine="94" fill="#F1F1F1" height="141.418" id="products_discounts" rx="2.5" ry="2.5" style="stroke:#181818;stroke-width:0.5;" width="292" x="690" y="848.9883"/><text fill="#000000" font-family="sans-serif" font-size="14" lengthAdjust="spacing" textLength="286" x="693" y="867.5234">products_discounts : &#21830;&#21697;&#21106;&#24341;&#20013;&#38291;&#12486;&#12540;&#12502;&#12523;</text><line style="stroke:#181818;stroke-width:0.5;" x1="691" x2="981" y1="875.4766" y2="875.4766"/><ellipse cx="701" cy="889.2207" fill="#000000" rx="3" ry="3" style="stroke:#000000;stroke-width:1.0;"/><text fill="#000000" font-family="sans-serif" font-size="14" lengthAdjust="spacing" textLength="13" x="710" y="893.0117">id</text><line style="stroke:#181818;stroke-width:1.0;" x1="691" x2="981" y1="899.9648" y2="899.9648"/><polygon fill="none" points="701,908.709,705,912.709,701,916.709,697,912.709" style="stroke:#B38D22;stroke-width:1.0;"/><text fill="#000000" font-family="sans-serif" font-size="14" lengthAdjust="spacing" textLength="127" x="710" y="917.5">product_id : &#21830;&#21697;id</text><polygon fill="none" points="701,925.1973,705,929.1973,701,933.1973,697,929.1973" style="stroke:#B38D22;stroke-width:1.0;"/><text fill="#000000" font-family="sans-serif" font-size="14" lengthAdjust="spacing" textLength="132" x="710" y="933.9883">discount_id : &#21106;&#24341;id</text><ellipse cx="701" cy="946.6855" fill="#000000" rx="3" ry="3" style="stroke:#000000;stroke-width:1.0;"/><text fill="#000000" font-family="sans-serif" font-size="14" lengthAdjust="spacing" textLength="179" x="710" y="950.4766">is_deleted : &#35542;&#29702;&#21066;&#38500;&#12501;&#12521;&#12464;</text><ellipse cx="701" cy="963.1738" fill="#000000" rx="3" ry="3" style="stroke:#000000;stroke-width:1.0;"/><text fill="#000000" font-family="sans-serif" font-size="14" lengthAdjust="spacing" textLength="71" x="710" y="966.9648">created_at</text><ellipse cx="701" cy="979.6621" fill="#000000" rx="3" ry="3" style="stroke:#000000;stroke-width:1.0;"/><text fill="#000000" font-family="sans-serif" font-size="14" lengthAdjust="spacing" textLength="77" x="710" y="983.4531">updated_at</text></g><!--class foods--><g id="elem_foods"><rect codeLine="104" fill="#F1F1F1" height="141.418" id="foods" rx="2.5" ry="2.5" style="stroke:#181818;stroke-width:0.5;" width="202" x="116" y="848.9883"/><text fill="#000000" font-family="sans-serif" font-size="14" lengthAdjust="spacing" textLength="135" x="149.5" y="867.5234">foods : &#39135;&#26448;&#12486;&#12540;&#12502;&#12523;</text><line style="stroke:#181818;stroke-width:0.5;" x1="117" x2="317" y1="875.4766" y2="875.4766"/><ellipse cx="127" cy="889.2207" fill="#000000" rx="3" ry="3" style="stroke:#000000;stroke-width:1.0;"/><text fill="#000000" font-family="sans-serif" font-size="14" lengthAdjust="spacing" textLength="13" x="136" y="893.0117">id</text><line style="stroke:#181818;stroke-width:1.0;" x1="117" x2="317" y1="899.9648" y2="899.9648"/><ellipse cx="127" cy="913.709" fill="#000000" rx="3" ry="3" style="stroke:#000000;stroke-width:1.0;"/><text fill="#000000" font-family="sans-serif" font-size="14" lengthAdjust="spacing" textLength="131" x="136" y="917.5">food_name : &#39135;&#26448;&#21517;</text><ellipse cx="127" cy="930.1973" fill="#000000" rx="3" ry="3" style="stroke:#000000;stroke-width:1.0;"/><text fill="#000000" font-family="sans-serif" font-size="14" lengthAdjust="spacing" textLength="90" x="136" y="933.9883">stock : &#22312;&#24235;&#25968;</text><ellipse cx="127" cy="946.6855" fill="#000000" rx="3" ry="3" style="stroke:#000000;stroke-width:1.0;"/><text fill="#000000" font-family="sans-serif" font-size="14" lengthAdjust="spacing" textLength="176" x="136" y="950.4766">expiration_date : &#28040;&#36027;&#26399;&#38480;</text><ellipse cx="127" cy="963.1738" fill="#000000" rx="3" ry="3" style="stroke:#000000;stroke-width:1.0;"/><text fill="#000000" font-family="sans-serif" font-size="14" lengthAdjust="spacing" textLength="71" x="136" y="966.9648">created_at</text><ellipse cx="127" cy="979.6621" fill="#000000" rx="3" ry="3" style="stroke:#000000;stroke-width:1.0;"/><text fill="#000000" font-family="sans-serif" font-size="14" lengthAdjust="spacing" textLength="77" x="136" y="983.4531">updated_at</text></g><!--class product_foods--><g id="elem_product_foods"><rect codeLine="114" fill="#F1F1F1" height="124.9297" id="product_foods" rx="2.5" ry="2.5" style="stroke:#181818;stroke-width:0.5;" width="230" x="246" y="1066.4883"/><text fill="#000000" font-family="sans-serif" font-size="14" lengthAdjust="spacing" textLength="224" x="249" y="1085.0234">product_foods : &#21830;&#21697;&#39135;&#26448;&#12486;&#12540;&#12502;&#12523;</text><line style="stroke:#181818;stroke-width:0.5;" x1="247" x2="475" y1="1092.9766" y2="1092.9766"/><ellipse cx="257" cy="1106.7207" fill="#000000" rx="3" ry="3" style="stroke:#000000;stroke-width:1.0;"/><text fill="#000000" font-family="sans-serif" font-size="14" lengthAdjust="spacing" textLength="13" x="266" y="1110.5117">id</text><line style="stroke:#181818;stroke-width:1.0;" x1="247" x2="475" y1="1117.4648" y2="1117.4648"/><polygon fill="none" points="257,1126.209,261,1130.209,257,1134.209,253,1130.209" style="stroke:#B38D22;stroke-width:1.0;"/><text fill="#000000" font-family="sans-serif" font-size="14" lengthAdjust="spacing" textLength="127" x="266" y="1135">product_id : &#21830;&#21697;id</text><polygon fill="none" points="257,1142.6973,261,1146.6973,257,1150.6973,253,1146.6973" style="stroke:#B38D22;stroke-width:1.0;"/><text fill="#000000" font-family="sans-serif" font-size="14" lengthAdjust="spacing" textLength="105" x="266" y="1151.4883">food_id : &#39135;&#26448;id</text><ellipse cx="257" cy="1164.1855" fill="#000000" rx="3" ry="3" style="stroke:#000000;stroke-width:1.0;"/><text fill="#000000" font-family="sans-serif" font-size="14" lengthAdjust="spacing" textLength="71" x="266" y="1167.9766">created_at</text><ellipse cx="257" cy="1180.6738" fill="#000000" rx="3" ry="3" style="stroke:#000000;stroke-width:1.0;"/><text fill="#000000" font-family="sans-serif" font-size="14" lengthAdjust="spacing" textLength="77" x="266" y="1184.4648">updated_at</text></g><!--class order_details--><g id="elem_order_details"><rect codeLine="123" fill="#F1F1F1" height="174.3945" id="order_details" rx="2.5" ry="2.5" style="stroke:#181818;stroke-width:0.5;" width="274" x="984" y="1251.4883"/><text fill="#000000" font-family="sans-serif" font-size="14" lengthAdjust="spacing" textLength="214" x="1014" y="1270.0234">order_details : &#27880;&#25991;&#35443;&#32048;&#12486;&#12540;&#12502;&#12523;</text><line style="stroke:#181818;stroke-width:0.5;" x1="985" x2="1257" y1="1277.9766" y2="1277.9766"/><ellipse cx="995" cy="1291.7207" fill="#000000" rx="3" ry="3" style="stroke:#000000;stroke-width:1.0;"/><text fill="#000000" font-family="sans-serif" font-size="14" lengthAdjust="spacing" textLength="13" x="1004" y="1295.5117">id</text><line style="stroke:#181818;stroke-width:1.0;" x1="985" x2="1257" y1="1302.4648" y2="1302.4648"/><polygon fill="none" points="995,1311.209,999,1315.209,995,1319.209,991,1315.209" style="stroke:#B38D22;stroke-width:1.0;"/><text fill="#000000" font-family="sans-serif" font-size="14" lengthAdjust="spacing" textLength="111" x="1004" y="1320">order_id : &#27880;&#25991;id</text><polygon fill="none" points="995,1327.6973,999,1331.6973,995,1335.6973,991,1331.6973" style="stroke:#B38D22;stroke-width:1.0;"/><text fill="#000000" font-family="sans-serif" font-size="14" lengthAdjust="spacing" textLength="127" x="1004" y="1336.4883">product_id : &#21830;&#21697;id</text><polygon fill="none" points="995,1344.1855,999,1348.1855,995,1352.1855,991,1348.1855" style="stroke:#B38D22;stroke-width:1.0;"/><text fill="#000000" font-family="sans-serif" font-size="14" lengthAdjust="spacing" textLength="132" x="1004" y="1352.9766">discount_id : &#21106;&#24341;id</text><ellipse cx="995" cy="1365.6738" fill="#000000" rx="3" ry="3" style="stroke:#000000;stroke-width:1.0;"/><text fill="#000000" font-family="sans-serif" font-size="14" lengthAdjust="spacing" textLength="248" x="1004" y="1369.4648">is_without_wasabi : &#12373;&#12403;&#25244;&#12365;&#12363;&#12393;&#12358;&#12363;</text><ellipse cx="995" cy="1382.1621" fill="#000000" rx="3" ry="3" style="stroke:#000000;stroke-width:1.0;"/><text fill="#000000" font-family="sans-serif" font-size="14" lengthAdjust="spacing" textLength="200" x="1004" y="1385.9531">is_less_rice : &#12471;&#12515;&#12522;&#23567;&#12363;&#12393;&#12358;&#12363;</text><ellipse cx="995" cy="1398.6504" fill="#000000" rx="3" ry="3" style="stroke:#000000;stroke-width:1.0;"/><text fill="#000000" font-family="sans-serif" font-size="14" lengthAdjust="spacing" textLength="71" x="1004" y="1402.4414">created_at</text><ellipse cx="995" cy="1415.1387" fill="#000000" rx="3" ry="3" style="stroke:#000000;stroke-width:1.0;"/><text fill="#000000" font-family="sans-serif" font-size="14" lengthAdjust="spacing" textLength="77" x="1004" y="1418.9297">updated_at</text></g><!--link customers to orders--><g id="link_customers_orders"><path codeLine="135" d="M1122.31,208.6883 C1142.24,224.4683 1162.97,240.8883 1182.55,256.3883 " fill="none" id="customers-orders" style="stroke:#181818;stroke-width:1.0;"/><line style="stroke:#181818;stroke-width:1.0;" x1="1116.8898" x2="1121.8594" y1="209.4977" y2="203.2285"/><line style="stroke:#181818;stroke-width:1.0;" x1="1119.2407" x2="1124.2104" y1="211.3613" y2="205.0921"/><line style="stroke:#181818;stroke-width:1.0;" x1="1122.5092" x2="1116.24" y1="208.8479" y2="203.8783"/><line style="stroke:#181818;stroke-width:1.0;" x1="1182.5308" x2="1192.5272" y1="256.3786" y2="256.6464"/><line style="stroke:#181818;stroke-width:1.0;" x1="1182.5308" x2="1185.0728" y1="256.3786" y2="266.0502"/><line style="stroke:#181818;stroke-width:1.0;" x1="1182.5308" x2="1188.8" y1="256.3786" y2="261.3483"/><line style="stroke:#181818;stroke-width:1.0;" x1="1183.4483" x2="1178.4787" y1="252.0016" y2="258.2708"/></g><!--link channels to orders--><g id="link_channels_orders"><path codeLine="136" d="M1278,187.1683 C1278,207.9083 1278,231.2583 1278,253.0483 " fill="none" id="channels-orders" style="stroke:#181818;stroke-width:1.0;"/><line style="stroke:#181818;stroke-width:1.0;" x1="1274" x2="1282" y1="183.4383" y2="183.4383"/><line style="stroke:#181818;stroke-width:1.0;" x1="1274" x2="1282" y1="186.4383" y2="186.4383"/><line style="stroke:#181818;stroke-width:1.0;" x1="1278" x2="1278" y1="187.4383" y2="179.4383"/><line style="stroke:#181818;stroke-width:1.0;" x1="1278" x2="1284" y1="252.7683" y2="260.7683"/><line style="stroke:#181818;stroke-width:1.0;" x1="1278" x2="1272" y1="252.7683" y2="260.7683"/><line style="stroke:#181818;stroke-width:1.0;" x1="1278" x2="1278" y1="252.7683" y2="260.7683"/><line style="stroke:#181818;stroke-width:1.0;" x1="1282" x2="1274" y1="250.7683" y2="250.7683"/></g><!--link order_statuses to orders--><g id="link_order_statuses_orders"><path codeLine="137" d="M1515.72,182.9683 C1477.55,206.8883 1433.01,234.8183 1392.87,259.9783 " fill="none" id="order_statuses-orders" style="stroke:#181818;stroke-width:1.0;"/><line style="stroke:#181818;stroke-width:1.0;" x1="1516.9647" x2="1521.2226" y1="177.4709" y2="184.2436"/><line style="stroke:#181818;stroke-width:1.0;" x1="1514.4249" x2="1518.6828" y1="179.0676" y2="185.8404"/><line style="stroke:#181818;stroke-width:1.0;" x1="1515.7073" x2="1522.48" y1="182.9862" y2="178.7283"/><line style="stroke:#181818;stroke-width:1.0;" x1="1392.9568" x2="1389.3686" y1="259.9168" y2="269.2509"/><line style="stroke:#181818;stroke-width:1.0;" x1="1392.9568" x2="1382.9914" y1="259.9168" y2="259.0857"/><line style="stroke:#181818;stroke-width:1.0;" x1="1392.9568" x2="1386.18" y1="259.9168" y2="264.1683"/><line style="stroke:#181818;stroke-width:1.0;" x1="1396.7767" x2="1392.5252" y1="262.2423" y2="255.4655"/></g><!--link orders to order_details--><g id="link_orders_order_details"><path codeLine="139" d="M1278,412.9783 C1278,487.2983 1278,601.6983 1278,700.9883 C1278,700.9883 1278,700.9883 1278,920.4883 C1278,1036.9683 1223.68,1160.6983 1178.94,1242.8483 " fill="none" id="orders-order_details" style="stroke:#181818;stroke-width:1.0;"/><line style="stroke:#181818;stroke-width:1.0;" x1="1274" x2="1282" y1="409.1783" y2="409.1783"/><line style="stroke:#181818;stroke-width:1.0;" x1="1274" x2="1282" y1="412.1783" y2="412.1783"/><line style="stroke:#181818;stroke-width:1.0;" x1="1278" x2="1278" y1="413.1783" y2="405.1783"/><line style="stroke:#181818;stroke-width:1.0;" x1="1178.9548" x2="1180.3575" y1="1242.8183" y2="1252.7194"/><line style="stroke:#181818;stroke-width:1.0;" x1="1178.9548" x2="1169.8425" y1="1242.8183" y2="1246.9372"/><line style="stroke:#181818;stroke-width:1.0;" x1="1178.9548" x2="1175.1" y1="1242.8183" y2="1249.8283"/><line style="stroke:#181818;stroke-width:1.0;" x1="1183.4235" x2="1176.4135" y1="1242.9931" y2="1239.1383"/></g><!--link products to order_details--><g id="link_products_order_details"><path codeLine="140" d="M639.67,1012.1783 C742.35,1081.5783 882.76,1176.4683 985.42,1245.8583 " fill="none" id="products-order_details" style="stroke:#181818;stroke-width:1.0;"/><line style="stroke:#181818;stroke-width:1.0;" x1="634.1791" x2="638.653" y1="1013.2912" y2="1006.6591"/><line style="stroke:#181818;stroke-width:1.0;" x1="636.6662" x2="641.14" y1="1014.9689" y2="1008.3368"/><line style="stroke:#181818;stroke-width:1.0;" x1="639.7321" x2="633.1" y1="1012.2121" y2="1007.7383"/><line style="stroke:#181818;stroke-width:1.0;" x1="985.1679" x2="995.1554" y1="1245.6945" y2="1245.1942"/><line style="stroke:#181818;stroke-width:1.0;" x1="985.1679" x2="988.4446" y1="1245.6945" y2="1255.1424"/><line style="stroke:#181818;stroke-width:1.0;" x1="985.1679" x2="991.8" y1="1245.6945" y2="1250.1683"/><ellipse cx="980.1938" cy="1242.3391" fill="none" rx="4" ry="4" style="stroke:#181818;stroke-width:1.0;"/></g><!--link discounts to order_details--><g id="link_discounts_order_details"><path codeLine="141" d="M1121,1016.2783 C1121,1083.9183 1121,1174.1883 1121,1241.8083 " fill="none" id="discounts-order_details" style="stroke:#181818;stroke-width:1.0;"/><line style="stroke:#181818;stroke-width:1.0;" x1="1121" x2="1121" y1="1019.4083" y2="1008.4083"/><ellipse cx="1121" cy="1019.4083" fill="none" rx="4" ry="4" style="stroke:#181818;stroke-width:1.0;"/><line style="stroke:#181818;stroke-width:1.0;" x1="1117" x2="1125" y1="1012.4083" y2="1012.4083"/><line style="stroke:#181818;stroke-width:1.0;" x1="1121" x2="1127" y1="1241.6783" y2="1249.6783"/><line style="stroke:#181818;stroke-width:1.0;" x1="1121" x2="1115" y1="1241.6783" y2="1249.6783"/><line style="stroke:#181818;stroke-width:1.0;" x1="1121" x2="1121" y1="1241.6783" y2="1249.6783"/><ellipse cx="1121" cy="1235.6783" fill="none" rx="4" ry="4" style="stroke:#181818;stroke-width:1.0;"/></g><!--link menu_groups to menu_categories--><g id="link_menu_groups_menu_categories"><path codeLine="143" d="M299,581.0683 C299,594.1383 299,608.0783 299,621.6683 " fill="none" id="menu_groups-menu_categories" style="stroke:#181818;stroke-width:1.0;"/><line style="stroke:#181818;stroke-width:1.0;" x1="295" x2="303" y1="577.2783" y2="577.2783"/><line style="stroke:#181818;stroke-width:1.0;" x1="295" x2="303" y1="580.2783" y2="580.2783"/><line style="stroke:#181818;stroke-width:1.0;" x1="299" x2="299" y1="581.2783" y2="573.2783"/><line style="stroke:#181818;stroke-width:1.0;" x1="299" x2="305" y1="621.4883" y2="629.4883"/><line style="stroke:#181818;stroke-width:1.0;" x1="299" x2="293" y1="621.4883" y2="629.4883"/><line style="stroke:#181818;stroke-width:1.0;" x1="299" x2="299" y1="621.4883" y2="629.4883"/><line style="stroke:#181818;stroke-width:1.0;" x1="303" x2="295" y1="619.4883" y2="619.4883"/></g><!--link menu_categories to products--><g id="link_menu_categories_products"><path codeLine="145" d="M371.95,779.6783 C386.14,794.5883 401.15,810.3683 415.77,825.7383 " fill="none" id="menu_categories-products" style="stroke:#181818;stroke-width:1.0;"/><line style="stroke:#181818;stroke-width:1.0;" x1="366.4642" x2="372.2552" y1="779.7035" y2="774.1841"/><line style="stroke:#181818;stroke-width:1.0;" x1="368.5339" x2="374.325" y1="781.8752" y2="776.3558"/><line style="stroke:#181818;stroke-width:1.0;" x1="372.1194" x2="366.6" y1="779.8393" y2="774.0483"/><line style="stroke:#181818;stroke-width:1.0;" x1="415.4478" x2="425.3084" y1="825.4004" y2="827.0641"/><line style="stroke:#181818;stroke-width:1.0;" x1="415.4478" x2="416.6116" y1="825.4004" y2="835.3325"/><line style="stroke:#181818;stroke-width:1.0;" x1="415.4478" x2="420.96" y1="825.4004" y2="831.1983"/><line style="stroke:#181818;stroke-width:1.0;" x1="416.9686" x2="411.1708" y1="821.1948" y2="826.7071"/></g><!--link prices to products--><g id="link_prices_products"><path codeLine="146" d="M652.54,763.0983 C634.06,782.4383 613.12,804.3383 592.93,825.4583 " fill="none" id="prices-products" style="stroke:#181818;stroke-width:1.0;"/><line style="stroke:#181818;stroke-width:1.0;" x1="652.3746" x2="658.1585" y1="757.4768" y2="763.0037"/><line style="stroke:#181818;stroke-width:1.0;" x1="650.302" x2="656.086" y1="759.6458" y2="765.1726"/><line style="stroke:#181818;stroke-width:1.0;" x1="652.5031" x2="658.03" y1="763.1322" y2="757.3483"/><line style="stroke:#181818;stroke-width:1.0;" x1="592.9669" x2="591.7779" y1="825.4144" y2="835.3434"/><line style="stroke:#181818;stroke-width:1.0;" x1="592.9669" x2="583.1021" y1="825.4144" y2="827.0531"/><line style="stroke:#181818;stroke-width:1.0;" x1="592.9669" x2="587.44" y1="825.4144" y2="831.1983"/><line style="stroke:#181818;stroke-width:1.0;" x1="597.2405" x2="591.4566" y1="826.7318" y2="821.2049"/></g><!--link products to products_discounts--><g id="link_products_products_discounts"><path codeLine="148" d="M664.77,919.4883 C669.94,919.4883 675.12,919.4883 680.3,919.4883 " fill="none" id="products-products_discounts" style="stroke:#181818;stroke-width:1.0;"/><line style="stroke:#181818;stroke-width:1.0;" x1="667.92" x2="656.92" y1="919.4883" y2="919.4883"/><ellipse cx="667.92" cy="919.4883" fill="none" rx="4" ry="4" style="stroke:#181818;stroke-width:1.0;"/><line style="stroke:#181818;stroke-width:1.0;" x1="660.92" x2="660.92" y1="923.4883" y2="915.4883"/><line style="stroke:#181818;stroke-width:1.0;" x1="680.11" x2="688.11" y1="919.4883" y2="913.4883"/><line style="stroke:#181818;stroke-width:1.0;" x1="680.11" x2="688.11" y1="919.4883" y2="925.4883"/><line style="stroke:#181818;stroke-width:1.0;" x1="680.11" x2="688.11" y1="919.4883" y2="919.4883"/><ellipse cx="674.11" cy="919.4883" fill="none" rx="4" ry="4" style="stroke:#181818;stroke-width:1.0;"/></g><!--link products_discounts to discounts--><g id="link_products_discounts_discounts"><path codeLine="149" d="M991.87,919.4883 C997.12,919.4883 1002.36,919.4883 1007.61,919.4883 " fill="none" id="products_discounts-discounts" style="stroke:#181818;stroke-width:1.0;"/><line style="stroke:#181818;stroke-width:1.0;" x1="991.91" x2="983.91" y1="919.4883" y2="925.4883"/><line style="stroke:#181818;stroke-width:1.0;" x1="991.91" x2="983.91" y1="919.4883" y2="913.4883"/><line style="stroke:#181818;stroke-width:1.0;" x1="991.91" x2="983.91" y1="919.4883" y2="919.4883"/><ellipse cx="997.91" cy="919.4883" fill="none" rx="4" ry="4" style="stroke:#181818;stroke-width:1.0;"/><line style="stroke:#181818;stroke-width:1.0;" x1="1004.53" x2="1015.53" y1="919.4883" y2="919.4883"/><ellipse cx="1004.53" cy="919.4883" fill="none" rx="4" ry="4" style="stroke:#181818;stroke-width:1.0;"/><line style="stroke:#181818;stroke-width:1.0;" x1="1011.53" x2="1011.53" y1="915.4883" y2="923.4883"/></g><!--link products to product_foods--><g id="link_products_product_foods"><path codeLine="151" d="M439.22,1014.4883 C429.01,1029.3083 418.61,1044.3983 408.87,1058.5283 " fill="none" id="products-product_foods" style="stroke:#181818;stroke-width:1.0;"/><line style="stroke:#181818;stroke-width:1.0;" x1="437.9661" x2="444.5514" y1="1009.2496" y2="1013.7922"/><line style="stroke:#181818;stroke-width:1.0;" x1="436.2627" x2="442.8479" y1="1011.7191" y2="1016.2616"/><line style="stroke:#181818;stroke-width:1.0;" x1="438.9875" x2="443.53" y1="1014.8135" y2="1008.2283"/><line style="stroke:#181818;stroke-width:1.0;" x1="408.9259" x2="409.3324" y1="1058.4384" y2="1068.4302"/><line style="stroke:#181818;stroke-width:1.0;" x1="408.9259" x2="399.4476" y1="1058.4384" y2="1061.6264"/><line style="stroke:#181818;stroke-width:1.0;" x1="408.9259" x2="404.39" y1="1058.4384" y2="1065.0283"/><line style="stroke:#181818;stroke-width:1.0;" x1="413.3547" x2="406.7649" y1="1059.0589" y2="1054.5231"/></g><!--link foods to product_foods--><g id="link_foods_product_foods"><path codeLine="152" d="M270.81,998.0183 C284.62,1017.9283 299.4,1039.2183 312.9,1058.6783 " fill="none" id="foods-product_foods" style="stroke:#181818;stroke-width:1.0;"/><line style="stroke:#181818;stroke-width:1.0;" x1="265.3968" x2="271.9754" y1="997.2537" y2="992.7015"/><line style="stroke:#181818;stroke-width:1.0;" x1="267.1039" x2="273.6825" y1="999.7206" y2="995.1684"/><line style="stroke:#181818;stroke-width:1.0;" x1="270.9622" x2="266.41" y1="998.2668" y2="991.6883"/><line style="stroke:#181818;stroke-width:1.0;" x1="312.7911" x2="322.2805" y1="1058.5143" y2="1061.6691"/><line style="stroke:#181818;stroke-width:1.0;" x1="312.7911" x2="312.4195" y1="1058.5143" y2="1068.5074"/><line style="stroke:#181818;stroke-width:1.0;" x1="312.7911" x2="317.35" y1="1058.5143" y2="1065.0883"/><line style="stroke:#181818;stroke-width:1.0;" x1="314.9384" x2="308.3644" y1="1054.5914" y2="1059.1503"/></g><!--SRC=[dLRDRjj64BxpAOZuK220Ng37ekz1qEJ68agJ0d-I6d61a6nLMMuijOca67QHk8aJsQfZEKvi8LQTXrcHeazvXSxkSacAb00fEX3Yp73d- -QRdTtlnAgc8j6f8j6kcOv0tnJDKdGa28xcw4ZyyOUuVnRt6uA03B1iYVSKrtRCJMJPulVYtT6xyFq_EAZZO8o3BWu6zqJP5hEGnu8etjTKU5OgvEy3ULFJjoH3taJmUJHiKQDcsGwtXUsdnEOWdQn_S1EVN4mxfs7hcbZbMaroRMH9cWfUx4Fg7WvEiVSU1sy91lyAdZJVVSL2ieDKINR8crjJ-TilEIvLsJ2GJgX4b_se-_lqqn_nzNcP48yhyaaSAQ7S8WcHPM2ObWgSR4TsW5mEJFCg-cst1AOGNOJ478L5qjUmrPlSlC1FlEZvURJJmTwlqQY1lIzW0HVs_en6HzZhCUDA-BEKyn6NaAxnDc5gibwYxZLULkh85vMvynMOYQ5SbvT_4nckj66PRes0ny4H3g3SnxIHXW2UikYLwEG_ArO_y_6UMBGizCVNSGFxDpW8SD2O2NlYOQyP7lz7XF7sGG_iGPEVV1tlh4HD0SU6QMceJ6z0MFaVoUOXQEOnp7rTL2x7akt41HoP5FdLjkQNPGOEgypqu03xpVXspBeJUmFixO45_az6XHBbYgFPakuQIbLIDLinNGDAGxETuE0I1nxsls3_3GvUmSm8Tpw4uqvuVXjVGC_lmXhOgyEVPMjSipI5bdRQtukQXvFRe-XLkPP9LB5HgBdmxVA9JTLL798wxDJ3PzwSf4d4NELIBUQ8DwC4ssuKAelDesNY9fceh1mE6ttSeo9RiRIQeva63uXF_urUx2LooGzbJPVNTPJHyV-AMkt9xS5aTFOjmd3fQO6eoAK2PI652d67z53MNPGka0gK-Yr8dBh9izqWAsL-9DkcaKPCs_NfymiIiOusD0CGavdNtGtVxKQzusZV1nSoL6QVVl8dd-kfVQMca6ROCpqOXT7PNVVPmbQH5fPaZIj9Mu0joJeZ9SiyD0rh2z1LHJfYkoyUT85-kDEysuUjro6RqHyko-k1QQhqhl7wPVHtkmIVkKlt3B3oISC-J8vZE76KdmZMmtxuUH1rA0pqSqq3EQ519PMf6bqruWytqU7Bk_tsYW98730hr0BOiy5B5vpoOiSbNNVviuwTcIfoOBDbHtLySZdzE5nmnU31HNJCcpjt-PZubYvvf3bLqtMaHx8jhsja77bmAxc4AOEzfyNDJuOxicqfcPtOlyR1QnXLuR2rofp8xgVRsvNAzkFaWYAarxnPS-72DUiKaiiDiP8Vz_3g2UaefX5cqPtjkcrpdb_8tpQIr8NZEOd9dTT974yj96TGqPp3PbOiahiy36O1wWk2PbbcELX_2wpBvxh-1m00]--></g></svg>