<?xml version="1.0" encoding="us-ascii" standalone="no"?><svg xmlns="http://www.w3.org/2000/svg" xmlns:xlink="http://www.w3.org/1999/xlink" contentStyleType="text/css" height="1030px" preserveAspectRatio="none" style="width:1372px;height:1030px;background:#FFFFFF;" version="1.1" viewBox="0 0 1372 1030" width="1372px" zoomAndPan="magnify"><defs/><g><text fill="#000000" font-family="sans-serif" font-size="14" font-weight="bold" lengthAdjust="spacing" textLength="48" x="655.25" y="23.5352">DB&#35373;&#35336;</text><!--class orders--><g id="elem_orders"><rect codeLine="7" fill="#F1F1F1" height="141.418" id="orders" rx="2.5" ry="2.5" style="stroke:#181818;stroke-width:0.5;" width="213" x="377" y="44.4883"/><text fill="#000000" font-family="sans-serif" font-size="14" lengthAdjust="spacing" textLength="141" x="413" y="63.0234">orders : &#27880;&#25991;&#12486;&#12540;&#12502;&#12523;</text><line style="stroke:#181818;stroke-width:0.5;" x1="378" x2="589" y1="70.9766" y2="70.9766"/><ellipse cx="388" cy="84.7207" fill="#000000" rx="3" ry="3" style="stroke:#000000;stroke-width:1.0;"/><text fill="#000000" font-family="sans-serif" font-size="14" lengthAdjust="spacing" textLength="13" x="397" y="88.5117">id</text><line style="stroke:#181818;stroke-width:1.0;" x1="378" x2="589" y1="95.4648" y2="95.4648"/><polygon fill="none" points="388,104.209,392,108.209,388,112.209,384,108.209" style="stroke:#B38D22;stroke-width:1.0;"/><text fill="#000000" font-family="sans-serif" font-size="14" lengthAdjust="spacing" textLength="137" x="397" y="113">customer_id : &#39015;&#23458;id</text><polygon fill="none" points="388,120.6973,392,124.6973,388,128.6973,384,124.6973" style="stroke:#B38D22;stroke-width:1.0;"/><text fill="#000000" font-family="sans-serif" font-size="14" lengthAdjust="spacing" textLength="155" x="397" y="129.4883">channel_id : &#27880;&#25991;&#32076;&#36335;id</text><polygon fill="none" points="388,137.1855,392,141.1855,388,145.1855,384,141.1855" style="stroke:#B38D22;stroke-width:1.0;"/><text fill="#000000" font-family="sans-serif" font-size="14" lengthAdjust="spacing" textLength="187" x="397" y="145.9766">order_status_id : &#27880;&#25991;&#29366;&#24907;id</text><ellipse cx="388" cy="158.6738" fill="#000000" rx="3" ry="3" style="stroke:#000000;stroke-width:1.0;"/><text fill="#000000" font-family="sans-serif" font-size="14" lengthAdjust="spacing" textLength="71" x="397" y="162.4648">created_at</text><ellipse cx="388" cy="175.1621" fill="#000000" rx="3" ry="3" style="stroke:#000000;stroke-width:1.0;"/><text fill="#000000" font-family="sans-serif" font-size="14" lengthAdjust="spacing" textLength="77" x="397" y="178.9531">updated_at</text></g><!--class customers--><g id="elem_customers"><rect codeLine="17" fill="#F1F1F1" height="141.418" id="customers" rx="2.5" ry="2.5" style="stroke:#181818;stroke-width:0.5;" width="173" x="7" y="253.9883"/><text fill="#000000" font-family="sans-serif" font-size="14" lengthAdjust="spacing" textLength="167" x="10" y="272.5234">customers : &#39015;&#23458;&#12486;&#12540;&#12502;&#12523;</text><line style="stroke:#181818;stroke-width:0.5;" x1="8" x2="179" y1="280.4766" y2="280.4766"/><ellipse cx="18" cy="294.2207" fill="#000000" rx="3" ry="3" style="stroke:#000000;stroke-width:1.0;"/><text fill="#000000" font-family="sans-serif" font-size="14" lengthAdjust="spacing" textLength="13" x="27" y="298.0117">id</text><line style="stroke:#181818;stroke-width:1.0;" x1="8" x2="179" y1="304.9648" y2="304.9648"/><ellipse cx="18" cy="318.709" fill="#000000" rx="3" ry="3" style="stroke:#000000;stroke-width:1.0;"/><text fill="#000000" font-family="sans-serif" font-size="14" lengthAdjust="spacing" textLength="112" x="27" y="322.5">family_name : &#27663;</text><ellipse cx="18" cy="335.1973" fill="#000000" rx="3" ry="3" style="stroke:#000000;stroke-width:1.0;"/><text fill="#000000" font-family="sans-serif" font-size="14" lengthAdjust="spacing" textLength="98" x="27" y="338.9883">first_name : &#21517;</text><ellipse cx="18" cy="351.6855" fill="#000000" rx="3" ry="3" style="stroke:#000000;stroke-width:1.0;"/><text fill="#000000" font-family="sans-serif" font-size="14" lengthAdjust="spacing" textLength="85" x="27" y="355.4766">tel : &#38651;&#35441;&#30058;&#21495;</text><ellipse cx="18" cy="368.1738" fill="#000000" rx="3" ry="3" style="stroke:#000000;stroke-width:1.0;"/><text fill="#000000" font-family="sans-serif" font-size="14" lengthAdjust="spacing" textLength="71" x="27" y="371.9648">created_at</text><ellipse cx="18" cy="384.6621" fill="#000000" rx="3" ry="3" style="stroke:#000000;stroke-width:1.0;"/><text fill="#000000" font-family="sans-serif" font-size="14" lengthAdjust="spacing" textLength="77" x="27" y="388.4531">updated_at</text></g><!--class channels--><g id="elem_channels"><rect codeLine="27" fill="#F1F1F1" height="108.4414" id="channels" rx="2.5" ry="2.5" style="stroke:#181818;stroke-width:0.5;" width="207" x="215" y="270.4883"/><text fill="#000000" font-family="sans-serif" font-size="14" lengthAdjust="spacing" textLength="185" x="226" y="289.0234">channels : &#27880;&#25991;&#32076;&#36335;&#12486;&#12540;&#12502;&#12523;</text><line style="stroke:#181818;stroke-width:0.5;" x1="216" x2="421" y1="296.9766" y2="296.9766"/><ellipse cx="226" cy="310.7207" fill="#000000" rx="3" ry="3" style="stroke:#000000;stroke-width:1.0;"/><text fill="#000000" font-family="sans-serif" font-size="14" lengthAdjust="spacing" textLength="13" x="235" y="314.5117">id</text><line style="stroke:#181818;stroke-width:1.0;" x1="216" x2="421" y1="321.4648" y2="321.4648"/><ellipse cx="226" cy="335.209" fill="#000000" rx="3" ry="3" style="stroke:#000000;stroke-width:1.0;"/><text fill="#000000" font-family="sans-serif" font-size="14" lengthAdjust="spacing" textLength="181" x="235" y="339">channel_name : &#27880;&#25991;&#32076;&#36335;&#21517;</text><ellipse cx="226" cy="351.6973" fill="#000000" rx="3" ry="3" style="stroke:#000000;stroke-width:1.0;"/><text fill="#000000" font-family="sans-serif" font-size="14" lengthAdjust="spacing" textLength="71" x="235" y="355.4883">created_at</text><ellipse cx="226" cy="368.1855" fill="#000000" rx="3" ry="3" style="stroke:#000000;stroke-width:1.0;"/><text fill="#000000" font-family="sans-serif" font-size="14" lengthAdjust="spacing" textLength="77" x="235" y="371.9766">updated_at</text></g><!--class order_statuses--><g id="elem_order_statuses"><rect codeLine="35" fill="#F1F1F1" height="108.4414" id="order_statuses" rx="2.5" ry="2.5" style="stroke:#181818;stroke-width:0.5;" width="385" x="457" y="270.4883"/><text fill="#000000" font-family="sans-serif" font-size="14" lengthAdjust="spacing" textLength="225" x="537" y="289.0234">order_statuses : &#27880;&#25991;&#29366;&#24907;&#12486;&#12540;&#12502;&#12523;</text><line style="stroke:#181818;stroke-width:0.5;" x1="458" x2="841" y1="296.9766" y2="296.9766"/><ellipse cx="468" cy="310.7207" fill="#000000" rx="3" ry="3" style="stroke:#000000;stroke-width:1.0;"/><text fill="#000000" font-family="sans-serif" font-size="14" lengthAdjust="spacing" textLength="13" x="477" y="314.5117">id</text><line style="stroke:#181818;stroke-width:1.0;" x1="458" x2="841" y1="321.4648" y2="321.4648"/><ellipse cx="468" cy="335.209" fill="#000000" rx="3" ry="3" style="stroke:#000000;stroke-width:1.0;"/><text fill="#000000" font-family="sans-serif" font-size="14" lengthAdjust="spacing" textLength="359" x="477" y="339">status : &#27880;&#25991;&#29366;&#24907; : &#27880;&#25991;&#21463;&#20184;&#12289;&#25903;&#25173;&#12356;&#28168;&#12415;&#12289;&#21463;&#12369;&#28193;&#12375;&#28168;&#12415;</text><ellipse cx="468" cy="351.6973" fill="#000000" rx="3" ry="3" style="stroke:#000000;stroke-width:1.0;"/><text fill="#000000" font-family="sans-serif" font-size="14" lengthAdjust="spacing" textLength="71" x="477" y="355.4883">created_at</text><ellipse cx="468" cy="368.1855" fill="#000000" rx="3" ry="3" style="stroke:#000000;stroke-width:1.0;"/><text fill="#000000" font-family="sans-serif" font-size="14" lengthAdjust="spacing" textLength="77" x="477" y="371.9766">updated_at</text></g><!--class order_details--><g id="elem_order_details"><rect codeLine="43" fill="#F1F1F1" height="157.9063" id="order_details" rx="2.5" ry="2.5" style="stroke:#181818;stroke-width:0.5;" width="274" x="877.5" y="245.4883"/><text fill="#000000" font-family="sans-serif" font-size="14" lengthAdjust="spacing" textLength="214" x="907.5" y="264.0234">order_details : &#27880;&#25991;&#35443;&#32048;&#12486;&#12540;&#12502;&#12523;</text><line style="stroke:#181818;stroke-width:0.5;" x1="878.5" x2="1150.5" y1="271.9766" y2="271.9766"/><ellipse cx="888.5" cy="285.7207" fill="#000000" rx="3" ry="3" style="stroke:#000000;stroke-width:1.0;"/><text fill="#000000" font-family="sans-serif" font-size="14" lengthAdjust="spacing" textLength="13" x="897.5" y="289.5117">id</text><line style="stroke:#181818;stroke-width:1.0;" x1="878.5" x2="1150.5" y1="296.4648" y2="296.4648"/><polygon fill="none" points="888.5,305.209,892.5,309.209,888.5,313.209,884.5,309.209" style="stroke:#B38D22;stroke-width:1.0;"/><text fill="#000000" font-family="sans-serif" font-size="14" lengthAdjust="spacing" textLength="111" x="897.5" y="314">order_id : &#27880;&#25991;id</text><polygon fill="none" points="888.5,321.6973,892.5,325.6973,888.5,329.6973,884.5,325.6973" style="stroke:#B38D22;stroke-width:1.0;"/><text fill="#000000" font-family="sans-serif" font-size="14" lengthAdjust="spacing" textLength="127" x="897.5" y="330.4883">product_id : &#21830;&#21697;id</text><ellipse cx="888.5" cy="343.1855" fill="#000000" rx="3" ry="3" style="stroke:#000000;stroke-width:1.0;"/><text fill="#000000" font-family="sans-serif" font-size="14" lengthAdjust="spacing" textLength="248" x="897.5" y="346.9766">is_without_wasabi : &#12373;&#12403;&#25244;&#12365;&#12363;&#12393;&#12358;&#12363;</text><ellipse cx="888.5" cy="359.6738" fill="#000000" rx="3" ry="3" style="stroke:#000000;stroke-width:1.0;"/><text fill="#000000" font-family="sans-serif" font-size="14" lengthAdjust="spacing" textLength="200" x="897.5" y="363.4648">is_less_rice : &#12471;&#12515;&#12522;&#23567;&#12363;&#12393;&#12358;&#12363;</text><ellipse cx="888.5" cy="376.1621" fill="#000000" rx="3" ry="3" style="stroke:#000000;stroke-width:1.0;"/><text fill="#000000" font-family="sans-serif" font-size="14" lengthAdjust="spacing" textLength="71" x="897.5" y="379.9531">created_at</text><ellipse cx="888.5" cy="392.6504" fill="#000000" rx="3" ry="3" style="stroke:#000000;stroke-width:1.0;"/><text fill="#000000" font-family="sans-serif" font-size="14" lengthAdjust="spacing" textLength="77" x="897.5" y="396.4414">updated_at</text></g><!--class products--><g id="elem_products"><rect codeLine="54" fill="#F1F1F1" height="174.3945" id="products" rx="2.5" ry="2.5" style="stroke:#181818;stroke-width:0.5;" width="302" x="863.5" y="463.4883"/><text fill="#000000" font-family="sans-serif" font-size="14" lengthAdjust="spacing" textLength="157" x="936" y="482.0234">products : &#21830;&#21697;&#12486;&#12540;&#12502;&#12523;</text><line style="stroke:#181818;stroke-width:0.5;" x1="864.5" x2="1164.5" y1="489.9766" y2="489.9766"/><ellipse cx="874.5" cy="503.7207" fill="#000000" rx="3" ry="3" style="stroke:#000000;stroke-width:1.0;"/><text fill="#000000" font-family="sans-serif" font-size="14" lengthAdjust="spacing" textLength="13" x="883.5" y="507.5117">id</text><line style="stroke:#181818;stroke-width:1.0;" x1="864.5" x2="1164.5" y1="514.4648" y2="514.4648"/><ellipse cx="874.5" cy="528.209" fill="#000000" rx="3" ry="3" style="stroke:#000000;stroke-width:1.0;"/><text fill="#000000" font-family="sans-serif" font-size="14" lengthAdjust="spacing" textLength="149" x="883.5" y="532">product_name: &#21830;&#21697;&#21517;</text><text fill="#000000" font-family="sans-serif" font-size="14" lengthAdjust="spacing" textLength="202" x="883.5" y="548.4883">product_description: &#21830;&#21697;&#35500;&#26126;</text><polygon fill="none" points="874.5,556.1855,878.5,560.1855,874.5,564.1855,870.5,560.1855" style="stroke:#B38D22;stroke-width:1.0;"/><text fill="#000000" font-family="sans-serif" font-size="14" lengthAdjust="spacing" textLength="276" x="883.5" y="564.9766">menu_category_id : &#12513;&#12491;&#12517;&#12540;&#12459;&#12486;&#12468;&#12522;&#12540;id</text><polygon fill="none" points="874.5,572.6738,878.5,576.6738,874.5,580.6738,870.5,576.6738" style="stroke:#B38D22;stroke-width:1.0;"/><text fill="#000000" font-family="sans-serif" font-size="14" lengthAdjust="spacing" textLength="135" x="883.5" y="581.4648">price_id : &#31246;&#25244;&#20385;&#26684;id</text><ellipse cx="874.5" cy="594.1621" fill="#000000" rx="3" ry="3" style="stroke:#000000;stroke-width:1.0;"/><text fill="#000000" font-family="sans-serif" font-size="14" lengthAdjust="spacing" textLength="230" x="883.5" y="597.9531">is_available : &#21830;&#21697;&#12434;&#25552;&#20379;&#20013;&#12363;&#12393;&#12358;&#12363;</text><ellipse cx="874.5" cy="610.6504" fill="#000000" rx="3" ry="3" style="stroke:#000000;stroke-width:1.0;"/><text fill="#000000" font-family="sans-serif" font-size="14" lengthAdjust="spacing" textLength="71" x="883.5" y="614.4414">created_at</text><ellipse cx="874.5" cy="627.1387" fill="#000000" rx="3" ry="3" style="stroke:#000000;stroke-width:1.0;"/><text fill="#000000" font-family="sans-serif" font-size="14" lengthAdjust="spacing" textLength="77" x="883.5" y="630.9297">updated_at</text></g><!--class menu_categories--><g id="elem_menu_categories"><rect codeLine="66" fill="#F1F1F1" height="108.4414" id="menu_categories" rx="2.5" ry="2.5" style="stroke:#181818;stroke-width:0.5;" width="580" x="313.5" y="705.9883"/><text fill="#000000" font-family="sans-serif" font-size="14" lengthAdjust="spacing" textLength="311" x="448" y="724.5234">menu_categories : &#12513;&#12491;&#12517;&#12540;&#12459;&#12486;&#12468;&#12522;&#12540;&#12486;&#12540;&#12502;&#12523;</text><line style="stroke:#181818;stroke-width:0.5;" x1="314.5" x2="892.5" y1="732.4766" y2="732.4766"/><ellipse cx="324.5" cy="746.2207" fill="#000000" rx="3" ry="3" style="stroke:#000000;stroke-width:1.0;"/><text fill="#000000" font-family="sans-serif" font-size="14" lengthAdjust="spacing" textLength="13" x="333.5" y="750.0117">id</text><line style="stroke:#181818;stroke-width:1.0;" x1="314.5" x2="892.5" y1="756.9648" y2="756.9648"/><ellipse cx="324.5" cy="770.709" fill="#000000" rx="3" ry="3" style="stroke:#000000;stroke-width:1.0;"/><text fill="#000000" font-family="sans-serif" font-size="14" lengthAdjust="spacing" textLength="554" x="333.5" y="774.5">menu_category_name : &#12513;&#12491;&#12517;&#12540;&#12459;&#12486;&#12468;&#12522;&#12540;&#21517;&#65288;&#30427;&#12426;&#36796;&#12415;&#12289;&#12395;&#12366;&#12426;&#12289;&#20028;&#12289;&#12362;&#22909;&#12415;&#12394;&#12393;&#65289;</text><ellipse cx="324.5" cy="787.1973" fill="#000000" rx="3" ry="3" style="stroke:#000000;stroke-width:1.0;"/><text fill="#000000" font-family="sans-serif" font-size="14" lengthAdjust="spacing" textLength="71" x="333.5" y="790.9883">created_at</text><ellipse cx="324.5" cy="803.6855" fill="#000000" rx="3" ry="3" style="stroke:#000000;stroke-width:1.0;"/><text fill="#000000" font-family="sans-serif" font-size="14" lengthAdjust="spacing" textLength="77" x="333.5" y="807.4766">updated_at</text></g><!--class prices--><g id="elem_prices"><rect codeLine="74" fill="#F1F1F1" height="108.4414" id="prices" rx="2.5" ry="2.5" style="stroke:#181818;stroke-width:0.5;" width="171" x="929" y="705.9883"/><text fill="#000000" font-family="sans-serif" font-size="14" lengthAdjust="spacing" textLength="165" x="932" y="724.5234">prices : &#31246;&#25244;&#20385;&#26684;&#12486;&#12540;&#12502;&#12523;</text><line style="stroke:#181818;stroke-width:0.5;" x1="930" x2="1099" y1="732.4766" y2="732.4766"/><ellipse cx="940" cy="746.2207" fill="#000000" rx="3" ry="3" style="stroke:#000000;stroke-width:1.0;"/><text fill="#000000" font-family="sans-serif" font-size="14" lengthAdjust="spacing" textLength="13" x="949" y="750.0117">id</text><line style="stroke:#181818;stroke-width:1.0;" x1="930" x2="1099" y1="756.9648" y2="756.9648"/><ellipse cx="940" cy="770.709" fill="#000000" rx="3" ry="3" style="stroke:#000000;stroke-width:1.0;"/><text fill="#000000" font-family="sans-serif" font-size="14" lengthAdjust="spacing" textLength="102" x="949" y="774.5">price : &#31246;&#25244;&#20385;&#26684;</text><ellipse cx="940" cy="787.1973" fill="#000000" rx="3" ry="3" style="stroke:#000000;stroke-width:1.0;"/><text fill="#000000" font-family="sans-serif" font-size="14" lengthAdjust="spacing" textLength="71" x="949" y="790.9883">created_at</text><ellipse cx="940" cy="803.6855" fill="#000000" rx="3" ry="3" style="stroke:#000000;stroke-width:1.0;"/><text fill="#000000" font-family="sans-serif" font-size="14" lengthAdjust="spacing" textLength="77" x="949" y="807.4766">updated_at</text></g><!--class product_foods--><g id="elem_product_foods"><rect codeLine="82" fill="#F1F1F1" height="124.9297" id="product_foods" rx="2.5" ry="2.5" style="stroke:#181818;stroke-width:0.5;" width="230" x="1135.5" y="697.4883"/><text fill="#000000" font-family="sans-serif" font-size="14" lengthAdjust="spacing" textLength="224" x="1138.5" y="716.0234">product_foods : &#21830;&#21697;&#39135;&#26448;&#12486;&#12540;&#12502;&#12523;</text><line style="stroke:#181818;stroke-width:0.5;" x1="1136.5" x2="1364.5" y1="723.9766" y2="723.9766"/><ellipse cx="1146.5" cy="737.7207" fill="#000000" rx="3" ry="3" style="stroke:#000000;stroke-width:1.0;"/><text fill="#000000" font-family="sans-serif" font-size="14" lengthAdjust="spacing" textLength="13" x="1155.5" y="741.5117">id</text><line style="stroke:#181818;stroke-width:1.0;" x1="1136.5" x2="1364.5" y1="748.4648" y2="748.4648"/><polygon fill="none" points="1146.5,757.209,1150.5,761.209,1146.5,765.209,1142.5,761.209" style="stroke:#B38D22;stroke-width:1.0;"/><text fill="#000000" font-family="sans-serif" font-size="14" lengthAdjust="spacing" textLength="127" x="1155.5" y="766">product_id : &#21830;&#21697;id</text><polygon fill="none" points="1146.5,773.6973,1150.5,777.6973,1146.5,781.6973,1142.5,777.6973" style="stroke:#B38D22;stroke-width:1.0;"/><text fill="#000000" font-family="sans-serif" font-size="14" lengthAdjust="spacing" textLength="105" x="1155.5" y="782.4883">food_id : &#39135;&#26448;id</text><ellipse cx="1146.5" cy="795.1855" fill="#000000" rx="3" ry="3" style="stroke:#000000;stroke-width:1.0;"/><text fill="#000000" font-family="sans-serif" font-size="14" lengthAdjust="spacing" textLength="71" x="1155.5" y="798.9766">created_at</text><ellipse cx="1146.5" cy="811.6738" fill="#000000" rx="3" ry="3" style="stroke:#000000;stroke-width:1.0;"/><text fill="#000000" font-family="sans-serif" font-size="14" lengthAdjust="spacing" textLength="77" x="1155.5" y="815.4648">updated_at</text></g><!--class foods--><g id="elem_foods"><rect codeLine="91" fill="#F1F1F1" height="141.418" id="foods" rx="2.5" ry="2.5" style="stroke:#181818;stroke-width:0.5;" width="202" x="1149.5" y="882.4883"/><text fill="#000000" font-family="sans-serif" font-size="14" lengthAdjust="spacing" textLength="135" x="1183" y="901.0234">foods : &#39135;&#26448;&#12486;&#12540;&#12502;&#12523;</text><line style="stroke:#181818;stroke-width:0.5;" x1="1150.5" x2="1350.5" y1="908.9766" y2="908.9766"/><ellipse cx="1160.5" cy="922.7207" fill="#000000" rx="3" ry="3" style="stroke:#000000;stroke-width:1.0;"/><text fill="#000000" font-family="sans-serif" font-size="14" lengthAdjust="spacing" textLength="13" x="1169.5" y="926.5117">id</text><line style="stroke:#181818;stroke-width:1.0;" x1="1150.5" x2="1350.5" y1="933.4648" y2="933.4648"/><ellipse cx="1160.5" cy="947.209" fill="#000000" rx="3" ry="3" style="stroke:#000000;stroke-width:1.0;"/><text fill="#000000" font-family="sans-serif" font-size="14" lengthAdjust="spacing" textLength="131" x="1169.5" y="951">food_name : &#39135;&#26448;&#21517;</text><ellipse cx="1160.5" cy="963.6973" fill="#000000" rx="3" ry="3" style="stroke:#000000;stroke-width:1.0;"/><text fill="#000000" font-family="sans-serif" font-size="14" lengthAdjust="spacing" textLength="90" x="1169.5" y="967.4883">stock : &#22312;&#24235;&#25968;</text><ellipse cx="1160.5" cy="980.1855" fill="#000000" rx="3" ry="3" style="stroke:#000000;stroke-width:1.0;"/><text fill="#000000" font-family="sans-serif" font-size="14" lengthAdjust="spacing" textLength="176" x="1169.5" y="983.9766">expiration_date : &#28040;&#36027;&#26399;&#38480;</text><ellipse cx="1160.5" cy="996.6738" fill="#000000" rx="3" ry="3" style="stroke:#000000;stroke-width:1.0;"/><text fill="#000000" font-family="sans-serif" font-size="14" lengthAdjust="spacing" textLength="71" x="1169.5" y="1000.4648">created_at</text><ellipse cx="1160.5" cy="1013.1621" fill="#000000" rx="3" ry="3" style="stroke:#000000;stroke-width:1.0;"/><text fill="#000000" font-family="sans-serif" font-size="14" lengthAdjust="spacing" textLength="77" x="1169.5" y="1016.9531">updated_at</text></g><!--link orders to customers--><g id="link_orders_customers"><path codeLine="101" d="M368.34,161.3183 C315,184.0183 251.6,213.4783 197.5,245.4883 C194.37,247.3383 191.21,249.2683 188.06,251.2583 " fill="none" id="orders-customers" style="stroke:#181818;stroke-width:1.0;"/><line style="stroke:#181818;stroke-width:1.0;" x1="370.1786" x2="373.292" y1="156.2003" y2="163.5696"/><line style="stroke:#181818;stroke-width:1.0;" x1="367.4152" x2="370.5285" y1="157.3678" y2="164.7372"/><line style="stroke:#181818;stroke-width:1.0;" x1="368.0507" x2="375.42" y1="161.4417" y2="158.3283"/><line style="stroke:#181818;stroke-width:1.0;" x1="188.218" x2="184.7362" y1="251.1701" y2="260.5443"/><line style="stroke:#181818;stroke-width:1.0;" x1="188.218" x2="178.2438" y1="251.1701" y2="250.4523"/><line style="stroke:#181818;stroke-width:1.0;" x1="188.218" x2="181.49" y1="251.1701" y2="255.4983"/><line style="stroke:#181818;stroke-width:1.0;" x1="192.0642" x2="187.7359" y1="253.452" y2="246.724"/></g><!--link orders to channels--><g id="link_orders_channels"><path codeLine="102" d="M422.17,193.1183 C403.83,216.1783 384,241.1183 366.64,262.9483 " fill="none" id="orders-channels" style="stroke:#181818;stroke-width:1.0;"/><line style="stroke:#181818;stroke-width:1.0;" x1="421.309" x2="427.5657" y1="187.7739" y2="192.7593"/><line style="stroke:#181818;stroke-width:1.0;" x1="419.4395" x2="425.6962" y1="190.1202" y2="195.1056"/><line style="stroke:#181818;stroke-width:1.0;" x1="421.9446" x2="426.93" y1="193.395" y2="187.1383"/><line style="stroke:#181818;stroke-width:1.0;" x1="366.7696" x2="366.5019" y1="262.7691" y2="272.7655"/><line style="stroke:#181818;stroke-width:1.0;" x1="366.7696" x2="357.0981" y1="262.7691" y2="265.311"/><line style="stroke:#181818;stroke-width:1.0;" x1="366.7696" x2="361.8" y1="262.7691" y2="269.0383"/><line style="stroke:#181818;stroke-width:1.0;" x1="371.1466" x2="364.8775" y1="263.6866" y2="258.717"/></g><!--link orders to order_statuses--><g id="link_orders_order_statuses"><path codeLine="103" d="M544.68,192.4583 C563.5,215.9883 583.92,241.5183 601.71,263.7483 " fill="none" id="orders-order_statuses" style="stroke:#181818;stroke-width:1.0;"/><line style="stroke:#181818;stroke-width:1.0;" x1="539.7817" x2="546.0319" y1="192.7501" y2="187.7566"/><line style="stroke:#181818;stroke-width:1.0;" x1="541.6543" x2="547.9044" y1="195.0939" y2="190.1004"/><line style="stroke:#181818;stroke-width:1.0;" x1="545.4036" x2="540.41" y1="193.3784" y2="187.1283"/><line style="stroke:#181818;stroke-width:1.0;" x1="606.5611" x2="600.3173" y1="263.4256" y2="268.4272"/><line style="stroke:#181818;stroke-width:1.0;" x1="604.6855" x2="598.4418" y1="261.0842" y2="266.0858"/><line style="stroke:#181818;stroke-width:1.0;" x1="600.9385" x2="605.94" y1="262.8045" y2="269.0483"/></g><!--link orders to order_details--><g id="link_orders_order_details"><path codeLine="104" d="M599.32,151.4183 C674.44,175.4883 773.91,209.4083 859.5,245.4883 C862.51,246.7583 865.53,248.0583 868.58,249.3783 " fill="none" id="orders-order_details" style="stroke:#181818;stroke-width:1.0;"/><line style="stroke:#181818;stroke-width:1.0;" x1="594.3154" x2="596.7463" y1="154.0146" y2="146.3929"/><line style="stroke:#181818;stroke-width:1.0;" x1="597.1735" x2="599.6045" y1="154.9262" y2="147.3045"/><line style="stroke:#181818;stroke-width:1.0;" x1="599.3417" x2="591.72" y1="151.4192" y2="148.9883"/><line style="stroke:#181818;stroke-width:1.0;" x1="868.489" x2="878.2289" y1="249.353" y2="247.0875"/><line style="stroke:#181818;stroke-width:1.0;" x1="868.489" x2="873.3911" y1="249.353" y2="258.0691"/><line style="stroke:#181818;stroke-width:1.0;" x1="868.489" x2="875.81" y1="249.353" y2="252.5783"/><line style="stroke:#181818;stroke-width:1.0;" x1="868.2713" x2="865.0461" y1="244.8862" y2="252.2072"/></g><!--link order_details to products--><g id="link_order_details_products"><path codeLine="105" d="M1014.5,411.9983 C1014.5,426.0383 1014.5,440.6283 1014.5,454.8483 " fill="none" id="order_details-products" style="stroke:#181818;stroke-width:1.0;"/><line style="stroke:#181818;stroke-width:1.0;" x1="1010.5" x2="1018.5" y1="409.3483" y2="409.3483"/><line style="stroke:#181818;stroke-width:1.0;" x1="1010.5" x2="1018.5" y1="412.3483" y2="412.3483"/><line style="stroke:#181818;stroke-width:1.0;" x1="1014.5" x2="1014.5" y1="413.3483" y2="405.3483"/><line style="stroke:#181818;stroke-width:1.0;" x1="1018.5" x2="1010.5" y1="457.6483" y2="457.6483"/><line style="stroke:#181818;stroke-width:1.0;" x1="1018.5" x2="1010.5" y1="454.6483" y2="454.6483"/><line style="stroke:#181818;stroke-width:1.0;" x1="1014.5" x2="1014.5" y1="453.6483" y2="461.6483"/></g><!--link products to menu_categories--><g id="link_products_menu_categories"><path codeLine="106" d="M855.68,631.6683 C809.29,655.0883 759.55,680.2083 716.61,701.8883 " fill="none" id="products-menu_categories" style="stroke:#181818;stroke-width:1.0;"/><line style="stroke:#181818;stroke-width:1.0;" x1="856.4902" x2="860.0809" y1="626.7692" y2="633.9181"/><line style="stroke:#181818;stroke-width:1.0;" x1="853.8094" x2="857.4001" y1="628.1158" y2="635.2646"/><line style="stroke:#181818;stroke-width:1.0;" x1="854.7111" x2="861.86" y1="632.139" y2="628.5483"/><line style="stroke:#181818;stroke-width:1.0;" x1="715.9447" x2="712.3343" y1="706.6926" y2="699.5536"/><line style="stroke:#181818;stroke-width:1.0;" x1="718.6218" x2="715.0115" y1="705.3387" y2="698.1997"/><line style="stroke:#181818;stroke-width:1.0;" x1="717.709" x2="710.57" y1="701.3179" y2="704.9283"/></g><!--link products to prices--><g id="link_products_prices"><path codeLine="107" d="M1014.5,646.3483 C1014.5,663.6483 1014.5,681.2883 1014.5,697.3083 " fill="none" id="products-prices" style="stroke:#181818;stroke-width:1.0;"/><line style="stroke:#181818;stroke-width:1.0;" x1="1010.5" x2="1018.5" y1="643.4983" y2="643.4983"/><line style="stroke:#181818;stroke-width:1.0;" x1="1010.5" x2="1018.5" y1="646.4983" y2="646.4983"/><line style="stroke:#181818;stroke-width:1.0;" x1="1014.5" x2="1014.5" y1="647.4983" y2="639.4983"/><line style="stroke:#181818;stroke-width:1.0;" x1="1018.5" x2="1010.5" y1="700.0183" y2="700.0183"/><line style="stroke:#181818;stroke-width:1.0;" x1="1018.5" x2="1010.5" y1="697.0183" y2="697.0183"/><line style="stroke:#181818;stroke-width:1.0;" x1="1014.5" x2="1014.5" y1="696.0183" y2="704.0183"/></g><!--link products to product_foods--><g id="link_products_product_foods"><path codeLine="108" d="M1119.8,644.0683 C1137.89,659.9783 1156.38,676.2383 1173.55,691.3283 " fill="none" id="products-product_foods" style="stroke:#181818;stroke-width:1.0;"/><line style="stroke:#181818;stroke-width:1.0;" x1="1114.3673" x2="1119.6556" y1="644.6338" y2="638.631"/><line style="stroke:#181818;stroke-width:1.0;" x1="1116.6184" x2="1121.9066" y1="646.6169" y2="640.6141"/><line style="stroke:#181818;stroke-width:1.0;" x1="1120.0129" x2="1114.01" y1="644.2765" y2="638.9883"/><line style="stroke:#181818;stroke-width:1.0;" x1="1173.1609" x2="1183.1309" y1="690.9971" y2="691.7715"/><line style="stroke:#181818;stroke-width:1.0;" x1="1173.1609" x2="1175.2091" y1="690.9971" y2="700.7851"/><line style="stroke:#181818;stroke-width:1.0;" x1="1173.1609" x2="1179.17" y1="690.9971" y2="696.2783"/><line style="stroke:#181818;stroke-width:1.0;" x1="1174.2992" x2="1169.018" y1="686.6723" y2="692.6814"/></g><!--link product_foods to foods--><g id="link_product_foods_foods"><path codeLine="109" d="M1250.5,830.8483 C1250.5,844.8283 1250.5,859.6083 1250.5,873.8583 " fill="none" id="product_foods-foods" style="stroke:#181818;stroke-width:1.0;"/><line style="stroke:#181818;stroke-width:1.0;" x1="1246.5" x2="1254.5" y1="828.2483" y2="828.2483"/><line style="stroke:#181818;stroke-width:1.0;" x1="1246.5" x2="1254.5" y1="831.2483" y2="831.2483"/><line style="stroke:#181818;stroke-width:1.0;" x1="1250.5" x2="1250.5" y1="832.2483" y2="824.2483"/><line style="stroke:#181818;stroke-width:1.0;" x1="1254.5" x2="1246.5" y1="876.6583" y2="876.6583"/><line style="stroke:#181818;stroke-width:1.0;" x1="1254.5" x2="1246.5" y1="873.6583" y2="873.6583"/><line style="stroke:#181818;stroke-width:1.0;" x1="1250.5" x2="1250.5" y1="872.6583" y2="880.6583"/></g><!--SRC=[dLNTJjim5BxFKqHmCQbINs2NqzuZ2ebPhQLD5RjZY4vQcesLCcZtKs0g4-iGMcd7w0Q3QdJiOToauOfNc1qx_N4fAxk9ulDZV-Sxdu_lgIbe0XMdW8goDbQYbG4TmmAAWY6sWFhmGTWu2Xj5HG4PQbbMvsp710vIxwl1IIFOUaMyLU9rYRT5lDQSgYDL-5SKLKr0atwJIVgPDt88ssdWQD2akLVrB_wtpv5xtaZfcGomk8Dlsl_vEZm_vkveFmrX7UVGM4pfB7Yv7iKa30Ve69YQZjagbpNZrRCXxXW06Xm_0NqO8g5FBEffQ2rh6JqD681sEJ921-7OvbSsc0q3Y-rVkmWFl_UhJRzyFZC-JWEII9W46SV966CUOv0ZcmXmiy0OfHiWYUsRcpsCbY5nXxJ9OEcNjtiNE-Iv6xm_3jQgn7qHT8h4_KCjr4NSDq6dJjnjRhmRVXDW7Ovm6HwUz4_RK-37mR9akNT4SboGMSSsSmRc3h-wwhzpkGeXqfOWJjavh2tfI5-0r4zSMjT9KDebxWPnrubxIDnL-YFYBO2Gva23DOmKpectJxoctoxBeRDKBd2X0Qg9SWSHSf_YafXqucokcTXZ0cGuC8kXdOa3mkRNO6UJCP86cPncK4YFR6UPyqAyEl6eNWuOWaABGIcSqjheCcQHLirZ-urDIb3liXvywWwOr9_GdkWB5XYMKtWRb2kzorglS_G__8oYX96qRm4vmPsSBLCupe6uWxSSGEczxXRxjHefbCBBBfSzSLl4tQGM-j_hT2DBoJ_upRnkarPytLsRNGwKO2JHUuCaegX9GN1DZkRUKOVQecsRGp5UxUy57olJ92c2vHiuxQhDit3naaJxpluCnAYcuBaHHo8wJlIK9ug9IjyBup73jjlmVxM2QfiPmTCiT7HsLJI6W8sFisBuuoBOtRlwKFaNKF5-vlF9P7vb-2J9Tl4AZ9dpqZoMSiQcdJ8- -qH-F26KmQWG3ad-4twk8ycyCjvUPRpP8fEx_W80]--></g></svg>