<?xml version="1.0" encoding="us-ascii" standalone="no"?><svg xmlns="http://www.w3.org/2000/svg" xmlns:xlink="http://www.w3.org/1999/xlink" contentStyleType="text/css" height="1046px" preserveAspectRatio="none" style="width:1507px;height:1046px;background:#FFFFFF;" version="1.1" viewBox="0 0 1507 1046" width="1507px" zoomAndPan="magnify"><defs/><g><text fill="#000000" font-family="sans-serif" font-size="14" font-weight="bold" lengthAdjust="spacing" textLength="48" x="722.75" y="23.5352">DB&#35373;&#35336;</text><!--class orders--><g id="elem_orders"><rect codeLine="7" fill="#F1F1F1" height="141.418" id="orders" rx="2.5" ry="2.5" style="stroke:#181818;stroke-width:0.5;" width="213" x="450.5" y="44.4883"/><text fill="#000000" font-family="sans-serif" font-size="14" lengthAdjust="spacing" textLength="141" x="486.5" y="63.0234">orders : &#27880;&#25991;&#12486;&#12540;&#12502;&#12523;</text><line style="stroke:#181818;stroke-width:0.5;" x1="451.5" x2="662.5" y1="70.9766" y2="70.9766"/><ellipse cx="461.5" cy="84.7207" fill="#000000" rx="3" ry="3" style="stroke:#000000;stroke-width:1.0;"/><text fill="#000000" font-family="sans-serif" font-size="14" lengthAdjust="spacing" textLength="13" x="470.5" y="88.5117">id</text><line style="stroke:#181818;stroke-width:1.0;" x1="451.5" x2="662.5" y1="95.4648" y2="95.4648"/><polygon fill="none" points="461.5,104.209,465.5,108.209,461.5,112.209,457.5,108.209" style="stroke:#B38D22;stroke-width:1.0;"/><text fill="#000000" font-family="sans-serif" font-size="14" lengthAdjust="spacing" textLength="137" x="470.5" y="113">customer_id : &#39015;&#23458;id</text><polygon fill="none" points="461.5,120.6973,465.5,124.6973,461.5,128.6973,457.5,124.6973" style="stroke:#B38D22;stroke-width:1.0;"/><text fill="#000000" font-family="sans-serif" font-size="14" lengthAdjust="spacing" textLength="155" x="470.5" y="129.4883">channel_id : &#27880;&#25991;&#32076;&#36335;id</text><polygon fill="none" points="461.5,137.1855,465.5,141.1855,461.5,145.1855,457.5,141.1855" style="stroke:#B38D22;stroke-width:1.0;"/><text fill="#000000" font-family="sans-serif" font-size="14" lengthAdjust="spacing" textLength="187" x="470.5" y="145.9766">order_status_id : &#27880;&#25991;&#29366;&#24907;id</text><ellipse cx="461.5" cy="158.6738" fill="#000000" rx="3" ry="3" style="stroke:#000000;stroke-width:1.0;"/><text fill="#000000" font-family="sans-serif" font-size="14" lengthAdjust="spacing" textLength="71" x="470.5" y="162.4648">created_at</text><ellipse cx="461.5" cy="175.1621" fill="#000000" rx="3" ry="3" style="stroke:#000000;stroke-width:1.0;"/><text fill="#000000" font-family="sans-serif" font-size="14" lengthAdjust="spacing" textLength="77" x="470.5" y="178.9531">updated_at</text></g><!--class customers--><g id="elem_customers"><rect codeLine="17" fill="#F1F1F1" height="157.9063" id="customers" rx="2.5" ry="2.5" style="stroke:#181818;stroke-width:0.5;" width="246" x="7" y="253.4883"/><text fill="#000000" font-family="sans-serif" font-size="14" lengthAdjust="spacing" textLength="167" x="46.5" y="272.0234">customers : &#39015;&#23458;&#12486;&#12540;&#12502;&#12523;</text><line style="stroke:#181818;stroke-width:0.5;" x1="8" x2="252" y1="279.9766" y2="279.9766"/><ellipse cx="18" cy="293.7207" fill="#000000" rx="3" ry="3" style="stroke:#000000;stroke-width:1.0;"/><text fill="#000000" font-family="sans-serif" font-size="14" lengthAdjust="spacing" textLength="13" x="27" y="297.5117">id</text><line style="stroke:#181818;stroke-width:1.0;" x1="8" x2="252" y1="304.4648" y2="304.4648"/><ellipse cx="18" cy="318.209" fill="#000000" rx="3" ry="3" style="stroke:#000000;stroke-width:1.0;"/><text fill="#000000" font-family="sans-serif" font-size="14" lengthAdjust="spacing" textLength="112" x="27" y="322">family_name : &#27663;</text><ellipse cx="18" cy="334.6973" fill="#000000" rx="3" ry="3" style="stroke:#000000;stroke-width:1.0;"/><text fill="#000000" font-family="sans-serif" font-size="14" lengthAdjust="spacing" textLength="98" x="27" y="338.4883">first_name : &#21517;</text><ellipse cx="18" cy="351.1855" fill="#000000" rx="3" ry="3" style="stroke:#000000;stroke-width:1.0;"/><text fill="#000000" font-family="sans-serif" font-size="14" lengthAdjust="spacing" textLength="85" x="27" y="354.9766">tel : &#38651;&#35441;&#30058;&#21495;</text><ellipse cx="18" cy="367.6738" fill="#000000" rx="3" ry="3" style="stroke:#000000;stroke-width:1.0;"/><text fill="#000000" font-family="sans-serif" font-size="14" lengthAdjust="spacing" textLength="220" x="27" y="371.4648">app_user_id : &#12450;&#12503;&#12522;&#12398;&#12518;&#12540;&#12470;&#12540;id</text><ellipse cx="18" cy="384.1621" fill="#000000" rx="3" ry="3" style="stroke:#000000;stroke-width:1.0;"/><text fill="#000000" font-family="sans-serif" font-size="14" lengthAdjust="spacing" textLength="71" x="27" y="387.9531">created_at</text><ellipse cx="18" cy="400.6504" fill="#000000" rx="3" ry="3" style="stroke:#000000;stroke-width:1.0;"/><text fill="#000000" font-family="sans-serif" font-size="14" lengthAdjust="spacing" textLength="77" x="27" y="404.4414">updated_at</text></g><!--class channels--><g id="elem_channels"><rect codeLine="28" fill="#F1F1F1" height="108.4414" id="channels" rx="2.5" ry="2.5" style="stroke:#181818;stroke-width:0.5;" width="207" x="288.5" y="278.4883"/><text fill="#000000" font-family="sans-serif" font-size="14" lengthAdjust="spacing" textLength="185" x="299.5" y="297.0234">channels : &#27880;&#25991;&#32076;&#36335;&#12486;&#12540;&#12502;&#12523;</text><line style="stroke:#181818;stroke-width:0.5;" x1="289.5" x2="494.5" y1="304.9766" y2="304.9766"/><ellipse cx="299.5" cy="318.7207" fill="#000000" rx="3" ry="3" style="stroke:#000000;stroke-width:1.0;"/><text fill="#000000" font-family="sans-serif" font-size="14" lengthAdjust="spacing" textLength="13" x="308.5" y="322.5117">id</text><line style="stroke:#181818;stroke-width:1.0;" x1="289.5" x2="494.5" y1="329.4648" y2="329.4648"/><ellipse cx="299.5" cy="343.209" fill="#000000" rx="3" ry="3" style="stroke:#000000;stroke-width:1.0;"/><text fill="#000000" font-family="sans-serif" font-size="14" lengthAdjust="spacing" textLength="181" x="308.5" y="347">channel_name : &#27880;&#25991;&#32076;&#36335;&#21517;</text><ellipse cx="299.5" cy="359.6973" fill="#000000" rx="3" ry="3" style="stroke:#000000;stroke-width:1.0;"/><text fill="#000000" font-family="sans-serif" font-size="14" lengthAdjust="spacing" textLength="71" x="308.5" y="363.4883">created_at</text><ellipse cx="299.5" cy="376.1855" fill="#000000" rx="3" ry="3" style="stroke:#000000;stroke-width:1.0;"/><text fill="#000000" font-family="sans-serif" font-size="14" lengthAdjust="spacing" textLength="77" x="308.5" y="379.9766">updated_at</text></g><!--class order_statuses--><g id="elem_order_statuses"><rect codeLine="36" fill="#F1F1F1" height="108.4414" id="order_statuses" rx="2.5" ry="2.5" style="stroke:#181818;stroke-width:0.5;" width="385" x="530.5" y="278.4883"/><text fill="#000000" font-family="sans-serif" font-size="14" lengthAdjust="spacing" textLength="225" x="610.5" y="297.0234">order_statuses : &#27880;&#25991;&#29366;&#24907;&#12486;&#12540;&#12502;&#12523;</text><line style="stroke:#181818;stroke-width:0.5;" x1="531.5" x2="914.5" y1="304.9766" y2="304.9766"/><ellipse cx="541.5" cy="318.7207" fill="#000000" rx="3" ry="3" style="stroke:#000000;stroke-width:1.0;"/><text fill="#000000" font-family="sans-serif" font-size="14" lengthAdjust="spacing" textLength="13" x="550.5" y="322.5117">id</text><line style="stroke:#181818;stroke-width:1.0;" x1="531.5" x2="914.5" y1="329.4648" y2="329.4648"/><ellipse cx="541.5" cy="343.209" fill="#000000" rx="3" ry="3" style="stroke:#000000;stroke-width:1.0;"/><text fill="#000000" font-family="sans-serif" font-size="14" lengthAdjust="spacing" textLength="359" x="550.5" y="347">status : &#27880;&#25991;&#29366;&#24907; : &#27880;&#25991;&#21463;&#20184;&#12289;&#25903;&#25173;&#12356;&#28168;&#12415;&#12289;&#21463;&#12369;&#28193;&#12375;&#28168;&#12415;</text><ellipse cx="541.5" cy="359.6973" fill="#000000" rx="3" ry="3" style="stroke:#000000;stroke-width:1.0;"/><text fill="#000000" font-family="sans-serif" font-size="14" lengthAdjust="spacing" textLength="71" x="550.5" y="363.4883">created_at</text><ellipse cx="541.5" cy="376.1855" fill="#000000" rx="3" ry="3" style="stroke:#000000;stroke-width:1.0;"/><text fill="#000000" font-family="sans-serif" font-size="14" lengthAdjust="spacing" textLength="77" x="550.5" y="379.9766">updated_at</text></g><!--class order_details--><g id="elem_order_details"><rect codeLine="44" fill="#F1F1F1" height="174.3945" id="order_details" rx="2.5" ry="2.5" style="stroke:#181818;stroke-width:0.5;" width="274" x="951" y="245.4883"/><text fill="#000000" font-family="sans-serif" font-size="14" lengthAdjust="spacing" textLength="214" x="981" y="264.0234">order_details : &#27880;&#25991;&#35443;&#32048;&#12486;&#12540;&#12502;&#12523;</text><line style="stroke:#181818;stroke-width:0.5;" x1="952" x2="1224" y1="271.9766" y2="271.9766"/><ellipse cx="962" cy="285.7207" fill="#000000" rx="3" ry="3" style="stroke:#000000;stroke-width:1.0;"/><text fill="#000000" font-family="sans-serif" font-size="14" lengthAdjust="spacing" textLength="13" x="971" y="289.5117">id</text><line style="stroke:#181818;stroke-width:1.0;" x1="952" x2="1224" y1="296.4648" y2="296.4648"/><polygon fill="none" points="962,305.209,966,309.209,962,313.209,958,309.209" style="stroke:#B38D22;stroke-width:1.0;"/><text fill="#000000" font-family="sans-serif" font-size="14" lengthAdjust="spacing" textLength="111" x="971" y="314">order_id : &#27880;&#25991;id</text><polygon fill="none" points="962,321.6973,966,325.6973,962,329.6973,958,325.6973" style="stroke:#B38D22;stroke-width:1.0;"/><text fill="#000000" font-family="sans-serif" font-size="14" lengthAdjust="spacing" textLength="127" x="971" y="330.4883">product_id : &#21830;&#21697;id</text><polygon fill="none" points="962,338.1855,966,342.1855,962,346.1855,958,342.1855" style="stroke:#B38D22;stroke-width:1.0;"/><text fill="#000000" font-family="sans-serif" font-size="14" lengthAdjust="spacing" textLength="132" x="971" y="346.9766">discount_id : &#21106;&#24341;id</text><ellipse cx="962" cy="359.6738" fill="#000000" rx="3" ry="3" style="stroke:#000000;stroke-width:1.0;"/><text fill="#000000" font-family="sans-serif" font-size="14" lengthAdjust="spacing" textLength="248" x="971" y="363.4648">is_without_wasabi : &#12373;&#12403;&#25244;&#12365;&#12363;&#12393;&#12358;&#12363;</text><ellipse cx="962" cy="376.1621" fill="#000000" rx="3" ry="3" style="stroke:#000000;stroke-width:1.0;"/><text fill="#000000" font-family="sans-serif" font-size="14" lengthAdjust="spacing" textLength="200" x="971" y="379.9531">is_less_rice : &#12471;&#12515;&#12522;&#23567;&#12363;&#12393;&#12358;&#12363;</text><ellipse cx="962" cy="392.6504" fill="#000000" rx="3" ry="3" style="stroke:#000000;stroke-width:1.0;"/><text fill="#000000" font-family="sans-serif" font-size="14" lengthAdjust="spacing" textLength="71" x="971" y="396.4414">created_at</text><ellipse cx="962" cy="409.1387" fill="#000000" rx="3" ry="3" style="stroke:#000000;stroke-width:1.0;"/><text fill="#000000" font-family="sans-serif" font-size="14" lengthAdjust="spacing" textLength="77" x="971" y="412.9297">updated_at</text></g><!--class products--><g id="elem_products"><rect codeLine="56" fill="#F1F1F1" height="174.3945" id="products" rx="2.5" ry="2.5" style="stroke:#181818;stroke-width:0.5;" width="302" x="629" y="479.4883"/><text fill="#000000" font-family="sans-serif" font-size="14" lengthAdjust="spacing" textLength="157" x="701.5" y="498.0234">products : &#21830;&#21697;&#12486;&#12540;&#12502;&#12523;</text><line style="stroke:#181818;stroke-width:0.5;" x1="630" x2="930" y1="505.9766" y2="505.9766"/><ellipse cx="640" cy="519.7207" fill="#000000" rx="3" ry="3" style="stroke:#000000;stroke-width:1.0;"/><text fill="#000000" font-family="sans-serif" font-size="14" lengthAdjust="spacing" textLength="13" x="649" y="523.5117">id</text><line style="stroke:#181818;stroke-width:1.0;" x1="630" x2="930" y1="530.4648" y2="530.4648"/><ellipse cx="640" cy="544.209" fill="#000000" rx="3" ry="3" style="stroke:#000000;stroke-width:1.0;"/><text fill="#000000" font-family="sans-serif" font-size="14" lengthAdjust="spacing" textLength="149" x="649" y="548">product_name: &#21830;&#21697;&#21517;</text><text fill="#000000" font-family="sans-serif" font-size="14" lengthAdjust="spacing" textLength="202" x="649" y="564.4883">product_description: &#21830;&#21697;&#35500;&#26126;</text><polygon fill="none" points="640,572.1855,644,576.1855,640,580.1855,636,576.1855" style="stroke:#B38D22;stroke-width:1.0;"/><text fill="#000000" font-family="sans-serif" font-size="14" lengthAdjust="spacing" textLength="276" x="649" y="580.9766">menu_category_id : &#12513;&#12491;&#12517;&#12540;&#12459;&#12486;&#12468;&#12522;&#12540;id</text><polygon fill="none" points="640,588.6738,644,592.6738,640,596.6738,636,592.6738" style="stroke:#B38D22;stroke-width:1.0;"/><text fill="#000000" font-family="sans-serif" font-size="14" lengthAdjust="spacing" textLength="135" x="649" y="597.4648">price_id : &#31246;&#25244;&#20385;&#26684;id</text><ellipse cx="640" cy="610.1621" fill="#000000" rx="3" ry="3" style="stroke:#000000;stroke-width:1.0;"/><text fill="#000000" font-family="sans-serif" font-size="14" lengthAdjust="spacing" textLength="230" x="649" y="613.9531">is_available : &#21830;&#21697;&#12434;&#25552;&#20379;&#20013;&#12363;&#12393;&#12358;&#12363;</text><ellipse cx="640" cy="626.6504" fill="#000000" rx="3" ry="3" style="stroke:#000000;stroke-width:1.0;"/><text fill="#000000" font-family="sans-serif" font-size="14" lengthAdjust="spacing" textLength="71" x="649" y="630.4414">created_at</text><ellipse cx="640" cy="643.1387" fill="#000000" rx="3" ry="3" style="stroke:#000000;stroke-width:1.0;"/><text fill="#000000" font-family="sans-serif" font-size="14" lengthAdjust="spacing" textLength="77" x="649" y="646.9297">updated_at</text></g><!--class menu_categories--><g id="elem_menu_categories"><rect codeLine="68" fill="#F1F1F1" height="124.9297" id="menu_categories" rx="2.5" ry="2.5" style="stroke:#181818;stroke-width:0.5;" width="580" x="79" y="713.4883"/><text fill="#000000" font-family="sans-serif" font-size="14" lengthAdjust="spacing" textLength="311" x="213.5" y="732.0234">menu_categories : &#12513;&#12491;&#12517;&#12540;&#12459;&#12486;&#12468;&#12522;&#12540;&#12486;&#12540;&#12502;&#12523;</text><line style="stroke:#181818;stroke-width:0.5;" x1="80" x2="658" y1="739.9766" y2="739.9766"/><ellipse cx="90" cy="753.7207" fill="#000000" rx="3" ry="3" style="stroke:#000000;stroke-width:1.0;"/><text fill="#000000" font-family="sans-serif" font-size="14" lengthAdjust="spacing" textLength="13" x="99" y="757.5117">id</text><line style="stroke:#181818;stroke-width:1.0;" x1="80" x2="658" y1="764.4648" y2="764.4648"/><ellipse cx="90" cy="778.209" fill="#000000" rx="3" ry="3" style="stroke:#000000;stroke-width:1.0;"/><text fill="#000000" font-family="sans-serif" font-size="14" lengthAdjust="spacing" textLength="554" x="99" y="782">menu_category_name : &#12513;&#12491;&#12517;&#12540;&#12459;&#12486;&#12468;&#12522;&#12540;&#21517;&#65288;&#30427;&#12426;&#36796;&#12415;&#12289;&#12395;&#12366;&#12426;&#12289;&#20028;&#12289;&#12362;&#22909;&#12415;&#12394;&#12393;&#65289;</text><ellipse cx="90" cy="794.6973" fill="#000000" rx="3" ry="3" style="stroke:#000000;stroke-width:1.0;"/><text fill="#000000" font-family="sans-serif" font-size="14" lengthAdjust="spacing" textLength="361" x="99" y="798.4883">is_lunch_discounted : &#12521;&#12531;&#12481;&#12479;&#12452;&#12512;&#12398;&#21106;&#24341;&#23550;&#35937;&#12363;&#12393;&#12358;&#12363;</text><ellipse cx="90" cy="811.1855" fill="#000000" rx="3" ry="3" style="stroke:#000000;stroke-width:1.0;"/><text fill="#000000" font-family="sans-serif" font-size="14" lengthAdjust="spacing" textLength="71" x="99" y="814.9766">created_at</text><ellipse cx="90" cy="827.6738" fill="#000000" rx="3" ry="3" style="stroke:#000000;stroke-width:1.0;"/><text fill="#000000" font-family="sans-serif" font-size="14" lengthAdjust="spacing" textLength="77" x="99" y="831.4648">updated_at</text></g><!--class prices--><g id="elem_prices"><rect codeLine="77" fill="#F1F1F1" height="108.4414" id="prices" rx="2.5" ry="2.5" style="stroke:#181818;stroke-width:0.5;" width="171" x="694.5" y="721.9883"/><text fill="#000000" font-family="sans-serif" font-size="14" lengthAdjust="spacing" textLength="165" x="697.5" y="740.5234">prices : &#31246;&#25244;&#20385;&#26684;&#12486;&#12540;&#12502;&#12523;</text><line style="stroke:#181818;stroke-width:0.5;" x1="695.5" x2="864.5" y1="748.4766" y2="748.4766"/><ellipse cx="705.5" cy="762.2207" fill="#000000" rx="3" ry="3" style="stroke:#000000;stroke-width:1.0;"/><text fill="#000000" font-family="sans-serif" font-size="14" lengthAdjust="spacing" textLength="13" x="714.5" y="766.0117">id</text><line style="stroke:#181818;stroke-width:1.0;" x1="695.5" x2="864.5" y1="772.9648" y2="772.9648"/><ellipse cx="705.5" cy="786.709" fill="#000000" rx="3" ry="3" style="stroke:#000000;stroke-width:1.0;"/><text fill="#000000" font-family="sans-serif" font-size="14" lengthAdjust="spacing" textLength="102" x="714.5" y="790.5">price : &#31246;&#25244;&#20385;&#26684;</text><ellipse cx="705.5" cy="803.1973" fill="#000000" rx="3" ry="3" style="stroke:#000000;stroke-width:1.0;"/><text fill="#000000" font-family="sans-serif" font-size="14" lengthAdjust="spacing" textLength="71" x="714.5" y="806.9883">created_at</text><ellipse cx="705.5" cy="819.6855" fill="#000000" rx="3" ry="3" style="stroke:#000000;stroke-width:1.0;"/><text fill="#000000" font-family="sans-serif" font-size="14" lengthAdjust="spacing" textLength="77" x="714.5" y="823.4766">updated_at</text></g><!--class discounts--><g id="elem_discounts"><rect codeLine="85" fill="#F1F1F1" height="174.3945" id="discounts" rx="2.5" ry="2.5" style="stroke:#181818;stroke-width:0.5;" width="207" x="1293.5" y="479.4883"/><text fill="#000000" font-family="sans-serif" font-size="14" lengthAdjust="spacing" textLength="162" x="1316" y="498.0234">discounts : &#21106;&#24341;&#12486;&#12540;&#12502;&#12523;</text><line style="stroke:#181818;stroke-width:0.5;" x1="1294.5" x2="1499.5" y1="505.9766" y2="505.9766"/><ellipse cx="1304.5" cy="519.7207" fill="#000000" rx="3" ry="3" style="stroke:#000000;stroke-width:1.0;"/><text fill="#000000" font-family="sans-serif" font-size="14" lengthAdjust="spacing" textLength="13" x="1313.5" y="523.5117">id</text><line style="stroke:#181818;stroke-width:1.0;" x1="1294.5" x2="1499.5" y1="530.4648" y2="530.4648"/><text fill="#000000" font-family="sans-serif" font-size="14" lengthAdjust="spacing" textLength="170" x="1313.5" y="548">discount_value : &#21106;&#24341;&#20385;&#26684;</text><text fill="#000000" font-family="sans-serif" font-size="14" lengthAdjust="spacing" textLength="161" x="1313.5" y="564.4883">discount_rate : &#21106;&#24341;&#21106;&#21512;</text><ellipse cx="1304.5" cy="577.1855" fill="#000000" rx="3" ry="3" style="stroke:#000000;stroke-width:1.0;"/><text fill="#000000" font-family="sans-serif" font-size="14" lengthAdjust="spacing" textLength="181" x="1313.5" y="580.9766">discount_reason : &#21106;&#24341;&#29702;&#30001;</text><ellipse cx="1304.5" cy="593.6738" fill="#000000" rx="3" ry="3" style="stroke:#000000;stroke-width:1.0;"/><text fill="#000000" font-family="sans-serif" font-size="14" lengthAdjust="spacing" textLength="127" x="1313.5" y="597.4648">begin_at : &#38283;&#22987;&#26085;&#26178;</text><text fill="#000000" font-family="sans-serif" font-size="14" lengthAdjust="spacing" textLength="114" x="1313.5" y="613.9531">end_at : &#32066;&#20102;&#26085;&#26178;</text><ellipse cx="1304.5" cy="626.6504" fill="#000000" rx="3" ry="3" style="stroke:#000000;stroke-width:1.0;"/><text fill="#000000" font-family="sans-serif" font-size="14" lengthAdjust="spacing" textLength="71" x="1313.5" y="630.4414">created_at</text><ellipse cx="1304.5" cy="643.1387" fill="#000000" rx="3" ry="3" style="stroke:#000000;stroke-width:1.0;"/><text fill="#000000" font-family="sans-serif" font-size="14" lengthAdjust="spacing" textLength="77" x="1313.5" y="646.9297">updated_at</text></g><!--class products_discounts--><g id="elem_products_discounts"><rect codeLine="97" fill="#F1F1F1" height="141.418" id="products_discounts" rx="2.5" ry="2.5" style="stroke:#181818;stroke-width:0.5;" width="292" x="966" y="495.9883"/><text fill="#000000" font-family="sans-serif" font-size="14" lengthAdjust="spacing" textLength="286" x="969" y="514.5234">products_discounts : &#21830;&#21697;&#21106;&#24341;&#20013;&#38291;&#12486;&#12540;&#12502;&#12523;</text><line style="stroke:#181818;stroke-width:0.5;" x1="967" x2="1257" y1="522.4766" y2="522.4766"/><ellipse cx="977" cy="536.2207" fill="#000000" rx="3" ry="3" style="stroke:#000000;stroke-width:1.0;"/><text fill="#000000" font-family="sans-serif" font-size="14" lengthAdjust="spacing" textLength="13" x="986" y="540.0117">id</text><line style="stroke:#181818;stroke-width:1.0;" x1="967" x2="1257" y1="546.9648" y2="546.9648"/><polygon fill="none" points="977,555.709,981,559.709,977,563.709,973,559.709" style="stroke:#B38D22;stroke-width:1.0;"/><text fill="#000000" font-family="sans-serif" font-size="14" lengthAdjust="spacing" textLength="127" x="986" y="564.5">product_id : &#21830;&#21697;id</text><polygon fill="none" points="977,572.1973,981,576.1973,977,580.1973,973,576.1973" style="stroke:#B38D22;stroke-width:1.0;"/><text fill="#000000" font-family="sans-serif" font-size="14" lengthAdjust="spacing" textLength="132" x="986" y="580.9883">discount_id : &#21106;&#24341;id</text><ellipse cx="977" cy="593.6855" fill="#000000" rx="3" ry="3" style="stroke:#000000;stroke-width:1.0;"/><text fill="#000000" font-family="sans-serif" font-size="14" lengthAdjust="spacing" textLength="179" x="986" y="597.4766">is_deleted : &#35542;&#29702;&#21066;&#38500;&#12501;&#12521;&#12464;</text><ellipse cx="977" cy="610.1738" fill="#000000" rx="3" ry="3" style="stroke:#000000;stroke-width:1.0;"/><text fill="#000000" font-family="sans-serif" font-size="14" lengthAdjust="spacing" textLength="71" x="986" y="613.9648">created_at</text><ellipse cx="977" cy="626.6621" fill="#000000" rx="3" ry="3" style="stroke:#000000;stroke-width:1.0;"/><text fill="#000000" font-family="sans-serif" font-size="14" lengthAdjust="spacing" textLength="77" x="986" y="630.4531">updated_at</text></g><!--class product_foods--><g id="elem_product_foods"><rect codeLine="107" fill="#F1F1F1" height="124.9297" id="product_foods" rx="2.5" ry="2.5" style="stroke:#181818;stroke-width:0.5;" width="230" x="901" y="713.4883"/><text fill="#000000" font-family="sans-serif" font-size="14" lengthAdjust="spacing" textLength="224" x="904" y="732.0234">product_foods : &#21830;&#21697;&#39135;&#26448;&#12486;&#12540;&#12502;&#12523;</text><line style="stroke:#181818;stroke-width:0.5;" x1="902" x2="1130" y1="739.9766" y2="739.9766"/><ellipse cx="912" cy="753.7207" fill="#000000" rx="3" ry="3" style="stroke:#000000;stroke-width:1.0;"/><text fill="#000000" font-family="sans-serif" font-size="14" lengthAdjust="spacing" textLength="13" x="921" y="757.5117">id</text><line style="stroke:#181818;stroke-width:1.0;" x1="902" x2="1130" y1="764.4648" y2="764.4648"/><polygon fill="none" points="912,773.209,916,777.209,912,781.209,908,777.209" style="stroke:#B38D22;stroke-width:1.0;"/><text fill="#000000" font-family="sans-serif" font-size="14" lengthAdjust="spacing" textLength="127" x="921" y="782">product_id : &#21830;&#21697;id</text><polygon fill="none" points="912,789.6973,916,793.6973,912,797.6973,908,793.6973" style="stroke:#B38D22;stroke-width:1.0;"/><text fill="#000000" font-family="sans-serif" font-size="14" lengthAdjust="spacing" textLength="105" x="921" y="798.4883">food_id : &#39135;&#26448;id</text><ellipse cx="912" cy="811.1855" fill="#000000" rx="3" ry="3" style="stroke:#000000;stroke-width:1.0;"/><text fill="#000000" font-family="sans-serif" font-size="14" lengthAdjust="spacing" textLength="71" x="921" y="814.9766">created_at</text><ellipse cx="912" cy="827.6738" fill="#000000" rx="3" ry="3" style="stroke:#000000;stroke-width:1.0;"/><text fill="#000000" font-family="sans-serif" font-size="14" lengthAdjust="spacing" textLength="77" x="921" y="831.4648">updated_at</text></g><!--class foods--><g id="elem_foods"><rect codeLine="116" fill="#F1F1F1" height="141.418" id="foods" rx="2.5" ry="2.5" style="stroke:#181818;stroke-width:0.5;" width="202" x="915" y="898.4883"/><text fill="#000000" font-family="sans-serif" font-size="14" lengthAdjust="spacing" textLength="135" x="948.5" y="917.0234">foods : &#39135;&#26448;&#12486;&#12540;&#12502;&#12523;</text><line style="stroke:#181818;stroke-width:0.5;" x1="916" x2="1116" y1="924.9766" y2="924.9766"/><ellipse cx="926" cy="938.7207" fill="#000000" rx="3" ry="3" style="stroke:#000000;stroke-width:1.0;"/><text fill="#000000" font-family="sans-serif" font-size="14" lengthAdjust="spacing" textLength="13" x="935" y="942.5117">id</text><line style="stroke:#181818;stroke-width:1.0;" x1="916" x2="1116" y1="949.4648" y2="949.4648"/><ellipse cx="926" cy="963.209" fill="#000000" rx="3" ry="3" style="stroke:#000000;stroke-width:1.0;"/><text fill="#000000" font-family="sans-serif" font-size="14" lengthAdjust="spacing" textLength="131" x="935" y="967">food_name : &#39135;&#26448;&#21517;</text><ellipse cx="926" cy="979.6973" fill="#000000" rx="3" ry="3" style="stroke:#000000;stroke-width:1.0;"/><text fill="#000000" font-family="sans-serif" font-size="14" lengthAdjust="spacing" textLength="90" x="935" y="983.4883">stock : &#22312;&#24235;&#25968;</text><ellipse cx="926" cy="996.1855" fill="#000000" rx="3" ry="3" style="stroke:#000000;stroke-width:1.0;"/><text fill="#000000" font-family="sans-serif" font-size="14" lengthAdjust="spacing" textLength="176" x="935" y="999.9766">expiration_date : &#28040;&#36027;&#26399;&#38480;</text><ellipse cx="926" cy="1012.6738" fill="#000000" rx="3" ry="3" style="stroke:#000000;stroke-width:1.0;"/><text fill="#000000" font-family="sans-serif" font-size="14" lengthAdjust="spacing" textLength="71" x="935" y="1016.4648">created_at</text><ellipse cx="926" cy="1029.1621" fill="#000000" rx="3" ry="3" style="stroke:#000000;stroke-width:1.0;"/><text fill="#000000" font-family="sans-serif" font-size="14" lengthAdjust="spacing" textLength="77" x="935" y="1032.9531">updated_at</text></g><!--link orders to customers--><g id="link_orders_customers"><path codeLine="126" d="M441.54,164.4183 C388.81,187.5083 326,216.4083 271,245.4883 C267.81,247.1783 264.6,248.8983 261.36,250.6683 " fill="none" id="orders-customers" style="stroke:#181818;stroke-width:1.0;"/><line style="stroke:#181818;stroke-width:1.0;" x1="443.5902" x2="446.8035" y1="159.1618" y2="166.4881"/><line style="stroke:#181818;stroke-width:1.0;" x1="440.8428" x2="444.0561" y1="160.3668" y2="167.6931"/><line style="stroke:#181818;stroke-width:1.0;" x1="441.5337" x2="448.86" y1="164.4316" y2="161.2183"/><line style="stroke:#181818;stroke-width:1.0;" x1="261.634" x2="257.5293" y1="250.5125" y2="259.6313"/><line style="stroke:#181818;stroke-width:1.0;" x1="261.634" x2="251.7307" y1="250.5125" y2="249.1253"/><line style="stroke:#181818;stroke-width:1.0;" x1="261.634" x2="254.63" y1="250.5125" y2="254.3783"/><line style="stroke:#181818;stroke-width:1.0;" x1="265.3179" x2="261.4521" y1="253.0481" y2="246.0441"/></g><!--link orders to channels--><g id="link_orders_channels"><path codeLine="127" d="M497.71,193.4183 C478.19,218.9183 456.79,246.8783 438.37,270.9283 " fill="none" id="orders-channels" style="stroke:#181818;stroke-width:1.0;"/><line style="stroke:#181818;stroke-width:1.0;" x1="496.9031" x2="503.26" y1="187.9083" y2="192.7652"/><line style="stroke:#181818;stroke-width:1.0;" x1="495.0817" x2="501.4386" y1="190.2921" y2="195.149"/><line style="stroke:#181818;stroke-width:1.0;" x1="497.6531" x2="502.51" y1="193.5152" y2="187.1583"/><line style="stroke:#181818;stroke-width:1.0;" x1="438.5529" x2="438.4385" y1="270.7136" y2="280.7129"/><line style="stroke:#181818;stroke-width:1.0;" x1="438.5529" x2="428.9215" y1="270.7136" y2="273.4036"/><line style="stroke:#181818;stroke-width:1.0;" x1="438.5529" x2="433.68" y1="270.7136" y2="277.0583"/><line style="stroke:#181818;stroke-width:1.0;" x1="442.9434" x2="436.5987" y1="271.5638" y2="266.691"/></g><!--link orders to order_statuses--><g id="link_orders_order_statuses"><path codeLine="128" d="M615.82,192.3383 C635.91,218.4283 658.07,247.1983 677,271.7783 " fill="none" id="orders-order_statuses" style="stroke:#181818;stroke-width:1.0;"/><line style="stroke:#181818;stroke-width:1.0;" x1="611.0932" x2="617.43" y1="192.7683" y2="187.885"/><line style="stroke:#181818;stroke-width:1.0;" x1="612.9244" x2="619.2612" y1="195.1445" y2="190.2613"/><line style="stroke:#181818;stroke-width:1.0;" x1="616.7032" x2="611.82" y1="193.495" y2="187.1583"/><line style="stroke:#181818;stroke-width:1.0;" x1="681.7968" x2="675.46" y1="271.4483" y2="276.3315"/><line style="stroke:#181818;stroke-width:1.0;" x1="679.9656" x2="673.6288" y1="269.072" y2="273.9552"/><line style="stroke:#181818;stroke-width:1.0;" x1="676.1868" x2="681.07" y1="270.7215" y2="277.0583"/></g><!--link orders to order_details--><g id="link_orders_order_details"><path codeLine="129" d="M672.92,150.1283 C748.29,173.7383 848.01,207.6183 933,245.4883 C936.14,246.8883 939.29,248.3283 942.46,249.7983 " fill="none" id="orders-order_details" style="stroke:#181818;stroke-width:1.0;"/><line style="stroke:#181818;stroke-width:1.0;" x1="667.925" x2="670.2957" y1="152.764" y2="145.1233"/><line style="stroke:#181818;stroke-width:1.0;" x1="670.7902" x2="673.1609" y1="153.653" y2="146.0124"/><line style="stroke:#181818;stroke-width:1.0;" x1="672.9307" x2="665.29" y1="150.129" y2="147.7583"/><line style="stroke:#181818;stroke-width:1.0;" x1="942.2818" x2="952.0813" y1="249.6999" y2="247.7072"/><line style="stroke:#181818;stroke-width:1.0;" x1="942.2818" x2="946.9387" y1="249.6999" y2="258.5494"/><line style="stroke:#181818;stroke-width:1.0;" x1="942.2818" x2="949.51" y1="249.6999" y2="253.1283"/><line style="stroke:#181818;stroke-width:1.0;" x1="942.189" x2="938.7606" y1="245.2287" y2="252.4569"/></g><!--link order_details to products--><g id="link_order_details_products"><path codeLine="131" d="M966.67,424.8783 C945.21,441.0483 922.87,457.8683 901.41,474.0383 " fill="none" id="order_details-products" style="stroke:#181818;stroke-width:1.0;"/><line style="stroke:#181818;stroke-width:1.0;" x1="966.4987" x2="971.3091" y1="419.9974" y2="426.3896"/><line style="stroke:#181818;stroke-width:1.0;" x1="964.1016" x2="968.9121" y1="421.8013" y2="428.1935"/><line style="stroke:#181818;stroke-width:1.0;" x1="965.7078" x2="972.1" y1="425.5987" y2="420.7883"/><line style="stroke:#181818;stroke-width:1.0;" x1="901.5923" x2="896.774" y1="478.9023" y2="472.516"/><line style="stroke:#181818;stroke-width:1.0;" x1="903.9871" x2="899.1688" y1="477.0954" y2="470.7092"/><line style="stroke:#181818;stroke-width:1.0;" x1="902.3763" x2="895.99" y1="473.3" y2="478.1183"/></g><!--link order_details to discounts--><g id="link_order_details_discounts"><path codeLine="132" d="M1210.36,425.3583 C1235.17,443.9883 1261.13,463.4783 1285.54,481.7983 " fill="none" id="order_details-discounts" style="stroke:#181818;stroke-width:1.0;"/><line style="stroke:#181818;stroke-width:1.0;" x1="1205.07" x2="1209.87" y1="426.3883" y2="419.9883"/><line style="stroke:#181818;stroke-width:1.0;" x1="1207.47" x2="1212.27" y1="428.1883" y2="421.7883"/><line style="stroke:#181818;stroke-width:1.0;" x1="1210.67" x2="1204.27" y1="425.5883" y2="420.7883"/><line style="stroke:#181818;stroke-width:1.0;" x1="1285.45" x2="1295.45" y1="481.7383" y2="481.7383"/><line style="stroke:#181818;stroke-width:1.0;" x1="1285.45" x2="1288.25" y1="481.7383" y2="491.3383"/><line style="stroke:#181818;stroke-width:1.0;" x1="1285.45" x2="1291.85" y1="481.7383" y2="486.5383"/><ellipse cx="1280.65" cy="478.1383" fill="none" rx="4" ry="4" style="stroke:#181818;stroke-width:1.0;"/></g><!--link products to menu_categories--><g id="link_products_menu_categories"><path codeLine="134" d="M621.28,647.6183 C580.81,668.0483 537.79,689.7683 498.95,709.3783 " fill="none" id="products-menu_categories" style="stroke:#181818;stroke-width:1.0;"/><line style="stroke:#181818;stroke-width:1.0;" x1="621.9902" x2="625.5809" y1="642.7692" y2="649.9181"/><line style="stroke:#181818;stroke-width:1.0;" x1="619.3094" x2="622.9001" y1="644.1158" y2="651.2646"/><line style="stroke:#181818;stroke-width:1.0;" x1="620.2111" x2="627.36" y1="648.139" y2="644.5483"/><line style="stroke:#181818;stroke-width:1.0;" x1="498.4731" x2="494.8693" y1="714.1076" y2="706.9652"/><line style="stroke:#181818;stroke-width:1.0;" x1="501.1514" x2="497.5476" y1="712.7561" y2="705.6138"/><line style="stroke:#181818;stroke-width:1.0;" x1="500.2423" x2="493.1" y1="708.7345" y2="712.3383"/></g><!--link products to prices--><g id="link_products_prices"><path codeLine="135" d="M780,662.3483 C780,679.6483 780,697.2883 780,713.3083 " fill="none" id="products-prices" style="stroke:#181818;stroke-width:1.0;"/><line style="stroke:#181818;stroke-width:1.0;" x1="776" x2="784" y1="659.4983" y2="659.4983"/><line style="stroke:#181818;stroke-width:1.0;" x1="776" x2="784" y1="662.4983" y2="662.4983"/><line style="stroke:#181818;stroke-width:1.0;" x1="780" x2="780" y1="663.4983" y2="655.4983"/><line style="stroke:#181818;stroke-width:1.0;" x1="784" x2="776" y1="716.0183" y2="716.0183"/><line style="stroke:#181818;stroke-width:1.0;" x1="784" x2="776" y1="713.0183" y2="713.0183"/><line style="stroke:#181818;stroke-width:1.0;" x1="780" x2="780" y1="712.0183" y2="720.0183"/></g><!--link products to product_foods--><g id="link_products_product_foods"><path codeLine="136" d="M885.3,660.0683 C903.39,675.9783 921.88,692.2383 939.05,707.3283 " fill="none" id="products-product_foods" style="stroke:#181818;stroke-width:1.0;"/><line style="stroke:#181818;stroke-width:1.0;" x1="879.8673" x2="885.1556" y1="660.6338" y2="654.631"/><line style="stroke:#181818;stroke-width:1.0;" x1="882.1184" x2="887.4066" y1="662.6169" y2="656.6141"/><line style="stroke:#181818;stroke-width:1.0;" x1="885.5129" x2="879.51" y1="660.2765" y2="654.9883"/><line style="stroke:#181818;stroke-width:1.0;" x1="938.6609" x2="948.6309" y1="706.9971" y2="707.7715"/><line style="stroke:#181818;stroke-width:1.0;" x1="938.6609" x2="940.7091" y1="706.9971" y2="716.7851"/><line style="stroke:#181818;stroke-width:1.0;" x1="938.6609" x2="944.67" y1="706.9971" y2="712.2783"/><line style="stroke:#181818;stroke-width:1.0;" x1="939.7992" x2="934.518" y1="702.6723" y2="708.6814"/></g><!--link products to products_discounts--><g id="link_products_products_discounts"><path codeLine="138" d="M940.77,566.4883 C945.94,566.4883 951.12,566.4883 956.3,566.4883 " fill="none" id="products-products_discounts" style="stroke:#181818;stroke-width:1.0;"/><line style="stroke:#181818;stroke-width:1.0;" x1="936.92" x2="936.92" y1="570.4883" y2="562.4883"/><line style="stroke:#181818;stroke-width:1.0;" x1="939.92" x2="939.92" y1="570.4883" y2="562.4883"/><line style="stroke:#181818;stroke-width:1.0;" x1="940.92" x2="932.92" y1="566.4883" y2="566.4883"/><line style="stroke:#181818;stroke-width:1.0;" x1="956.11" x2="964.11" y1="566.4883" y2="560.4883"/><line style="stroke:#181818;stroke-width:1.0;" x1="956.11" x2="964.11" y1="566.4883" y2="572.4883"/><line style="stroke:#181818;stroke-width:1.0;" x1="956.11" x2="964.11" y1="566.4883" y2="566.4883"/><ellipse cx="950.11" cy="566.4883" fill="none" rx="4" ry="4" style="stroke:#181818;stroke-width:1.0;"/></g><!--link products_discounts to discounts--><g id="link_products_discounts_discounts"><path codeLine="139" d="M1267.87,566.4883 C1273.12,566.4883 1278.36,566.4883 1283.61,566.4883 " fill="none" id="products_discounts-discounts" style="stroke:#181818;stroke-width:1.0;"/><line style="stroke:#181818;stroke-width:1.0;" x1="1267.91" x2="1259.91" y1="566.4883" y2="572.4883"/><line style="stroke:#181818;stroke-width:1.0;" x1="1267.91" x2="1259.91" y1="566.4883" y2="560.4883"/><line style="stroke:#181818;stroke-width:1.0;" x1="1267.91" x2="1259.91" y1="566.4883" y2="566.4883"/><ellipse cx="1273.91" cy="566.4883" fill="none" rx="4" ry="4" style="stroke:#181818;stroke-width:1.0;"/><line style="stroke:#181818;stroke-width:1.0;" x1="1287.53" x2="1287.53" y1="562.4883" y2="570.4883"/><line style="stroke:#181818;stroke-width:1.0;" x1="1284.53" x2="1284.53" y1="562.4883" y2="570.4883"/><line style="stroke:#181818;stroke-width:1.0;" x1="1283.53" x2="1291.53" y1="566.4883" y2="566.4883"/></g><!--link product_foods to foods--><g id="link_product_foods_foods"><path codeLine="141" d="M1016,846.8483 C1016,860.8283 1016,875.6083 1016,889.8583 " fill="none" id="product_foods-foods" style="stroke:#181818;stroke-width:1.0;"/><line style="stroke:#181818;stroke-width:1.0;" x1="1012" x2="1020" y1="844.2483" y2="844.2483"/><line style="stroke:#181818;stroke-width:1.0;" x1="1012" x2="1020" y1="847.2483" y2="847.2483"/><line style="stroke:#181818;stroke-width:1.0;" x1="1016" x2="1016" y1="848.2483" y2="840.2483"/><line style="stroke:#181818;stroke-width:1.0;" x1="1020" x2="1012" y1="892.6583" y2="892.6583"/><line style="stroke:#181818;stroke-width:1.0;" x1="1020" x2="1012" y1="889.6583" y2="889.6583"/><line style="stroke:#181818;stroke-width:1.0;" x1="1016" x2="1016" y1="888.6583" y2="896.6583"/></g><!--SRC=[dLRHRjis57tNLmZjmu00-O4-3liFGP7OcfWY6QBKBaW6J5BhESuQUsljD4Y6rctJsl7I94sR68sNVWmjMdxgBumKHSccuyx9Yo3TUtZlkPVdalf1BK4Jg5u9gAZiU4hwPK3Ni82YUD2pWFhJZqddAEbK5GNOrBActd5S4xX8lQUIimvf_OwZ2eu6E6hXg7T7rP6Q-TSLLLs29dqkBzF7NSD7dhCAN0sQTEsu_Jx-y3frtpLAkcq3YpjuqD7dFvABO-vEusd8qpqVJM5gv-J9LefPCboWUy3KT8zz-MLJVFrQy1O4K9v-Xde1aTWltTTNeRMcsVegO0HEwgaHkiWJjhZnbDayOB7uUvT9ztJKF8ph5yogbykQZqJnEAIfTt1qY8CFE7h7E8Jdz7c3MdZBaDImsO84Jgv7z5mKD14aAsGH6fDR0v2qCzSBeq3BbBX32f9_nlMTuUKB_5j0dX-JpIOE7fD-5GTVgOMwSF0dwRTniCEDD-Dl0a-74xrCkcUZJoTpw0kmB6_kdP0d5s_PTKpVyBWZRbRYPm5tc10PZcyBp-R7UD3a-m-HzWXw9SVtj4SwqbSWKqn0ApuZjNqSFCN15WwwEAZGbmnl0OGq5neW5TS5ZjvGSSKdTHcwI4yonYZdEzE8727le2YMYKgivceI7XCWmuLb3pgs02I7_v0Nswmbgy3sDODIUk2uQzcaH6qSKIKTf3FIOrJ2Jsnmic6X_QLLS-oeiqqRDBngarU3l9FwGxfR-ee5YdB2lqYzCRpQ6_QFRjEVIPOm5VrtICxqJbujjt2w1zbqVYS1RU-tGNMqjuV3Md8ru0E1WnuEjgc5lW_xWzHIYm_-PTw07ZhTRuDDeHpVDagQ42FWFU_Yw0n7j5DVSVWMHw_eCSK56XzV9QVjswcAxXEITkaQPQMeMLrnQK-kNJInA0tbKpQJjO18YVCPVQXRFiW3v0HolqiJvsxsR5HPfC8FTEJOEMBKg8oUdpB42dW0RSgONHcjhVZz5jav8BiXTG7RvFRHvt3ufPBRRpJ3sbJrV1vv2VsZSUlPtCdMvhRabWUQ2Ip0rPNqMhJyUBCstgNIQZAnXISth4kxxpXcKTBupKloTsDUCHbuuJeOFFj7IUCkVYaBLdFuNCjZAKsNpJbVcDs_z4_4-9bns-_4NtgacJO9_5A6L6pq-DHChZboNaq-NfBzb-FTnlyHpVxCDZQMbpVMYvyTsPxzCqoPDwJRMrepTJTcYVAhCWiWn7MDrralXb1HylibMoYTcJD-Vcf8vlNf_P-EwhACis9N2jbJa3K7f4mBAoF1i_m7]--></g></svg>