<?xml version="1.0" encoding="us-ascii" standalone="no"?><svg xmlns="http://www.w3.org/2000/svg" xmlns:xlink="http://www.w3.org/1999/xlink" contentStyleType="text/css" height="361px" preserveAspectRatio="none" style="width:399px;height:361px;background:#FFFFFF;" version="1.1" viewBox="0 0 399 361" width="399px" zoomAndPan="magnify"><defs/><g><text fill="#000000" font-family="sans-serif" font-size="14" font-weight="bold" lengthAdjust="spacing" textLength="48" x="168.5" y="23.5352">DB&#35373;&#35336;</text><text fill="#000000" font-family="sans-serif" font-size="14" font-weight="bold" lengthAdjust="spacing" textLength="5" x="190" y="40.0234">&#160;</text><text fill="#000000" font-family="sans-serif" font-size="14" font-weight="bold" lengthAdjust="spacing" textLength="279" x="53" y="56.5117">&#65288;&#12459;&#12521;&#12512;&#21517;&#12398;&#21069;&#12398;&#12300;#&#65288;&#33777;&#24418;&#65289;&#12301;&#12399;FK&#12391;&#12377;&#65289;</text><text fill="#000000" font-family="sans-serif" font-size="14" font-weight="bold" lengthAdjust="spacing" textLength="315" x="35" y="73">&#65288;&#12459;&#12521;&#12512;&#21517;&#12398;&#21069;&#12398;&#12300;*&#65288;&#40658;&#20024;&#65289;&#12301;&#12399;&#24517;&#38920;&#38917;&#30446;&#12391;&#12377;&#65289;</text><text fill="#000000" font-family="sans-serif" font-size="14" font-weight="bold" lengthAdjust="spacing" textLength="5" x="190" y="89.4883">&#160;</text><!--class categories--><g id="elem_categories"><rect codeLine="13" fill="#F1F1F1" height="75.4648" id="categories" rx="2.5" ry="2.5" style="stroke:#181818;stroke-width:0.5;" width="159" x="53" y="118.9414"/><text fill="#000000" font-family="sans-serif" font-size="14" lengthAdjust="spacing" textLength="153" x="56" y="137.4766">categories : &#12459;&#12486;&#12468;&#12522;&#12540;</text><line style="stroke:#181818;stroke-width:0.5;" x1="54" x2="211" y1="145.4297" y2="145.4297"/><ellipse cx="64" cy="159.1738" fill="#000000" rx="3" ry="3" style="stroke:#000000;stroke-width:1.0;"/><text fill="#000000" font-family="sans-serif" font-size="14" lengthAdjust="spacing" textLength="13" x="73" y="162.9648">id</text><line style="stroke:#181818;stroke-width:1.0;" x1="54" x2="211" y1="169.918" y2="169.918"/><text fill="#000000" font-family="sans-serif" font-size="14" lengthAdjust="spacing" textLength="38" x="59" y="187.4531">name</text></g><!--class manga--><g id="elem_manga"><rect codeLine="19" fill="#F1F1F1" height="91.9531" id="manga" rx="2.5" ry="2.5" style="stroke:#181818;stroke-width:0.5;" width="107" x="9" y="262.4414"/><text fill="#000000" font-family="sans-serif" font-size="14" lengthAdjust="spacing" textLength="101" x="12" y="280.9766">manga : &#12510;&#12531;&#12460;</text><line style="stroke:#181818;stroke-width:0.5;" x1="10" x2="115" y1="288.9297" y2="288.9297"/><ellipse cx="20" cy="302.6738" fill="#000000" rx="3" ry="3" style="stroke:#000000;stroke-width:1.0;"/><text fill="#000000" font-family="sans-serif" font-size="14" lengthAdjust="spacing" textLength="13" x="29" y="306.4648">id</text><line style="stroke:#181818;stroke-width:1.0;" x1="10" x2="115" y1="313.418" y2="313.418"/><polygon fill="none" points="20,322.1621,24,326.1621,20,330.1621,16,326.1621" style="stroke:#B38D22;stroke-width:1.0;"/><text fill="#000000" font-family="sans-serif" font-size="14" lengthAdjust="spacing" textLength="79" x="29" y="330.9531">category_id</text><text fill="#000000" font-family="sans-serif" font-size="14" lengthAdjust="spacing" textLength="38" x="29" y="347.4414">name</text></g><!--class novel--><g id="elem_novel"><rect codeLine="26" fill="#F1F1F1" height="91.9531" id="novel" rx="2.5" ry="2.5" style="stroke:#181818;stroke-width:0.5;" width="105" x="151" y="262.4414"/><text fill="#000000" font-family="sans-serif" font-size="14" lengthAdjust="spacing" textLength="77" x="165" y="280.9766">novel : &#23567;&#35500;</text><line style="stroke:#181818;stroke-width:0.5;" x1="152" x2="255" y1="288.9297" y2="288.9297"/><ellipse cx="162" cy="302.6738" fill="#000000" rx="3" ry="3" style="stroke:#000000;stroke-width:1.0;"/><text fill="#000000" font-family="sans-serif" font-size="14" lengthAdjust="spacing" textLength="13" x="171" y="306.4648">id</text><line style="stroke:#181818;stroke-width:1.0;" x1="152" x2="255" y1="313.418" y2="313.418"/><polygon fill="none" points="162,322.1621,166,326.1621,162,330.1621,158,326.1621" style="stroke:#B38D22;stroke-width:1.0;"/><text fill="#000000" font-family="sans-serif" font-size="14" lengthAdjust="spacing" textLength="79" x="171" y="330.9531">category_id</text><text fill="#000000" font-family="sans-serif" font-size="14" lengthAdjust="spacing" textLength="38" x="171" y="347.4414">name</text></g><!--class comments--><g id="elem_comments"><rect codeLine="33" fill="#F1F1F1" height="91.9531" id="comments" rx="2.5" ry="2.5" style="stroke:#181818;stroke-width:0.5;" width="145" x="247" y="110.4414"/><text fill="#000000" font-family="sans-serif" font-size="14" lengthAdjust="spacing" textLength="139" x="250" y="128.9766">comments : &#12467;&#12513;&#12531;&#12488;</text><line style="stroke:#181818;stroke-width:0.5;" x1="248" x2="391" y1="136.9297" y2="136.9297"/><ellipse cx="258" cy="150.6738" fill="#000000" rx="3" ry="3" style="stroke:#000000;stroke-width:1.0;"/><text fill="#000000" font-family="sans-serif" font-size="14" lengthAdjust="spacing" textLength="13" x="267" y="154.4648">id</text><line style="stroke:#181818;stroke-width:1.0;" x1="248" x2="391" y1="161.418" y2="161.418"/><polygon fill="none" points="258,170.1621,262,174.1621,258,178.1621,254,174.1621" style="stroke:#B38D22;stroke-width:1.0;"/><text fill="#000000" font-family="sans-serif" font-size="14" lengthAdjust="spacing" textLength="79" x="267" y="178.9531">category_id</text><text fill="#000000" font-family="sans-serif" font-size="14" lengthAdjust="spacing" textLength="27" x="267" y="195.4414">text</text></g><!--link categories to manga--><g id="link_categories_manga"><path codeLine="40" d="M111.45,202.5414 C103.98,218.5614 95.49,236.7514 87.7,253.4414 " fill="none" id="categories-manga" style="stroke:#181818;stroke-width:1.0;"/><line style="stroke:#181818;stroke-width:1.0;" x1="109.4225" x2="116.6697" y1="197.4412" y2="200.8289"/><line style="stroke:#181818;stroke-width:1.0;" x1="108.1521" x2="115.3993" y1="200.1589" y2="203.5467"/><line style="stroke:#181818;stroke-width:1.0;" x1="111.3522" x2="114.74" y1="202.7587" y2="195.5114"/><line style="stroke:#181818;stroke-width:1.0;" x1="87.7278" x2="89.7755" y1="253.3841" y2="263.1722"/><line style="stroke:#181818;stroke-width:1.0;" x1="87.7278" x2="78.9045" y1="253.3841" y2="258.0906"/><line style="stroke:#181818;stroke-width:1.0;" x1="87.7278" x2="84.34" y1="253.3841" y2="260.6314"/><ellipse cx="90.2686" cy="247.9487" fill="none" rx="4" ry="4" style="stroke:#181818;stroke-width:1.0;"/></g><!--link categories to novel--><g id="link_categories_novel"><path codeLine="41" d="M153.85,202.5414 C161.43,218.5614 170.04,236.7514 177.94,253.4414 " fill="none" id="categories-novel" style="stroke:#181818;stroke-width:1.0;"/><line style="stroke:#181818;stroke-width:1.0;" x1="148.6115" x2="155.8452" y1="200.8266" y2="197.4099"/><line style="stroke:#181818;stroke-width:1.0;" x1="149.8928" x2="157.1265" y1="203.5392" y2="200.1225"/><line style="stroke:#181818;stroke-width:1.0;" x1="153.9367" x2="150.52" y1="202.7351" y2="195.5014"/><line style="stroke:#181818;stroke-width:1.0;" x1="177.9388" x2="186.7772" y1="253.4051" y2="258.083"/><line style="stroke:#181818;stroke-width:1.0;" x1="177.9388" x2="175.9228" y1="253.4051" y2="263.1998"/><line style="stroke:#181818;stroke-width:1.0;" x1="177.9388" x2="181.35" y1="253.4051" y2="260.6414"/><ellipse cx="175.3804" cy="247.9779" fill="none" rx="4" ry="4" style="stroke:#181818;stroke-width:1.0;"/></g><!--link categories to comments--><g id="link_categories_comments"><path codeLine="42" d="M221.86,156.4414 C227.05,156.4414 232.24,156.4414 237.42,156.4414 " fill="none" id="categories-comments" style="stroke:#181818;stroke-width:1.0;"/><line style="stroke:#181818;stroke-width:1.0;" x1="218" x2="218" y1="160.4414" y2="152.4414"/><line style="stroke:#181818;stroke-width:1.0;" x1="221" x2="221" y1="160.4414" y2="152.4414"/><line style="stroke:#181818;stroke-width:1.0;" x1="222" x2="214" y1="156.4414" y2="156.4414"/><line style="stroke:#181818;stroke-width:1.0;" x1="237.25" x2="245.25" y1="156.4414" y2="150.4414"/><line style="stroke:#181818;stroke-width:1.0;" x1="237.25" x2="245.25" y1="156.4414" y2="162.4414"/><line style="stroke:#181818;stroke-width:1.0;" x1="237.25" x2="245.25" y1="156.4414" y2="156.4414"/><ellipse cx="231.25" cy="156.4414" fill="none" rx="4" ry="4" style="stroke:#181818;stroke-width:1.0;"/></g><!--SRC=[KrV8o4n9LIZ9I5KeBiWluGBpaZEBadDIkRXACak0b8lJYnLhNwpeuE9wlwVZSTFgnyqh7pSlU3gXzt7ZkgUT8F9nGuyoKEv5_yQdUnUztzFvk04ekjxD-t7ZyiUDCu42-7Hg0ULUxfxqPCSEkCwd-rjVBkXukQ3r-Unr23EuKlDI82u2ie2CIWMbvCIIrFJyeipKOWKh1R05RO-RjZnkNlMuUO-IGcAn0fA2QYu51QtC522fgmiayX9pKxbg4KRb9kQb9u9CQPxtk7dpuwOrOFqGKJIjob1JA-F1OkWcvUMNfUO0JNgweV_5AeWn427IZ4dEpyq5iY4-s_ouUI78MSqT46_1vF0RMP9QKG8o4YaKQcfqTVEh8Vx28WvsA9fu4KW2PYCN0000]--></g></svg>