<?xml version="1.0" encoding="us-ascii" standalone="no"?><svg xmlns="http://www.w3.org/2000/svg" xmlns:xlink="http://www.w3.org/1999/xlink" contentStyleType="text/css" height="890px" preserveAspectRatio="none" style="width:925px;height:890px;background:#FFFFFF;" version="1.1" viewBox="0 0 925 890" width="925px" zoomAndPan="magnify"><defs/><g><text fill="#000000" font-family="sans-serif" font-size="14" font-weight="bold" lengthAdjust="spacing" textLength="48" x="431.75" y="23.5352">DB&#35373;&#35336;</text><!--class users--><g id="elem_users"><rect codeLine="7" fill="#F1F1F1" height="108.4414" id="users" rx="2.5" ry="2.5" style="stroke:#181818;stroke-width:0.5;" width="167" x="41" y="60.9883"/><text fill="#000000" font-family="sans-serif" font-size="14" lengthAdjust="spacing" textLength="161" x="44" y="79.5234">users : &#12518;&#12540;&#12470;&#12540;&#12486;&#12540;&#12502;&#12523;</text><line style="stroke:#181818;stroke-width:0.5;" x1="42" x2="207" y1="87.4766" y2="87.4766"/><ellipse cx="52" cy="101.2207" fill="#000000" rx="3" ry="3" style="stroke:#000000;stroke-width:1.0;"/><text fill="#000000" font-family="sans-serif" font-size="14" lengthAdjust="spacing" textLength="13" x="61" y="105.0117">id</text><line style="stroke:#181818;stroke-width:1.0;" x1="42" x2="207" y1="111.9648" y2="111.9648"/><ellipse cx="52" cy="125.709" fill="#000000" rx="3" ry="3" style="stroke:#000000;stroke-width:1.0;"/><text fill="#000000" font-family="sans-serif" font-size="14" lengthAdjust="spacing" textLength="38" x="61" y="129.5">name</text><ellipse cx="52" cy="142.1973" fill="#000000" rx="3" ry="3" style="stroke:#000000;stroke-width:1.0;"/><text fill="#000000" font-family="sans-serif" font-size="14" lengthAdjust="spacing" textLength="71" x="61" y="145.9883">created_at</text><ellipse cx="52" cy="158.6855" fill="#000000" rx="3" ry="3" style="stroke:#000000;stroke-width:1.0;"/><text fill="#000000" font-family="sans-serif" font-size="14" lengthAdjust="spacing" textLength="77" x="61" y="162.4766">updated_at</text></g><!--class workspaces--><g id="elem_workspaces"><rect codeLine="15" fill="#F1F1F1" height="124.9297" id="workspaces" rx="2.5" ry="2.5" style="stroke:#181818;stroke-width:0.5;" width="252" x="666.5" y="52.4883"/><text fill="#000000" font-family="sans-serif" font-size="14" lengthAdjust="spacing" textLength="246" x="669.5" y="71.0234">workspaces : &#12527;&#12540;&#12463;&#12473;&#12506;&#12540;&#12473;&#12486;&#12540;&#12502;&#12523;</text><line style="stroke:#181818;stroke-width:0.5;" x1="667.5" x2="917.5" y1="78.9766" y2="78.9766"/><ellipse cx="677.5" cy="92.7207" fill="#000000" rx="3" ry="3" style="stroke:#000000;stroke-width:1.0;"/><text fill="#000000" font-family="sans-serif" font-size="14" lengthAdjust="spacing" textLength="13" x="686.5" y="96.5117">id</text><line style="stroke:#181818;stroke-width:1.0;" x1="667.5" x2="917.5" y1="103.4648" y2="103.4648"/><ellipse cx="677.5" cy="117.209" fill="#000000" rx="3" ry="3" style="stroke:#000000;stroke-width:1.0;"/><text fill="#000000" font-family="sans-serif" font-size="14" lengthAdjust="spacing" textLength="38" x="686.5" y="121">name</text><ellipse cx="677.5" cy="133.6973" fill="#000000" rx="3" ry="3" style="stroke:#000000;stroke-width:1.0;"/><text fill="#000000" font-family="sans-serif" font-size="14" lengthAdjust="spacing" textLength="69" x="686.5" y="137.4883">is_deleted</text><ellipse cx="677.5" cy="150.1855" fill="#000000" rx="3" ry="3" style="stroke:#000000;stroke-width:1.0;"/><text fill="#000000" font-family="sans-serif" font-size="14" lengthAdjust="spacing" textLength="71" x="686.5" y="153.9766">created_at</text><ellipse cx="677.5" cy="166.6738" fill="#000000" rx="3" ry="3" style="stroke:#000000;stroke-width:1.0;"/><text fill="#000000" font-family="sans-serif" font-size="14" lengthAdjust="spacing" textLength="77" x="686.5" y="170.4648">updated_at</text></g><!--class users_workspaces--><g id="elem_users_workspaces"><rect codeLine="24" fill="#F1F1F1" height="141.418" id="users_workspaces" rx="2.5" ry="2.5" style="stroke:#181818;stroke-width:0.5;" width="388" x="243.5" y="44.4883"/><text fill="#000000" font-family="sans-serif" font-size="14" lengthAdjust="spacing" textLength="382" x="246.5" y="63.0234">users_workspaces : &#12518;&#12540;&#12470;&#12540; &#12527;&#12540;&#12463;&#12473;&#12506;&#12540;&#12473; &#20013;&#38291;&#12486;&#12540;&#12502;&#12523;</text><line style="stroke:#181818;stroke-width:0.5;" x1="244.5" x2="630.5" y1="70.9766" y2="70.9766"/><ellipse cx="254.5" cy="84.7207" fill="#000000" rx="3" ry="3" style="stroke:#000000;stroke-width:1.0;"/><text fill="#000000" font-family="sans-serif" font-size="14" lengthAdjust="spacing" textLength="13" x="263.5" y="88.5117">id</text><line style="stroke:#181818;stroke-width:1.0;" x1="244.5" x2="630.5" y1="95.4648" y2="95.4648"/><polygon fill="none" points="254.5,104.209,258.5,108.209,254.5,112.209,250.5,108.209" style="stroke:#B38D22;stroke-width:1.0;"/><text fill="#000000" font-family="sans-serif" font-size="14" lengthAdjust="spacing" textLength="50" x="263.5" y="113">user_id</text><polygon fill="none" points="254.5,120.6973,258.5,124.6973,254.5,128.6973,250.5,124.6973" style="stroke:#B38D22;stroke-width:1.0;"/><text fill="#000000" font-family="sans-serif" font-size="14" lengthAdjust="spacing" textLength="93" x="263.5" y="129.4883">workspace_id</text><ellipse cx="254.5" cy="142.1855" fill="#000000" rx="3" ry="3" style="stroke:#000000;stroke-width:1.0;"/><text fill="#000000" font-family="sans-serif" font-size="14" lengthAdjust="spacing" textLength="69" x="263.5" y="145.9766">is_deleted</text><ellipse cx="254.5" cy="158.6738" fill="#000000" rx="3" ry="3" style="stroke:#000000;stroke-width:1.0;"/><text fill="#000000" font-family="sans-serif" font-size="14" lengthAdjust="spacing" textLength="71" x="263.5" y="162.4648">created_at</text><ellipse cx="254.5" cy="175.1621" fill="#000000" rx="3" ry="3" style="stroke:#000000;stroke-width:1.0;"/><text fill="#000000" font-family="sans-serif" font-size="14" lengthAdjust="spacing" textLength="77" x="263.5" y="178.9531">updated_at</text></g><!--class channels--><g id="elem_channels"><rect codeLine="34" fill="#F1F1F1" height="141.418" id="channels" rx="2.5" ry="2.5" style="stroke:#181818;stroke-width:0.5;" width="205" x="562" y="306.4883"/><text fill="#000000" font-family="sans-serif" font-size="14" lengthAdjust="spacing" textLength="199" x="565" y="325.0234">channels : &#12481;&#12515;&#12531;&#12493;&#12523;&#12486;&#12540;&#12502;&#12523;</text><line style="stroke:#181818;stroke-width:0.5;" x1="563" x2="766" y1="332.9766" y2="332.9766"/><ellipse cx="573" cy="346.7207" fill="#000000" rx="3" ry="3" style="stroke:#000000;stroke-width:1.0;"/><text fill="#000000" font-family="sans-serif" font-size="14" lengthAdjust="spacing" textLength="13" x="582" y="350.5117">id</text><line style="stroke:#181818;stroke-width:1.0;" x1="563" x2="766" y1="357.4648" y2="357.4648"/><polygon fill="none" points="573,366.209,577,370.209,573,374.209,569,370.209" style="stroke:#B38D22;stroke-width:1.0;"/><text fill="#000000" font-family="sans-serif" font-size="14" lengthAdjust="spacing" textLength="93" x="582" y="375">workspace_id</text><ellipse cx="573" cy="387.6973" fill="#000000" rx="3" ry="3" style="stroke:#000000;stroke-width:1.0;"/><text fill="#000000" font-family="sans-serif" font-size="14" lengthAdjust="spacing" textLength="38" x="582" y="391.4883">name</text><ellipse cx="573" cy="404.1855" fill="#000000" rx="3" ry="3" style="stroke:#000000;stroke-width:1.0;"/><text fill="#000000" font-family="sans-serif" font-size="14" lengthAdjust="spacing" textLength="69" x="582" y="407.9766">is_deleted</text><ellipse cx="573" cy="420.6738" fill="#000000" rx="3" ry="3" style="stroke:#000000;stroke-width:1.0;"/><text fill="#000000" font-family="sans-serif" font-size="14" lengthAdjust="spacing" textLength="71" x="582" y="424.4648">created_at</text><ellipse cx="573" cy="437.1621" fill="#000000" rx="3" ry="3" style="stroke:#000000;stroke-width:1.0;"/><text fill="#000000" font-family="sans-serif" font-size="14" lengthAdjust="spacing" textLength="77" x="582" y="440.9531">updated_at</text></g><!--class users_channels--><g id="elem_users_channels"><rect codeLine="44" fill="#F1F1F1" height="141.418" id="users_channels" rx="2.5" ry="2.5" style="stroke:#181818;stroke-width:0.5;" width="313" x="214" y="306.4883"/><text fill="#000000" font-family="sans-serif" font-size="14" lengthAdjust="spacing" textLength="307" x="217" y="325.0234">users_channels : &#12518;&#12540;&#12470;&#12540; &#12481;&#12515;&#12531;&#12493;&#12523; &#12486;&#12540;&#12502;&#12523;</text><line style="stroke:#181818;stroke-width:0.5;" x1="215" x2="526" y1="332.9766" y2="332.9766"/><ellipse cx="225" cy="346.7207" fill="#000000" rx="3" ry="3" style="stroke:#000000;stroke-width:1.0;"/><text fill="#000000" font-family="sans-serif" font-size="14" lengthAdjust="spacing" textLength="13" x="234" y="350.5117">id</text><line style="stroke:#181818;stroke-width:1.0;" x1="215" x2="526" y1="357.4648" y2="357.4648"/><polygon fill="none" points="225,366.209,229,370.209,225,374.209,221,370.209" style="stroke:#B38D22;stroke-width:1.0;"/><text fill="#000000" font-family="sans-serif" font-size="14" lengthAdjust="spacing" textLength="50" x="234" y="375">user_id</text><polygon fill="none" points="225,382.6973,229,386.6973,225,390.6973,221,386.6973" style="stroke:#B38D22;stroke-width:1.0;"/><text fill="#000000" font-family="sans-serif" font-size="14" lengthAdjust="spacing" textLength="74" x="234" y="391.4883">channel_id</text><ellipse cx="225" cy="404.1855" fill="#000000" rx="3" ry="3" style="stroke:#000000;stroke-width:1.0;"/><text fill="#000000" font-family="sans-serif" font-size="14" lengthAdjust="spacing" textLength="69" x="234" y="407.9766">is_deleted</text><ellipse cx="225" cy="420.6738" fill="#000000" rx="3" ry="3" style="stroke:#000000;stroke-width:1.0;"/><text fill="#000000" font-family="sans-serif" font-size="14" lengthAdjust="spacing" textLength="71" x="234" y="424.4648">created_at</text><ellipse cx="225" cy="437.1621" fill="#000000" rx="3" ry="3" style="stroke:#000000;stroke-width:1.0;"/><text fill="#000000" font-family="sans-serif" font-size="14" lengthAdjust="spacing" textLength="77" x="234" y="440.9531">updated_at</text></g><!--class messages--><g id="elem_messages"><rect codeLine="54" fill="#F1F1F1" height="157.9063" id="messages" rx="2.5" ry="2.5" style="stroke:#181818;stroke-width:0.5;" width="211" x="143" y="507.4883"/><text fill="#000000" font-family="sans-serif" font-size="14" lengthAdjust="spacing" textLength="205" x="146" y="526.0234">messages : &#12513;&#12483;&#12475;&#12540;&#12472;&#12486;&#12540;&#12502;&#12523;</text><line style="stroke:#181818;stroke-width:0.5;" x1="144" x2="353" y1="533.9766" y2="533.9766"/><ellipse cx="154" cy="547.7207" fill="#000000" rx="3" ry="3" style="stroke:#000000;stroke-width:1.0;"/><text fill="#000000" font-family="sans-serif" font-size="14" lengthAdjust="spacing" textLength="13" x="163" y="551.5117">id</text><line style="stroke:#181818;stroke-width:1.0;" x1="144" x2="353" y1="558.4648" y2="558.4648"/><polygon fill="none" points="154,567.209,158,571.209,154,575.209,150,571.209" style="stroke:#B38D22;stroke-width:1.0;"/><text fill="#000000" font-family="sans-serif" font-size="14" lengthAdjust="spacing" textLength="50" x="163" y="576">user_id</text><polygon fill="none" points="154,583.6973,158,587.6973,154,591.6973,150,587.6973" style="stroke:#B38D22;stroke-width:1.0;"/><text fill="#000000" font-family="sans-serif" font-size="14" lengthAdjust="spacing" textLength="74" x="163" y="592.4883">channel_id</text><text fill="#000000" font-family="sans-serif" font-size="14" lengthAdjust="spacing" textLength="52" x="163" y="608.9766">content</text><ellipse cx="154" cy="621.6738" fill="#000000" rx="3" ry="3" style="stroke:#000000;stroke-width:1.0;"/><text fill="#000000" font-family="sans-serif" font-size="14" lengthAdjust="spacing" textLength="69" x="163" y="625.4648">is_deleted</text><ellipse cx="154" cy="638.1621" fill="#000000" rx="3" ry="3" style="stroke:#000000;stroke-width:1.0;"/><text fill="#000000" font-family="sans-serif" font-size="14" lengthAdjust="spacing" textLength="71" x="163" y="641.9531">created_at</text><ellipse cx="154" cy="654.6504" fill="#000000" rx="3" ry="3" style="stroke:#000000;stroke-width:1.0;"/><text fill="#000000" font-family="sans-serif" font-size="14" lengthAdjust="spacing" textLength="77" x="163" y="658.4414">updated_at</text></g><!--class thread_messages--><g id="elem_thread_messages"><rect codeLine="65" fill="#F1F1F1" height="157.9063" id="thread_messages" rx="2.5" ry="2.5" style="stroke:#181818;stroke-width:0.5;" width="319" x="9" y="725.4883"/><text fill="#000000" font-family="sans-serif" font-size="14" lengthAdjust="spacing" textLength="313" x="12" y="744.0234">thread_messages : &#12473;&#12524;&#12483;&#12489;&#12513;&#12483;&#12475;&#12540;&#12472;&#12486;&#12540;&#12502;&#12523;</text><line style="stroke:#181818;stroke-width:0.5;" x1="10" x2="327" y1="751.9766" y2="751.9766"/><ellipse cx="20" cy="765.7207" fill="#000000" rx="3" ry="3" style="stroke:#000000;stroke-width:1.0;"/><text fill="#000000" font-family="sans-serif" font-size="14" lengthAdjust="spacing" textLength="13" x="29" y="769.5117">id</text><line style="stroke:#181818;stroke-width:1.0;" x1="10" x2="327" y1="776.4648" y2="776.4648"/><polygon fill="none" points="20,785.209,24,789.209,20,793.209,16,789.209" style="stroke:#B38D22;stroke-width:1.0;"/><text fill="#000000" font-family="sans-serif" font-size="14" lengthAdjust="spacing" textLength="50" x="29" y="794">user_id</text><polygon fill="none" points="20,801.6973,24,805.6973,20,809.6973,16,805.6973" style="stroke:#B38D22;stroke-width:1.0;"/><text fill="#000000" font-family="sans-serif" font-size="14" lengthAdjust="spacing" textLength="73" x="29" y="810.4883">mesage_id</text><text fill="#000000" font-family="sans-serif" font-size="14" lengthAdjust="spacing" textLength="52" x="29" y="826.9766">content</text><ellipse cx="20" cy="839.6738" fill="#000000" rx="3" ry="3" style="stroke:#000000;stroke-width:1.0;"/><text fill="#000000" font-family="sans-serif" font-size="14" lengthAdjust="spacing" textLength="69" x="29" y="843.4648">is_deleted</text><ellipse cx="20" cy="856.1621" fill="#000000" rx="3" ry="3" style="stroke:#000000;stroke-width:1.0;"/><text fill="#000000" font-family="sans-serif" font-size="14" lengthAdjust="spacing" textLength="71" x="29" y="859.9531">created_at</text><ellipse cx="20" cy="872.6504" fill="#000000" rx="3" ry="3" style="stroke:#000000;stroke-width:1.0;"/><text fill="#000000" font-family="sans-serif" font-size="14" lengthAdjust="spacing" textLength="77" x="29" y="876.4414">updated_at</text></g><!--link users to users_workspaces--><g id="link_users_users_workspaces"><path codeLine="76" d="M217.53,114.9883 C223.01,114.9883 228.48,114.9883 233.96,114.9883 " fill="none" id="users-users_workspaces" style="stroke:#181818;stroke-width:1.0;"/><line style="stroke:#181818;stroke-width:1.0;" x1="213.77" x2="213.77" y1="118.9883" y2="110.9883"/><line style="stroke:#181818;stroke-width:1.0;" x1="216.77" x2="216.77" y1="118.9883" y2="110.9883"/><line style="stroke:#181818;stroke-width:1.0;" x1="217.77" x2="209.77" y1="114.9883" y2="114.9883"/><line style="stroke:#181818;stroke-width:1.0;" x1="233.66" x2="241.66" y1="114.9883" y2="108.9883"/><line style="stroke:#181818;stroke-width:1.0;" x1="233.66" x2="241.66" y1="114.9883" y2="120.9883"/><line style="stroke:#181818;stroke-width:1.0;" x1="233.66" x2="241.66" y1="114.9883" y2="114.9883"/><line style="stroke:#181818;stroke-width:1.0;" x1="231.66" x2="231.66" y1="110.9883" y2="118.9883"/></g><!--link users_workspaces to workspaces--><g id="link_users_workspaces_workspaces"><path codeLine="77" d="M641.33,114.9883 C646.5,114.9883 651.68,114.9883 656.85,114.9883 " fill="none" id="users_workspaces-workspaces" style="stroke:#181818;stroke-width:1.0;"/><line style="stroke:#181818;stroke-width:1.0;" x1="641.5" x2="633.5" y1="114.9883" y2="120.9883"/><line style="stroke:#181818;stroke-width:1.0;" x1="641.5" x2="633.5" y1="114.9883" y2="108.9883"/><line style="stroke:#181818;stroke-width:1.0;" x1="641.5" x2="633.5" y1="114.9883" y2="114.9883"/><line style="stroke:#181818;stroke-width:1.0;" x1="643.5" x2="643.5" y1="118.9883" y2="110.9883"/><line style="stroke:#181818;stroke-width:1.0;" x1="660.65" x2="660.65" y1="110.9883" y2="118.9883"/><line style="stroke:#181818;stroke-width:1.0;" x1="657.65" x2="657.65" y1="110.9883" y2="118.9883"/><line style="stroke:#181818;stroke-width:1.0;" x1="656.65" x2="664.65" y1="114.9883" y2="114.9883"/></g><!--link workspaces to channels--><g id="link_workspaces_channels"><path codeLine="78" d="M757.92,186.2383 C740.94,220.7183 720.43,262.3683 702.96,297.8583 " fill="none" id="workspaces-channels" style="stroke:#181818;stroke-width:1.0;"/><line style="stroke:#181818;stroke-width:1.0;" x1="755.9721" x2="763.1446" y1="181.1028" y2="184.6462"/><line style="stroke:#181818;stroke-width:1.0;" x1="754.6433" x2="761.8158" y1="183.7925" y2="187.3359"/><line style="stroke:#181818;stroke-width:1.0;" x1="757.7866" x2="761.33" y1="186.4608" y2="179.2883"/><line style="stroke:#181818;stroke-width:1.0;" x1="703.0162" x2="704.8757" y1="297.7274" y2="307.5529"/><line style="stroke:#181818;stroke-width:1.0;" x1="703.0162" x2="694.1043" y1="297.7274" y2="302.2636"/><line style="stroke:#181818;stroke-width:1.0;" x1="703.0162" x2="699.49" y1="297.7274" y2="304.9083"/><line style="stroke:#181818;stroke-width:1.0;" x1="707.4882" x2="700.3073" y1="297.6952" y2="294.169"/></g><!--link users to users_channels--><g id="link_users_users_channels"><path codeLine="80" d="M181.13,175.8383 C215.84,212.5283 260.62,259.8583 297.92,299.2783 " fill="none" id="users-users_channels" style="stroke:#181818;stroke-width:1.0;"/><line style="stroke:#181818;stroke-width:1.0;" x1="175.7629" x2="181.5747" y1="175.983" y2="170.4854"/><line style="stroke:#181818;stroke-width:1.0;" x1="177.8245" x2="183.6363" y1="178.1624" y2="172.6648"/><line style="stroke:#181818;stroke-width:1.0;" x1="181.4176" x2="175.92" y1="176.14" y2="170.3283"/><line style="stroke:#181818;stroke-width:1.0;" x1="297.7724" x2="307.6288" y1="299.1165" y2="300.8051"/><line style="stroke:#181818;stroke-width:1.0;" x1="297.7724" x2="298.9112" y1="299.1165" y2="309.0515"/><line style="stroke:#181818;stroke-width:1.0;" x1="297.7724" x2="303.27" y1="299.1165" y2="304.9283"/><line style="stroke:#181818;stroke-width:1.0;" x1="299.3039" x2="293.4921" y1="294.9148" y2="300.4124"/></g><!--link users_channels to channels--><g id="link_users_channels_channels"><path codeLine="81" d="M536.64,376.9883 C541.84,376.9883 547.03,376.9883 552.22,376.9883 " fill="none" id="users_channels-channels" style="stroke:#181818;stroke-width:1.0;"/><line style="stroke:#181818;stroke-width:1.0;" x1="536.78" x2="528.78" y1="376.9883" y2="382.9883"/><line style="stroke:#181818;stroke-width:1.0;" x1="536.78" x2="528.78" y1="376.9883" y2="370.9883"/><line style="stroke:#181818;stroke-width:1.0;" x1="536.78" x2="528.78" y1="376.9883" y2="376.9883"/><line style="stroke:#181818;stroke-width:1.0;" x1="538.78" x2="538.78" y1="380.9883" y2="372.9883"/><line style="stroke:#181818;stroke-width:1.0;" x1="556.06" x2="556.06" y1="372.9883" y2="380.9883"/><line style="stroke:#181818;stroke-width:1.0;" x1="553.06" x2="553.06" y1="372.9883" y2="380.9883"/><line style="stroke:#181818;stroke-width:1.0;" x1="552.06" x2="560.06" y1="376.9883" y2="376.9883"/></g><!--link users to messages--><g id="link_users_messages"><path codeLine="83" d="M135.27,178.6083 C147.47,245.7783 169.26,355.2383 196.5,447.4883 C201.44,464.2183 207.43,481.8183 213.57,498.6383 " fill="none" id="users-messages" style="stroke:#181818;stroke-width:1.0;"/><line style="stroke:#181818;stroke-width:1.0;" x1="130.6504" x2="138.5243" y1="175.5426" y2="174.1279"/><line style="stroke:#181818;stroke-width:1.0;" x1="131.1809" x2="139.0548" y1="178.4953" y2="177.0806"/><line style="stroke:#181818;stroke-width:1.0;" x1="135.2947" x2="133.88" y1="178.7722" y2="170.8983"/><line style="stroke:#181818;stroke-width:1.0;" x1="213.4917" x2="221.8893" y1="498.4225" y2="503.8521"/><line style="stroke:#181818;stroke-width:1.0;" x1="213.4917" x2="210.6307" y1="498.4225" y2="508.0045"/><line style="stroke:#181818;stroke-width:1.0;" x1="213.4917" x2="216.26" y1="498.4225" y2="505.9283"/><ellipse cx="211.4155" cy="492.7932" fill="none" rx="4" ry="4" style="stroke:#181818;stroke-width:1.0;"/></g><!--link channels to messages--><g id="link_channels_messages"><path codeLine="84" d="M553.6,442.6783 C550.54,444.3183 547.51,445.9183 544.5,447.4883 C485.44,478.2783 418.26,509.8683 362.84,535.0483 " fill="none" id="channels-messages" style="stroke:#181818;stroke-width:1.0;"/><line style="stroke:#181818;stroke-width:1.0;" x1="554.9803" x2="558.7791" y1="437.3974" y2="444.4379"/><line style="stroke:#181818;stroke-width:1.0;" x1="552.3401" x2="556.1389" y1="438.8219" y2="445.8625"/><line style="stroke:#181818;stroke-width:1.0;" x1="553.3594" x2="560.4" y1="442.817" y2="439.0183"/><line style="stroke:#181818;stroke-width:1.0;" x1="363.0673" x2="358.2555" y1="534.9475" y2="543.7138"/><line style="stroke:#181818;stroke-width:1.0;" x1="363.0673" x2="353.3045" y1="534.9475" y2="532.7828"/><line style="stroke:#181818;stroke-width:1.0;" x1="363.0673" x2="355.78" y1="534.9475" y2="538.2483"/><ellipse cx="368.5328" cy="532.472" fill="none" rx="4" ry="4" style="stroke:#181818;stroke-width:1.0;"/></g><!--link users to thread_messages--><g id="link_users_thread_messages"><path codeLine="86" d="M118.55,178.7283 C110.19,281.2583 98.76,490.8283 125.5,665.4883 C128.07,682.2783 132.29,699.8483 137.1,716.5983 " fill="none" id="users-thread_messages" style="stroke:#181818;stroke-width:1.0;"/><line style="stroke:#181818;stroke-width:1.0;" x1="114.8849" x2="122.8578" y1="174.6061" y2="175.2634"/><line style="stroke:#181818;stroke-width:1.0;" x1="114.6384" x2="122.6114" y1="177.596" y2="178.2533"/><line style="stroke:#181818;stroke-width:1.0;" x1="118.5427" x2="119.2" y1="178.9212" y2="170.9483"/><line style="stroke:#181818;stroke-width:1.0;" x1="136.9688" x2="144.9931" y1="716.1475" y2="722.1148"/><line style="stroke:#181818;stroke-width:1.0;" x1="136.9688" x2="133.4869" y1="716.1475" y2="725.5217"/><line style="stroke:#181818;stroke-width:1.0;" x1="136.9688" x2="139.24" y1="716.1475" y2="723.8183"/><ellipse cx="135.2653" cy="710.3944" fill="none" rx="4" ry="4" style="stroke:#181818;stroke-width:1.0;"/></g><!--link messages to thread_messages--><g id="link_messages_thread_messages"><path codeLine="87" d="M216.29,674.4583 C211.15,688.3283 205.84,702.6783 200.7,716.5383 " fill="none" id="messages-thread_messages" style="stroke:#181818;stroke-width:1.0;"/><line style="stroke:#181818;stroke-width:1.0;" x1="213.8415" x2="221.3456" y1="669.5638" y2="672.3368"/><line style="stroke:#181818;stroke-width:1.0;" x1="212.8017" x2="220.3057" y1="672.3779" y2="675.1508"/><line style="stroke:#181818;stroke-width:1.0;" x1="216.2071" x2="218.98" y1="674.7023" y2="667.1983"/><line style="stroke:#181818;stroke-width:1.0;" x1="200.8455" x2="203.6846" y1="716.1889" y2="725.7774"/><line style="stroke:#181818;stroke-width:1.0;" x1="200.8455" x2="192.4354" y1="716.1889" y2="721.5992"/><line style="stroke:#181818;stroke-width:1.0;" x1="200.8455" x2="198.06" y1="716.1889" y2="723.6883"/><ellipse cx="202.9346" cy="710.5643" fill="none" rx="4" ry="4" style="stroke:#181818;stroke-width:1.0;"/></g><!--SRC=[fPF1IiCm6CVlUOgFxI08VG6FudkKq7pOOjUE9aDasy45H0-UX1syYI037Ji8ig5l4m_pBKpIhMlQLSTsIVir_w__N_v9ZY2C68884NWt5SHMGPG5CH8Y8X4Zd9qk9zFbv9OGJFINAsZrE6OSJa395oM_rEZ3ZFB6ZcCbNrj0EUIYFW4uZfWUFS-y9hI3vXbaI0KodmfJzRfiNGqtDfTfTi6xDC3SQsQzPcgqKFBHlYzgfgMM9kU8-mnZr7QxSjYL-1MQpSgtey7tVFepVjWUYz_CsJO2tzRjGfNNUw078KqIZ7FaQoMVbNnNybx3rC0AQHMeId5ea0wJ4wC320tHDNAMWbjfzewjWvpJyzLEFoafrUZJWivhK8LqLvmWJOJssGzCX5h4_3AVENDl1b7U_STQxVu3MMkqv03Y_FeF1bxc3VgrKqzA5q1huXqq7ZEYzUwN3F89zt2GufIuVz_MdlQBJNJQc3FZDbII94Mawxwgu1S0]--></g></svg>