<?xml version="1.0" encoding="us-ascii" standalone="no"?><svg xmlns="http://www.w3.org/2000/svg" xmlns:xlink="http://www.w3.org/1999/xlink" contentStyleType="text/css" height="956px" preserveAspectRatio="none" style="width:925px;height:956px;background:#FFFFFF;" version="1.1" viewBox="0 0 925 956" width="925px" zoomAndPan="magnify"><defs/><g><text fill="#000000" font-family="sans-serif" font-size="14" font-weight="bold" lengthAdjust="spacing" textLength="48" x="431.75" y="23.5352">DB&#35373;&#35336;</text><text fill="#000000" font-family="sans-serif" font-size="14" font-weight="bold" lengthAdjust="spacing" textLength="5" x="453.25" y="40.0234">&#160;</text><text fill="#000000" font-family="sans-serif" font-size="14" font-weight="bold" lengthAdjust="spacing" textLength="223" x="344.25" y="56.5117">&#65288;&#12459;&#12521;&#12512;&#21517;&#12398;&#21069;&#12398;&#12300;#&#12301;&#12399;FK&#12391;&#12377;&#65289;</text><text fill="#000000" font-family="sans-serif" font-size="14" font-weight="bold" lengthAdjust="spacing" textLength="259" x="326.25" y="73">&#65288;&#12459;&#12521;&#12512;&#21517;&#12398;&#21069;&#12398;&#12300;*&#12301;&#12399;&#24517;&#38920;&#38917;&#30446;&#12391;&#12377;&#65289;</text><text fill="#000000" font-family="sans-serif" font-size="14" font-weight="bold" lengthAdjust="spacing" textLength="5" x="453.25" y="89.4883">&#160;</text><!--class users--><g id="elem_users"><rect codeLine="17" fill="#F1F1F1" height="108.4414" id="users" rx="2.5" ry="2.5" style="stroke:#181818;stroke-width:0.5;" width="167" x="41" y="126.9414"/><text fill="#000000" font-family="sans-serif" font-size="14" lengthAdjust="spacing" textLength="161" x="44" y="145.4766">users : &#12518;&#12540;&#12470;&#12540;&#12486;&#12540;&#12502;&#12523;</text><line style="stroke:#181818;stroke-width:0.5;" x1="42" x2="207" y1="153.4297" y2="153.4297"/><ellipse cx="52" cy="167.1738" fill="#000000" rx="3" ry="3" style="stroke:#000000;stroke-width:1.0;"/><text fill="#000000" font-family="sans-serif" font-size="14" lengthAdjust="spacing" textLength="13" x="61" y="170.9648">id</text><line style="stroke:#181818;stroke-width:1.0;" x1="42" x2="207" y1="177.918" y2="177.918"/><ellipse cx="52" cy="191.6621" fill="#000000" rx="3" ry="3" style="stroke:#000000;stroke-width:1.0;"/><text fill="#000000" font-family="sans-serif" font-size="14" lengthAdjust="spacing" textLength="38" x="61" y="195.4531">name</text><ellipse cx="52" cy="208.1504" fill="#000000" rx="3" ry="3" style="stroke:#000000;stroke-width:1.0;"/><text fill="#000000" font-family="sans-serif" font-size="14" lengthAdjust="spacing" textLength="71" x="61" y="211.9414">created_at</text><ellipse cx="52" cy="224.6387" fill="#000000" rx="3" ry="3" style="stroke:#000000;stroke-width:1.0;"/><text fill="#000000" font-family="sans-serif" font-size="14" lengthAdjust="spacing" textLength="77" x="61" y="228.4297">updated_at</text></g><!--class workspaces--><g id="elem_workspaces"><rect codeLine="25" fill="#F1F1F1" height="124.9297" id="workspaces" rx="2.5" ry="2.5" style="stroke:#181818;stroke-width:0.5;" width="252" x="666.5" y="118.4414"/><text fill="#000000" font-family="sans-serif" font-size="14" lengthAdjust="spacing" textLength="246" x="669.5" y="136.9766">workspaces : &#12527;&#12540;&#12463;&#12473;&#12506;&#12540;&#12473;&#12486;&#12540;&#12502;&#12523;</text><line style="stroke:#181818;stroke-width:0.5;" x1="667.5" x2="917.5" y1="144.9297" y2="144.9297"/><ellipse cx="677.5" cy="158.6738" fill="#000000" rx="3" ry="3" style="stroke:#000000;stroke-width:1.0;"/><text fill="#000000" font-family="sans-serif" font-size="14" lengthAdjust="spacing" textLength="13" x="686.5" y="162.4648">id</text><line style="stroke:#181818;stroke-width:1.0;" x1="667.5" x2="917.5" y1="169.418" y2="169.418"/><ellipse cx="677.5" cy="183.1621" fill="#000000" rx="3" ry="3" style="stroke:#000000;stroke-width:1.0;"/><text fill="#000000" font-family="sans-serif" font-size="14" lengthAdjust="spacing" textLength="38" x="686.5" y="186.9531">name</text><ellipse cx="677.5" cy="199.6504" fill="#000000" rx="3" ry="3" style="stroke:#000000;stroke-width:1.0;"/><text fill="#000000" font-family="sans-serif" font-size="14" lengthAdjust="spacing" textLength="69" x="686.5" y="203.4414">is_deleted</text><ellipse cx="677.5" cy="216.1387" fill="#000000" rx="3" ry="3" style="stroke:#000000;stroke-width:1.0;"/><text fill="#000000" font-family="sans-serif" font-size="14" lengthAdjust="spacing" textLength="71" x="686.5" y="219.9297">created_at</text><ellipse cx="677.5" cy="232.627" fill="#000000" rx="3" ry="3" style="stroke:#000000;stroke-width:1.0;"/><text fill="#000000" font-family="sans-serif" font-size="14" lengthAdjust="spacing" textLength="77" x="686.5" y="236.418">updated_at</text></g><!--class users_workspaces--><g id="elem_users_workspaces"><rect codeLine="34" fill="#F1F1F1" height="141.418" id="users_workspaces" rx="2.5" ry="2.5" style="stroke:#181818;stroke-width:0.5;" width="388" x="243.5" y="110.4414"/><text fill="#000000" font-family="sans-serif" font-size="14" lengthAdjust="spacing" textLength="382" x="246.5" y="128.9766">users_workspaces : &#12518;&#12540;&#12470;&#12540; &#12527;&#12540;&#12463;&#12473;&#12506;&#12540;&#12473; &#20013;&#38291;&#12486;&#12540;&#12502;&#12523;</text><line style="stroke:#181818;stroke-width:0.5;" x1="244.5" x2="630.5" y1="136.9297" y2="136.9297"/><ellipse cx="254.5" cy="150.6738" fill="#000000" rx="3" ry="3" style="stroke:#000000;stroke-width:1.0;"/><text fill="#000000" font-family="sans-serif" font-size="14" lengthAdjust="spacing" textLength="13" x="263.5" y="154.4648">id</text><line style="stroke:#181818;stroke-width:1.0;" x1="244.5" x2="630.5" y1="161.418" y2="161.418"/><polygon fill="none" points="254.5,170.1621,258.5,174.1621,254.5,178.1621,250.5,174.1621" style="stroke:#B38D22;stroke-width:1.0;"/><text fill="#000000" font-family="sans-serif" font-size="14" lengthAdjust="spacing" textLength="50" x="263.5" y="178.9531">user_id</text><polygon fill="none" points="254.5,186.6504,258.5,190.6504,254.5,194.6504,250.5,190.6504" style="stroke:#B38D22;stroke-width:1.0;"/><text fill="#000000" font-family="sans-serif" font-size="14" lengthAdjust="spacing" textLength="93" x="263.5" y="195.4414">workspace_id</text><ellipse cx="254.5" cy="208.1387" fill="#000000" rx="3" ry="3" style="stroke:#000000;stroke-width:1.0;"/><text fill="#000000" font-family="sans-serif" font-size="14" lengthAdjust="spacing" textLength="69" x="263.5" y="211.9297">is_deleted</text><ellipse cx="254.5" cy="224.627" fill="#000000" rx="3" ry="3" style="stroke:#000000;stroke-width:1.0;"/><text fill="#000000" font-family="sans-serif" font-size="14" lengthAdjust="spacing" textLength="71" x="263.5" y="228.418">created_at</text><ellipse cx="254.5" cy="241.1152" fill="#000000" rx="3" ry="3" style="stroke:#000000;stroke-width:1.0;"/><text fill="#000000" font-family="sans-serif" font-size="14" lengthAdjust="spacing" textLength="77" x="263.5" y="244.9063">updated_at</text></g><!--class channels--><g id="elem_channels"><rect codeLine="44" fill="#F1F1F1" height="141.418" id="channels" rx="2.5" ry="2.5" style="stroke:#181818;stroke-width:0.5;" width="205" x="590" y="372.4414"/><text fill="#000000" font-family="sans-serif" font-size="14" lengthAdjust="spacing" textLength="199" x="593" y="390.9766">channels : &#12481;&#12515;&#12531;&#12493;&#12523;&#12486;&#12540;&#12502;&#12523;</text><line style="stroke:#181818;stroke-width:0.5;" x1="591" x2="794" y1="398.9297" y2="398.9297"/><ellipse cx="601" cy="412.6738" fill="#000000" rx="3" ry="3" style="stroke:#000000;stroke-width:1.0;"/><text fill="#000000" font-family="sans-serif" font-size="14" lengthAdjust="spacing" textLength="13" x="610" y="416.4648">id</text><line style="stroke:#181818;stroke-width:1.0;" x1="591" x2="794" y1="423.418" y2="423.418"/><polygon fill="none" points="601,432.1621,605,436.1621,601,440.1621,597,436.1621" style="stroke:#B38D22;stroke-width:1.0;"/><text fill="#000000" font-family="sans-serif" font-size="14" lengthAdjust="spacing" textLength="93" x="610" y="440.9531">workspace_id</text><ellipse cx="601" cy="453.6504" fill="#000000" rx="3" ry="3" style="stroke:#000000;stroke-width:1.0;"/><text fill="#000000" font-family="sans-serif" font-size="14" lengthAdjust="spacing" textLength="38" x="610" y="457.4414">name</text><ellipse cx="601" cy="470.1387" fill="#000000" rx="3" ry="3" style="stroke:#000000;stroke-width:1.0;"/><text fill="#000000" font-family="sans-serif" font-size="14" lengthAdjust="spacing" textLength="69" x="610" y="473.9297">is_deleted</text><ellipse cx="601" cy="486.627" fill="#000000" rx="3" ry="3" style="stroke:#000000;stroke-width:1.0;"/><text fill="#000000" font-family="sans-serif" font-size="14" lengthAdjust="spacing" textLength="71" x="610" y="490.418">created_at</text><ellipse cx="601" cy="503.1152" fill="#000000" rx="3" ry="3" style="stroke:#000000;stroke-width:1.0;"/><text fill="#000000" font-family="sans-serif" font-size="14" lengthAdjust="spacing" textLength="77" x="610" y="506.9063">updated_at</text></g><!--class users_channels--><g id="elem_users_channels"><rect codeLine="54" fill="#F1F1F1" height="141.418" id="users_channels" rx="2.5" ry="2.5" style="stroke:#181818;stroke-width:0.5;" width="341" x="214" y="372.4414"/><text fill="#000000" font-family="sans-serif" font-size="14" lengthAdjust="spacing" textLength="335" x="217" y="390.9766">users_channels : &#12518;&#12540;&#12470;&#12540; &#12481;&#12515;&#12531;&#12493;&#12523; &#20013;&#38291;&#12486;&#12540;&#12502;&#12523;</text><line style="stroke:#181818;stroke-width:0.5;" x1="215" x2="554" y1="398.9297" y2="398.9297"/><ellipse cx="225" cy="412.6738" fill="#000000" rx="3" ry="3" style="stroke:#000000;stroke-width:1.0;"/><text fill="#000000" font-family="sans-serif" font-size="14" lengthAdjust="spacing" textLength="13" x="234" y="416.4648">id</text><line style="stroke:#181818;stroke-width:1.0;" x1="215" x2="554" y1="423.418" y2="423.418"/><polygon fill="none" points="225,432.1621,229,436.1621,225,440.1621,221,436.1621" style="stroke:#B38D22;stroke-width:1.0;"/><text fill="#000000" font-family="sans-serif" font-size="14" lengthAdjust="spacing" textLength="50" x="234" y="440.9531">user_id</text><polygon fill="none" points="225,448.6504,229,452.6504,225,456.6504,221,452.6504" style="stroke:#B38D22;stroke-width:1.0;"/><text fill="#000000" font-family="sans-serif" font-size="14" lengthAdjust="spacing" textLength="74" x="234" y="457.4414">channel_id</text><ellipse cx="225" cy="470.1387" fill="#000000" rx="3" ry="3" style="stroke:#000000;stroke-width:1.0;"/><text fill="#000000" font-family="sans-serif" font-size="14" lengthAdjust="spacing" textLength="69" x="234" y="473.9297">is_deleted</text><ellipse cx="225" cy="486.627" fill="#000000" rx="3" ry="3" style="stroke:#000000;stroke-width:1.0;"/><text fill="#000000" font-family="sans-serif" font-size="14" lengthAdjust="spacing" textLength="71" x="234" y="490.418">created_at</text><ellipse cx="225" cy="503.1152" fill="#000000" rx="3" ry="3" style="stroke:#000000;stroke-width:1.0;"/><text fill="#000000" font-family="sans-serif" font-size="14" lengthAdjust="spacing" textLength="77" x="234" y="506.9063">updated_at</text></g><!--class messages--><g id="elem_messages"><rect codeLine="64" fill="#F1F1F1" height="157.9063" id="messages" rx="2.5" ry="2.5" style="stroke:#181818;stroke-width:0.5;" width="211" x="143" y="573.4414"/><text fill="#000000" font-family="sans-serif" font-size="14" lengthAdjust="spacing" textLength="205" x="146" y="591.9766">messages : &#12513;&#12483;&#12475;&#12540;&#12472;&#12486;&#12540;&#12502;&#12523;</text><line style="stroke:#181818;stroke-width:0.5;" x1="144" x2="353" y1="599.9297" y2="599.9297"/><ellipse cx="154" cy="613.6738" fill="#000000" rx="3" ry="3" style="stroke:#000000;stroke-width:1.0;"/><text fill="#000000" font-family="sans-serif" font-size="14" lengthAdjust="spacing" textLength="13" x="163" y="617.4648">id</text><line style="stroke:#181818;stroke-width:1.0;" x1="144" x2="353" y1="624.418" y2="624.418"/><polygon fill="none" points="154,633.1621,158,637.1621,154,641.1621,150,637.1621" style="stroke:#B38D22;stroke-width:1.0;"/><text fill="#000000" font-family="sans-serif" font-size="14" lengthAdjust="spacing" textLength="50" x="163" y="641.9531">user_id</text><polygon fill="none" points="154,649.6504,158,653.6504,154,657.6504,150,653.6504" style="stroke:#B38D22;stroke-width:1.0;"/><text fill="#000000" font-family="sans-serif" font-size="14" lengthAdjust="spacing" textLength="74" x="163" y="658.4414">channel_id</text><ellipse cx="154" cy="671.1387" fill="#000000" rx="3" ry="3" style="stroke:#000000;stroke-width:1.0;"/><text fill="#000000" font-family="sans-serif" font-size="14" lengthAdjust="spacing" textLength="52" x="163" y="674.9297">content</text><ellipse cx="154" cy="687.627" fill="#000000" rx="3" ry="3" style="stroke:#000000;stroke-width:1.0;"/><text fill="#000000" font-family="sans-serif" font-size="14" lengthAdjust="spacing" textLength="69" x="163" y="691.418">is_deleted</text><ellipse cx="154" cy="704.1152" fill="#000000" rx="3" ry="3" style="stroke:#000000;stroke-width:1.0;"/><text fill="#000000" font-family="sans-serif" font-size="14" lengthAdjust="spacing" textLength="71" x="163" y="707.9063">created_at</text><ellipse cx="154" cy="720.6035" fill="#000000" rx="3" ry="3" style="stroke:#000000;stroke-width:1.0;"/><text fill="#000000" font-family="sans-serif" font-size="14" lengthAdjust="spacing" textLength="77" x="163" y="724.3945">updated_at</text></g><!--class thread_messages--><g id="elem_thread_messages"><rect codeLine="75" fill="#F1F1F1" height="157.9063" id="thread_messages" rx="2.5" ry="2.5" style="stroke:#181818;stroke-width:0.5;" width="319" x="9" y="791.4414"/><text fill="#000000" font-family="sans-serif" font-size="14" lengthAdjust="spacing" textLength="313" x="12" y="809.9766">thread_messages : &#12473;&#12524;&#12483;&#12489;&#12513;&#12483;&#12475;&#12540;&#12472;&#12486;&#12540;&#12502;&#12523;</text><line style="stroke:#181818;stroke-width:0.5;" x1="10" x2="327" y1="817.9297" y2="817.9297"/><ellipse cx="20" cy="831.6738" fill="#000000" rx="3" ry="3" style="stroke:#000000;stroke-width:1.0;"/><text fill="#000000" font-family="sans-serif" font-size="14" lengthAdjust="spacing" textLength="13" x="29" y="835.4648">id</text><line style="stroke:#181818;stroke-width:1.0;" x1="10" x2="327" y1="842.418" y2="842.418"/><polygon fill="none" points="20,851.1621,24,855.1621,20,859.1621,16,855.1621" style="stroke:#B38D22;stroke-width:1.0;"/><text fill="#000000" font-family="sans-serif" font-size="14" lengthAdjust="spacing" textLength="50" x="29" y="859.9531">user_id</text><polygon fill="none" points="20,867.6504,24,871.6504,20,875.6504,16,871.6504" style="stroke:#B38D22;stroke-width:1.0;"/><text fill="#000000" font-family="sans-serif" font-size="14" lengthAdjust="spacing" textLength="73" x="29" y="876.4414">mesage_id</text><ellipse cx="20" cy="889.1387" fill="#000000" rx="3" ry="3" style="stroke:#000000;stroke-width:1.0;"/><text fill="#000000" font-family="sans-serif" font-size="14" lengthAdjust="spacing" textLength="52" x="29" y="892.9297">content</text><ellipse cx="20" cy="905.627" fill="#000000" rx="3" ry="3" style="stroke:#000000;stroke-width:1.0;"/><text fill="#000000" font-family="sans-serif" font-size="14" lengthAdjust="spacing" textLength="69" x="29" y="909.418">is_deleted</text><ellipse cx="20" cy="922.1152" fill="#000000" rx="3" ry="3" style="stroke:#000000;stroke-width:1.0;"/><text fill="#000000" font-family="sans-serif" font-size="14" lengthAdjust="spacing" textLength="71" x="29" y="925.9063">created_at</text><ellipse cx="20" cy="938.6035" fill="#000000" rx="3" ry="3" style="stroke:#000000;stroke-width:1.0;"/><text fill="#000000" font-family="sans-serif" font-size="14" lengthAdjust="spacing" textLength="77" x="29" y="942.3945">updated_at</text></g><!--link users to users_workspaces--><g id="link_users_users_workspaces"><path codeLine="86" d="M217.53,180.9414 C223.01,180.9414 228.48,180.9414 233.96,180.9414 " fill="none" id="users-users_workspaces" style="stroke:#181818;stroke-width:1.0;"/><line style="stroke:#181818;stroke-width:1.0;" x1="213.77" x2="213.77" y1="184.9414" y2="176.9414"/><line style="stroke:#181818;stroke-width:1.0;" x1="216.77" x2="216.77" y1="184.9414" y2="176.9414"/><line style="stroke:#181818;stroke-width:1.0;" x1="217.77" x2="209.77" y1="180.9414" y2="180.9414"/><line style="stroke:#181818;stroke-width:1.0;" x1="233.66" x2="241.66" y1="180.9414" y2="174.9414"/><line style="stroke:#181818;stroke-width:1.0;" x1="233.66" x2="241.66" y1="180.9414" y2="186.9414"/><line style="stroke:#181818;stroke-width:1.0;" x1="233.66" x2="241.66" y1="180.9414" y2="180.9414"/><line style="stroke:#181818;stroke-width:1.0;" x1="231.66" x2="231.66" y1="176.9414" y2="184.9414"/></g><!--link users_workspaces to workspaces--><g id="link_users_workspaces_workspaces"><path codeLine="87" d="M641.33,180.9414 C646.5,180.9414 651.68,180.9414 656.85,180.9414 " fill="none" id="users_workspaces-workspaces" style="stroke:#181818;stroke-width:1.0;"/><line style="stroke:#181818;stroke-width:1.0;" x1="641.5" x2="633.5" y1="180.9414" y2="186.9414"/><line style="stroke:#181818;stroke-width:1.0;" x1="641.5" x2="633.5" y1="180.9414" y2="174.9414"/><line style="stroke:#181818;stroke-width:1.0;" x1="641.5" x2="633.5" y1="180.9414" y2="180.9414"/><line style="stroke:#181818;stroke-width:1.0;" x1="643.5" x2="643.5" y1="184.9414" y2="176.9414"/><line style="stroke:#181818;stroke-width:1.0;" x1="660.65" x2="660.65" y1="176.9414" y2="184.9414"/><line style="stroke:#181818;stroke-width:1.0;" x1="657.65" x2="657.65" y1="176.9414" y2="184.9414"/><line style="stroke:#181818;stroke-width:1.0;" x1="656.65" x2="664.65" y1="180.9414" y2="180.9414"/></g><!--link workspaces to channels--><g id="link_workspaces_channels"><path codeLine="88" d="M765.3,252.6614 C752.12,286.9214 736.26,328.1614 722.71,363.4014 " fill="none" id="workspaces-channels" style="stroke:#181818;stroke-width:1.0;"/><line style="stroke:#181818;stroke-width:1.0;" x1="762.9598" x2="770.4255" y1="247.5969" y2="250.4716"/><line style="stroke:#181818;stroke-width:1.0;" x1="761.8818" x2="769.3475" y1="250.3965" y2="253.2712"/><line style="stroke:#181818;stroke-width:1.0;" x1="765.2553" x2="768.13" y1="252.7671" y2="245.3014"/><line style="stroke:#181818;stroke-width:1.0;" x1="722.7347" x2="725.4592" y1="363.3457" y2="372.9674"/><line style="stroke:#181818;stroke-width:1.0;" x1="722.7347" x2="714.2608" y1="363.3457" y2="368.6554"/><line style="stroke:#181818;stroke-width:1.0;" x1="722.7347" x2="719.86" y1="363.3457" y2="370.8114"/><line style="stroke:#181818;stroke-width:1.0;" x1="727.1862" x2="719.7206" y1="362.9167" y2="360.042"/></g><!--link users to users_channels--><g id="link_users_users_channels"><path codeLine="90" d="M184.35,241.7914 C221.19,278.6314 268.76,326.2014 308.27,365.7114 " fill="none" id="users-users_channels" style="stroke:#181818;stroke-width:1.0;"/><line style="stroke:#181818;stroke-width:1.0;" x1="178.81" x2="184.4669" y1="241.9083" y2="236.2514"/><line style="stroke:#181818;stroke-width:1.0;" x1="180.9313" x2="186.5882" y1="244.0296" y2="238.3727"/><line style="stroke:#181818;stroke-width:1.0;" x1="184.4669" x2="178.81" y1="241.9083" y2="236.2514"/><line style="stroke:#181818;stroke-width:1.0;" x1="307.8131" x2="317.7126" y1="365.2546" y2="366.6688"/><line style="stroke:#181818;stroke-width:1.0;" x1="307.8131" x2="309.2274" y1="365.2546" y2="375.154"/><line style="stroke:#181818;stroke-width:1.0;" x1="307.8131" x2="313.47" y1="365.2546" y2="370.9114"/><line style="stroke:#181818;stroke-width:1.0;" x1="309.2274" x2="303.5705" y1="361.0119" y2="366.6688"/></g><!--link users_channels to channels--><g id="link_users_channels_channels"><path codeLine="91" d="M564.72,442.9414 C569.91,442.9414 575.1,442.9414 580.29,442.9414 " fill="none" id="users_channels-channels" style="stroke:#181818;stroke-width:1.0;"/><line style="stroke:#181818;stroke-width:1.0;" x1="564.86" x2="556.86" y1="442.9414" y2="448.9414"/><line style="stroke:#181818;stroke-width:1.0;" x1="564.86" x2="556.86" y1="442.9414" y2="436.9414"/><line style="stroke:#181818;stroke-width:1.0;" x1="564.86" x2="556.86" y1="442.9414" y2="442.9414"/><line style="stroke:#181818;stroke-width:1.0;" x1="566.86" x2="566.86" y1="446.9414" y2="438.9414"/><line style="stroke:#181818;stroke-width:1.0;" x1="584.12" x2="584.12" y1="438.9414" y2="446.9414"/><line style="stroke:#181818;stroke-width:1.0;" x1="581.12" x2="581.12" y1="438.9414" y2="446.9414"/><line style="stroke:#181818;stroke-width:1.0;" x1="580.12" x2="588.12" y1="442.9414" y2="442.9414"/></g><!--link users to messages--><g id="link_users_messages"><path codeLine="93" d="M135.27,244.5614 C147.47,311.7314 169.26,421.1914 196.5,513.4414 C201.44,530.1714 207.43,547.7714 213.57,564.5914 " fill="none" id="users-messages" style="stroke:#181818;stroke-width:1.0;"/><line style="stroke:#181818;stroke-width:1.0;" x1="130.6504" x2="138.5243" y1="241.4957" y2="240.081"/><line style="stroke:#181818;stroke-width:1.0;" x1="131.1809" x2="139.0548" y1="244.4484" y2="243.0337"/><line style="stroke:#181818;stroke-width:1.0;" x1="135.2947" x2="133.88" y1="244.7253" y2="236.8514"/><line style="stroke:#181818;stroke-width:1.0;" x1="213.4917" x2="221.8893" y1="564.3756" y2="569.8052"/><line style="stroke:#181818;stroke-width:1.0;" x1="213.4917" x2="210.6307" y1="564.3756" y2="573.9576"/><line style="stroke:#181818;stroke-width:1.0;" x1="213.4917" x2="216.26" y1="564.3756" y2="571.8814"/><ellipse cx="211.4155" cy="558.7463" fill="none" rx="4" ry="4" style="stroke:#181818;stroke-width:1.0;"/></g><!--link channels to messages--><g id="link_channels_messages"><path codeLine="94" d="M581.23,509.0014 C578.3,510.5114 575.39,512.0014 572.5,513.4414 C504.35,547.5314 425.76,581.1414 363.05,606.6514 " fill="none" id="channels-messages" style="stroke:#181818;stroke-width:1.0;"/><line style="stroke:#181818;stroke-width:1.0;" x1="582.7801" x2="586.4943" y1="503.6757" y2="510.7613"/><line style="stroke:#181818;stroke-width:1.0;" x1="580.1231" x2="583.8373" y1="505.0686" y2="512.1541"/><line style="stroke:#181818;stroke-width:1.0;" x1="581.0945" x2="588.18" y1="509.0756" y2="505.3614"/><line style="stroke:#181818;stroke-width:1.0;" x1="363.1259" x2="357.9605" y1="606.6307" y2="615.1934"/><line style="stroke:#181818;stroke-width:1.0;" x1="363.1259" x2="353.4595" y1="606.6307" y2="604.0695"/><line style="stroke:#181818;stroke-width:1.0;" x1="363.1259" x2="355.71" y1="606.6307" y2="609.6314"/><ellipse cx="368.6879" cy="604.3802" fill="none" rx="4" ry="4" style="stroke:#181818;stroke-width:1.0;"/></g><!--link users to thread_messages--><g id="link_users_thread_messages"><path codeLine="96" d="M118.55,244.6814 C110.19,347.2114 98.76,556.7814 125.5,731.4414 C128.07,748.2314 132.29,765.8014 137.1,782.5514 " fill="none" id="users-thread_messages" style="stroke:#181818;stroke-width:1.0;"/><line style="stroke:#181818;stroke-width:1.0;" x1="114.8849" x2="122.8578" y1="240.5592" y2="241.2165"/><line style="stroke:#181818;stroke-width:1.0;" x1="114.6384" x2="122.6114" y1="243.5491" y2="244.2064"/><line style="stroke:#181818;stroke-width:1.0;" x1="118.5427" x2="119.2" y1="244.8744" y2="236.9014"/><line style="stroke:#181818;stroke-width:1.0;" x1="136.9688" x2="144.9931" y1="782.1006" y2="788.068"/><line style="stroke:#181818;stroke-width:1.0;" x1="136.9688" x2="133.4869" y1="782.1006" y2="791.4748"/><line style="stroke:#181818;stroke-width:1.0;" x1="136.9688" x2="139.24" y1="782.1006" y2="789.7714"/><ellipse cx="135.2653" cy="776.3475" fill="none" rx="4" ry="4" style="stroke:#181818;stroke-width:1.0;"/></g><!--link messages to thread_messages--><g id="link_messages_thread_messages"><path codeLine="97" d="M216.29,740.4114 C211.15,754.2814 205.84,768.6314 200.7,782.4914 " fill="none" id="messages-thread_messages" style="stroke:#181818;stroke-width:1.0;"/><line style="stroke:#181818;stroke-width:1.0;" x1="213.8415" x2="221.3456" y1="735.517" y2="738.2899"/><line style="stroke:#181818;stroke-width:1.0;" x1="212.8017" x2="220.3057" y1="738.331" y2="741.1039"/><line style="stroke:#181818;stroke-width:1.0;" x1="216.2071" x2="218.98" y1="740.6555" y2="733.1514"/><line style="stroke:#181818;stroke-width:1.0;" x1="200.8455" x2="203.6846" y1="782.142" y2="791.7305"/><line style="stroke:#181818;stroke-width:1.0;" x1="200.8455" x2="192.4354" y1="782.142" y2="787.5523"/><line style="stroke:#181818;stroke-width:1.0;" x1="200.8455" x2="198.06" y1="782.142" y2="789.6414"/><ellipse cx="202.9346" cy="776.5175" fill="none" rx="4" ry="4" style="stroke:#181818;stroke-width:1.0;"/></g><!--SRC=[fPJ1Qi9048Rl-nHBFGX2Ng37KdhfGuIGNPhG62M9bA85us9Hg50e26qlba9hiUgXK9GAVPYfL4- -GdSJZKdKLFGoEqF-oV_jx2PfhEc4OaUZsCxd78JI62eTO6_0MkFR1hYzSLr4AD-aeCop_iafkA_WtYSeCxvo_5sTjchJLlNtiJVlGPwRgbkgGH5oT8SlnqUJTdVIhY4q6zMsD9-DwadgZG2Y3r6J-CuyuyabFYZOrBBn8GRs0cm4bKyHsRKNcy0w1rYniIyg8empEk5HaaHgAbagLjMYYaE9h3YYAkJ9ehfQsbpah7CxhwZKz-fxNdse384zUFbmnJJKiibPjsL23ShjjkNmTYB7Q9OxNu-6VmRTQVDk_LZapPmf8P2zEXMe_7e7T5LJJ9CQFh8Bx1dO1x06Xra12wHne3Z5leECC4N6605C7k16sj3uvfgTXvUbjgsSpS_x2HY3ofU7ErY12gHRuwWvq-56kv4v6XSHEGmehjwxO6Jr_s3ZtGdCNCCb-o3xlu5IIRAaKd7bzgFGXy0rnXOQYGZHuln31lw3wFL0mJs9ldrTUwuO76EaZKIUH1jYeqJ1J1TzSS4V]--></g></svg>