<svg aria-roledescription="er" role="graphics-document document" viewBox="0 0 976.083984375 1256" style="max-width: 976.084px; background-color: rgb(255, 255, 255);" xmlns:xlink="http://www.w3.org/1999/xlink" xmlns="http://www.w3.org/2000/svg" width="100%" id="mermaid-1683910090132"><style>#mermaid-1683910090132{font-family:"trebuchet ms",verdana,arial,sans-serif;font-size:16px;fill:#333;}#mermaid-1683910090132 .error-icon{fill:#552222;}#mermaid-1683910090132 .error-text{fill:#552222;stroke:#552222;}#mermaid-1683910090132 .edge-thickness-normal{stroke-width:2px;}#mermaid-1683910090132 .edge-thickness-thick{stroke-width:3.5px;}#mermaid-1683910090132 .edge-pattern-solid{stroke-dasharray:0;}#mermaid-1683910090132 .edge-pattern-dashed{stroke-dasharray:3;}#mermaid-1683910090132 .edge-pattern-dotted{stroke-dasharray:2;}#mermaid-1683910090132 .marker{fill:#333333;stroke:#333333;}#mermaid-1683910090132 .marker.cross{stroke:#333333;}#mermaid-1683910090132 svg{font-family:"trebuchet ms",verdana,arial,sans-serif;font-size:16px;}#mermaid-1683910090132 .entityBox{fill:#ECECFF;stroke:#9370DB;}#mermaid-1683910090132 .attributeBoxOdd{fill:#ffffff;stroke:#9370DB;}#mermaid-1683910090132 .attributeBoxEven{fill:#f2f2f2;stroke:#9370DB;}#mermaid-1683910090132 .relationshipLabelBox{fill:hsl(80, 100%, 96.2745098039%);opacity:0.7;background-color:hsl(80, 100%, 96.2745098039%);}#mermaid-1683910090132 .relationshipLabelBox rect{opacity:0.5;}#mermaid-1683910090132 .relationshipLine{stroke:#333333;}#mermaid-1683910090132 .entityTitleText{text-anchor:middle;font-size:18px;fill:#333;}#mermaid-1683910090132 :root{--mermaid-font-family:"trebuchet ms",verdana,arial,sans-serif;}</style><g/><defs><marker orient="auto" markerHeight="18" markerWidth="18" refY="9" refX="0" id="ONLY_ONE_START"><path d="M9,0 L9,18 M15,0 L15,18" fill="none" stroke="gray"/></marker></defs><defs><marker orient="auto" markerHeight="18" markerWidth="18" refY="9" refX="18" id="ONLY_ONE_END"><path d="M3,0 L3,18 M9,0 L9,18" fill="none" stroke="gray"/></marker></defs><defs><marker orient="auto" markerHeight="18" markerWidth="30" refY="9" refX="0" id="ZERO_OR_ONE_START"><circle r="6" cy="9" cx="21" fill="white" stroke="gray"/><path d="M9,0 L9,18" fill="none" stroke="gray"/></marker></defs><defs><marker orient="auto" markerHeight="18" markerWidth="30" refY="9" refX="30" id="ZERO_OR_ONE_END"><circle r="6" cy="9" cx="9" fill="white" stroke="gray"/><path d="M21,0 L21,18" fill="none" stroke="gray"/></marker></defs><defs><marker orient="auto" markerHeight="36" markerWidth="45" refY="18" refX="18" id="ONE_OR_MORE_START"><path d="M0,18 Q 18,0 36,18 Q 18,36 0,18 M42,9 L42,27" fill="none" stroke="gray"/></marker></defs><defs><marker orient="auto" markerHeight="36" markerWidth="45" refY="18" refX="27" id="ONE_OR_MORE_END"><path d="M3,9 L3,27 M9,18 Q27,0 45,18 Q27,36 9,18" fill="none" stroke="gray"/></marker></defs><defs><marker orient="auto" markerHeight="36" markerWidth="57" refY="18" refX="18" id="ZERO_OR_MORE_START"><circle r="6" cy="18" cx="48" fill="white" stroke="gray"/><path d="M0,18 Q18,0 36,18 Q18,36 0,18" fill="none" stroke="gray"/></marker></defs><defs><marker orient="auto" markerHeight="36" markerWidth="57" refY="18" refX="39" id="ZERO_OR_MORE_END"><circle r="6" cy="18" cx="9" fill="white" stroke="gray"/><path d="M21,18 Q39,0 57,18 Q39,36 21,18" fill="none" stroke="gray"/></marker></defs><path style="stroke: gray; fill: none;" marker-start="url(#ONLY_ONE_START)" marker-end="url(#ZERO_OR_MORE_END)" d="M443.880859375,113.74990270876887L420.7223307291667,125.12491892397406C397.5638020833333,136.49993513917926,351.2467447916667,159.24996756958964,328.0882161458333,178.95831711812812C304.9296875,198.66666666666666,304.9296875,215.33333333333334,304.9296875,223.66666666666666L304.9296875,232" class="er relationshipLine"/><path style="stroke: gray; fill: none;" marker-start="url(#ZERO_OR_MORE_START)" marker-end="url(#ONLY_ONE_END)" d="M304.9296875,322L304.9296875,330.3333333333333C304.9296875,338.6666666666667,304.9296875,355.3333333333333,308.188273879717,372C311.446860259434,388.6666666666667,317.96403301886795,405.3333333333333,321.2226193985849,413.6666666666667L324.4812057783019,422" class="er relationshipLine"/><path style="stroke: gray; fill: none;" marker-start="url(#ONLY_ONE_START)" marker-end="url(#ZERO_OR_MORE_END)" d="M443.880859375,95.07651920183307L385.5146484375,109.56376600152755C327.1484375,124.05101280122204,210.416015625,153.02550640061102,152.0498046875,183.34608653363884C93.68359375,213.66666666666666,93.68359375,245.33333333333334,93.68359375,277C93.68359375,308.6666666666667,93.68359375,340.3333333333333,93.68359375,366.3333333333333C93.68359375,392.3333333333333,93.68359375,412.6666666666667,93.68359375,422.8333333333333L93.68359375,433" class="er relationshipLine"/><path style="stroke: gray; fill: none;" marker-start="url(#ONE_OR_MORE_START)" marker-end="url(#ONLY_ONE_END)" d="M93.68359375,523L93.68359375,533.1666666666666C93.68359375,543.3333333333334,93.68359375,563.6666666666666,128.54231770833334,588.9000193458465C163.40104166666666,614.1333720250265,233.11848958333334,644.266744050053,267.9772135416667,659.3334300625662L302.8359375,674.4001160750795" class="er relationshipLine"/><path style="stroke: gray; fill: none;" marker-start="url(#ONLY_ONE_START)" marker-end="url(#ZERO_OR_MORE_END)" d="M346.37890625,534L346.37890625,542.3333333333334C346.37890625,550.6666666666666,346.37890625,567.3333333333334,349.20763142903644,584C352.03635660807294,600.6666666666666,357.6938069661458,617.3333333333334,360.5225321451823,625.6666666666666L363.35125732421875,634" class="er relationshipLine"/><path style="stroke: gray; fill: none;" marker-start="url(#ONLY_ONE_START)" marker-end="url(#ZERO_OR_MORE_END)" d="M597.591796875,98.35507867770012L645.51953125,112.29589889808342C693.447265625,126.23671911846675,789.302734375,154.11835955923337,837.23046875,183.89251311295C885.158203125,213.66666666666666,885.158203125,245.33333333333334,885.158203125,277C885.158203125,308.6666666666667,885.158203125,340.3333333333333,885.158203125,366.3333333333333C885.158203125,392.3333333333333,885.158203125,412.6666666666667,885.158203125,422.8333333333333L885.158203125,433" class="er relationshipLine"/><path style="stroke: gray; fill: none;" marker-start="url(#ONE_OR_MORE_START)" marker-end="url(#ONLY_ONE_END)" d="M885.158203125,523L885.158203125,533.1666666666666C885.158203125,543.3333333333334,885.158203125,563.6666666666666,885.158203125,589.5C885.158203125,615.3333333333334,885.158203125,646.6666666666666,885.158203125,662.3333333333334L885.158203125,678" class="er relationshipLine"/><path style="stroke: gray; fill: none;" marker-start="url(#ONLY_ONE_START)" marker-end="url(#ZERO_OR_MORE_END)" d="M389.828125,790L389.828125,798.3333333333334C389.828125,806.6666666666666,389.828125,823.3333333333334,428.7490234375,847.0236611577711C467.669921875,870.7139889822089,545.51171875,901.4279779644179,584.4326171875,916.7849724555223L623.353515625,932.1419669466269" class="er relationshipLine"/><path style="stroke: gray; fill: none;" marker-start="url(#ONLY_ONE_START)" marker-end="url(#ZERO_OR_MORE_END)" d="M597.591796875,118.10255374987383L617.0319010416666,128.75212812489485C636.4720052083334,139.4017024999159,675.3522135416666,160.70085124995794,694.7923177083334,187.1837589583123C714.232421875,213.66666666666666,714.232421875,245.33333333333334,714.232421875,277C714.232421875,308.6666666666667,714.232421875,340.3333333333333,714.232421875,373.8333333333333C714.232421875,407.3333333333333,714.232421875,442.6666666666667,714.232421875,478C714.232421875,513.3333333333334,714.232421875,548.6666666666666,714.232421875,587.6666666666666C714.232421875,626.6666666666666,714.232421875,669.3333333333334,714.232421875,712C714.232421875,754.6666666666666,714.232421875,797.3333333333334,714.232421875,827C714.232421875,856.6666666666666,714.232421875,873.3333333333334,714.232421875,881.6666666666666L714.232421875,890" class="er relationshipLine"/><path style="stroke: gray; fill: none;" marker-start="url(#ZERO_OR_ONE_START)" marker-end="url(#ONE_OR_MORE_END)" d="M885.158203125,746L885.158203125,761.6666666666666C885.158203125,777.3333333333334,885.158203125,808.6666666666666,871.8170572916666,834.3240243465807C858.4759114583334,859.9813820264948,831.7936197916666,879.9627640529897,818.4524739583334,889.953455066237L805.111328125,899.9441460794844" class="er relationshipLine"/><path style="stroke: gray; fill: none;" marker-start="url(#ONLY_ONE_START)" marker-end="url(#ZERO_OR_ONE_END)" d="M683.763671875,1046L680.5084635416666,1054.3333333333333C677.2532552083334,1062.6666666666667,670.7428385416666,1079.3333333333333,671.873595120614,1096C673.0043516995614,1112.6666666666667,681.7762815241227,1129.3333333333333,686.1622464364035,1137.6666666666667L690.5482113486842,1146" class="er relationshipLine"/><path style="stroke: gray; fill: none;" marker-start="url(#ZERO_OR_ONE_START)" marker-end="url(#ONLY_ONE_END)" d="M737.9166324013158,1146L742.3025973135965,1137.6666666666667C746.6885622258773,1129.3333333333333,755.4604920504386,1112.6666666666667,756.591248629386,1096C757.7220052083334,1079.3333333333333,751.2115885416666,1062.6666666666667,747.9563802083334,1054.3333333333333L744.701171875,1046" class="er relationshipLine"/><path style="stroke: gray; fill: none;" marker-start="url(#ONLY_ONE_START)" marker-end="url(#ZERO_OR_MORE_END)" d="M496.42928213443395,132L492.8121621953616,140.33333333333334C489.1950422562893,148.66666666666666,481.9608023781446,165.33333333333334,478.3436824390723,189.5C474.7265625,213.66666666666666,474.7265625,245.33333333333334,474.7265625,277C474.7265625,308.6666666666667,474.7265625,340.3333333333333,464.636337952044,364.5C454.5461134040881,388.6666666666667,434.3656643081761,405.3333333333333,424.2754397602202,413.6666666666667L414.18521521226415,422" class="er relationshipLine"/><path style="stroke: gray; fill: none;" marker-start="url(#ONLY_ONE_START)" marker-end="url(#ZERO_OR_MORE_END)" d="M570.130490860849,132L577.4808126965409,140.33333333333334C584.8311345322327,148.66666666666666,599.5317782036163,165.33333333333334,606.8821000393082,189.5C614.232421875,213.66666666666666,614.232421875,245.33333333333334,614.232421875,277C614.232421875,308.6666666666667,614.232421875,340.3333333333333,614.232421875,373.8333333333333C614.232421875,407.3333333333333,614.232421875,442.6666666666667,614.232421875,478C614.232421875,513.3333333333334,614.232421875,548.6666666666666,591.3304036458334,579.396623003612C568.4283854166666,610.1265793405573,522.6243489583334,636.2531586811147,499.7223307291667,649.3164483513933L476.8203125,662.379738021672" class="er relationshipLine"/><g transform="translate(443.880859375,20 )" id="entity-users-33ae1e26-be31-5c1d-bf65-e859e9d0308e"><rect height="112" width="153.7109375" y="0" x="0" class="er entityBox"/><text style="dominant-baseline: middle; text-anchor: middle; font-size: 12px;" transform="translate(76.85546875,12)" y="0" x="0" id="text-entity-users-33ae1e26-be31-5c1d-bf65-e859e9d0308e" class="er entityLabel">users</text><rect height="22" width="56.9765625" y="24" x="0" class="er attributeBoxOdd"/><text style="dominant-baseline: middle; font-size: 10.2px;" transform="translate(5,35)" y="0" x="0" id="text-entity-users-33ae1e26-be31-5c1d-bf65-e859e9d0308e-attr-1-type" class="er entityLabel">id</text><rect height="22" width="75.171875" y="24" x="56.9765625" class="er attributeBoxOdd"/><text style="dominant-baseline: middle; font-size: 10.2px;" transform="translate(61.9765625,35)" y="0" x="0" id="text-entity-users-33ae1e26-be31-5c1d-bf65-e859e9d0308e-attr-1-name" class="er entityLabel">BIGINT</text><rect height="22" width="21.5625" y="24" x="132.1484375" class="er attributeBoxOdd"/><text style="dominant-baseline: middle; font-size: 10.2px;" transform="translate(137.1484375,35)" y="0" x="0" id="text-entity-users-33ae1e26-be31-5c1d-bf65-e859e9d0308e-attr-1-key" class="er entityLabel">PK</text><rect height="22" width="56.9765625" y="46" x="0" class="er attributeBoxEven"/><text style="dominant-baseline: middle; font-size: 10.2px;" transform="translate(5,57)" y="0" x="0" id="text-entity-users-33ae1e26-be31-5c1d-bf65-e859e9d0308e-attr-2-type" class="er entityLabel">name</text><rect height="22" width="75.171875" y="46" x="56.9765625" class="er attributeBoxEven"/><text style="dominant-baseline: middle; font-size: 10.2px;" transform="translate(61.9765625,57)" y="0" x="0" id="text-entity-users-33ae1e26-be31-5c1d-bf65-e859e9d0308e-attr-2-name" class="er entityLabel">VARCHAR(255)</text><rect height="22" width="21.5625" y="46" x="132.1484375" class="er attributeBoxEven"/><text style="dominant-baseline: middle; font-size: 10.2px;" transform="translate(137.1484375,57)" y="0" x="0" id="text-entity-users-33ae1e26-be31-5c1d-bf65-e859e9d0308e-attr-2-key" class="er entityLabel"/><rect height="22" width="56.9765625" y="68" x="0" class="er attributeBoxOdd"/><text style="dominant-baseline: middle; font-size: 10.2px;" transform="translate(5,79)" y="0" x="0" id="text-entity-users-33ae1e26-be31-5c1d-bf65-e859e9d0308e-attr-3-type" class="er entityLabel">email</text><rect height="22" width="75.171875" y="68" x="56.9765625" class="er attributeBoxOdd"/><text style="dominant-baseline: middle; font-size: 10.2px;" transform="translate(61.9765625,79)" y="0" x="0" id="text-entity-users-33ae1e26-be31-5c1d-bf65-e859e9d0308e-attr-3-name" class="er entityLabel">VARCHAR(255)</text><rect height="22" width="21.5625" y="68" x="132.1484375" class="er attributeBoxOdd"/><text style="dominant-baseline: middle; font-size: 10.2px;" transform="translate(137.1484375,79)" y="0" x="0" id="text-entity-users-33ae1e26-be31-5c1d-bf65-e859e9d0308e-attr-3-key" class="er entityLabel"/><rect height="22" width="56.9765625" y="90" x="0" class="er attributeBoxEven"/><text style="dominant-baseline: middle; font-size: 10.2px;" transform="translate(5,101)" y="0" x="0" id="text-entity-users-33ae1e26-be31-5c1d-bf65-e859e9d0308e-attr-4-type" class="er entityLabel">avatar_url</text><rect height="22" width="75.171875" y="90" x="56.9765625" class="er attributeBoxEven"/><text style="dominant-baseline: middle; font-size: 10.2px;" transform="translate(61.9765625,101)" y="0" x="0" id="text-entity-users-33ae1e26-be31-5c1d-bf65-e859e9d0308e-attr-4-name" class="er entityLabel">VARCHAR(255)</text><rect height="22" width="21.5625" y="90" x="132.1484375" class="er attributeBoxEven"/><text style="dominant-baseline: middle; font-size: 10.2px;" transform="translate(137.1484375,101)" y="0" x="0" id="text-entity-users-33ae1e26-be31-5c1d-bf65-e859e9d0308e-attr-4-key" class="er entityLabel"/></g><g transform="translate(235.1328125,232 )" id="entity-userworkspaces-7dc0f51d-e40e-53ac-8faa-a75a6a02dace"><rect height="90" width="139.59375" y="0" x="0" class="er entityBox"/><text style="dominant-baseline: middle; text-anchor: middle; font-size: 12px;" transform="translate(69.796875,12)" y="0" x="0" id="text-entity-userworkspaces-7dc0f51d-e40e-53ac-8faa-a75a6a02dace" class="er entityLabel">user_work_spaces</text><rect height="22" width="77.25" y="24" x="0" class="er attributeBoxOdd"/><text style="dominant-baseline: middle; font-size: 10.2px;" transform="translate(5,35)" y="0" x="0" id="text-entity-userworkspaces-7dc0f51d-e40e-53ac-8faa-a75a6a02dace-attr-1-type" class="er entityLabel">id</text><rect height="22" width="40.78125" y="24" x="77.25" class="er attributeBoxOdd"/><text style="dominant-baseline: middle; font-size: 10.2px;" transform="translate(82.25,35)" y="0" x="0" id="text-entity-userworkspaces-7dc0f51d-e40e-53ac-8faa-a75a6a02dace-attr-1-name" class="er entityLabel">BIGINT</text><rect height="22" width="21.5625" y="24" x="118.03125" class="er attributeBoxOdd"/><text style="dominant-baseline: middle; font-size: 10.2px;" transform="translate(123.03125,35)" y="0" x="0" id="text-entity-userworkspaces-7dc0f51d-e40e-53ac-8faa-a75a6a02dace-attr-1-key" class="er entityLabel">PK</text><rect height="22" width="77.25" y="46" x="0" class="er attributeBoxEven"/><text style="dominant-baseline: middle; font-size: 10.2px;" transform="translate(5,57)" y="0" x="0" id="text-entity-userworkspaces-7dc0f51d-e40e-53ac-8faa-a75a6a02dace-attr-2-type" class="er entityLabel">user_id</text><rect height="22" width="40.78125" y="46" x="77.25" class="er attributeBoxEven"/><text style="dominant-baseline: middle; font-size: 10.2px;" transform="translate(82.25,57)" y="0" x="0" id="text-entity-userworkspaces-7dc0f51d-e40e-53ac-8faa-a75a6a02dace-attr-2-name" class="er entityLabel">BIGINT</text><rect height="22" width="21.5625" y="46" x="118.03125" class="er attributeBoxEven"/><text style="dominant-baseline: middle; font-size: 10.2px;" transform="translate(123.03125,57)" y="0" x="0" id="text-entity-userworkspaces-7dc0f51d-e40e-53ac-8faa-a75a6a02dace-attr-2-key" class="er entityLabel">FK</text><rect height="22" width="77.25" y="68" x="0" class="er attributeBoxOdd"/><text style="dominant-baseline: middle; font-size: 10.2px;" transform="translate(5,79)" y="0" x="0" id="text-entity-userworkspaces-7dc0f51d-e40e-53ac-8faa-a75a6a02dace-attr-3-type" class="er entityLabel">work_space_id</text><rect height="22" width="40.78125" y="68" x="77.25" class="er attributeBoxOdd"/><text style="dominant-baseline: middle; font-size: 10.2px;" transform="translate(82.25,79)" y="0" x="0" id="text-entity-userworkspaces-7dc0f51d-e40e-53ac-8faa-a75a6a02dace-attr-3-name" class="er entityLabel">BIGINT</text><rect height="22" width="21.5625" y="68" x="118.03125" class="er attributeBoxOdd"/><text style="dominant-baseline: middle; font-size: 10.2px;" transform="translate(123.03125,79)" y="0" x="0" id="text-entity-userworkspaces-7dc0f51d-e40e-53ac-8faa-a75a6a02dace-attr-3-key" class="er entityLabel">FK</text></g><g transform="translate(267.3671875,422 )" id="entity-workspaces-af5a4228-71d9-5966-96da-9001e690e379"><rect height="112" width="158.0234375" y="0" x="0" class="er entityBox"/><text style="dominant-baseline: middle; text-anchor: middle; font-size: 12px;" transform="translate(79.01171875,12)" y="0" x="0" id="text-entity-workspaces-af5a4228-71d9-5966-96da-9001e690e379" class="er entityLabel">work_spaces</text><rect height="22" width="61.2890625" y="24" x="0" class="er attributeBoxOdd"/><text style="dominant-baseline: middle; font-size: 10.2px;" transform="translate(5,35)" y="0" x="0" id="text-entity-workspaces-af5a4228-71d9-5966-96da-9001e690e379-attr-1-type" class="er entityLabel">id</text><rect height="22" width="75.171875" y="24" x="61.2890625" class="er attributeBoxOdd"/><text style="dominant-baseline: middle; font-size: 10.2px;" transform="translate(66.2890625,35)" y="0" x="0" id="text-entity-workspaces-af5a4228-71d9-5966-96da-9001e690e379-attr-1-name" class="er entityLabel">BIGINT</text><rect height="22" width="21.5625" y="24" x="136.4609375" class="er attributeBoxOdd"/><text style="dominant-baseline: middle; font-size: 10.2px;" transform="translate(141.4609375,35)" y="0" x="0" id="text-entity-workspaces-af5a4228-71d9-5966-96da-9001e690e379-attr-1-key" class="er entityLabel">PK</text><rect height="22" width="61.2890625" y="46" x="0" class="er attributeBoxEven"/><text style="dominant-baseline: middle; font-size: 10.2px;" transform="translate(5,57)" y="0" x="0" id="text-entity-workspaces-af5a4228-71d9-5966-96da-9001e690e379-attr-2-type" class="er entityLabel">name</text><rect height="22" width="75.171875" y="46" x="61.2890625" class="er attributeBoxEven"/><text style="dominant-baseline: middle; font-size: 10.2px;" transform="translate(66.2890625,57)" y="0" x="0" id="text-entity-workspaces-af5a4228-71d9-5966-96da-9001e690e379-attr-2-name" class="er entityLabel">VARCHAR(255)</text><rect height="22" width="21.5625" y="46" x="136.4609375" class="er attributeBoxEven"/><text style="dominant-baseline: middle; font-size: 10.2px;" transform="translate(141.4609375,57)" y="0" x="0" id="text-entity-workspaces-af5a4228-71d9-5966-96da-9001e690e379-attr-2-key" class="er entityLabel"/><rect height="22" width="61.2890625" y="68" x="0" class="er attributeBoxOdd"/><text style="dominant-baseline: middle; font-size: 10.2px;" transform="translate(5,79)" y="0" x="0" id="text-entity-workspaces-af5a4228-71d9-5966-96da-9001e690e379-attr-3-type" class="er entityLabel">created_at</text><rect height="22" width="75.171875" y="68" x="61.2890625" class="er attributeBoxOdd"/><text style="dominant-baseline: middle; font-size: 10.2px;" transform="translate(66.2890625,79)" y="0" x="0" id="text-entity-workspaces-af5a4228-71d9-5966-96da-9001e690e379-attr-3-name" class="er entityLabel">DATETIME</text><rect height="22" width="21.5625" y="68" x="136.4609375" class="er attributeBoxOdd"/><text style="dominant-baseline: middle; font-size: 10.2px;" transform="translate(141.4609375,79)" y="0" x="0" id="text-entity-workspaces-af5a4228-71d9-5966-96da-9001e690e379-attr-3-key" class="er entityLabel"/><rect height="22" width="61.2890625" y="90" x="0" class="er attributeBoxEven"/><text style="dominant-baseline: middle; font-size: 10.2px;" transform="translate(5,101)" y="0" x="0" id="text-entity-workspaces-af5a4228-71d9-5966-96da-9001e690e379-attr-4-type" class="er entityLabel">created_by</text><rect height="22" width="75.171875" y="90" x="61.2890625" class="er attributeBoxEven"/><text style="dominant-baseline: middle; font-size: 10.2px;" transform="translate(66.2890625,101)" y="0" x="0" id="text-entity-workspaces-af5a4228-71d9-5966-96da-9001e690e379-attr-4-name" class="er entityLabel">BIGINT</text><rect height="22" width="21.5625" y="90" x="136.4609375" class="er attributeBoxEven"/><text style="dominant-baseline: middle; font-size: 10.2px;" transform="translate(141.4609375,101)" y="0" x="0" id="text-entity-workspaces-af5a4228-71d9-5966-96da-9001e690e379-attr-4-key" class="er entityLabel">FK</text></g><g transform="translate(20,433 )" id="entity-userchatchannels-3c8f63f1-f266-50a4-a8ba-d5ecee1c67d9"><rect height="90" width="147.3671875" y="0" x="0" class="er entityBox"/><text style="dominant-baseline: middle; text-anchor: middle; font-size: 12px;" transform="translate(73.68359375,12)" y="0" x="0" id="text-entity-userchatchannels-3c8f63f1-f266-50a4-a8ba-d5ecee1c67d9" class="er entityLabel">user_chat_channels</text><rect height="22" width="85.0234375" y="24" x="0" class="er attributeBoxOdd"/><text style="dominant-baseline: middle; font-size: 10.2px;" transform="translate(5,35)" y="0" x="0" id="text-entity-userchatchannels-3c8f63f1-f266-50a4-a8ba-d5ecee1c67d9-attr-1-type" class="er entityLabel">id</text><rect height="22" width="40.78125" y="24" x="85.0234375" class="er attributeBoxOdd"/><text style="dominant-baseline: middle; font-size: 10.2px;" transform="translate(90.0234375,35)" y="0" x="0" id="text-entity-userchatchannels-3c8f63f1-f266-50a4-a8ba-d5ecee1c67d9-attr-1-name" class="er entityLabel">BIGINT</text><rect height="22" width="21.5625" y="24" x="125.8046875" class="er attributeBoxOdd"/><text style="dominant-baseline: middle; font-size: 10.2px;" transform="translate(130.8046875,35)" y="0" x="0" id="text-entity-userchatchannels-3c8f63f1-f266-50a4-a8ba-d5ecee1c67d9-attr-1-key" class="er entityLabel">PK</text><rect height="22" width="85.0234375" y="46" x="0" class="er attributeBoxEven"/><text style="dominant-baseline: middle; font-size: 10.2px;" transform="translate(5,57)" y="0" x="0" id="text-entity-userchatchannels-3c8f63f1-f266-50a4-a8ba-d5ecee1c67d9-attr-2-type" class="er entityLabel">user_id</text><rect height="22" width="40.78125" y="46" x="85.0234375" class="er attributeBoxEven"/><text style="dominant-baseline: middle; font-size: 10.2px;" transform="translate(90.0234375,57)" y="0" x="0" id="text-entity-userchatchannels-3c8f63f1-f266-50a4-a8ba-d5ecee1c67d9-attr-2-name" class="er entityLabel">BIGINT</text><rect height="22" width="21.5625" y="46" x="125.8046875" class="er attributeBoxEven"/><text style="dominant-baseline: middle; font-size: 10.2px;" transform="translate(130.8046875,57)" y="0" x="0" id="text-entity-userchatchannels-3c8f63f1-f266-50a4-a8ba-d5ecee1c67d9-attr-2-key" class="er entityLabel">FK</text><rect height="22" width="85.0234375" y="68" x="0" class="er attributeBoxOdd"/><text style="dominant-baseline: middle; font-size: 10.2px;" transform="translate(5,79)" y="0" x="0" id="text-entity-userchatchannels-3c8f63f1-f266-50a4-a8ba-d5ecee1c67d9-attr-3-type" class="er entityLabel">chat_channel_id</text><rect height="22" width="40.78125" y="68" x="85.0234375" class="er attributeBoxOdd"/><text style="dominant-baseline: middle; font-size: 10.2px;" transform="translate(90.0234375,79)" y="0" x="0" id="text-entity-userchatchannels-3c8f63f1-f266-50a4-a8ba-d5ecee1c67d9-attr-3-name" class="er entityLabel">BIGINT</text><rect height="22" width="21.5625" y="68" x="125.8046875" class="er attributeBoxOdd"/><text style="dominant-baseline: middle; font-size: 10.2px;" transform="translate(130.8046875,79)" y="0" x="0" id="text-entity-userchatchannels-3c8f63f1-f266-50a4-a8ba-d5ecee1c67d9-attr-3-key" class="er entityLabel">FK</text></g><g transform="translate(302.8359375,634 )" id="entity-chatchannels-f6119d61-d7eb-56e9-b762-4aadedb4ce93"><rect height="156" width="173.984375" y="0" x="0" class="er entityBox"/><text style="dominant-baseline: middle; text-anchor: middle; font-size: 12px;" transform="translate(86.9921875,12)" y="0" x="0" id="text-entity-chatchannels-f6119d61-d7eb-56e9-b762-4aadedb4ce93" class="er entityLabel">chat_channels</text><rect height="22" width="77.25" y="24" x="0" class="er attributeBoxOdd"/><text style="dominant-baseline: middle; font-size: 10.2px;" transform="translate(5,35)" y="0" x="0" id="text-entity-chatchannels-f6119d61-d7eb-56e9-b762-4aadedb4ce93-attr-1-type" class="er entityLabel">id</text><rect height="22" width="75.171875" y="24" x="77.25" class="er attributeBoxOdd"/><text style="dominant-baseline: middle; font-size: 10.2px;" transform="translate(82.25,35)" y="0" x="0" id="text-entity-chatchannels-f6119d61-d7eb-56e9-b762-4aadedb4ce93-attr-1-name" class="er entityLabel">BIGINT</text><rect height="22" width="21.5625" y="24" x="152.421875" class="er attributeBoxOdd"/><text style="dominant-baseline: middle; font-size: 10.2px;" transform="translate(157.421875,35)" y="0" x="0" id="text-entity-chatchannels-f6119d61-d7eb-56e9-b762-4aadedb4ce93-attr-1-key" class="er entityLabel">PK</text><rect height="22" width="77.25" y="46" x="0" class="er attributeBoxEven"/><text style="dominant-baseline: middle; font-size: 10.2px;" transform="translate(5,57)" y="0" x="0" id="text-entity-chatchannels-f6119d61-d7eb-56e9-b762-4aadedb4ce93-attr-2-type" class="er entityLabel">name</text><rect height="22" width="75.171875" y="46" x="77.25" class="er attributeBoxEven"/><text style="dominant-baseline: middle; font-size: 10.2px;" transform="translate(82.25,57)" y="0" x="0" id="text-entity-chatchannels-f6119d61-d7eb-56e9-b762-4aadedb4ce93-attr-2-name" class="er entityLabel">VARCHAR(255)</text><rect height="22" width="21.5625" y="46" x="152.421875" class="er attributeBoxEven"/><text style="dominant-baseline: middle; font-size: 10.2px;" transform="translate(157.421875,57)" y="0" x="0" id="text-entity-chatchannels-f6119d61-d7eb-56e9-b762-4aadedb4ce93-attr-2-key" class="er entityLabel"/><rect height="22" width="77.25" y="68" x="0" class="er attributeBoxOdd"/><text style="dominant-baseline: middle; font-size: 10.2px;" transform="translate(5,79)" y="0" x="0" id="text-entity-chatchannels-f6119d61-d7eb-56e9-b762-4aadedb4ce93-attr-3-type" class="er entityLabel">created_at</text><rect height="22" width="75.171875" y="68" x="77.25" class="er attributeBoxOdd"/><text style="dominant-baseline: middle; font-size: 10.2px;" transform="translate(82.25,79)" y="0" x="0" id="text-entity-chatchannels-f6119d61-d7eb-56e9-b762-4aadedb4ce93-attr-3-name" class="er entityLabel">DATETIME</text><rect height="22" width="21.5625" y="68" x="152.421875" class="er attributeBoxOdd"/><text style="dominant-baseline: middle; font-size: 10.2px;" transform="translate(157.421875,79)" y="0" x="0" id="text-entity-chatchannels-f6119d61-d7eb-56e9-b762-4aadedb4ce93-attr-3-key" class="er entityLabel"/><rect height="22" width="77.25" y="90" x="0" class="er attributeBoxEven"/><text style="dominant-baseline: middle; font-size: 10.2px;" transform="translate(5,101)" y="0" x="0" id="text-entity-chatchannels-f6119d61-d7eb-56e9-b762-4aadedb4ce93-attr-4-type" class="er entityLabel">is_public</text><rect height="22" width="75.171875" y="90" x="77.25" class="er attributeBoxEven"/><text style="dominant-baseline: middle; font-size: 10.2px;" transform="translate(82.25,101)" y="0" x="0" id="text-entity-chatchannels-f6119d61-d7eb-56e9-b762-4aadedb4ce93-attr-4-name" class="er entityLabel">BOOLEAN</text><rect height="22" width="21.5625" y="90" x="152.421875" class="er attributeBoxEven"/><text style="dominant-baseline: middle; font-size: 10.2px;" transform="translate(157.421875,101)" y="0" x="0" id="text-entity-chatchannels-f6119d61-d7eb-56e9-b762-4aadedb4ce93-attr-4-key" class="er entityLabel"/><rect height="22" width="77.25" y="112" x="0" class="er attributeBoxOdd"/><text style="dominant-baseline: middle; font-size: 10.2px;" transform="translate(5,123)" y="0" x="0" id="text-entity-chatchannels-f6119d61-d7eb-56e9-b762-4aadedb4ce93-attr-5-type" class="er entityLabel">created_by</text><rect height="22" width="75.171875" y="112" x="77.25" class="er attributeBoxOdd"/><text style="dominant-baseline: middle; font-size: 10.2px;" transform="translate(82.25,123)" y="0" x="0" id="text-entity-chatchannels-f6119d61-d7eb-56e9-b762-4aadedb4ce93-attr-5-name" class="er entityLabel">BIGINT</text><rect height="22" width="21.5625" y="112" x="152.421875" class="er attributeBoxOdd"/><text style="dominant-baseline: middle; font-size: 10.2px;" transform="translate(157.421875,123)" y="0" x="0" id="text-entity-chatchannels-f6119d61-d7eb-56e9-b762-4aadedb4ce93-attr-5-key" class="er entityLabel">FK</text><rect height="22" width="77.25" y="134" x="0" class="er attributeBoxEven"/><text style="dominant-baseline: middle; font-size: 10.2px;" transform="translate(5,145)" y="0" x="0" id="text-entity-chatchannels-f6119d61-d7eb-56e9-b762-4aadedb4ce93-attr-6-type" class="er entityLabel">work_space_id</text><rect height="22" width="75.171875" y="134" x="77.25" class="er attributeBoxEven"/><text style="dominant-baseline: middle; font-size: 10.2px;" transform="translate(82.25,145)" y="0" x="0" id="text-entity-chatchannels-f6119d61-d7eb-56e9-b762-4aadedb4ce93-attr-6-name" class="er entityLabel">BIGINT</text><rect height="22" width="21.5625" y="134" x="152.421875" class="er attributeBoxEven"/><text style="dominant-baseline: middle; font-size: 10.2px;" transform="translate(157.421875,145)" y="0" x="0" id="text-entity-chatchannels-f6119d61-d7eb-56e9-b762-4aadedb4ce93-attr-6-key" class="er entityLabel">FK</text></g><g transform="translate(814.232421875,433 )" id="entity-userchatthreads-9c1e5257-2f3a-5fda-a878-5beaf9495838"><rect height="90" width="141.8515625" y="0" x="0" class="er entityBox"/><text style="dominant-baseline: middle; text-anchor: middle; font-size: 12px;" transform="translate(70.92578125,12)" y="0" x="0" id="text-entity-userchatthreads-9c1e5257-2f3a-5fda-a878-5beaf9495838" class="er entityLabel">user_chat_threads</text><rect height="22" width="79.5078125" y="24" x="0" class="er attributeBoxOdd"/><text style="dominant-baseline: middle; font-size: 10.2px;" transform="translate(5,35)" y="0" x="0" id="text-entity-userchatthreads-9c1e5257-2f3a-5fda-a878-5beaf9495838-attr-1-type" class="er entityLabel">id</text><rect height="22" width="40.78125" y="24" x="79.5078125" class="er attributeBoxOdd"/><text style="dominant-baseline: middle; font-size: 10.2px;" transform="translate(84.5078125,35)" y="0" x="0" id="text-entity-userchatthreads-9c1e5257-2f3a-5fda-a878-5beaf9495838-attr-1-name" class="er entityLabel">BIGINT</text><rect height="22" width="21.5625" y="24" x="120.2890625" class="er attributeBoxOdd"/><text style="dominant-baseline: middle; font-size: 10.2px;" transform="translate(125.2890625,35)" y="0" x="0" id="text-entity-userchatthreads-9c1e5257-2f3a-5fda-a878-5beaf9495838-attr-1-key" class="er entityLabel">PK</text><rect height="22" width="79.5078125" y="46" x="0" class="er attributeBoxEven"/><text style="dominant-baseline: middle; font-size: 10.2px;" transform="translate(5,57)" y="0" x="0" id="text-entity-userchatthreads-9c1e5257-2f3a-5fda-a878-5beaf9495838-attr-2-type" class="er entityLabel">user_id</text><rect height="22" width="40.78125" y="46" x="79.5078125" class="er attributeBoxEven"/><text style="dominant-baseline: middle; font-size: 10.2px;" transform="translate(84.5078125,57)" y="0" x="0" id="text-entity-userchatthreads-9c1e5257-2f3a-5fda-a878-5beaf9495838-attr-2-name" class="er entityLabel">BIGINT</text><rect height="22" width="21.5625" y="46" x="120.2890625" class="er attributeBoxEven"/><text style="dominant-baseline: middle; font-size: 10.2px;" transform="translate(125.2890625,57)" y="0" x="0" id="text-entity-userchatthreads-9c1e5257-2f3a-5fda-a878-5beaf9495838-attr-2-key" class="er entityLabel">FK</text><rect height="22" width="79.5078125" y="68" x="0" class="er attributeBoxOdd"/><text style="dominant-baseline: middle; font-size: 10.2px;" transform="translate(5,79)" y="0" x="0" id="text-entity-userchatthreads-9c1e5257-2f3a-5fda-a878-5beaf9495838-attr-3-type" class="er entityLabel">chat_thread_id</text><rect height="22" width="40.78125" y="68" x="79.5078125" class="er attributeBoxOdd"/><text style="dominant-baseline: middle; font-size: 10.2px;" transform="translate(84.5078125,79)" y="0" x="0" id="text-entity-userchatthreads-9c1e5257-2f3a-5fda-a878-5beaf9495838-attr-3-name" class="er entityLabel">BIGINT</text><rect height="22" width="21.5625" y="68" x="120.2890625" class="er attributeBoxOdd"/><text style="dominant-baseline: middle; font-size: 10.2px;" transform="translate(125.2890625,79)" y="0" x="0" id="text-entity-userchatthreads-9c1e5257-2f3a-5fda-a878-5beaf9495838-attr-3-key" class="er entityLabel">FK</text></g><g transform="translate(817.318359375,678 )" id="entity-chatthreads-1f59a6fc-2160-5006-a4f2-f7e01008da14"><rect height="68" width="135.6796875" y="0" x="0" class="er entityBox"/><text style="dominant-baseline: middle; text-anchor: middle; font-size: 12px;" transform="translate(67.83984375,12)" y="0" x="0" id="text-entity-chatthreads-1f59a6fc-2160-5006-a4f2-f7e01008da14" class="er entityLabel">chat_threads</text><rect height="22" width="59.984375" y="24" x="0" class="er attributeBoxOdd"/><text style="dominant-baseline: middle; font-size: 10.2px;" transform="translate(5,35)" y="0" x="0" id="text-entity-chatthreads-1f59a6fc-2160-5006-a4f2-f7e01008da14-attr-1-type" class="er entityLabel">id</text><rect height="22" width="54.1328125" y="24" x="59.984375" class="er attributeBoxOdd"/><text style="dominant-baseline: middle; font-size: 10.2px;" transform="translate(64.984375,35)" y="0" x="0" id="text-entity-chatthreads-1f59a6fc-2160-5006-a4f2-f7e01008da14-attr-1-name" class="er entityLabel">BIGINT</text><rect height="22" width="21.5625" y="24" x="114.1171875" class="er attributeBoxOdd"/><text style="dominant-baseline: middle; font-size: 10.2px;" transform="translate(119.1171875,35)" y="0" x="0" id="text-entity-chatthreads-1f59a6fc-2160-5006-a4f2-f7e01008da14-attr-1-key" class="er entityLabel">PK</text><rect height="22" width="59.984375" y="46" x="0" class="er attributeBoxEven"/><text style="dominant-baseline: middle; font-size: 10.2px;" transform="translate(5,57)" y="0" x="0" id="text-entity-chatthreads-1f59a6fc-2160-5006-a4f2-f7e01008da14-attr-2-type" class="er entityLabel">created_at</text><rect height="22" width="54.1328125" y="46" x="59.984375" class="er attributeBoxEven"/><text style="dominant-baseline: middle; font-size: 10.2px;" transform="translate(64.984375,57)" y="0" x="0" id="text-entity-chatthreads-1f59a6fc-2160-5006-a4f2-f7e01008da14-attr-2-name" class="er entityLabel">DATETIME</text><rect height="22" width="21.5625" y="46" x="114.1171875" class="er attributeBoxEven"/><text style="dominant-baseline: middle; font-size: 10.2px;" transform="translate(119.1171875,57)" y="0" x="0" id="text-entity-chatthreads-1f59a6fc-2160-5006-a4f2-f7e01008da14-attr-2-key" class="er entityLabel"/></g><g transform="translate(623.353515625,890 )" id="entity-chatmessages-ed96592e-46d2-58c5-9346-1bd44d1910ec"><rect height="156" width="181.7578125" y="0" x="0" class="er entityBox"/><text style="dominant-baseline: middle; text-anchor: middle; font-size: 12px;" transform="translate(90.87890625,12)" y="0" x="0" id="text-entity-chatmessages-ed96592e-46d2-58c5-9346-1bd44d1910ec" class="er entityLabel">chat_messages</text><rect height="22" width="85.0234375" y="24" x="0" class="er attributeBoxOdd"/><text style="dominant-baseline: middle; font-size: 10.2px;" transform="translate(5,35)" y="0" x="0" id="text-entity-chatmessages-ed96592e-46d2-58c5-9346-1bd44d1910ec-attr-1-type" class="er entityLabel">id</text><rect height="22" width="75.171875" y="24" x="85.0234375" class="er attributeBoxOdd"/><text style="dominant-baseline: middle; font-size: 10.2px;" transform="translate(90.0234375,35)" y="0" x="0" id="text-entity-chatmessages-ed96592e-46d2-58c5-9346-1bd44d1910ec-attr-1-name" class="er entityLabel">BIGINT</text><rect height="22" width="21.5625" y="24" x="160.1953125" class="er attributeBoxOdd"/><text style="dominant-baseline: middle; font-size: 10.2px;" transform="translate(165.1953125,35)" y="0" x="0" id="text-entity-chatmessages-ed96592e-46d2-58c5-9346-1bd44d1910ec-attr-1-key" class="er entityLabel">PK</text><rect height="22" width="85.0234375" y="46" x="0" class="er attributeBoxEven"/><text style="dominant-baseline: middle; font-size: 10.2px;" transform="translate(5,57)" y="0" x="0" id="text-entity-chatmessages-ed96592e-46d2-58c5-9346-1bd44d1910ec-attr-2-type" class="er entityLabel">body</text><rect height="22" width="75.171875" y="46" x="85.0234375" class="er attributeBoxEven"/><text style="dominant-baseline: middle; font-size: 10.2px;" transform="translate(90.0234375,57)" y="0" x="0" id="text-entity-chatmessages-ed96592e-46d2-58c5-9346-1bd44d1910ec-attr-2-name" class="er entityLabel">VARCHAR(255)</text><rect height="22" width="21.5625" y="46" x="160.1953125" class="er attributeBoxEven"/><text style="dominant-baseline: middle; font-size: 10.2px;" transform="translate(165.1953125,57)" y="0" x="0" id="text-entity-chatmessages-ed96592e-46d2-58c5-9346-1bd44d1910ec-attr-2-key" class="er entityLabel"/><rect height="22" width="85.0234375" y="68" x="0" class="er attributeBoxOdd"/><text style="dominant-baseline: middle; font-size: 10.2px;" transform="translate(5,79)" y="0" x="0" id="text-entity-chatmessages-ed96592e-46d2-58c5-9346-1bd44d1910ec-attr-3-type" class="er entityLabel">send_at</text><rect height="22" width="75.171875" y="68" x="85.0234375" class="er attributeBoxOdd"/><text style="dominant-baseline: middle; font-size: 10.2px;" transform="translate(90.0234375,79)" y="0" x="0" id="text-entity-chatmessages-ed96592e-46d2-58c5-9346-1bd44d1910ec-attr-3-name" class="er entityLabel">DATETIME</text><rect height="22" width="21.5625" y="68" x="160.1953125" class="er attributeBoxOdd"/><text style="dominant-baseline: middle; font-size: 10.2px;" transform="translate(165.1953125,79)" y="0" x="0" id="text-entity-chatmessages-ed96592e-46d2-58c5-9346-1bd44d1910ec-attr-3-key" class="er entityLabel"/><rect height="22" width="85.0234375" y="90" x="0" class="er attributeBoxEven"/><text style="dominant-baseline: middle; font-size: 10.2px;" transform="translate(5,101)" y="0" x="0" id="text-entity-chatmessages-ed96592e-46d2-58c5-9346-1bd44d1910ec-attr-4-type" class="er entityLabel">user_id</text><rect height="22" width="75.171875" y="90" x="85.0234375" class="er attributeBoxEven"/><text style="dominant-baseline: middle; font-size: 10.2px;" transform="translate(90.0234375,101)" y="0" x="0" id="text-entity-chatmessages-ed96592e-46d2-58c5-9346-1bd44d1910ec-attr-4-name" class="er entityLabel">BIGINT</text><rect height="22" width="21.5625" y="90" x="160.1953125" class="er attributeBoxEven"/><text style="dominant-baseline: middle; font-size: 10.2px;" transform="translate(165.1953125,101)" y="0" x="0" id="text-entity-chatmessages-ed96592e-46d2-58c5-9346-1bd44d1910ec-attr-4-key" class="er entityLabel">FK</text><rect height="22" width="85.0234375" y="112" x="0" class="er attributeBoxOdd"/><text style="dominant-baseline: middle; font-size: 10.2px;" transform="translate(5,123)" y="0" x="0" id="text-entity-chatmessages-ed96592e-46d2-58c5-9346-1bd44d1910ec-attr-5-type" class="er entityLabel">chat_channel_id</text><rect height="22" width="75.171875" y="112" x="85.0234375" class="er attributeBoxOdd"/><text style="dominant-baseline: middle; font-size: 10.2px;" transform="translate(90.0234375,123)" y="0" x="0" id="text-entity-chatmessages-ed96592e-46d2-58c5-9346-1bd44d1910ec-attr-5-name" class="er entityLabel">BIGINT</text><rect height="22" width="21.5625" y="112" x="160.1953125" class="er attributeBoxOdd"/><text style="dominant-baseline: middle; font-size: 10.2px;" transform="translate(165.1953125,123)" y="0" x="0" id="text-entity-chatmessages-ed96592e-46d2-58c5-9346-1bd44d1910ec-attr-5-key" class="er entityLabel">FK</text><rect height="22" width="85.0234375" y="134" x="0" class="er attributeBoxEven"/><text style="dominant-baseline: middle; font-size: 10.2px;" transform="translate(5,145)" y="0" x="0" id="text-entity-chatmessages-ed96592e-46d2-58c5-9346-1bd44d1910ec-attr-6-type" class="er entityLabel">chat_thread_id</text><rect height="22" width="75.171875" y="134" x="85.0234375" class="er attributeBoxEven"/><text style="dominant-baseline: middle; font-size: 10.2px;" transform="translate(90.0234375,145)" y="0" x="0" id="text-entity-chatmessages-ed96592e-46d2-58c5-9346-1bd44d1910ec-attr-6-name" class="er entityLabel">BIGINT</text><rect height="22" width="21.5625" y="134" x="160.1953125" class="er attributeBoxEven"/><text style="dominant-baseline: middle; font-size: 10.2px;" transform="translate(165.1953125,145)" y="0" x="0" id="text-entity-chatmessages-ed96592e-46d2-58c5-9346-1bd44d1910ec-attr-6-key" class="er entityLabel">FK</text></g><g transform="translate(634.939453125,1146 )" id="entity-chatmessagesfamilies-ea125b75-d23e-5446-92df-ba39c630bf7b"><rect height="90" width="158.5859375" y="0" x="0" class="er entityBox"/><text style="dominant-baseline: middle; text-anchor: middle; font-size: 12px;" transform="translate(79.29296875,12)" y="0" x="0" id="text-entity-chatmessagesfamilies-ea125b75-d23e-5446-92df-ba39c630bf7b" class="er entityLabel">chat_messages_families</text><rect height="22" width="68.16927083333333" y="24" x="0" class="er attributeBoxOdd"/><text style="dominant-baseline: middle; font-size: 10.2px;" transform="translate(5,35)" y="0" x="0" id="text-entity-chatmessagesfamilies-ea125b75-d23e-5446-92df-ba39c630bf7b-attr-1-type" class="er entityLabel">id</text><rect height="22" width="54.817708333333336" y="24" x="68.16927083333333" class="er attributeBoxOdd"/><text style="dominant-baseline: middle; font-size: 10.2px;" transform="translate(73.16927083333333,35)" y="0" x="0" id="text-entity-chatmessagesfamilies-ea125b75-d23e-5446-92df-ba39c630bf7b-attr-1-name" class="er entityLabel">BIGINT</text><rect height="22" width="35.598958333333336" y="24" x="122.98697916666666" class="er attributeBoxOdd"/><text style="dominant-baseline: middle; font-size: 10.2px;" transform="translate(127.98697916666666,35)" y="0" x="0" id="text-entity-chatmessagesfamilies-ea125b75-d23e-5446-92df-ba39c630bf7b-attr-1-key" class="er entityLabel">PK</text><rect height="22" width="68.16927083333333" y="46" x="0" class="er attributeBoxEven"/><text style="dominant-baseline: middle; font-size: 10.2px;" transform="translate(5,57)" y="0" x="0" id="text-entity-chatmessagesfamilies-ea125b75-d23e-5446-92df-ba39c630bf7b-attr-2-type" class="er entityLabel">parent_id</text><rect height="22" width="54.817708333333336" y="46" x="68.16927083333333" class="er attributeBoxEven"/><text style="dominant-baseline: middle; font-size: 10.2px;" transform="translate(73.16927083333333,57)" y="0" x="0" id="text-entity-chatmessagesfamilies-ea125b75-d23e-5446-92df-ba39c630bf7b-attr-2-name" class="er entityLabel">BIGINT</text><rect height="22" width="35.598958333333336" y="46" x="122.98697916666666" class="er attributeBoxEven"/><text style="dominant-baseline: middle; font-size: 10.2px;" transform="translate(127.98697916666666,57)" y="0" x="0" id="text-entity-chatmessagesfamilies-ea125b75-d23e-5446-92df-ba39c630bf7b-attr-2-key" class="er entityLabel"/><rect height="22" width="68.16927083333333" y="68" x="0" class="er attributeBoxOdd"/><text style="dominant-baseline: middle; font-size: 10.2px;" transform="translate(5,79)" y="0" x="0" id="text-entity-chatmessagesfamilies-ea125b75-d23e-5446-92df-ba39c630bf7b-attr-3-type" class="er entityLabel">child_id</text><rect height="22" width="54.817708333333336" y="68" x="68.16927083333333" class="er attributeBoxOdd"/><text style="dominant-baseline: middle; font-size: 10.2px;" transform="translate(73.16927083333333,79)" y="0" x="0" id="text-entity-chatmessagesfamilies-ea125b75-d23e-5446-92df-ba39c630bf7b-attr-3-name" class="er entityLabel">BIGINT</text><rect height="22" width="35.598958333333336" y="68" x="122.98697916666666" class="er attributeBoxOdd"/><text style="dominant-baseline: middle; font-size: 10.2px;" transform="translate(127.98697916666666,79)" y="0" x="0" id="text-entity-chatmessagesfamilies-ea125b75-d23e-5446-92df-ba39c630bf7b-attr-3-key" class="er entityLabel"/></g><rect height="0" width="0" y="158.36422729492188" x="357.92694091796875" class="er relationshipLabelBox"/><text style="text-anchor: middle; dominant-baseline: middle; font-size: 12px;" y="158.36422729492188" x="357.92694091796875" id="rel1" class="er relationshipLabel"/><rect height="0" width="0" y="373.21112060546875" x="308.4313049316406" class="er relationshipLabelBox"/><text style="text-anchor: middle; dominant-baseline: middle; font-size: 12px;" y="373.21112060546875" x="308.4313049316406" id="rel2" class="er relationshipLabel"/><rect height="0" width="0" y="176.62420654296875" x="165.95870971679688" class="er relationshipLabelBox"/><text style="text-anchor: middle; dominant-baseline: middle; font-size: 12px;" y="176.62420654296875" x="165.95870971679688" id="rel3" class="er relationshipLabel"/><rect height="0" width="0" y="618.0922241210938" x="178.3785858154297" class="er relationshipLabelBox"/><text style="text-anchor: middle; dominant-baseline: middle; font-size: 12px;" y="618.0922241210938" x="178.3785858154297" id="rel4" class="er relationshipLabel"/><rect height="0" width="0" y="584.9240112304688" x="349.36761474609375" class="er relationshipLabelBox"/><text style="text-anchor: middle; dominant-baseline: middle; font-size: 12px;" y="584.9240112304688" x="349.36761474609375" id="rel5" class="er relationshipLabel"/><rect height="0" width="0" y="187.1888427734375" x="842.331298828125" class="er relationshipLabelBox"/><text style="text-anchor: middle; dominant-baseline: middle; font-size: 12px;" y="187.1888427734375" x="842.331298828125" id="rel6" class="er relationshipLabel"/><rect height="0" width="0" y="600.5" x="885.158203125" class="er relationshipLabelBox"/><text style="text-anchor: middle; dominant-baseline: middle; font-size: 12px;" y="600.5" x="885.158203125" id="rel7" class="er relationshipLabel"/><rect height="0" width="0" y="878.1248779296875" x="490.802001953125" class="er relationshipLabelBox"/><text style="text-anchor: middle; dominant-baseline: middle; font-size: 12px;" y="878.1248779296875" x="490.802001953125" id="rel8" class="er relationshipLabel"/><rect height="0" width="0" y="476.606689453125" x="714.232421875" class="er relationshipLabelBox"/><text style="text-anchor: middle; dominant-baseline: middle; font-size: 12px;" y="476.606689453125" x="714.232421875" id="rel9" class="er relationshipLabel"/><rect height="0" width="0" y="836.1466064453125" x="870.8419189453125" class="er relationshipLabelBox"/><text style="text-anchor: middle; dominant-baseline: middle; font-size: 12px;" y="836.1466064453125" x="870.8419189453125" id="rel10" class="er relationshipLabel"/><rect height="0" width="0" y="1096.9644775390625" x="671.9478149414062" class="er relationshipLabelBox"/><text style="text-anchor: middle; dominant-baseline: middle; font-size: 12px;" y="1096.9644775390625" x="671.9478149414062" id="rel11" class="er relationshipLabel"/><rect height="0" width="0" y="1096.9644775390625" x="756.5170288085938" class="er relationshipLabelBox"/><text style="text-anchor: middle; dominant-baseline: middle; font-size: 12px;" y="1096.9644775390625" x="756.5170288085938" id="rel12" class="er relationshipLabel"/><rect height="0" width="0" y="285.92767333984375" x="474.7181701660156" class="er relationshipLabelBox"/><text style="text-anchor: middle; dominant-baseline: middle; font-size: 12px;" y="285.92767333984375" x="474.7181701660156" id="rel13" class="er relationshipLabel"/><rect height="0" width="0" y="423.18878173828125" x="614.232421875" class="er relationshipLabelBox"/><text style="text-anchor: middle; dominant-baseline: middle; font-size: 12px;" y="423.18878173828125" x="614.232421875" id="rel14" class="er relationshipLabel"/></svg>